<?xml version="1.0" encoding="utf-8" standalone="no"?>
<!DOCTYPE svg PUBLIC "-//W3C//DTD SVG 1.1//EN"
  "http://www.w3.org/Graphics/SVG/1.1/DTD/svg11.dtd">
<svg xmlns:xlink="http://www.w3.org/1999/xlink" width="83.7pt" height="83.16pt" viewBox="0 0 83.7 83.16" xmlns="http://www.w3.org/2000/svg" version="1.1">
 <metadata>
  <rdf:RDF xmlns:dc="http://purl.org/dc/elements/1.1/" xmlns:cc="http://creativecommons.org/ns#" xmlns:rdf="http://www.w3.org/1999/02/22-rdf-syntax-ns#">
   <cc:Work>
    <dc:type rdf:resource="http://purl.org/dc/dcmitype/StillImage"/>
    <dc:date>2024-02-07T11:23:25.070563</dc:date>
    <dc:format>image/svg+xml</dc:format>
    <dc:creator>
     <cc:Agent>
      <dc:title>Matplotlib v3.8.2, https://matplotlib.org/</dc:title>
     </cc:Agent>
    </dc:creator>
   </cc:Work>
  </rdf:RDF>
 </metadata>
 <defs>
  <style type="text/css">*{stroke-linejoin: round; stroke-linecap: butt}</style>
 </defs>
 <g id="figure_1">
  <g id="patch_1">
   <path d="M 0 83.16 
L 83.7 83.16 
L 83.7 0 
L 0 0 
z
" style="fill: #ffffff"/>
  </g>
  <g id="axes_1">
   <g id="QuadContourSet_1">
    <path clip-path="url(#p611b1b57ac)" style="fill: none; stroke: #c23335; stroke-opacity: 0.5; stroke-width: 1.5"/>
    <path d="M 18.419687 21.840001 
L 18.20196 21 
L 18.051118 20.160001 
L 17.978037 19.320001 
L 18.002529 18.480001 
L 18.157924 17.64 
L 18.499336 16.800001 
L 18.600001 16.6426 
L 19.169351 15.960001 
L 19.445456 15.732985 
L 20.29091 15.253459 
L 20.670917 15.12 
L 21.136363 14.983716 
L 21.981819 14.84589 
L 22.827274 14.800199 
L 23.672728 14.825941 
L 24.518182 14.90981 
L 25.363637 15.043622 
L 25.718655 15.12 
L 26.209093 15.215939 
L 27.054546 15.419679 
L 27.900001 15.658504 
L 28.745455 15.934026 
L 28.815957 15.960001 
L 29.59091 16.220317 
L 30.436365 16.537282 
L 31.065604 16.800001 
L 31.281819 16.882662 
L 32.127274 17.234601 
L 32.972728 17.62575 
L 33.001554 17.64 
L 33.818183 18.011133 
L 34.663637 18.436833 
L 34.744461 18.480001 
L 35.509092 18.857135 
L 36.354547 19.318795 
L 36.356658 19.320001 
L 37.200001 19.767025 
L 37.873275 20.160001 
L 38.045456 20.253668 
L 38.89091 20.73884 
L 39.312869 21 
L 39.736365 21.245397 
L 40.581819 21.774011 
L 40.683023 21.840001 
L 41.427274 22.29641 
L 42.004058 22.680002 
L 42.272726 22.848839 
L 43.118181 23.412273 
L 43.272891 23.520001 
L 43.963635 23.976555 
L 44.503814 24.36 
L 44.80909 24.566666 
L 45.654544 25.176131 
L 45.686831 25.200001 
L 46.499999 25.77597 
L 46.850476 26.040002 
L 47.345453 26.398932 
L 47.971956 26.880001 
L 48.190908 27.042595 
L 49.036363 27.702461 
L 49.058409 27.720001 
L 49.881817 28.356435 
L 50.132948 28.560001 
L 50.727272 29.030235 
L 51.174867 29.400001 
L 51.572726 29.722334 
L 52.187394 30.240001 
L 52.418181 30.431517 
L 53.173248 31.080001 
L 53.263635 31.156854 
L 54.10909 31.894337 
L 54.138101 31.920001 
L 54.954545 32.638254 
L 55.089554 32.760001 
L 55.799999 33.400134 
L 56.017355 33.600001 
L 56.645454 34.179833 
L 56.92283 34.440001 
L 57.490907 34.977482 
L 57.806989 35.280001 
L 58.336363 35.793521 
L 58.670542 36.120001 
L 59.181818 36.628689 
L 59.513923 36.960001 
L 60.027272 37.484057 
L 60.337293 37.800001 
L 60.872726 38.36107 
L 61.140549 38.640001 
L 61.718181 39.261574 
L 61.923316 39.480001 
L 62.563637 40.187885 
L 62.684942 40.320001 
L 63.40909 41.142838 
L 63.42449 41.160001 
L 64.155003 41.999999 
L 64.254544 42.120425 
L 64.865837 42.839999 
L 65.099999 43.132105 
L 65.553397 43.679999 
L 65.945455 44.18461 
L 66.215641 44.519999 
L 66.790909 45.284448 
L 66.850119 45.359999 
L 67.475349 46.199999 
L 67.636362 46.432622 
L 68.077716 47.039999 
L 68.481818 47.645583 
L 68.646762 47.879999 
L 69.194346 48.719999 
L 69.327273 48.941341 
L 69.722191 49.559999 
L 70.172727 50.343264 
L 70.207569 50.399999 
L 70.680901 51.239999 
L 71.018181 51.913207 
L 71.10811 52.079999 
L 71.511556 52.919999 
L 71.863413 53.759999 
L 71.863634 53.760622 
L 72.188288 54.599999 
L 72.45658 55.439999 
L 72.667592 56.279999 
L 72.709091 56.526595 
L 72.81904 57.119998 
L 72.890957 57.959999 
L 72.863171 58.8 
L 72.709091 59.620892 
L 72.704982 59.639999 
L 72.349528 60.479998 
L 71.863634 61.128862 
L 71.670626 61.319999 
L 71.018181 61.780886 
L 70.172727 62.151265 
L 70.140659 62.16 
L 69.327273 62.348966 
L 68.481818 62.439453 
L 67.636362 62.44886 
L 66.790909 62.39388 
L 65.945455 62.285074 
L 65.273773 62.16 
L 65.099999 62.130568 
L 64.254544 61.944966 
L 63.40909 61.72405 
L 62.563637 61.467212 
L 62.140443 61.319999 
L 61.718181 61.186061 
L 60.872726 60.88603 
L 60.027272 60.55019 
L 59.86596 60.479998 
L 59.181818 60.207514 
L 58.336363 59.836421 
L 57.926417 59.639999 
L 57.490907 59.448155 
L 56.645454 59.043962 
L 56.176593 58.8 
L 55.799999 58.619047 
L 54.954545 58.181322 
L 54.558573 57.959999 
L 54.10909 57.726957 
L 53.263635 57.252928 
L 53.04029 57.119998 
L 52.418181 56.774993 
L 51.603691 56.279999 
L 51.572726 56.262381 
L 50.727272 55.76293 
L 50.224221 55.439999 
L 49.881817 55.233289 
L 49.036363 54.687248 
L 48.906933 54.599999 
L 48.190908 54.144009 
L 47.632234 53.759999 
L 47.345453 53.5729 
L 46.499999 52.986879 
L 46.406811 52.919999 
L 45.654544 52.405211 
L 45.209941 52.079999 
L 44.80909 51.799113 
L 44.059314 51.239999 
L 43.963635 51.171326 
L 43.118181 50.544383 
L 42.931709 50.399999 
L 42.272726 49.906652 
L 41.833389 49.559999 
L 41.427274 49.248713 
L 40.76991 48.719999 
L 40.581819 48.572347 
L 39.737587 47.879999 
L 39.736365 47.879016 
L 38.89091 47.189949 
L 38.71384 47.039999 
L 38.045456 46.482426 
L 37.718244 46.199999 
L 37.200001 45.757275 
L 36.748556 45.359999 
L 36.354547 45.015196 
L 35.802794 44.519999 
L 35.509092 44.256622 
L 34.879351 43.679999 
L 34.663637 43.481704 
L 33.976943 42.839999 
L 33.818183 42.690345 
L 33.094594 41.999999 
L 32.972728 41.882154 
L 32.231604 41.160001 
L 32.127274 41.056466 
L 31.387536 40.320001 
L 31.281819 40.212292 
L 30.56221 39.480001 
L 30.436365 39.348311 
L 29.755692 38.640001 
L 29.59091 38.462813 
L 28.968305 37.800001 
L 28.745455 37.553656 
L 28.200622 36.960001 
L 27.900001 36.618199 
L 27.453498 36.120001 
L 27.054546 35.653216 
L 26.728068 35.280001 
L 26.209093 34.654801 
L 26.02579 34.440001 
L 25.363637 33.61823 
L 25.348471 33.600001 
L 24.676324 32.760001 
L 24.518182 32.548765 
L 24.028205 31.920001 
L 23.672728 31.42893 
L 23.408655 31.080001 
L 22.827274 30.248712 
L 22.820877 30.240001 
L 22.236226 29.400001 
L 21.981819 28.999764 
L 21.68592 28.560001 
L 21.171285 27.720001 
L 21.136363 27.658278 
L 20.666503 26.880001 
L 20.29091 26.184511 
L 20.207267 26.040002 
L 19.767595 25.200001 
L 19.445456 24.502932 
L 19.374095 24.36 
L 19.007137 23.520001 
L 18.693072 22.680002 
L 18.600001 22.377068 
L 18.419687 21.840001 
z
" clip-path="url(#p611b1b57ac)" style="fill: none; stroke: #c23335; stroke-opacity: 0.5; stroke-width: 1.5"/>
    <path d="M 24.325125 25.200001 
L 24.154705 24.36 
L 24.082257 23.520001 
L 24.141475 22.680002 
L 24.392636 21.840001 
L 24.518182 21.619888 
L 25.014144 21 
L 25.363637 20.730525 
L 26.209093 20.33331 
L 26.982681 20.160001 
L 27.054546 20.1471 
L 27.900001 20.097685 
L 28.745455 20.137194 
L 28.913146 20.160001 
L 29.59091 20.246776 
L 30.436365 20.410422 
L 31.281819 20.619423 
L 32.127274 20.870025 
L 32.500331 21 
L 32.972728 21.15491 
L 33.818183 21.468305 
L 34.663637 21.816832 
L 34.714497 21.840001 
L 35.509092 22.181633 
L 36.354547 22.57846 
L 36.554212 22.680002 
L 37.200001 22.991229 
L 38.045456 23.432359 
L 38.202668 23.520001 
L 38.89091 23.885094 
L 39.71912 24.36 
L 39.736365 24.369456 
L 40.581819 24.856711 
L 41.136431 25.200001 
L 41.427274 25.372876 
L 42.272726 25.904289 
L 42.478 26.040002 
L 43.118181 26.448157 
L 43.75477 26.880001 
L 43.963635 27.01731 
L 44.80909 27.599085 
L 44.97759 27.720001 
L 45.654544 28.192769 
L 46.153677 28.560001 
L 46.499999 28.809194 
L 47.282843 29.400001 
L 47.345453 29.44644 
L 48.190908 30.091052 
L 48.379175 30.240001 
L 49.036363 30.753164 
L 49.439378 31.080001 
L 49.881817 31.435876 
L 50.463908 31.920001 
L 50.727272 32.138324 
L 51.455749 32.760001 
L 51.572726 32.859996 
L 52.417365 33.600001 
L 52.418181 33.600721 
L 53.263635 34.354996 
L 53.357106 34.440001 
L 54.10909 35.131297 
L 54.268464 35.280001 
L 54.954545 35.930314 
L 55.152587 36.120001 
L 55.799999 36.753101 
L 56.010306 36.960001 
L 56.645454 37.601177 
L 56.842093 37.800001 
L 57.490907 38.476572 
L 57.648073 38.640001 
L 58.336363 39.381912 
L 58.428023 39.480001 
L 59.181404 40.320001 
L 59.181818 40.320482 
L 59.91616 41.160001 
L 60.027272 41.293965 
L 60.624438 41.999999 
L 60.872726 42.311266 
L 61.304719 42.839999 
L 61.718181 43.379544 
L 61.955057 43.679999 
L 62.563637 44.507603 
L 62.573056 44.519999 
L 63.172215 45.359999 
L 63.40909 45.72114 
L 63.736231 46.199999 
L 64.254544 47.030544 
L 64.260717 47.039999 
L 64.760037 47.879999 
L 65.099999 48.517792 
L 65.213649 48.719999 
L 65.62816 49.559999 
L 65.945455 50.299137 
L 65.991468 50.399999 
L 66.303465 51.239999 
L 66.548875 52.079999 
L 66.717843 52.919999 
L 66.7897 53.759999 
L 66.726113 54.599999 
L 66.457238 55.439999 
L 65.945455 56.171306 
L 65.833556 56.279999 
L 65.099999 56.745504 
L 64.254544 57.029205 
L 63.60978 57.119998 
L 63.40909 57.143265 
L 62.563637 57.146872 
L 62.274359 57.119998 
L 61.718181 57.071308 
L 60.872726 56.934504 
L 60.027272 56.748534 
L 59.181818 56.519208 
L 58.436704 56.279999 
L 58.336363 56.249663 
L 57.490907 55.953025 
L 56.645454 55.622824 
L 56.224698 55.439999 
L 55.799999 55.265772 
L 54.954545 54.886461 
L 54.369938 54.599999 
L 54.10909 54.478838 
L 53.263635 54.055956 
L 52.716685 53.759999 
L 52.418181 53.606262 
L 51.572726 53.141435 
L 51.196305 52.919999 
L 50.727272 52.656288 
L 49.881817 52.147774 
L 49.77456 52.079999 
L 49.036363 51.632288 
L 48.43157 51.239999 
L 48.190908 51.089435 
L 47.345453 50.53321 
L 47.15219 50.399999 
L 46.499999 49.964573 
L 45.927709 49.559999 
L 45.654544 49.37203 
L 44.80909 48.761371 
L 44.753537 48.719999 
L 43.963635 48.144966 
L 43.616482 47.879999 
L 43.118181 47.506395 
L 42.522238 47.039999 
L 42.272726 46.847237 
L 41.466562 46.199999 
L 41.427274 46.168707 
L 40.581819 45.48091 
L 40.43751 45.359999 
L 39.736365 44.774765 
L 39.43977 44.519999 
L 38.89091 44.048016 
L 38.47321 43.679999 
L 38.045456 43.30083 
L 37.535793 42.839999 
L 37.200001 42.533008 
L 36.625915 41.999999 
L 36.354547 41.743972 
L 35.742366 41.160001 
L 35.509092 40.932738 
L 34.884293 40.320001 
L 34.663637 40.097873 
L 34.051202 39.480001 
L 33.818183 39.237451 
L 33.242929 38.640001 
L 32.972728 38.348973 
L 32.459644 37.800001 
L 32.127274 37.429286 
L 31.701851 36.960001 
L 31.281819 36.474458 
L 30.970404 36.120001 
L 30.436365 35.479644 
L 30.266523 35.280001 
L 29.591759 34.440001 
L 29.59091 34.438887 
L 28.934069 33.600001 
L 28.745455 33.341457 
L 28.307377 32.760001 
L 27.900001 32.176309 
L 27.714438 31.920001 
L 27.152481 31.080001 
L 27.054546 30.920437 
L 26.617902 30.240001 
L 26.209093 29.536665 
L 26.125672 29.400001 
L 25.66633 28.560001 
L 25.363637 27.935033 
L 25.253404 27.720001 
L 24.885345 26.880001 
L 24.574541 26.040002 
L 24.518182 25.840035 
L 24.325125 25.200001 
z
" clip-path="url(#p611b1b57ac)" style="fill: none; stroke: #c23335; stroke-opacity: 0.5; stroke-width: 1.5"/>
    <path d="M 28.654356 26.880001 
L 28.702651 26.040002 
L 28.745455 25.893657 
L 29.03157 25.200001 
L 29.59091 24.615185 
L 30.046716 24.36 
L 30.436365 24.216306 
L 31.281819 24.082768 
L 32.127274 24.084875 
L 32.972728 24.181012 
L 33.818183 24.347835 
L 33.861528 24.36 
L 34.663637 24.577457 
L 35.509092 24.850343 
L 36.354547 25.162969 
L 36.441276 25.200001 
L 37.200001 25.513131 
L 38.045456 25.893975 
L 38.340006 26.040002 
L 38.89091 26.304901 
L 39.736365 26.742515 
L 39.982782 26.880001 
L 40.581819 27.205338 
L 41.427274 27.694419 
L 41.468914 27.720001 
L 42.272726 28.202491 
L 42.835289 28.560001 
L 43.118181 28.736569 
L 43.963635 29.2912 
L 44.121952 29.400001 
L 44.80909 29.865542 
L 45.336552 30.240001 
L 45.654544 30.463716 
L 46.494261 31.080001 
L 46.499999 31.084196 
L 47.345453 31.721161 
L 47.599933 31.920001 
L 48.190908 32.381726 
L 48.659742 32.760001 
L 49.036363 33.065443 
L 49.677456 33.600001 
L 49.881817 33.772188 
L 50.656153 34.440001 
L 50.727272 34.502311 
L 51.572726 35.256344 
L 51.598861 35.280001 
L 52.418181 36.036141 
L 52.507843 36.120001 
L 53.263635 36.844534 
L 53.383014 36.960001 
L 54.10909 37.683685 
L 54.225267 37.800001 
L 54.954545 38.556502 
L 55.035034 38.640001 
L 55.799999 39.466737 
L 55.812326 39.480001 
L 56.559135 40.320001 
L 56.645454 40.422567 
L 57.273647 41.160001 
L 57.490907 41.431142 
L 57.954332 41.999999 
L 58.336363 42.501636 
L 58.599513 42.839999 
L 59.181818 43.646033 
L 59.206988 43.679999 
L 59.777736 44.519999 
L 60.027272 44.923511 
L 60.306291 45.359999 
L 60.788204 46.199999 
L 60.872726 46.370351 
L 61.218799 47.039999 
L 61.591034 47.879999 
L 61.718181 48.243334 
L 61.893237 48.719999 
L 62.106796 49.559999 
L 62.209131 50.399999 
L 62.149815 51.239999 
L 61.828637 52.079999 
L 61.718181 52.224598 
L 60.872726 52.886603 
L 60.786058 52.919999 
L 60.027272 53.122537 
L 59.181818 53.183985 
L 58.336363 53.133072 
L 57.490907 53.001015 
L 57.154514 52.919999 
L 56.645454 52.801404 
L 55.799999 52.550591 
L 54.954545 52.258676 
L 54.506401 52.079999 
L 54.10909 51.926745 
L 53.263635 51.562339 
L 52.580212 51.239999 
L 52.418181 51.165817 
L 51.572726 50.743192 
L 50.934068 50.399999 
L 50.727272 50.291757 
L 49.881817 49.818348 
L 49.448934 49.559999 
L 49.036363 49.319291 
L 48.190908 48.797223 
L 48.072246 48.719999 
L 47.345453 48.25588 
L 46.786661 47.879999 
L 46.499999 47.689797 
L 45.654544 47.102819 
L 45.567549 47.039999 
L 44.80909 46.497725 
L 44.409709 46.199999 
L 43.963635 45.869037 
L 43.302694 45.359999 
L 43.118181 45.217822 
L 42.272726 44.545364 
L 42.241617 44.519999 
L 41.427274 43.853195 
L 41.221451 43.679999 
L 40.581819 43.136649 
L 40.240498 42.839999 
L 39.736365 42.395352 
L 39.296311 41.999999 
L 38.89091 41.628412 
L 38.386987 41.160001 
L 38.045456 40.834373 
L 37.511112 40.320001 
L 37.200001 40.011141 
L 36.667746 39.480001 
L 36.354547 39.15589 
L 35.856387 38.640001 
L 35.509092 38.264944 
L 35.076972 37.800001 
L 34.663637 37.333589 
L 34.329865 36.960001 
L 33.818183 36.355886 
L 33.615867 36.120001 
L 32.972728 35.324381 
L 32.93624 35.280001 
L 32.289106 34.440001 
L 32.127274 34.213384 
L 31.678282 33.600001 
L 31.281819 33.011696 
L 31.107182 32.760001 
L 30.578155 31.920001 
L 30.436365 31.667511 
L 30.09406 31.080001 
L 29.661191 30.240001 
L 29.59091 30.075969 
L 29.288135 29.400001 
L 28.984183 28.560001 
L 28.760922 27.720001 
L 28.745455 27.592278 
L 28.654356 26.880001 
z
" clip-path="url(#p611b1b57ac)" style="fill: none; stroke: #c23335; stroke-opacity: 0.5; stroke-width: 1.5"/>
    <path d="M 32.907331 30.240001 
L 32.876362 29.400001 
L 32.972728 29.0165 
L 33.157052 28.560001 
L 33.818183 27.993225 
L 34.663637 27.739294 
L 35.509092 27.730599 
L 36.354547 27.854883 
L 37.200001 28.061897 
L 38.045456 28.327715 
L 38.659429 28.560001 
L 38.89091 28.647245 
L 39.736365 29.019089 
L 40.536 29.400001 
L 40.581819 29.421786 
L 41.427274 29.870394 
L 42.085158 30.240001 
L 42.272726 30.345421 
L 43.118181 30.854613 
L 43.472083 31.080001 
L 43.963635 31.394001 
L 44.752556 31.920001 
L 44.80909 31.958033 
L 45.654544 32.555019 
L 45.933955 32.760001 
L 46.499999 33.180133 
L 47.047905 33.600001 
L 47.345453 33.832049 
L 48.103889 34.440001 
L 48.190908 34.511414 
L 49.036363 35.222483 
L 49.103176 35.280001 
L 49.881817 35.96807 
L 50.050848 36.120001 
L 50.727272 36.747805 
L 50.953047 36.960001 
L 51.572726 37.565031 
L 51.811442 37.800001 
L 52.418181 38.424272 
L 52.627084 38.640001 
L 53.263635 39.331506 
L 53.400437 39.480001 
L 54.10909 40.294505 
L 54.131389 40.320001 
L 54.814714 41.160001 
L 54.954545 41.346159 
L 55.451929 41.999999 
L 55.799999 42.498931 
L 56.042044 42.839999 
L 56.579107 43.679999 
L 56.645454 43.801428 
L 57.047755 44.519999 
L 57.455175 45.359999 
L 57.490907 45.460769 
L 57.761387 46.199999 
L 57.954485 47.039999 
L 57.977496 47.879999 
L 57.69286 48.719999 
L 57.490907 48.950828 
L 56.645454 49.421241 
L 55.799999 49.537076 
L 54.954545 49.474319 
L 54.10909 49.307405 
L 53.263635 49.071158 
L 52.418181 48.782163 
L 52.268998 48.719999 
L 51.572726 48.431697 
L 50.727272 48.046742 
L 50.398378 47.879999 
L 49.881817 47.619179 
L 49.036363 47.161617 
L 48.828903 47.039999 
L 48.190908 46.666556 
L 47.431635 46.199999 
L 47.345453 46.146806 
L 46.499999 45.593083 
L 46.159858 45.359999 
L 45.654544 45.011255 
L 44.968891 44.519999 
L 44.80909 44.404005 
L 43.963635 43.767809 
L 43.850975 43.679999 
L 43.118181 43.099752 
L 42.79881 42.839999 
L 42.272726 42.402773 
L 41.798796 41.999999 
L 41.427274 41.675434 
L 40.847722 41.160001 
L 40.581819 40.915428 
L 39.943097 40.320001 
L 39.736365 40.119446 
L 39.083112 39.480001 
L 38.89091 39.282958 
L 38.266581 38.640001 
L 38.045456 38.399925 
L 37.492923 37.800001 
L 37.200001 37.462416 
L 36.762143 36.960001 
L 36.354547 36.460061 
L 36.074839 36.120001 
L 35.509092 35.379339 
L 35.432199 35.280001 
L 34.843497 34.440001 
L 34.663637 34.153746 
L 34.308452 33.600001 
L 33.827333 32.760001 
L 33.818183 32.740072 
L 33.431042 31.920001 
L 33.111951 31.080001 
L 32.972728 30.502183 
L 32.907331 30.240001 
z
" clip-path="url(#p611b1b57ac)" style="fill: none; stroke: #c23335; stroke-opacity: 0.5; stroke-width: 1.5"/>
    <path d="M 37.916825 34.440001 
L 37.643199 33.600001 
L 37.595135 32.760001 
L 38.045456 32.015851 
L 38.256546 31.920001 
L 38.89091 31.797929 
L 39.736365 31.869006 
L 39.927126 31.920001 
L 40.581819 32.103372 
L 41.427274 32.423597 
L 42.195456 32.760001 
L 42.272726 32.795318 
L 43.118181 33.255661 
L 43.717153 33.600001 
L 43.963635 33.747581 
L 44.80909 34.292364 
L 45.023974 34.440001 
L 45.654544 34.890848 
L 46.182621 35.280001 
L 46.499999 35.525366 
L 47.249675 36.120001 
L 47.345453 36.200387 
L 48.190908 36.928691 
L 48.226199 36.960001 
L 49.036363 37.719667 
L 49.120877 37.800001 
L 49.881817 38.570809 
L 49.949504 38.640001 
L 50.711925 39.480001 
L 50.727272 39.498891 
L 51.392485 40.320001 
L 51.572726 40.568821 
L 52.001702 41.160001 
L 52.418181 41.811955 
L 52.53906 41.999999 
L 52.953294 42.839999 
L 53.255054 43.679999 
L 53.263635 43.846528 
L 53.298731 44.519999 
L 53.263635 44.615039 
L 52.560828 45.359999 
L 52.418181 45.411664 
L 51.572726 45.445273 
L 51.099876 45.359999 
L 50.727272 45.289008 
L 49.881817 45.003195 
L 49.036363 44.661361 
L 48.747111 44.519999 
L 48.190908 44.238006 
L 47.345453 43.775803 
L 47.188522 43.679999 
L 46.499999 43.244368 
L 45.884072 42.839999 
L 45.654544 42.682544 
L 44.80909 42.074995 
L 44.710289 41.999999 
L 43.963635 41.408144 
L 43.658059 41.160001 
L 43.118181 40.698534 
L 42.68393 40.320001 
L 42.272726 39.939524 
L 41.783523 39.480001 
L 41.427274 39.121595 
L 40.953599 38.640001 
L 40.581819 38.231233 
L 40.19196 37.800001 
L 39.736365 37.249275 
L 39.497415 36.960001 
L 38.89091 36.148266 
L 38.869727 36.120001 
L 38.352393 35.280001 
L 38.045456 34.686487 
L 37.916825 34.440001 
z
" clip-path="url(#p611b1b57ac)" style="fill: none; stroke: #c23335; stroke-opacity: 0.5; stroke-width: 1.5"/>
    <path clip-path="url(#p611b1b57ac)" style="fill: none; stroke: #c23335; stroke-opacity: 0.5; stroke-width: 1.5"/>
   </g>
  </g>
 </g>
 <defs>
  <clipPath id="p611b1b57ac">
   <rect x="0" y="-0" width="83.7" height="83.16"/>
  </clipPath>
 </defs>
</svg>
