<?xml version="1.0" encoding="utf-8" standalone="no"?>
<!DOCTYPE svg PUBLIC "-//W3C//DTD SVG 1.1//EN"
  "http://www.w3.org/Graphics/SVG/1.1/DTD/svg11.dtd">
<svg xmlns:xlink="http://www.w3.org/1999/xlink" width="99.82125pt" height="97.47625pt" viewBox="0 0 99.82125 97.47625" xmlns="http://www.w3.org/2000/svg" version="1.1">
 <metadata>
  <rdf:RDF xmlns:dc="http://purl.org/dc/elements/1.1/" xmlns:cc="http://creativecommons.org/ns#" xmlns:rdf="http://www.w3.org/1999/02/22-rdf-syntax-ns#">
   <cc:Work>
    <dc:type rdf:resource="http://purl.org/dc/dcmitype/StillImage"/>
    <dc:date>2024-02-07T07:22:28.232446</dc:date>
    <dc:format>image/svg+xml</dc:format>
    <dc:creator>
     <cc:Agent>
      <dc:title>Matplotlib v3.8.2, https://matplotlib.org/</dc:title>
     </cc:Agent>
    </dc:creator>
   </cc:Work>
  </rdf:RDF>
 </metadata>
 <defs>
  <style type="text/css">*{stroke-linejoin: round; stroke-linecap: butt}</style>
 </defs>
 <g id="figure_1">
  <g id="patch_1">
   <path d="M 0 97.47625 
L 99.82125 97.47625 
L 99.82125 0 
L 0 0 
z
" style="fill: #ffffff"/>
  </g>
  <g id="axes_1">
   <g id="patch_2">
    <path d="M 16.12125 83.16 
L 99.82125 83.16 
L 99.82125 0 
L 16.12125 0 
z
" style="fill: #ffffff"/>
   </g>
   <g id="PathCollection_1">
    <defs>
     <path id="m9c68df0273" d="M 0 1.5 
C 0.397805 1.5 0.77937 1.341951 1.06066 1.06066 
C 1.341951 0.77937 1.5 0.397805 1.5 0 
C 1.5 -0.397805 1.341951 -0.77937 1.06066 -1.06066 
C 0.77937 -1.341951 0.397805 -1.5 0 -1.5 
C -0.397805 -1.5 -0.77937 -1.341951 -1.06066 -1.06066 
C -1.341951 -0.77937 -1.5 -0.397805 -1.5 0 
C -1.5 0.397805 -1.341951 0.77937 -1.06066 1.06066 
C -0.77937 1.341951 -0.397805 1.5 0 1.5 
z
" style="stroke: #b22222"/>
    </defs>
    <g clip-path="url(#pb72438302f)">
     <use xlink:href="#m9c68df0273" x="54.919438" y="28.56281" style="fill: #b22222; stroke: #b22222"/>
     <use xlink:href="#m9c68df0273" x="72.05039" y="43.375064" style="fill: #b22222; stroke: #b22222"/>
     <use xlink:href="#m9c68df0273" x="71.416264" y="39.184581" style="fill: #b22222; stroke: #b22222"/>
     <use xlink:href="#m9c68df0273" x="43.106128" y="19.993309" style="fill: #b22222; stroke: #b22222"/>
     <use xlink:href="#m9c68df0273" x="81.566856" y="54.641465" style="fill: #b22222; stroke: #b22222"/>
     <use xlink:href="#m9c68df0273" x="70.970093" y="52.634792" style="fill: #b22222; stroke: #b22222"/>
     <use xlink:href="#m9c68df0273" x="66.263783" y="31.122316" style="fill: #b22222; stroke: #b22222"/>
     <use xlink:href="#m9c68df0273" x="24.128678" y="8.405418" style="fill: #b22222; stroke: #b22222"/>
     <use xlink:href="#m9c68df0273" x="62.893839" y="38.814543" style="fill: #b22222; stroke: #b22222"/>
     <use xlink:href="#m9c68df0273" x="61.157989" y="41.850298" style="fill: #b22222; stroke: #b22222"/>
     <use xlink:href="#m9c68df0273" x="61.864717" y="22.96312" style="fill: #b22222; stroke: #b22222"/>
     <use xlink:href="#m9c68df0273" x="47.445463" y="32.283449" style="fill: #b22222; stroke: #b22222"/>
     <use xlink:href="#m9c68df0273" x="46.649925" y="30.526238" style="fill: #b22222; stroke: #b22222"/>
     <use xlink:href="#m9c68df0273" x="79.55133" y="64.098822" style="fill: #b22222; stroke: #b22222"/>
     <use xlink:href="#m9c68df0273" x="81.418799" y="35.12325" style="fill: #b22222; stroke: #b22222"/>
     <use xlink:href="#m9c68df0273" x="76.196279" y="52.219427" style="fill: #b22222; stroke: #b22222"/>
     <use xlink:href="#m9c68df0273" x="75.200101" y="48.824799" style="fill: #b22222; stroke: #b22222"/>
     <use xlink:href="#m9c68df0273" x="50.202971" y="31.427452" style="fill: #b22222; stroke: #b22222"/>
     <use xlink:href="#m9c68df0273" x="61.818561" y="36.570056" style="fill: #b22222; stroke: #b22222"/>
     <use xlink:href="#m9c68df0273" x="76.858211" y="47.783942" style="fill: #b22222; stroke: #b22222"/>
     <use xlink:href="#m9c68df0273" x="22.970024" y="-1" style="fill: #b22222; stroke: #b22222"/>
     <use xlink:href="#m9c68df0273" x="24.464764" y="-1" style="fill: #b22222; stroke: #b22222"/>
     <use xlink:href="#m9c68df0273" x="96.253555" y="53.718949" style="fill: #b22222; stroke: #b22222"/>
     <use xlink:href="#m9c68df0273" x="66.510052" y="34.543986" style="fill: #b22222; stroke: #b22222"/>
     <use xlink:href="#m9c68df0273" x="41.278647" y="20.546546" style="fill: #b22222; stroke: #b22222"/>
     <use xlink:href="#m9c68df0273" x="47.341729" y="30.358424" style="fill: #b22222; stroke: #b22222"/>
     <use xlink:href="#m9c68df0273" x="72.492839" y="45.164585" style="fill: #b22222; stroke: #b22222"/>
     <use xlink:href="#m9c68df0273" x="56.349907" y="20.56737" style="fill: #b22222; stroke: #b22222"/>
     <use xlink:href="#m9c68df0273" x="70.595659" y="40.450983" style="fill: #b22222; stroke: #b22222"/>
     <use xlink:href="#m9c68df0273" x="46.893206" y="10.231527" style="fill: #b22222; stroke: #b22222"/>
     <use xlink:href="#m9c68df0273" x="59.461263" y="28.604045" style="fill: #b22222; stroke: #b22222"/>
     <use xlink:href="#m9c68df0273" x="54.098926" y="32.064924" style="fill: #b22222; stroke: #b22222"/>
     <use xlink:href="#m9c68df0273" x="43.721816" y="27.484291" style="fill: #b22222; stroke: #b22222"/>
     <use xlink:href="#m9c68df0273" x="44.798255" y="31.979472" style="fill: #b22222; stroke: #b22222"/>
     <use xlink:href="#m9c68df0273" x="68.173672" y="47.40276" style="fill: #b22222; stroke: #b22222"/>
     <use xlink:href="#m9c68df0273" x="65.101822" y="30.151081" style="fill: #b22222; stroke: #b22222"/>
     <use xlink:href="#m9c68df0273" x="77.731739" y="52.838559" style="fill: #b22222; stroke: #b22222"/>
     <use xlink:href="#m9c68df0273" x="62.147972" y="48.02326" style="fill: #b22222; stroke: #b22222"/>
     <use xlink:href="#m9c68df0273" x="64.040829" y="32.767524" style="fill: #b22222; stroke: #b22222"/>
     <use xlink:href="#m9c68df0273" x="65.747061" y="39.334429" style="fill: #b22222; stroke: #b22222"/>
     <use xlink:href="#m9c68df0273" x="86.103051" y="53.959747" style="fill: #b22222; stroke: #b22222"/>
     <use xlink:href="#m9c68df0273" x="69.509148" y="40.52843" style="fill: #b22222; stroke: #b22222"/>
     <use xlink:href="#m9c68df0273" x="60.466045" y="37.671406" style="fill: #b22222; stroke: #b22222"/>
     <use xlink:href="#m9c68df0273" x="60.315812" y="37.691946" style="fill: #b22222; stroke: #b22222"/>
     <use xlink:href="#m9c68df0273" x="62.155755" y="41.109319" style="fill: #b22222; stroke: #b22222"/>
     <use xlink:href="#m9c68df0273" x="63.843624" y="42.246372" style="fill: #b22222; stroke: #b22222"/>
     <use xlink:href="#m9c68df0273" x="56.919385" y="32.211109" style="fill: #b22222; stroke: #b22222"/>
     <use xlink:href="#m9c68df0273" x="75.902582" y="36.543056" style="fill: #b22222; stroke: #b22222"/>
     <use xlink:href="#m9c68df0273" x="48.118357" y="21.570595" style="fill: #b22222; stroke: #b22222"/>
     <use xlink:href="#m9c68df0273" x="66.170279" y="41.033165" style="fill: #b22222; stroke: #b22222"/>
     <use xlink:href="#m9c68df0273" x="70.637227" y="37.196123" style="fill: #b22222; stroke: #b22222"/>
    </g>
   </g>
   <g id="matplotlib.axis_1">
    <g id="xtick_1">
     <g id="line2d_1">
      <defs>
       <path id="m51c806ba58" d="M 0 0 
L 0 3.5 
" style="stroke: #000000; stroke-width: 1.5"/>
      </defs>
      <g>
       <use xlink:href="#m51c806ba58" x="30.07125" y="83.16" style="stroke: #000000; stroke-width: 1.5"/>
      </g>
     </g>
     <g id="text_1">
      <text style="font: 8px 'Arial', sans-serif, serif; text-anchor: middle" x="30.07125" y="95.88625" transform="rotate(-0 30.07125 95.88625)">−2</text>
     </g>
    </g>
    <g id="xtick_2">
     <g id="line2d_2">
      <g>
       <use xlink:href="#m51c806ba58" x="85.87125" y="83.16" style="stroke: #000000; stroke-width: 1.5"/>
      </g>
     </g>
     <g id="text_2">
      <text style="font: 8px 'Arial', sans-serif, serif; text-anchor: middle" x="85.87125" y="95.88625" transform="rotate(-0 85.87125 95.88625)">2</text>
     </g>
    </g>
   </g>
   <g id="matplotlib.axis_2">
    <g id="ytick_1">
     <g id="line2d_3">
      <defs>
       <path id="med829ef76e" d="M 0 0 
L -3.5 0 
" style="stroke: #000000; stroke-width: 1.5"/>
      </defs>
      <g>
       <use xlink:href="#med829ef76e" x="16.12125" y="69.3" style="stroke: #000000; stroke-width: 1.5"/>
      </g>
     </g>
     <g id="text_3">
      <text style="font: 8px 'Arial', sans-serif, serif; text-anchor: end" x="9.12125" y="72.163125" transform="rotate(-0 9.12125 72.163125)">−2</text>
     </g>
    </g>
    <g id="ytick_2">
     <g id="line2d_4">
      <g>
       <use xlink:href="#med829ef76e" x="16.12125" y="13.86" style="stroke: #000000; stroke-width: 1.5"/>
      </g>
     </g>
     <g id="text_4">
      <text style="font: 8px 'Arial', sans-serif, serif; text-anchor: end" x="9.12125" y="16.723125" transform="rotate(-0 9.12125 16.723125)">2</text>
     </g>
    </g>
   </g>
   <g id="QuadContourSet_1">
    <path clip-path="url(#pb72438302f)" style="fill: none; stroke: #b22222; stroke-opacity: 0.5; stroke-width: 1.5"/>
    <path d="M 35.362257 17.64 
L 35.19407 16.800001 
L 35.119708 15.960001 
L 35.1711 15.12 
L 35.407157 14.28 
L 35.566706 13.990983 
L 35.990699 13.44 
L 36.41216 13.106069 
L 37.257613 12.710414 
L 37.736432 12.600001 
L 38.103069 12.531568 
L 38.948524 12.482711 
L 39.793978 12.52235 
L 40.386237 12.600001 
L 40.639432 12.630427 
L 41.484887 12.789497 
L 42.330343 12.992323 
L 43.175796 13.236133 
L 43.777862 13.44 
L 44.021251 13.515489 
L 44.866705 13.814578 
L 45.71216 14.149671 
L 46.00808 14.28 
L 46.557615 14.502176 
L 47.403069 14.877886 
L 47.898782 15.12 
L 48.248524 15.277377 
L 49.093978 15.689428 
L 49.602267 15.960001 
L 49.939433 16.125967 
L 50.784887 16.57376 
L 51.18 16.800001 
L 51.630342 17.039341 
L 52.475797 17.5254 
L 52.66377 17.64 
L 53.321251 18.013458 
L 54.072741 18.480001 
L 54.166706 18.534598 
L 55.01216 19.048277 
L 55.426955 19.320001 
L 55.857615 19.585055 
L 56.703069 20.147624 
L 56.721092 20.160001 
L 57.548524 20.695911 
L 57.983946 21 
L 58.393976 21.271296 
L 59.194459 21.840001 
L 59.239431 21.870407 
L 60.084885 22.458974 
L 60.383707 22.680002 
L 60.93034 23.066285 
L 61.5336 23.520001 
L 61.775794 23.694814 
L 62.621249 24.339183 
L 62.64797 24.36 
L 63.466703 24.974505 
L 63.751486 25.200001 
L 64.312158 25.62964 
L 64.821908 26.040002 
L 65.157613 26.302721 
L 65.862733 26.880001 
L 66.003067 26.992195 
L 66.848522 27.69292 
L 66.880638 27.720001 
L 67.693976 28.392299 
L 67.889627 28.560001 
L 68.539431 29.108479 
L 68.873899 29.400001 
L 69.384885 29.840558 
L 69.835441 30.240001 
L 70.23034 30.587881 
L 70.775898 31.080001 
L 71.075795 31.350029 
L 71.696603 31.920001 
L 71.921249 32.126812 
L 72.598622 32.760001 
L 72.766704 32.918265 
L 73.482764 33.600001 
L 73.612157 33.72466 
L 74.349599 34.440001 
L 74.457613 34.546513 
L 75.199479 35.280001 
L 75.303068 35.384596 
L 76.032539 36.120001 
L 76.148522 36.239963 
L 76.848701 36.960001 
L 76.993976 37.113987 
L 77.647665 37.800001 
L 77.839431 38.0084 
L 78.428923 38.640001 
L 78.684887 38.925323 
L 79.191725 39.480001 
L 79.53034 39.867355 
L 79.935077 40.320001 
L 80.375794 40.837633 
L 80.657717 41.160001 
L 81.221249 41.839945 
L 81.358079 41.999999 
L 82.038201 42.839999 
L 82.066705 42.876902 
L 82.711714 43.679999 
L 82.912159 43.947639 
L 83.359767 44.519999 
L 83.757612 45.068268 
L 83.979594 45.359999 
L 84.571711 46.199999 
L 84.603068 46.24748 
L 85.15631 47.039999 
L 85.448523 47.499333 
L 85.705588 47.879999 
L 86.222242 48.719999 
L 86.293977 48.847791 
L 86.721779 49.559999 
L 87.139431 50.339122 
L 87.174497 50.399999 
L 87.605662 51.239999 
L 87.983101 52.079999 
L 87.984884 52.084721 
L 88.3279 52.919999 
L 88.612 53.759999 
L 88.830341 54.591281 
L 88.832851 54.599999 
L 88.979611 55.439999 
L 89.024161 56.279999 
L 88.931253 57.119998 
L 88.830341 57.438668 
L 88.618527 57.959999 
L 87.984884 58.725736 
L 87.890049 58.8 
L 87.139431 59.203127 
L 86.293977 59.435262 
L 85.448523 59.51974 
L 84.603068 59.504341 
L 83.757612 59.416692 
L 82.912159 59.272661 
L 82.066705 59.080759 
L 81.221249 58.84449 
L 81.08839 58.8 
L 80.375794 58.581715 
L 79.53034 58.287378 
L 78.698394 57.959999 
L 78.684887 57.955121 
L 77.839431 57.616578 
L 76.993976 57.241498 
L 76.743314 57.119998 
L 76.148522 56.854714 
L 75.303068 56.441944 
L 74.996724 56.279999 
L 74.457613 56.016794 
L 73.612157 55.567196 
L 73.388589 55.439999 
L 72.766704 55.112007 
L 71.921249 54.623247 
L 71.882888 54.599999 
L 71.075795 54.144845 
L 70.452161 53.759999 
L 70.23034 53.632042 
L 69.384885 53.115698 
L 69.084462 52.919999 
L 68.539431 52.586846 
L 67.774903 52.079999 
L 67.693976 52.029428 
L 66.848522 51.480412 
L 66.502433 51.239999 
L 66.003067 50.911758 
L 65.278839 50.399999 
L 65.157613 50.318576 
L 64.312158 49.727856 
L 64.084062 49.559999 
L 63.466703 49.126485 
L 62.923451 48.719999 
L 62.621249 48.503259 
L 61.80226 47.879999 
L 61.775794 47.860606 
L 60.93034 47.227407 
L 60.692489 47.039999 
L 60.084885 46.577253 
L 59.613922 46.199999 
L 59.239431 45.90874 
L 58.565782 45.359999 
L 58.393976 45.223503 
L 57.548524 44.523373 
L 57.544503 44.519999 
L 56.703069 43.828647 
L 56.528807 43.679999 
L 55.857615 43.116895 
L 55.538369 42.839999 
L 55.01216 42.38909 
L 54.571101 41.999999 
L 54.166706 41.645949 
L 53.625279 41.160001 
L 53.321251 40.88796 
L 52.699485 40.320001 
L 52.475797 40.115369 
L 51.792585 39.480001 
L 51.630342 39.328208 
L 50.903707 38.640001 
L 50.784887 38.526267 
L 50.032212 37.800001 
L 49.939433 37.709108 
L 49.177695 36.960001 
L 49.093978 36.876028 
L 48.33996 36.120001 
L 48.248524 36.026059 
L 47.519028 35.280001 
L 47.403069 35.157919 
L 46.71513 34.440001 
L 46.557615 34.269995 
L 45.928716 33.600001 
L 45.71216 33.360281 
L 45.160468 32.760001 
L 44.866705 32.426321 
L 44.411303 31.920001 
L 44.021251 31.465144 
L 43.682406 31.080001 
L 43.175796 30.473168 
L 42.975243 30.240001 
L 42.330343 29.446089 
L 42.291608 29.400001 
L 41.615671 28.560001 
L 41.484887 28.386796 
L 40.959762 27.720001 
L 40.639432 27.282216 
L 40.331183 26.880001 
L 39.793978 26.121772 
L 39.733043 26.040002 
L 39.145296 25.200001 
L 38.948524 24.893661 
L 38.585076 24.36 
L 38.103069 23.580292 
L 38.063384 23.520001 
L 37.554928 22.680002 
L 37.257613 22.131756 
L 37.087795 21.840001 
L 36.652034 21 
L 36.41216 20.473713 
L 36.25746 20.160001 
L 35.903655 19.320001 
L 35.606331 18.480001 
L 35.566706 18.332976 
L 35.362257 17.64 
z
" clip-path="url(#pb72438302f)" style="fill: none; stroke: #b22222; stroke-opacity: 0.5; stroke-width: 1.5"/>
    <path d="M 42.249694 23.520001 
L 41.940574 22.680002 
L 41.709783 21.840001 
L 41.579873 21 
L 41.599612 20.160001 
L 41.872207 19.320001 
L 42.330343 18.75825 
L 42.739774 18.480001 
L 43.175796 18.293661 
L 44.021251 18.135842 
L 44.866705 18.126279 
L 45.71216 18.21557 
L 46.557615 18.377324 
L 46.938925 18.480001 
L 47.403069 18.598461 
L 48.248524 18.864213 
L 49.093978 19.169137 
L 49.458513 19.320001 
L 49.939433 19.508636 
L 50.784887 19.876116 
L 51.378725 20.160001 
L 51.630342 20.274337 
L 52.475797 20.691989 
L 53.051266 21 
L 53.321251 21.137782 
L 54.166706 21.599902 
L 54.576122 21.840001 
L 55.01216 22.084601 
L 55.857615 22.59059 
L 55.998973 22.680002 
L 56.703069 23.107429 
L 57.34011 23.520001 
L 57.548524 23.650162 
L 58.393976 24.204682 
L 58.619284 24.36 
L 59.239431 24.773654 
L 59.84396 25.200001 
L 60.084885 25.365188 
L 60.93034 25.971747 
L 61.022206 26.040002 
L 61.775794 26.586212 
L 62.162588 26.880001 
L 62.621249 27.221456 
L 63.262994 27.720001 
L 63.466703 27.875845 
L 64.312158 28.54708 
L 64.328095 28.560001 
L 65.157613 29.224584 
L 65.369304 29.400001 
L 66.003067 29.921401 
L 66.379068 30.240001 
L 66.848522 30.636803 
L 67.359766 31.080001 
L 67.693976 31.370384 
L 68.313344 31.920001 
L 68.539431 32.122042 
L 69.241362 32.760001 
L 69.384885 32.891996 
L 70.145034 33.600001 
L 70.23034 33.68079 
L 71.025247 34.440001 
L 71.075795 34.489328 
L 71.882584 35.280001 
L 71.921249 35.318908 
L 72.717334 36.120001 
L 72.766704 36.171263 
L 73.529504 36.960001 
L 73.612157 37.048625 
L 74.318806 37.800001 
L 74.457613 37.953819 
L 75.084666 38.640001 
L 75.303068 38.890345 
L 75.8262 39.480001 
L 76.148522 39.862512 
L 76.542205 40.320001 
L 76.993976 40.875602 
L 77.231129 41.160001 
L 77.839431 41.936082 
L 77.891026 41.999999 
L 78.528866 42.839999 
L 78.684887 43.061371 
L 79.137493 43.679999 
L 79.53034 44.263007 
L 79.710863 44.519999 
L 80.250266 45.359999 
L 80.375794 45.576735 
L 80.755102 46.199999 
L 81.213733 47.039999 
L 81.221249 47.05611 
L 81.628351 47.879999 
L 81.98527 48.719999 
L 82.066705 48.966964 
L 82.275445 49.559999 
L 82.47918 50.399999 
L 82.570699 51.239999 
L 82.495053 52.079999 
L 82.137584 52.919999 
L 82.066705 53.005972 
L 81.221249 53.621042 
L 80.781084 53.759999 
L 80.375794 53.850373 
L 79.53034 53.894698 
L 78.684887 53.830846 
L 78.283046 53.759999 
L 77.839431 53.685717 
L 76.993976 53.480089 
L 76.148522 53.228037 
L 75.303068 52.932978 
L 75.271334 52.919999 
L 74.457613 52.604997 
L 73.612157 52.244521 
L 73.264448 52.079999 
L 72.766704 51.85643 
L 71.921249 51.443641 
L 71.537279 51.239999 
L 71.075795 51.006938 
L 70.23034 50.54806 
L 69.975767 50.399999 
L 69.384885 50.071693 
L 68.539431 49.56772 
L 68.527131 49.559999 
L 67.693976 49.058681 
L 67.167002 48.719999 
L 66.848522 48.52287 
L 66.003067 47.969986 
L 65.871601 47.879999 
L 65.157613 47.407713 
L 64.632465 47.039999 
L 64.312158 46.822233 
L 63.466703 46.217284 
L 63.443283 46.199999 
L 62.621249 45.60889 
L 62.291342 45.359999 
L 61.775794 44.979266 
L 61.180543 44.519999 
L 60.93034 44.330136 
L 60.106815 43.679999 
L 60.084885 43.662891 
L 59.239431 42.989502 
L 59.057834 42.839999 
L 58.393976 42.298069 
L 58.039878 41.999999 
L 57.548524 41.587941 
L 57.051563 41.160001 
L 56.703069 40.859614 
L 56.090825 40.320001 
L 55.857615 40.113273 
L 55.156007 39.480001 
L 55.01216 39.34879 
L 54.245802 38.640001 
L 54.166706 38.565714 
L 53.359234 37.800001 
L 53.321251 37.763247 
L 52.495642 36.960001 
L 52.475797 36.940203 
L 51.654651 36.120001 
L 51.630342 36.094981 
L 50.83618 35.280001 
L 50.784887 35.22549 
L 50.040429 34.440001 
L 49.939433 34.329092 
L 49.267898 33.600001 
L 49.093978 33.402478 
L 48.519373 32.760001 
L 48.248524 32.441588 
L 47.795971 31.920001 
L 47.403069 31.441419 
L 47.099139 31.080001 
L 46.557615 30.395871 
L 46.430702 30.240001 
L 45.788388 29.400001 
L 45.71216 29.293068 
L 45.170326 28.560001 
L 44.866705 28.114658 
L 44.586544 27.720001 
L 44.039874 26.880001 
L 44.021251 26.848299 
L 43.522893 26.040002 
L 43.175796 25.413954 
L 43.050773 25.200001 
L 42.623634 24.36 
L 42.330343 23.692722 
L 42.249694 23.520001 
z
" clip-path="url(#pb72438302f)" style="fill: none; stroke: #b22222; stroke-opacity: 0.5; stroke-width: 1.5"/>
    <path d="M 46.528398 24.36 
L 46.557615 24.142811 
L 46.685335 23.520001 
L 47.403069 22.720462 
L 47.493174 22.680002 
L 48.248524 22.481515 
L 49.093978 22.463077 
L 49.939433 22.569292 
L 50.409595 22.680002 
L 50.784887 22.766563 
L 51.630342 23.032194 
L 52.475797 23.341751 
L 52.893864 23.520001 
L 53.321251 23.697819 
L 54.166706 24.089393 
L 54.701257 24.36 
L 55.01216 24.513874 
L 55.857615 24.966936 
L 56.262751 25.200001 
L 56.703069 25.448202 
L 57.548524 25.952985 
L 57.685454 26.040002 
L 58.393976 26.482292 
L 59.000493 26.880001 
L 59.239431 27.0347 
L 60.084885 27.607566 
L 60.243525 27.720001 
L 60.93034 28.2019 
L 61.420675 28.560001 
L 61.775794 28.818058 
L 62.548427 29.400001 
L 62.621249 29.454858 
L 63.466703 30.110823 
L 63.628259 30.240001 
L 64.312158 30.788363 
L 64.666262 31.080001 
L 65.157613 31.487862 
L 65.66658 31.920001 
L 66.003067 32.209425 
L 66.631514 32.760001 
L 66.848522 32.953603 
L 67.562876 33.600001 
L 67.693976 33.72144 
L 68.462022 34.440001 
L 68.539431 34.514533 
L 69.329892 35.280001 
L 69.384885 35.335104 
L 70.167017 36.120001 
L 70.23034 36.186116 
L 70.973537 36.960001 
L 71.075795 37.071404 
L 71.749207 37.800001 
L 71.921249 37.99586 
L 72.493379 38.640001 
L 72.766704 38.96568 
L 73.205008 39.480001 
L 73.612157 39.988654 
L 73.882614 40.320001 
L 74.457613 41.074599 
L 74.524252 41.160001 
L 75.125905 41.999999 
L 75.303068 42.271732 
L 75.685448 42.839999 
L 76.148522 43.59873 
L 76.19993 43.679999 
L 76.6536 44.519999 
L 76.993976 45.246247 
L 77.049661 45.359999 
L 77.353624 46.199999 
L 77.553599 47.039999 
L 77.591965 47.879999 
L 77.328324 48.719999 
L 76.993976 49.087922 
L 76.148522 49.491858 
L 75.415244 49.559999 
L 75.303068 49.567048 
L 75.233331 49.559999 
L 74.457613 49.482789 
L 73.612157 49.303252 
L 72.766704 49.060182 
L 71.921249 48.766982 
L 71.809379 48.719999 
L 71.075795 48.419793 
L 70.23034 48.040503 
L 69.90921 47.879999 
L 69.384885 47.624148 
L 68.539431 47.180388 
L 68.292656 47.039999 
L 67.693976 46.706732 
L 66.848522 46.209071 
L 66.834102 46.199999 
L 66.003067 45.68706 
L 65.499222 45.359999 
L 65.157613 45.141348 
L 64.312158 44.574504 
L 64.234547 44.519999 
L 63.466703 43.98687 
L 63.042584 43.679999 
L 62.621249 43.377071 
L 61.901396 42.839999 
L 61.775794 42.746404 
L 60.93034 42.096427 
L 60.808693 41.999999 
L 60.084885 41.425418 
L 59.759761 41.160001 
L 59.239431 40.732457 
L 58.749253 40.320001 
L 58.393976 40.017565 
L 57.774722 39.480001 
L 57.548524 39.280319 
L 56.834223 38.640001 
L 56.703069 38.519814 
L 55.926273 37.800001 
L 55.857615 37.734617 
L 55.049824 36.960001 
L 55.01216 36.922684 
L 54.204228 36.120001 
L 54.166706 36.081272 
L 53.389237 35.280001 
L 53.321251 35.206802 
L 52.604988 34.440001 
L 52.475797 34.294689 
L 51.852014 33.600001 
L 51.630342 33.339123 
L 51.131249 32.760001 
L 50.784887 32.332772 
L 50.444049 31.920001 
L 49.939433 31.266419 
L 49.792221 31.080001 
L 49.178889 30.240001 
L 49.093978 30.111866 
L 48.607688 29.400001 
L 48.248524 28.821445 
L 48.080506 28.560001 
L 47.60852 27.720001 
L 47.403069 27.291763 
L 47.196973 26.880001 
L 46.864994 26.040002 
L 46.624247 25.200001 
L 46.557615 24.606667 
L 46.528398 24.36 
z
" clip-path="url(#pb72438302f)" style="fill: none; stroke: #b22222; stroke-opacity: 0.5; stroke-width: 1.5"/>
    <path d="M 51.44247 28.560001 
L 51.405404 27.720001 
L 51.630342 27.200115 
L 51.986351 26.880001 
L 52.475797 26.712213 
L 53.321251 26.702931 
L 54.166706 26.850641 
L 54.258328 26.880001 
L 55.01216 27.124895 
L 55.857615 27.45571 
L 56.442154 27.720001 
L 56.703069 27.839374 
L 57.548524 28.278111 
L 58.053633 28.560001 
L 58.393976 28.75208 
L 59.239431 29.261089 
L 59.454801 29.400001 
L 60.084885 29.8111 
L 60.720096 30.240001 
L 60.93034 30.384488 
L 61.775794 30.98943 
L 61.896908 31.080001 
L 62.621249 31.63168 
L 62.990551 31.920001 
L 63.466703 32.30088 
L 64.029005 32.760001 
L 64.312158 32.998339 
L 65.015387 33.600001 
L 65.157613 33.726239 
L 65.952102 34.440001 
L 66.003067 34.487812 
L 66.840895 35.280001 
L 66.848522 35.287583 
L 67.682873 36.120001 
L 67.693976 36.131729 
L 68.478548 36.960001 
L 68.539431 37.028555 
L 69.227837 37.800001 
L 69.384885 37.989177 
L 69.930069 38.640001 
L 70.23034 39.028496 
L 70.583957 39.480001 
L 71.075795 40.16664 
L 71.18758 40.320001 
L 71.717492 41.160001 
L 71.921249 41.541201 
L 72.172662 41.999999 
L 72.526928 42.839999 
L 72.753467 43.679999 
L 72.697488 44.519999 
L 71.921249 45.239767 
L 71.075795 45.340309 
L 70.23034 45.206855 
L 69.384885 44.966496 
L 68.539431 44.662754 
L 68.217074 44.519999 
L 67.693976 44.285992 
L 66.848522 43.867225 
L 66.507352 43.679999 
L 66.003067 43.400591 
L 65.157613 42.906557 
L 65.052936 42.839999 
L 64.312158 42.364265 
L 63.764725 41.999999 
L 63.466703 41.798481 
L 62.621249 41.205567 
L 62.559532 41.160001 
L 61.775794 40.571559 
L 61.449327 40.320001 
L 60.93034 39.910897 
L 60.395457 39.480001 
L 60.084885 39.222486 
L 59.394578 38.640001 
L 59.239431 38.504406 
L 58.444087 37.800001 
L 58.393976 37.753734 
L 57.548524 36.96566 
L 57.542525 36.960001 
L 56.703069 36.134551 
L 56.688332 36.120001 
L 55.878808 35.280001 
L 55.857615 35.256556 
L 55.116833 34.440001 
L 55.01216 34.316218 
L 54.401771 33.600001 
L 54.166706 33.301673 
L 53.734734 32.760001 
L 53.321251 32.194311 
L 53.117462 31.920001 
L 52.561203 31.080001 
L 52.475797 30.924874 
L 52.089699 30.240001 
L 51.692402 29.400001 
L 51.630342 29.186557 
L 51.44247 28.560001 
z
" clip-path="url(#pb72438302f)" style="fill: none; stroke: #b22222; stroke-opacity: 0.5; stroke-width: 1.5"/>
    <path d="M 58.237605 33.600001 
L 58.182687 32.760001 
L 58.393976 32.598758 
L 59.239431 32.637007 
L 59.555883 32.760001 
L 60.084885 32.993685 
L 60.93034 33.44931 
L 61.165599 33.600001 
L 61.775794 34.031761 
L 62.340703 34.440001 
L 62.621249 34.668048 
L 63.361564 35.280001 
L 63.466703 35.379938 
L 64.235678 36.120001 
L 64.312158 36.207044 
L 64.968406 36.960001 
L 65.157613 37.226562 
L 65.563118 37.800001 
L 66.003067 38.606661 
L 66.021261 38.640001 
L 66.003067 38.855372 
L 65.157613 39.464486 
L 64.312158 39.121652 
L 63.466703 38.721767 
L 63.33433 38.640001 
L 62.621249 38.15519 
L 62.110422 37.800001 
L 61.775794 37.539395 
L 61.045184 36.960001 
L 60.93034 36.855816 
L 60.130337 36.120001 
L 60.084885 36.070889 
L 59.359813 35.280001 
L 59.239431 35.12021 
L 58.729587 34.440001 
L 58.393976 33.867125 
L 58.237605 33.600001 
z
" clip-path="url(#pb72438302f)" style="fill: none; stroke: #b22222; stroke-opacity: 0.5; stroke-width: 1.5"/>
    <path clip-path="url(#pb72438302f)" style="fill: none; stroke: #b22222; stroke-opacity: 0.5; stroke-width: 1.5"/>
   </g>
   <g id="patch_3">
    <path d="M 16.12125 83.16 
L 16.12125 0 
" style="fill: none; stroke: #000000; stroke-width: 1.5; stroke-linejoin: miter; stroke-linecap: square"/>
   </g>
   <g id="patch_4">
    <path d="M 16.12125 83.16 
L 99.82125 83.16 
" style="fill: none; stroke: #000000; stroke-width: 1.5; stroke-linejoin: miter; stroke-linecap: square"/>
   </g>
  </g>
 </g>
 <defs>
  <clipPath id="pb72438302f">
   <rect x="16.12125" y="0" width="83.7" height="83.16"/>
  </clipPath>
 </defs>
</svg>
