<?xml version="1.0" encoding="utf-8" standalone="no"?>
<!DOCTYPE svg PUBLIC "-//W3C//DTD SVG 1.1//EN"
  "http://www.w3.org/Graphics/SVG/1.1/DTD/svg11.dtd">
<svg xmlns:xlink="http://www.w3.org/1999/xlink" width="95.01625pt" height="94.47625pt" viewBox="0 0 95.01625 94.47625" xmlns="http://www.w3.org/2000/svg" version="1.1">
 <metadata>
  <rdf:RDF xmlns:dc="http://purl.org/dc/elements/1.1/" xmlns:cc="http://creativecommons.org/ns#" xmlns:rdf="http://www.w3.org/1999/02/22-rdf-syntax-ns#">
   <cc:Work>
    <dc:type rdf:resource="http://purl.org/dc/dcmitype/StillImage"/>
    <dc:date>2024-02-07T11:27:48.725714</dc:date>
    <dc:format>image/svg+xml</dc:format>
    <dc:creator>
     <cc:Agent>
      <dc:title>Matplotlib v3.8.2, https://matplotlib.org/</dc:title>
     </cc:Agent>
    </dc:creator>
   </cc:Work>
  </rdf:RDF>
 </metadata>
 <defs>
  <style type="text/css">*{stroke-linejoin: round; stroke-linecap: butt}</style>
 </defs>
 <g id="figure_1">
  <g id="patch_1">
   <path d="M 0 94.47625 
L 95.01625 94.47625 
L 95.01625 0 
L 0 0 
z
" style="fill: #ffffff"/>
  </g>
  <g id="axes_1">
   <g id="patch_2">
    <path d="M 11.31625 83.16 
L 95.01625 83.16 
L 95.01625 0 
L 11.31625 0 
z
" style="fill: #ffffff"/>
   </g>
   <g id="PathCollection_1">
    <defs>
     <path id="m5e60f4fa10" d="M 0 1.5 
C 0.397805 1.5 0.77937 1.341951 1.06066 1.06066 
C 1.341951 0.77937 1.5 0.397805 1.5 0 
C 1.5 -0.397805 1.341951 -0.77937 1.06066 -1.06066 
C 0.77937 -1.341951 0.397805 -1.5 0 -1.5 
C -0.397805 -1.5 -0.77937 -1.341951 -1.06066 -1.06066 
C -1.341951 -0.77937 -1.5 -0.397805 -1.5 0 
C -1.5 0.397805 -1.341951 0.77937 -1.06066 1.06066 
C -0.77937 1.341951 -0.397805 1.5 0 1.5 
z
" style="stroke: #5b82b3"/>
    </defs>
    <g clip-path="url(#p8413ceedf7)">
     <use xlink:href="#m5e60f4fa10" x="38.647074" y="45.497924" style="fill: #5b82b3; stroke: #5b82b3"/>
     <use xlink:href="#m5e60f4fa10" x="34.972794" y="65.268949" style="fill: #5b82b3; stroke: #5b82b3"/>
     <use xlink:href="#m5e60f4fa10" x="36.164295" y="45.384114" style="fill: #5b82b3; stroke: #5b82b3"/>
     <use xlink:href="#m5e60f4fa10" x="38.41563" y="54.292632" style="fill: #5b82b3; stroke: #5b82b3"/>
     <use xlink:href="#m5e60f4fa10" x="40.501884" y="48.775261" style="fill: #5b82b3; stroke: #5b82b3"/>
     <use xlink:href="#m5e60f4fa10" x="45.196142" y="49.870116" style="fill: #5b82b3; stroke: #5b82b3"/>
     <use xlink:href="#m5e60f4fa10" x="67.222342" y="36.668635" style="fill: #5b82b3; stroke: #5b82b3"/>
     <use xlink:href="#m5e60f4fa10" x="50.027511" y="47.673008" style="fill: #5b82b3; stroke: #5b82b3"/>
     <use xlink:href="#m5e60f4fa10" x="32.141593" y="62.104602" style="fill: #5b82b3; stroke: #5b82b3"/>
     <use xlink:href="#m5e60f4fa10" x="41.336641" y="46.60339" style="fill: #5b82b3; stroke: #5b82b3"/>
     <use xlink:href="#m5e60f4fa10" x="53.583581" y="41.662742" style="fill: #5b82b3; stroke: #5b82b3"/>
     <use xlink:href="#m5e60f4fa10" x="68.024087" y="22.402134" style="fill: #5b82b3; stroke: #5b82b3"/>
     <use xlink:href="#m5e60f4fa10" x="59.639306" y="40.581591" style="fill: #5b82b3; stroke: #5b82b3"/>
     <use xlink:href="#m5e60f4fa10" x="54.963899" y="17.173496" style="fill: #5b82b3; stroke: #5b82b3"/>
     <use xlink:href="#m5e60f4fa10" x="55.125897" y="30.71595" style="fill: #5b82b3; stroke: #5b82b3"/>
     <use xlink:href="#m5e60f4fa10" x="57.56373" y="23.508625" style="fill: #5b82b3; stroke: #5b82b3"/>
     <use xlink:href="#m5e60f4fa10" x="42.495002" y="34.844597" style="fill: #5b82b3; stroke: #5b82b3"/>
     <use xlink:href="#m5e60f4fa10" x="49.282555" y="46.928408" style="fill: #5b82b3; stroke: #5b82b3"/>
     <use xlink:href="#m5e60f4fa10" x="35.109222" y="56.134609" style="fill: #5b82b3; stroke: #5b82b3"/>
     <use xlink:href="#m5e60f4fa10" x="49.882982" y="50.083297" style="fill: #5b82b3; stroke: #5b82b3"/>
     <use xlink:href="#m5e60f4fa10" x="69.301256" y="25.182705" style="fill: #5b82b3; stroke: #5b82b3"/>
     <use xlink:href="#m5e60f4fa10" x="36.602592" y="60.955626" style="fill: #5b82b3; stroke: #5b82b3"/>
     <use xlink:href="#m5e60f4fa10" x="40.165112" y="59.04781" style="fill: #5b82b3; stroke: #5b82b3"/>
     <use xlink:href="#m5e60f4fa10" x="39.708223" y="53.101456" style="fill: #5b82b3; stroke: #5b82b3"/>
     <use xlink:href="#m5e60f4fa10" x="38.951445" y="50.253286" style="fill: #5b82b3; stroke: #5b82b3"/>
     <use xlink:href="#m5e60f4fa10" x="30.796547" y="43.981261" style="fill: #5b82b3; stroke: #5b82b3"/>
     <use xlink:href="#m5e60f4fa10" x="53.790195" y="27.90111" style="fill: #5b82b3; stroke: #5b82b3"/>
     <use xlink:href="#m5e60f4fa10" x="44.918694" y="38.72827" style="fill: #5b82b3; stroke: #5b82b3"/>
     <use xlink:href="#m5e60f4fa10" x="63.715411" y="43.193389" style="fill: #5b82b3; stroke: #5b82b3"/>
     <use xlink:href="#m5e60f4fa10" x="45.028559" y="51.712903" style="fill: #5b82b3; stroke: #5b82b3"/>
     <use xlink:href="#m5e60f4fa10" x="25.557148" y="57.049003" style="fill: #5b82b3; stroke: #5b82b3"/>
     <use xlink:href="#m5e60f4fa10" x="42.357092" y="51.333702" style="fill: #5b82b3; stroke: #5b82b3"/>
     <use xlink:href="#m5e60f4fa10" x="69.088597" y="34.20805" style="fill: #5b82b3; stroke: #5b82b3"/>
     <use xlink:href="#m5e60f4fa10" x="32.656319" y="59.656606" style="fill: #5b82b3; stroke: #5b82b3"/>
     <use xlink:href="#m5e60f4fa10" x="41.020577" y="37.795933" style="fill: #5b82b3; stroke: #5b82b3"/>
     <use xlink:href="#m5e60f4fa10" x="49.878961" y="36.339348" style="fill: #5b82b3; stroke: #5b82b3"/>
     <use xlink:href="#m5e60f4fa10" x="82.647994" y="26.258226" style="fill: #5b82b3; stroke: #5b82b3"/>
     <use xlink:href="#m5e60f4fa10" x="55.617177" y="40.728691" style="fill: #5b82b3; stroke: #5b82b3"/>
     <use xlink:href="#m5e60f4fa10" x="49.350881" y="41.822367" style="fill: #5b82b3; stroke: #5b82b3"/>
     <use xlink:href="#m5e60f4fa10" x="55.796477" y="21.666233" style="fill: #5b82b3; stroke: #5b82b3"/>
     <use xlink:href="#m5e60f4fa10" x="52.114335" y="15.283106" style="fill: #5b82b3; stroke: #5b82b3"/>
     <use xlink:href="#m5e60f4fa10" x="53.924299" y="14.209259" style="fill: #5b82b3; stroke: #5b82b3"/>
     <use xlink:href="#m5e60f4fa10" x="52.374417" y="14.277379" style="fill: #5b82b3; stroke: #5b82b3"/>
     <use xlink:href="#m5e60f4fa10" x="43.432349" y="10.421879" style="fill: #5b82b3; stroke: #5b82b3"/>
     <use xlink:href="#m5e60f4fa10" x="43.564117" y="9.72043" style="fill: #5b82b3; stroke: #5b82b3"/>
     <use xlink:href="#m5e60f4fa10" x="52.491029" y="12.477527" style="fill: #5b82b3; stroke: #5b82b3"/>
     <use xlink:href="#m5e60f4fa10" x="46.431038" y="13.217249" style="fill: #5b82b3; stroke: #5b82b3"/>
     <use xlink:href="#m5e60f4fa10" x="54.968227" y="10.603932" style="fill: #5b82b3; stroke: #5b82b3"/>
     <use xlink:href="#m5e60f4fa10" x="57.908333" y="17.731778" style="fill: #5b82b3; stroke: #5b82b3"/>
     <use xlink:href="#m5e60f4fa10" x="50.455636" y="11.365807" style="fill: #5b82b3; stroke: #5b82b3"/>
    </g>
   </g>
   <g id="matplotlib.axis_1">
    <g id="text_1">
     <text style="font: 8px 'Arial', sans-serif, serif; text-anchor: middle" x="53.16625" y="92.88625" transform="rotate(-0 53.16625 92.88625)">dim 1</text>
    </g>
   </g>
   <g id="matplotlib.axis_2">
    <g id="text_2">
     <text style="font: 8px 'Arial', sans-serif, serif; text-anchor: middle" x="5.72625" y="41.58" transform="rotate(-90 5.72625 41.58)">dim 2</text>
    </g>
   </g>
   <g id="QuadContourSet_1">
    <path clip-path="url(#p8413ceedf7)" style="fill: none; stroke: #5b82b3; stroke-opacity: 0.5; stroke-width: 1.5"/>
    <path d="M 28.194392 54.599999 
L 28.164144 53.759999 
L 28.159998 52.919999 
L 28.180317 52.079999 
L 28.223874 51.239999 
L 28.225341 51.221466 
L 28.284427 50.399999 
L 28.364328 49.559999 
L 28.463296 48.719999 
L 28.581236 47.879999 
L 28.718341 47.039999 
L 28.875089 46.199999 
L 29.052247 45.359999 
L 29.070795 45.280372 
L 29.232887 44.519999 
L 29.430812 43.679999 
L 29.649139 42.839999 
L 29.889514 41.999999 
L 29.916251 41.912793 
L 30.128998 41.160001 
L 30.387451 40.320001 
L 30.669833 39.480001 
L 30.761706 39.223517 
L 30.955734 38.640001 
L 31.256453 37.800001 
L 31.584366 36.960001 
L 31.60716 36.904231 
L 31.906801 36.120001 
L 32.255135 35.280001 
L 32.452613 34.833298 
L 32.616275 34.440001 
L 32.98715 33.600001 
L 33.298069 32.94689 
L 33.382393 32.760001 
L 33.778626 31.920001 
L 34.143524 31.205445 
L 34.204657 31.080001 
L 34.629843 30.240001 
L 34.988978 29.582147 
L 35.084527 29.400001 
L 35.543165 28.560001 
L 35.834432 28.059412 
L 36.025509 27.720001 
L 36.523185 26.880001 
L 36.679887 26.626636 
L 37.033367 26.040002 
L 37.525343 25.274708 
L 37.572452 25.200001 
L 38.116455 24.36 
L 38.370796 23.986901 
L 38.685184 23.520001 
L 39.216251 22.771324 
L 39.280682 22.680002 
L 39.888552 21.840001 
L 40.061705 21.609341 
L 40.519866 21 
L 40.90716 20.504831 
L 41.179215 20.160001 
L 41.752615 19.457285 
L 41.866424 19.320001 
L 42.581181 18.480001 
L 42.598069 18.460415 
L 43.321919 17.64 
L 43.443524 17.505049 
L 44.098374 16.800001 
L 44.288978 16.597909 
L 44.913781 15.960001 
L 45.134433 15.736867 
L 45.772774 15.12 
L 45.979887 14.920616 
L 46.681719 14.28 
L 46.825342 14.148647 
L 47.649159 13.44 
L 47.670797 13.421244 
L 48.516251 12.729123 
L 48.686703 12.600001 
L 49.361706 12.079274 
L 49.813806 11.760002 
L 50.20716 11.475477 
L 51.052615 10.920938 
L 51.054177 10.919999 
L 51.898069 10.395222 
L 52.470435 10.08 
L 52.743524 9.923426 
L 53.588976 9.492369 
L 54.159366 9.240001 
L 54.434431 9.111967 
L 55.279885 8.773985 
L 56.12534 8.493885 
L 56.480387 8.399999 
L 56.970794 8.261481 
L 57.816249 8.083897 
L 58.661703 7.968644 
L 59.507158 7.918861 
L 60.352613 7.939958 
L 61.198067 8.039932 
L 62.043522 8.229889 
L 62.544332 8.399999 
L 62.888976 8.520984 
L 63.734431 8.930388 
L 64.219419 9.240001 
L 64.579885 9.487744 
L 65.267419 10.08 
L 65.42534 10.230667 
L 66.034233 10.919999 
L 66.270795 11.225927 
L 66.634388 11.760002 
L 67.116249 12.596912 
L 67.117874 12.600001 
L 67.511548 13.44 
L 67.83364 14.28 
L 67.961704 14.678611 
L 68.09833 15.12 
L 68.31457 15.960001 
L 68.4861 16.800001 
L 68.618375 17.64 
L 68.715924 18.480001 
L 68.782492 19.320001 
L 68.807157 19.849672 
L 68.82215 20.160001 
L 68.836489 21 
L 68.825673 21.840001 
L 68.807157 22.286663 
L 68.79235 22.680002 
L 68.739773 23.520001 
L 68.667397 24.36 
L 68.575732 25.200001 
L 68.464981 26.040002 
L 68.335058 26.880001 
L 68.185588 27.720001 
L 68.015908 28.560001 
L 67.961704 28.801166 
L 67.838572 29.400001 
L 67.647633 30.240001 
L 67.436703 31.080001 
L 67.20425 31.920001 
L 67.116249 32.214232 
L 66.965838 32.760001 
L 66.715194 33.600001 
L 66.44137 34.440001 
L 66.270795 34.925869 
L 66.155424 35.280001 
L 65.863418 36.120001 
L 65.545226 36.960001 
L 65.42534 37.258265 
L 65.221848 37.800001 
L 64.883679 38.640001 
L 64.579885 39.337643 
L 64.521554 39.480001 
L 64.161473 40.320001 
L 63.768823 41.160001 
L 63.734431 41.230867 
L 63.380714 41.999999 
L 62.961139 42.839999 
L 62.888976 42.978906 
L 62.541457 43.679999 
L 62.090936 44.519999 
L 62.043522 44.605533 
L 61.641723 45.359999 
L 61.198067 46.130439 
L 61.159324 46.199999 
L 60.677373 47.039999 
L 60.352613 47.570085 
L 60.167694 47.879999 
L 59.641872 48.719999 
L 59.507158 48.927188 
L 59.103654 49.559999 
L 58.661703 50.213726 
L 58.537355 50.399999 
L 57.956469 51.239999 
L 57.816249 51.435858 
L 57.357706 52.079999 
L 56.970794 52.599162 
L 56.731373 52.919999 
L 56.12534 53.700215 
L 56.07851 53.759999 
L 55.40735 54.599999 
L 55.279885 54.755213 
L 54.708772 55.439999 
L 54.434431 55.760028 
L 53.978462 56.279999 
L 53.588976 56.714616 
L 53.214602 57.119998 
L 52.743524 57.622025 
L 52.414243 57.959999 
L 51.898069 58.484432 
L 51.573095 58.8 
L 51.052615 59.303184 
L 50.685218 59.639999 
L 50.20716 60.078853 
L 49.742608 60.479998 
L 49.361706 60.811255 
L 48.734604 61.319999 
L 48.516251 61.499434 
L 47.670797 62.142992 
L 47.64676 62.16 
L 46.825342 62.75497 
L 46.452167 62.999999 
L 45.979887 63.319265 
L 45.134433 63.832419 
L 45.120656 63.839999 
L 44.288978 64.316037 
L 43.561706 64.679999 
L 43.443524 64.741889 
L 42.598069 65.132084 
L 41.752615 65.463411 
L 41.579658 65.52 
L 40.90716 65.75378 
L 40.061705 65.988547 
L 39.216251 66.164312 
L 38.370796 66.279791 
L 37.525343 66.331688 
L 36.679887 66.314481 
L 35.834432 66.220039 
L 34.988978 66.037142 
L 34.143524 65.750751 
L 33.651985 65.52 
L 33.298069 65.345126 
L 32.452613 64.795164 
L 32.309041 64.679999 
L 31.60716 64.061748 
L 31.397277 63.839999 
L 30.761706 63.080207 
L 30.703167 62.999999 
L 30.156658 62.16 
L 29.916251 61.724307 
L 29.7117 61.319999 
L 29.348157 60.479998 
L 29.070795 59.69713 
L 29.051428 59.639999 
L 28.805571 58.8 
L 28.608236 57.959999 
L 28.45331 57.119998 
L 28.335707 56.279999 
L 28.251214 55.439999 
L 28.225341 55.051112 
L 28.194392 54.599999 
z
" clip-path="url(#p8413ceedf7)" style="fill: none; stroke: #5b82b3; stroke-opacity: 0.5; stroke-width: 1.5"/>
    <path d="M 33.260867 51.239999 
L 33.194493 50.399999 
L 33.16494 49.559999 
L 33.168813 48.719999 
L 33.203439 47.879999 
L 33.26679 47.039999 
L 33.298069 46.752661 
L 33.355174 46.199999 
L 33.466852 45.359999 
L 33.602035 44.519999 
L 33.760344 43.679999 
L 33.941814 42.839999 
L 34.143524 42.013649 
L 34.146706 41.999999 
L 34.363948 41.160001 
L 34.603297 40.320001 
L 34.865997 39.480001 
L 34.988978 39.117446 
L 35.144649 38.640001 
L 35.439998 37.800001 
L 35.760287 36.960001 
L 35.834432 36.777265 
L 36.092543 36.120001 
L 36.446421 35.280001 
L 36.679887 34.76111 
L 36.820721 34.440001 
L 37.21015 33.600001 
L 37.525343 32.963587 
L 37.624334 32.760001 
L 38.052314 31.920001 
L 38.370796 31.332172 
L 38.505898 31.080001 
L 38.976567 30.240001 
L 39.216251 29.833475 
L 39.4708 29.400001 
L 39.989613 28.560001 
L 40.061705 28.447129 
L 40.527625 27.720001 
L 40.90716 27.155974 
L 41.094908 26.880001 
L 41.688693 26.040002 
L 41.752615 25.951979 
L 42.308768 25.200001 
L 42.598069 24.822655 
L 42.962228 24.36 
L 43.443524 23.766687 
L 43.650671 23.520001 
L 44.288978 22.778141 
L 44.377137 22.680002 
L 45.134433 21.852454 
L 45.146437 21.840001 
L 45.965865 21 
L 45.979887 20.98578 
L 46.825342 20.177397 
L 46.84486 20.160001 
L 47.670797 19.424634 
L 47.798255 19.320001 
L 48.516251 18.727823 
L 48.845737 18.480001 
L 49.361706 18.087825 
L 50.015447 17.64 
L 50.20716 17.506516 
L 51.052615 16.98004 
L 51.38278 16.800001 
L 51.898069 16.511418 
L 52.743524 16.105384 
L 53.107587 15.960001 
L 53.588976 15.760513 
L 54.434431 15.482361 
L 55.279885 15.277393 
L 56.12534 15.149894 
L 56.726771 15.12 
L 56.970794 15.107168 
L 57.177644 15.12 
L 57.816249 15.16112 
L 58.661703 15.327298 
L 59.507158 15.62808 
L 60.124081 15.960001 
L 60.352613 16.09599 
L 61.198067 16.784977 
L 61.212715 16.800001 
L 61.925454 17.64 
L 62.043522 17.805897 
L 62.449468 18.480001 
L 62.854679 19.320001 
L 62.888976 19.405753 
L 63.160311 20.160001 
L 63.395604 21 
L 63.572011 21.840001 
L 63.697702 22.680002 
L 63.734431 23.048839 
L 63.779747 23.520001 
L 63.823528 24.36 
L 63.832602 25.200001 
L 63.809896 26.040002 
L 63.757668 26.880001 
L 63.734431 27.121064 
L 63.679639 27.720001 
L 63.577493 28.560001 
L 63.451486 29.400001 
L 63.302152 30.240001 
L 63.129607 31.080001 
L 62.933569 31.920001 
L 62.888976 32.091004 
L 62.722474 32.760001 
L 62.491641 33.600001 
L 62.237851 34.440001 
L 62.043522 35.029375 
L 61.964108 35.280001 
L 61.677555 36.120001 
L 61.366754 36.960001 
L 61.198067 37.385029 
L 61.038702 37.800001 
L 60.694584 38.640001 
L 60.352613 39.414926 
L 60.324626 39.480001 
L 59.945464 40.320001 
L 59.537456 41.160001 
L 59.507158 41.219764 
L 59.119007 41.999999 
L 58.671067 42.839999 
L 58.661703 42.856938 
L 58.212043 43.679999 
L 57.816249 44.360369 
L 57.723775 44.519999 
L 57.218434 45.359999 
L 56.970794 45.75236 
L 56.687405 46.199999 
L 56.128688 47.039999 
L 56.12534 47.044909 
L 55.549925 47.879999 
L 55.279885 48.255597 
L 54.939884 48.719999 
L 54.434431 49.385526 
L 54.298404 49.559999 
L 53.624623 50.399999 
L 53.588976 50.44357 
L 52.915074 51.239999 
L 52.743524 51.437974 
L 52.163288 52.079999 
L 51.898069 52.368229 
L 51.363901 52.919999 
L 51.052615 53.237648 
L 50.509147 53.759999 
L 50.20716 54.048405 
L 49.588108 54.599999 
L 49.361706 54.801612 
L 48.585596 55.439999 
L 48.516251 55.497337 
L 47.670797 56.140125 
L 47.467021 56.279999 
L 46.825342 56.727381 
L 46.191839 57.119998 
L 45.979887 57.254198 
L 45.134433 57.725294 
L 44.643357 57.959999 
L 44.288978 58.134841 
L 43.443524 58.482626 
L 42.598069 58.760812 
L 42.434775 58.8 
L 41.752615 58.971531 
L 40.90716 59.103964 
L 40.061705 59.150284 
L 39.216251 59.100094 
L 38.370796 58.938472 
L 37.957704 58.8 
L 37.525343 58.643951 
L 36.679887 58.183758 
L 36.378281 57.959999 
L 35.834432 57.50283 
L 35.477677 57.119998 
L 34.988978 56.502093 
L 34.842092 56.279999 
L 34.372507 55.439999 
L 34.143524 54.932165 
L 34.01005 54.599999 
L 33.734374 53.759999 
L 33.523586 52.919999 
L 33.368341 52.079999 
L 33.298069 51.538831 
L 33.260867 51.239999 
z
" clip-path="url(#p8413ceedf7)" style="fill: none; stroke: #5b82b3; stroke-opacity: 0.5; stroke-width: 1.5"/>
    <path d="M 37.497316 49.559999 
L 37.298535 48.719999 
L 37.166873 47.879999 
L 37.092439 47.039999 
L 37.067464 46.199999 
L 37.085874 45.359999 
L 37.142962 44.519999 
L 37.235155 43.679999 
L 37.359815 42.839999 
L 37.515107 41.999999 
L 37.525343 41.954022 
L 37.700064 41.160001 
L 37.911718 40.320001 
L 38.149671 39.480001 
L 38.370796 38.778134 
L 38.414095 38.640001 
L 38.703494 37.800001 
L 39.01774 36.960001 
L 39.216251 36.469277 
L 39.357754 36.120001 
L 39.722164 35.280001 
L 40.061705 34.548631 
L 40.112602 34.440001 
L 40.52891 33.600001 
L 40.90716 32.881177 
L 40.972011 32.760001 
L 41.443326 31.920001 
L 41.752615 31.39626 
L 41.944048 31.080001 
L 42.474986 30.240001 
L 42.598069 30.052776 
L 43.041407 29.400001 
L 43.443524 28.830581 
L 43.642823 28.560001 
L 44.282246 27.720001 
L 44.288978 27.711383 
L 44.971895 26.880001 
L 45.134433 26.687119 
L 45.713781 26.040002 
L 45.979887 25.748556 
L 46.51791 25.200001 
L 46.825342 24.890845 
L 47.399169 24.36 
L 47.670797 24.110704 
L 48.379579 23.520001 
L 48.516251 23.406332 
L 49.361706 22.777189 
L 49.511119 22.680002 
L 50.20716 22.22356 
L 50.890191 21.840001 
L 51.052615 21.747506 
L 51.898069 21.353106 
L 52.743524 21.044173 
L 52.921832 21 
L 53.588976 20.829964 
L 54.434431 20.7209 
L 55.279885 20.732279 
L 56.12534 20.887128 
L 56.429151 21 
L 56.970794 21.228733 
L 57.816249 21.817286 
L 57.839914 21.840001 
L 58.566549 22.680002 
L 58.661703 22.818457 
L 59.045798 23.520001 
L 59.390541 24.36 
L 59.507158 24.74271 
L 59.627805 25.200001 
L 59.784541 26.040002 
L 59.880601 26.880001 
L 59.924462 27.720001 
L 59.922775 28.560001 
L 59.880706 29.400001 
L 59.802223 30.240001 
L 59.690288 31.080001 
L 59.547019 31.920001 
L 59.507158 32.111184 
L 59.373435 32.760001 
L 59.172482 33.600001 
L 58.945059 34.440001 
L 58.691138 35.280001 
L 58.661703 35.367953 
L 58.411556 36.120001 
L 58.107394 36.960001 
L 57.816249 37.701457 
L 57.777495 37.800001 
L 57.422979 38.640001 
L 57.043157 39.480001 
L 56.970794 39.630652 
L 56.636991 40.320001 
L 56.205124 41.160001 
L 56.12534 41.307465 
L 55.744695 41.999999 
L 55.279885 42.801404 
L 55.256938 42.839999 
L 54.737182 43.679999 
L 54.434431 44.147648 
L 54.185366 44.519999 
L 53.600816 45.359999 
L 53.588976 45.3765 
L 52.973568 46.199999 
L 52.743524 46.498054 
L 52.30359 47.039999 
L 51.898069 47.526544 
L 51.584976 47.879999 
L 51.052615 48.468796 
L 50.808517 48.719999 
L 50.20716 49.329881 
L 49.960345 49.559999 
L 49.361706 50.113285 
L 49.019772 50.399999 
L 48.516251 50.820997 
L 47.955695 51.239999 
L 47.670797 51.453594 
L 46.825342 52.01027 
L 46.700936 52.079999 
L 45.979887 52.489508 
L 45.134433 52.888096 
L 45.046123 52.919999 
L 44.288978 53.199984 
L 43.443524 53.418276 
L 42.598069 53.532684 
L 41.752615 53.526872 
L 40.90716 53.376783 
L 40.061705 53.047925 
L 39.852436 52.919999 
L 39.216251 52.464247 
L 38.839257 52.079999 
L 38.370796 51.48954 
L 38.215742 51.239999 
L 37.798999 50.399999 
L 37.525343 49.649782 
L 37.497316 49.559999 
z
" clip-path="url(#p8413ceedf7)" style="fill: none; stroke: #5b82b3; stroke-opacity: 0.5; stroke-width: 1.5"/>
    <path d="M 41.614757 46.199999 
L 41.286786 45.359999 
L 41.089195 44.519999 
L 40.992766 43.679999 
L 40.976664 42.839999 
L 41.025837 41.999999 
L 41.129373 41.160001 
L 41.279381 40.320001 
L 41.47022 39.480001 
L 41.697993 38.640001 
L 41.752615 38.468701 
L 41.975083 37.800001 
L 42.286509 36.960001 
L 42.598069 36.192712 
L 42.629158 36.120001 
L 43.023376 35.280001 
L 43.442059 34.440001 
L 43.443524 34.437274 
L 43.919673 33.600001 
L 44.288978 32.980798 
L 44.430306 32.760001 
L 44.993796 31.920001 
L 45.134433 31.719301 
L 45.619954 31.080001 
L 45.979887 30.621008 
L 46.308818 30.240001 
L 46.825342 29.657008 
L 47.080577 29.400001 
L 47.670797 28.817344 
L 47.969278 28.560001 
L 48.516251 28.094838 
L 49.034243 27.720001 
L 49.361706 27.484841 
L 50.20716 26.990858 
L 50.463449 26.880001 
L 51.052615 26.624676 
L 51.898069 26.395358 
L 52.743524 26.326599 
L 53.588976 26.465191 
L 54.425871 26.880001 
L 54.434431 26.885426 
L 55.190434 27.720001 
L 55.279885 27.860679 
L 55.596806 28.560001 
L 55.840695 29.400001 
L 55.973979 30.240001 
L 56.020056 31.080001 
L 55.995798 31.920001 
L 55.91343 32.760001 
L 55.781838 33.600001 
L 55.607409 34.440001 
L 55.394632 35.280001 
L 55.279885 35.662418 
L 55.136531 36.120001 
L 54.837972 36.960001 
L 54.510046 37.800001 
L 54.434431 37.975174 
L 54.133094 38.640001 
L 53.725652 39.480001 
L 53.588976 39.74215 
L 53.269714 40.320001 
L 52.78144 41.160001 
L 52.743524 41.221516 
L 52.230249 41.999999 
L 51.898069 42.48429 
L 51.633347 42.839999 
L 51.052615 43.594744 
L 50.980291 43.679999 
L 50.246935 44.519999 
L 50.20716 44.564337 
L 49.411434 45.359999 
L 49.361706 45.408816 
L 48.516251 46.136365 
L 48.42879 46.199999 
L 47.670797 46.746642 
L 47.173795 47.039999 
L 46.825342 47.245112 
L 45.979887 47.617907 
L 45.134433 47.860117 
L 44.910599 47.879999 
L 44.288978 47.935765 
L 43.879157 47.879999 
L 43.443524 47.808588 
L 42.598069 47.384782 
L 42.222854 47.039999 
L 41.752615 46.450286 
L 41.614757 46.199999 
z
" clip-path="url(#p8413ceedf7)" style="fill: none; stroke: #5b82b3; stroke-opacity: 0.5; stroke-width: 1.5"/>
    <path clip-path="url(#p8413ceedf7)" style="fill: none; stroke: #5b82b3; stroke-opacity: 0.5; stroke-width: 1.5"/>
   </g>
   <g id="patch_3">
    <path d="M 11.31625 83.16 
L 11.31625 0 
" style="fill: none; stroke: #000000; stroke-width: 1.5; stroke-linejoin: miter; stroke-linecap: square"/>
   </g>
   <g id="patch_4">
    <path d="M 11.31625 83.16 
L 95.01625 83.16 
" style="fill: none; stroke: #000000; stroke-width: 1.5; stroke-linejoin: miter; stroke-linecap: square"/>
   </g>
  </g>
 </g>
 <defs>
  <clipPath id="p8413ceedf7">
   <rect x="11.31625" y="0" width="83.7" height="83.16"/>
  </clipPath>
 </defs>
</svg>
