<?xml version="1.0" encoding="utf-8" standalone="no"?>
<!DOCTYPE svg PUBLIC "-//W3C//DTD SVG 1.1//EN"
  "http://www.w3.org/Graphics/SVG/1.1/DTD/svg11.dtd">
<svg xmlns:xlink="http://www.w3.org/1999/xlink" width="83.7pt" height="83.16pt" viewBox="0 0 83.7 83.16" xmlns="http://www.w3.org/2000/svg" version="1.1">
 <metadata>
  <rdf:RDF xmlns:dc="http://purl.org/dc/elements/1.1/" xmlns:cc="http://creativecommons.org/ns#" xmlns:rdf="http://www.w3.org/1999/02/22-rdf-syntax-ns#">
   <cc:Work>
    <dc:type rdf:resource="http://purl.org/dc/dcmitype/StillImage"/>
    <dc:date>2024-02-07T07:29:09.966569</dc:date>
    <dc:format>image/svg+xml</dc:format>
    <dc:creator>
     <cc:Agent>
      <dc:title>Matplotlib v3.8.2, https://matplotlib.org/</dc:title>
     </cc:Agent>
    </dc:creator>
   </cc:Work>
  </rdf:RDF>
 </metadata>
 <defs>
  <style type="text/css">*{stroke-linejoin: round; stroke-linecap: butt}</style>
 </defs>
 <g id="figure_1">
  <g id="patch_1">
   <path d="M 0 83.16 
L 83.7 83.16 
L 83.7 0 
L 0 0 
z
" style="fill: #ffffff"/>
  </g>
  <g id="axes_1">
   <g id="QuadContourSet_1">
    <path clip-path="url(#p405e36e1e3)" style="fill: none; stroke: #b22222; stroke-opacity: 0.5; stroke-width: 1.5"/>
    <path d="M 19.241007 17.64 
L 19.07282 16.800001 
L 18.998458 15.960001 
L 19.04985 15.12 
L 19.285907 14.28 
L 19.445456 13.990983 
L 19.869449 13.44 
L 20.29091 13.106069 
L 21.136363 12.710414 
L 21.615182 12.600001 
L 21.981819 12.531568 
L 22.827274 12.482711 
L 23.672728 12.52235 
L 24.264987 12.600001 
L 24.518182 12.630427 
L 25.363637 12.789497 
L 26.209093 12.992323 
L 27.054546 13.236133 
L 27.656612 13.44 
L 27.900001 13.515489 
L 28.745455 13.814578 
L 29.59091 14.149671 
L 29.88683 14.28 
L 30.436365 14.502176 
L 31.281819 14.877886 
L 31.777532 15.12 
L 32.127274 15.277377 
L 32.972728 15.689428 
L 33.481017 15.960001 
L 33.818183 16.125967 
L 34.663637 16.57376 
L 35.05875 16.800001 
L 35.509092 17.039341 
L 36.354547 17.5254 
L 36.54252 17.64 
L 37.200001 18.013458 
L 37.951491 18.480001 
L 38.045456 18.534598 
L 38.89091 19.048277 
L 39.305705 19.320001 
L 39.736365 19.585055 
L 40.581819 20.147624 
L 40.599842 20.160001 
L 41.427274 20.695911 
L 41.862696 21 
L 42.272726 21.271296 
L 43.073209 21.840001 
L 43.118181 21.870407 
L 43.963635 22.458974 
L 44.262457 22.680002 
L 44.80909 23.066285 
L 45.41235 23.520001 
L 45.654544 23.694814 
L 46.499999 24.339183 
L 46.52672 24.36 
L 47.345453 24.974505 
L 47.630236 25.200001 
L 48.190908 25.62964 
L 48.700658 26.040002 
L 49.036363 26.302721 
L 49.741483 26.880001 
L 49.881817 26.992195 
L 50.727272 27.69292 
L 50.759388 27.720001 
L 51.572726 28.392299 
L 51.768377 28.560001 
L 52.418181 29.108479 
L 52.752649 29.400001 
L 53.263635 29.840558 
L 53.714191 30.240001 
L 54.10909 30.587881 
L 54.654648 31.080001 
L 54.954545 31.350029 
L 55.575353 31.920001 
L 55.799999 32.126812 
L 56.477372 32.760001 
L 56.645454 32.918265 
L 57.361514 33.600001 
L 57.490907 33.72466 
L 58.228349 34.440001 
L 58.336363 34.546513 
L 59.078229 35.280001 
L 59.181818 35.384596 
L 59.911289 36.120001 
L 60.027272 36.239963 
L 60.727451 36.960001 
L 60.872726 37.113987 
L 61.526415 37.800001 
L 61.718181 38.0084 
L 62.307673 38.640001 
L 62.563637 38.925323 
L 63.070475 39.480001 
L 63.40909 39.867355 
L 63.813827 40.320001 
L 64.254544 40.837633 
L 64.536467 41.160001 
L 65.099999 41.839945 
L 65.236829 41.999999 
L 65.916951 42.839999 
L 65.945455 42.876902 
L 66.590464 43.679999 
L 66.790909 43.947639 
L 67.238517 44.519999 
L 67.636362 45.068268 
L 67.858344 45.359999 
L 68.450461 46.199999 
L 68.481818 46.24748 
L 69.03506 47.039999 
L 69.327273 47.499333 
L 69.584338 47.879999 
L 70.100992 48.719999 
L 70.172727 48.847791 
L 70.600529 49.559999 
L 71.018181 50.339122 
L 71.053247 50.399999 
L 71.484412 51.239999 
L 71.861851 52.079999 
L 71.863634 52.084721 
L 72.20665 52.919999 
L 72.49075 53.759999 
L 72.709091 54.591281 
L 72.711601 54.599999 
L 72.858361 55.439999 
L 72.902911 56.279999 
L 72.810003 57.119998 
L 72.709091 57.438668 
L 72.497277 57.959999 
L 71.863634 58.725736 
L 71.768799 58.8 
L 71.018181 59.203127 
L 70.172727 59.435262 
L 69.327273 59.51974 
L 68.481818 59.504341 
L 67.636362 59.416692 
L 66.790909 59.272661 
L 65.945455 59.080759 
L 65.099999 58.84449 
L 64.96714 58.8 
L 64.254544 58.581715 
L 63.40909 58.287378 
L 62.577144 57.959999 
L 62.563637 57.955121 
L 61.718181 57.616578 
L 60.872726 57.241498 
L 60.622064 57.119998 
L 60.027272 56.854714 
L 59.181818 56.441944 
L 58.875474 56.279999 
L 58.336363 56.016794 
L 57.490907 55.567196 
L 57.267339 55.439999 
L 56.645454 55.112007 
L 55.799999 54.623247 
L 55.761638 54.599999 
L 54.954545 54.144845 
L 54.330911 53.759999 
L 54.10909 53.632042 
L 53.263635 53.115698 
L 52.963212 52.919999 
L 52.418181 52.586846 
L 51.653653 52.079999 
L 51.572726 52.029428 
L 50.727272 51.480412 
L 50.381183 51.239999 
L 49.881817 50.911758 
L 49.157589 50.399999 
L 49.036363 50.318576 
L 48.190908 49.727856 
L 47.962812 49.559999 
L 47.345453 49.126485 
L 46.802201 48.719999 
L 46.499999 48.503259 
L 45.68101 47.879999 
L 45.654544 47.860606 
L 44.80909 47.227407 
L 44.571239 47.039999 
L 43.963635 46.577253 
L 43.492672 46.199999 
L 43.118181 45.90874 
L 42.444532 45.359999 
L 42.272726 45.223503 
L 41.427274 44.523373 
L 41.423253 44.519999 
L 40.581819 43.828647 
L 40.407557 43.679999 
L 39.736365 43.116895 
L 39.417119 42.839999 
L 38.89091 42.38909 
L 38.449851 41.999999 
L 38.045456 41.645949 
L 37.504029 41.160001 
L 37.200001 40.88796 
L 36.578235 40.320001 
L 36.354547 40.115369 
L 35.671335 39.480001 
L 35.509092 39.328208 
L 34.782457 38.640001 
L 34.663637 38.526267 
L 33.910962 37.800001 
L 33.818183 37.709108 
L 33.056445 36.960001 
L 32.972728 36.876028 
L 32.21871 36.120001 
L 32.127274 36.026059 
L 31.397778 35.280001 
L 31.281819 35.157919 
L 30.59388 34.440001 
L 30.436365 34.269995 
L 29.807466 33.600001 
L 29.59091 33.360281 
L 29.039218 32.760001 
L 28.745455 32.426321 
L 28.290053 31.920001 
L 27.900001 31.465144 
L 27.561156 31.080001 
L 27.054546 30.473168 
L 26.853993 30.240001 
L 26.209093 29.446089 
L 26.170358 29.400001 
L 25.494421 28.560001 
L 25.363637 28.386796 
L 24.838512 27.720001 
L 24.518182 27.282216 
L 24.209933 26.880001 
L 23.672728 26.121772 
L 23.611793 26.040002 
L 23.024046 25.200001 
L 22.827274 24.893661 
L 22.463826 24.36 
L 21.981819 23.580292 
L 21.942134 23.520001 
L 21.433678 22.680002 
L 21.136363 22.131756 
L 20.966545 21.840001 
L 20.530784 21 
L 20.29091 20.473713 
L 20.13621 20.160001 
L 19.782405 19.320001 
L 19.485081 18.480001 
L 19.445456 18.332976 
L 19.241007 17.64 
z
" clip-path="url(#p405e36e1e3)" style="fill: none; stroke: #b22222; stroke-opacity: 0.5; stroke-width: 1.5"/>
    <path d="M 26.128444 23.520001 
L 25.819324 22.680002 
L 25.588533 21.840001 
L 25.458623 21 
L 25.478362 20.160001 
L 25.750957 19.320001 
L 26.209093 18.75825 
L 26.618524 18.480001 
L 27.054546 18.293661 
L 27.900001 18.135842 
L 28.745455 18.126279 
L 29.59091 18.21557 
L 30.436365 18.377324 
L 30.817675 18.480001 
L 31.281819 18.598461 
L 32.127274 18.864213 
L 32.972728 19.169137 
L 33.337263 19.320001 
L 33.818183 19.508636 
L 34.663637 19.876116 
L 35.257475 20.160001 
L 35.509092 20.274337 
L 36.354547 20.691989 
L 36.930016 21 
L 37.200001 21.137782 
L 38.045456 21.599902 
L 38.454872 21.840001 
L 38.89091 22.084601 
L 39.736365 22.59059 
L 39.877723 22.680002 
L 40.581819 23.107429 
L 41.21886 23.520001 
L 41.427274 23.650162 
L 42.272726 24.204682 
L 42.498034 24.36 
L 43.118181 24.773654 
L 43.72271 25.200001 
L 43.963635 25.365188 
L 44.80909 25.971747 
L 44.900956 26.040002 
L 45.654544 26.586212 
L 46.041338 26.880001 
L 46.499999 27.221456 
L 47.141744 27.720001 
L 47.345453 27.875845 
L 48.190908 28.54708 
L 48.206845 28.560001 
L 49.036363 29.224584 
L 49.248054 29.400001 
L 49.881817 29.921401 
L 50.257818 30.240001 
L 50.727272 30.636803 
L 51.238516 31.080001 
L 51.572726 31.370384 
L 52.192094 31.920001 
L 52.418181 32.122042 
L 53.120112 32.760001 
L 53.263635 32.891996 
L 54.023784 33.600001 
L 54.10909 33.68079 
L 54.903997 34.440001 
L 54.954545 34.489328 
L 55.761334 35.280001 
L 55.799999 35.318908 
L 56.596084 36.120001 
L 56.645454 36.171263 
L 57.408254 36.960001 
L 57.490907 37.048625 
L 58.197556 37.800001 
L 58.336363 37.953819 
L 58.963416 38.640001 
L 59.181818 38.890345 
L 59.70495 39.480001 
L 60.027272 39.862512 
L 60.420955 40.320001 
L 60.872726 40.875602 
L 61.109879 41.160001 
L 61.718181 41.936082 
L 61.769776 41.999999 
L 62.407616 42.839999 
L 62.563637 43.061371 
L 63.016243 43.679999 
L 63.40909 44.263007 
L 63.589613 44.519999 
L 64.129016 45.359999 
L 64.254544 45.576735 
L 64.633852 46.199999 
L 65.092483 47.039999 
L 65.099999 47.05611 
L 65.507101 47.879999 
L 65.86402 48.719999 
L 65.945455 48.966964 
L 66.154195 49.559999 
L 66.35793 50.399999 
L 66.449449 51.239999 
L 66.373803 52.079999 
L 66.016334 52.919999 
L 65.945455 53.005972 
L 65.099999 53.621042 
L 64.659834 53.759999 
L 64.254544 53.850373 
L 63.40909 53.894698 
L 62.563637 53.830846 
L 62.161796 53.759999 
L 61.718181 53.685717 
L 60.872726 53.480089 
L 60.027272 53.228037 
L 59.181818 52.932978 
L 59.150084 52.919999 
L 58.336363 52.604997 
L 57.490907 52.244521 
L 57.143198 52.079999 
L 56.645454 51.85643 
L 55.799999 51.443641 
L 55.416029 51.239999 
L 54.954545 51.006938 
L 54.10909 50.54806 
L 53.854517 50.399999 
L 53.263635 50.071693 
L 52.418181 49.56772 
L 52.405881 49.559999 
L 51.572726 49.058681 
L 51.045752 48.719999 
L 50.727272 48.52287 
L 49.881817 47.969986 
L 49.750351 47.879999 
L 49.036363 47.407713 
L 48.511215 47.039999 
L 48.190908 46.822233 
L 47.345453 46.217284 
L 47.322033 46.199999 
L 46.499999 45.60889 
L 46.170092 45.359999 
L 45.654544 44.979266 
L 45.059293 44.519999 
L 44.80909 44.330136 
L 43.985565 43.679999 
L 43.963635 43.662891 
L 43.118181 42.989502 
L 42.936584 42.839999 
L 42.272726 42.298069 
L 41.918628 41.999999 
L 41.427274 41.587941 
L 40.930313 41.160001 
L 40.581819 40.859614 
L 39.969575 40.320001 
L 39.736365 40.113273 
L 39.034757 39.480001 
L 38.89091 39.34879 
L 38.124552 38.640001 
L 38.045456 38.565714 
L 37.237984 37.800001 
L 37.200001 37.763247 
L 36.374392 36.960001 
L 36.354547 36.940203 
L 35.533401 36.120001 
L 35.509092 36.094981 
L 34.71493 35.280001 
L 34.663637 35.22549 
L 33.919179 34.440001 
L 33.818183 34.329092 
L 33.146648 33.600001 
L 32.972728 33.402478 
L 32.398123 32.760001 
L 32.127274 32.441588 
L 31.674721 31.920001 
L 31.281819 31.441419 
L 30.977889 31.080001 
L 30.436365 30.395871 
L 30.309452 30.240001 
L 29.667138 29.400001 
L 29.59091 29.293068 
L 29.049076 28.560001 
L 28.745455 28.114658 
L 28.465294 27.720001 
L 27.918624 26.880001 
L 27.900001 26.848299 
L 27.401643 26.040002 
L 27.054546 25.413954 
L 26.929523 25.200001 
L 26.502384 24.36 
L 26.209093 23.692722 
L 26.128444 23.520001 
z
" clip-path="url(#p405e36e1e3)" style="fill: none; stroke: #b22222; stroke-opacity: 0.5; stroke-width: 1.5"/>
    <path d="M 30.407148 24.36 
L 30.436365 24.142811 
L 30.564085 23.520001 
L 31.281819 22.720462 
L 31.371924 22.680002 
L 32.127274 22.481515 
L 32.972728 22.463077 
L 33.818183 22.569292 
L 34.288345 22.680002 
L 34.663637 22.766563 
L 35.509092 23.032194 
L 36.354547 23.341751 
L 36.772614 23.520001 
L 37.200001 23.697819 
L 38.045456 24.089393 
L 38.580007 24.36 
L 38.89091 24.513874 
L 39.736365 24.966936 
L 40.141501 25.200001 
L 40.581819 25.448202 
L 41.427274 25.952985 
L 41.564204 26.040002 
L 42.272726 26.482292 
L 42.879243 26.880001 
L 43.118181 27.0347 
L 43.963635 27.607566 
L 44.122275 27.720001 
L 44.80909 28.2019 
L 45.299425 28.560001 
L 45.654544 28.818058 
L 46.427177 29.400001 
L 46.499999 29.454858 
L 47.345453 30.110823 
L 47.507009 30.240001 
L 48.190908 30.788363 
L 48.545012 31.080001 
L 49.036363 31.487862 
L 49.54533 31.920001 
L 49.881817 32.209425 
L 50.510264 32.760001 
L 50.727272 32.953603 
L 51.441626 33.600001 
L 51.572726 33.72144 
L 52.340772 34.440001 
L 52.418181 34.514533 
L 53.208642 35.280001 
L 53.263635 35.335104 
L 54.045767 36.120001 
L 54.10909 36.186116 
L 54.852287 36.960001 
L 54.954545 37.071404 
L 55.627957 37.800001 
L 55.799999 37.99586 
L 56.372129 38.640001 
L 56.645454 38.96568 
L 57.083758 39.480001 
L 57.490907 39.988654 
L 57.761364 40.320001 
L 58.336363 41.074599 
L 58.403002 41.160001 
L 59.004655 41.999999 
L 59.181818 42.271732 
L 59.564198 42.839999 
L 60.027272 43.59873 
L 60.07868 43.679999 
L 60.53235 44.519999 
L 60.872726 45.246247 
L 60.928411 45.359999 
L 61.232374 46.199999 
L 61.432349 47.039999 
L 61.470715 47.879999 
L 61.207074 48.719999 
L 60.872726 49.087922 
L 60.027272 49.491858 
L 59.293994 49.559999 
L 59.181818 49.567048 
L 59.112081 49.559999 
L 58.336363 49.482789 
L 57.490907 49.303252 
L 56.645454 49.060182 
L 55.799999 48.766982 
L 55.688129 48.719999 
L 54.954545 48.419793 
L 54.10909 48.040503 
L 53.78796 47.879999 
L 53.263635 47.624148 
L 52.418181 47.180388 
L 52.171406 47.039999 
L 51.572726 46.706732 
L 50.727272 46.209071 
L 50.712852 46.199999 
L 49.881817 45.68706 
L 49.377972 45.359999 
L 49.036363 45.141348 
L 48.190908 44.574504 
L 48.113297 44.519999 
L 47.345453 43.98687 
L 46.921334 43.679999 
L 46.499999 43.377071 
L 45.780146 42.839999 
L 45.654544 42.746404 
L 44.80909 42.096427 
L 44.687443 41.999999 
L 43.963635 41.425418 
L 43.638511 41.160001 
L 43.118181 40.732457 
L 42.628003 40.320001 
L 42.272726 40.017565 
L 41.653472 39.480001 
L 41.427274 39.280319 
L 40.712973 38.640001 
L 40.581819 38.519814 
L 39.805023 37.800001 
L 39.736365 37.734617 
L 38.928574 36.960001 
L 38.89091 36.922684 
L 38.082978 36.120001 
L 38.045456 36.081272 
L 37.267987 35.280001 
L 37.200001 35.206802 
L 36.483738 34.440001 
L 36.354547 34.294689 
L 35.730764 33.600001 
L 35.509092 33.339123 
L 35.009999 32.760001 
L 34.663637 32.332772 
L 34.322799 31.920001 
L 33.818183 31.266419 
L 33.670971 31.080001 
L 33.057639 30.240001 
L 32.972728 30.111866 
L 32.486438 29.400001 
L 32.127274 28.821445 
L 31.959256 28.560001 
L 31.48727 27.720001 
L 31.281819 27.291763 
L 31.075723 26.880001 
L 30.743744 26.040002 
L 30.502997 25.200001 
L 30.436365 24.606667 
L 30.407148 24.36 
z
" clip-path="url(#p405e36e1e3)" style="fill: none; stroke: #b22222; stroke-opacity: 0.5; stroke-width: 1.5"/>
    <path d="M 35.32122 28.560001 
L 35.284154 27.720001 
L 35.509092 27.200115 
L 35.865101 26.880001 
L 36.354547 26.712213 
L 37.200001 26.702931 
L 38.045456 26.850641 
L 38.137078 26.880001 
L 38.89091 27.124895 
L 39.736365 27.45571 
L 40.320904 27.720001 
L 40.581819 27.839374 
L 41.427274 28.278111 
L 41.932383 28.560001 
L 42.272726 28.75208 
L 43.118181 29.261089 
L 43.333551 29.400001 
L 43.963635 29.8111 
L 44.598846 30.240001 
L 44.80909 30.384488 
L 45.654544 30.98943 
L 45.775658 31.080001 
L 46.499999 31.63168 
L 46.869301 31.920001 
L 47.345453 32.30088 
L 47.907755 32.760001 
L 48.190908 32.998339 
L 48.894137 33.600001 
L 49.036363 33.726239 
L 49.830852 34.440001 
L 49.881817 34.487812 
L 50.719645 35.280001 
L 50.727272 35.287583 
L 51.561623 36.120001 
L 51.572726 36.131729 
L 52.357298 36.960001 
L 52.418181 37.028555 
L 53.106587 37.800001 
L 53.263635 37.989177 
L 53.808819 38.640001 
L 54.10909 39.028496 
L 54.462707 39.480001 
L 54.954545 40.16664 
L 55.06633 40.320001 
L 55.596242 41.160001 
L 55.799999 41.541201 
L 56.051412 41.999999 
L 56.405678 42.839999 
L 56.632217 43.679999 
L 56.576238 44.519999 
L 55.799999 45.239767 
L 54.954545 45.340309 
L 54.10909 45.206855 
L 53.263635 44.966496 
L 52.418181 44.662754 
L 52.095824 44.519999 
L 51.572726 44.285992 
L 50.727272 43.867225 
L 50.386102 43.679999 
L 49.881817 43.400591 
L 49.036363 42.906557 
L 48.931686 42.839999 
L 48.190908 42.364265 
L 47.643475 41.999999 
L 47.345453 41.798481 
L 46.499999 41.205567 
L 46.438282 41.160001 
L 45.654544 40.571559 
L 45.328077 40.320001 
L 44.80909 39.910897 
L 44.274207 39.480001 
L 43.963635 39.222486 
L 43.273328 38.640001 
L 43.118181 38.504406 
L 42.322837 37.800001 
L 42.272726 37.753734 
L 41.427274 36.96566 
L 41.421275 36.960001 
L 40.581819 36.134551 
L 40.567082 36.120001 
L 39.757558 35.280001 
L 39.736365 35.256556 
L 38.995583 34.440001 
L 38.89091 34.316218 
L 38.280521 33.600001 
L 38.045456 33.301673 
L 37.613484 32.760001 
L 37.200001 32.194311 
L 36.996212 31.920001 
L 36.439953 31.080001 
L 36.354547 30.924874 
L 35.968449 30.240001 
L 35.571152 29.400001 
L 35.509092 29.186557 
L 35.32122 28.560001 
z
" clip-path="url(#p405e36e1e3)" style="fill: none; stroke: #b22222; stroke-opacity: 0.5; stroke-width: 1.5"/>
    <path d="M 42.116355 33.600001 
L 42.061437 32.760001 
L 42.272726 32.598758 
L 43.118181 32.637007 
L 43.434633 32.760001 
L 43.963635 32.993685 
L 44.80909 33.44931 
L 45.044349 33.600001 
L 45.654544 34.031761 
L 46.219453 34.440001 
L 46.499999 34.668048 
L 47.240314 35.280001 
L 47.345453 35.379938 
L 48.114428 36.120001 
L 48.190908 36.207044 
L 48.847156 36.960001 
L 49.036363 37.226562 
L 49.441868 37.800001 
L 49.881817 38.606661 
L 49.900011 38.640001 
L 49.881817 38.855372 
L 49.036363 39.464486 
L 48.190908 39.121652 
L 47.345453 38.721767 
L 47.21308 38.640001 
L 46.499999 38.15519 
L 45.989172 37.800001 
L 45.654544 37.539395 
L 44.923934 36.960001 
L 44.80909 36.855816 
L 44.009087 36.120001 
L 43.963635 36.070889 
L 43.238563 35.280001 
L 43.118181 35.12021 
L 42.608337 34.440001 
L 42.272726 33.867125 
L 42.116355 33.600001 
z
" clip-path="url(#p405e36e1e3)" style="fill: none; stroke: #b22222; stroke-opacity: 0.5; stroke-width: 1.5"/>
    <path clip-path="url(#p405e36e1e3)" style="fill: none; stroke: #b22222; stroke-opacity: 0.5; stroke-width: 1.5"/>
   </g>
  </g>
 </g>
 <defs>
  <clipPath id="p405e36e1e3">
   <rect x="0" y="-0" width="83.7" height="83.16"/>
  </clipPath>
 </defs>
</svg>
