<?xml version="1.0" encoding="utf-8" standalone="no"?>
<!DOCTYPE svg PUBLIC "-//W3C//DTD SVG 1.1//EN"
  "http://www.w3.org/Graphics/SVG/1.1/DTD/svg11.dtd">
<svg xmlns:xlink="http://www.w3.org/1999/xlink" width="99.82125pt" height="97.47625pt" viewBox="0 0 99.82125 97.47625" xmlns="http://www.w3.org/2000/svg" version="1.1">
 <metadata>
  <rdf:RDF xmlns:dc="http://purl.org/dc/elements/1.1/" xmlns:cc="http://creativecommons.org/ns#" xmlns:rdf="http://www.w3.org/1999/02/22-rdf-syntax-ns#">
   <cc:Work>
    <dc:type rdf:resource="http://purl.org/dc/dcmitype/StillImage"/>
    <dc:date>2024-02-07T07:20:17.774047</dc:date>
    <dc:format>image/svg+xml</dc:format>
    <dc:creator>
     <cc:Agent>
      <dc:title>Matplotlib v3.8.2, https://matplotlib.org/</dc:title>
     </cc:Agent>
    </dc:creator>
   </cc:Work>
  </rdf:RDF>
 </metadata>
 <defs>
  <style type="text/css">*{stroke-linejoin: round; stroke-linecap: butt}</style>
 </defs>
 <g id="figure_1">
  <g id="patch_1">
   <path d="M 0 97.47625 
L 99.82125 97.47625 
L 99.82125 0 
L 0 0 
z
" style="fill: #ffffff"/>
  </g>
  <g id="axes_1">
   <g id="patch_2">
    <path d="M 16.12125 83.16 
L 99.82125 83.16 
L 99.82125 0 
L 16.12125 0 
z
" style="fill: #ffffff"/>
   </g>
   <g id="PathCollection_1">
    <defs>
     <path id="mb39960170c" d="M 0 1.5 
C 0.397805 1.5 0.77937 1.341951 1.06066 1.06066 
C 1.341951 0.77937 1.5 0.397805 1.5 0 
C 1.5 -0.397805 1.341951 -0.77937 1.06066 -1.06066 
C 0.77937 -1.341951 0.397805 -1.5 0 -1.5 
C -0.397805 -1.5 -0.77937 -1.341951 -1.06066 -1.06066 
C -1.341951 -0.77937 -1.5 -0.397805 -1.5 0 
C -1.5 0.397805 -1.341951 0.77937 -1.06066 1.06066 
C -0.77937 1.341951 -0.397805 1.5 0 1.5 
z
" style="stroke: #4169e1"/>
    </defs>
    <g clip-path="url(#pcc20059efa)">
     <use xlink:href="#mb39960170c" x="60.761145" y="31.643258" style="fill: #4169e1; stroke: #4169e1"/>
     <use xlink:href="#mb39960170c" x="16.470683" y="63.180226" style="fill: #4169e1; stroke: #4169e1"/>
     <use xlink:href="#mb39960170c" x="50.03039" y="47.884435" style="fill: #4169e1; stroke: #4169e1"/>
     <use xlink:href="#mb39960170c" x="56.143781" y="47.006645" style="fill: #4169e1; stroke: #4169e1"/>
     <use xlink:href="#mb39960170c" x="77.330123" y="42.093991" style="fill: #4169e1; stroke: #4169e1"/>
     <use xlink:href="#mb39960170c" x="55.183025" y="49.40579" style="fill: #4169e1; stroke: #4169e1"/>
     <use xlink:href="#mb39960170c" x="59.819944" y="40.557903" style="fill: #4169e1; stroke: #4169e1"/>
     <use xlink:href="#mb39960170c" x="51.703959" y="35.022843" style="fill: #4169e1; stroke: #4169e1"/>
     <use xlink:href="#mb39960170c" x="60.736173" y="29.955594" style="fill: #4169e1; stroke: #4169e1"/>
     <use xlink:href="#mb39960170c" x="52.173788" y="50.119615" style="fill: #4169e1; stroke: #4169e1"/>
     <use xlink:href="#mb39960170c" x="65.958137" y="26.924312" style="fill: #4169e1; stroke: #4169e1"/>
     <use xlink:href="#mb39960170c" x="58.320952" y="26.978763" style="fill: #4169e1; stroke: #4169e1"/>
     <use xlink:href="#mb39960170c" x="68.303156" y="33.690267" style="fill: #4169e1; stroke: #4169e1"/>
     <use xlink:href="#mb39960170c" x="37.440156" y="58.056065" style="fill: #4169e1; stroke: #4169e1"/>
     <use xlink:href="#mb39960170c" x="54.034643" y="55.397641" style="fill: #4169e1; stroke: #4169e1"/>
     <use xlink:href="#mb39960170c" x="68.219091" y="46.168225" style="fill: #4169e1; stroke: #4169e1"/>
     <use xlink:href="#mb39960170c" x="66.8236" y="33.405607" style="fill: #4169e1; stroke: #4169e1"/>
     <use xlink:href="#mb39960170c" x="81.300581" y="25.912186" style="fill: #4169e1; stroke: #4169e1"/>
     <use xlink:href="#mb39960170c" x="63.886293" y="42.599136" style="fill: #4169e1; stroke: #4169e1"/>
     <use xlink:href="#mb39960170c" x="64.140957" y="29.985931" style="fill: #4169e1; stroke: #4169e1"/>
     <use xlink:href="#mb39960170c" x="70.651748" y="35.707107" style="fill: #4169e1; stroke: #4169e1"/>
     <use xlink:href="#mb39960170c" x="66.000136" y="22.868169" style="fill: #4169e1; stroke: #4169e1"/>
     <use xlink:href="#mb39960170c" x="42.491481" y="47.671032" style="fill: #4169e1; stroke: #4169e1"/>
     <use xlink:href="#mb39960170c" x="32.596416" y="87.251583" style="fill: #4169e1; stroke: #4169e1"/>
     <use xlink:href="#mb39960170c" x="31.065994" y="50.375757" style="fill: #4169e1; stroke: #4169e1"/>
     <use xlink:href="#mb39960170c" x="91.657074" y="22.774335" style="fill: #4169e1; stroke: #4169e1"/>
     <use xlink:href="#mb39960170c" x="58.874299" y="32.32776" style="fill: #4169e1; stroke: #4169e1"/>
     <use xlink:href="#mb39960170c" x="78.041277" y="36.1515" style="fill: #4169e1; stroke: #4169e1"/>
     <use xlink:href="#mb39960170c" x="49.010431" y="45.216749" style="fill: #4169e1; stroke: #4169e1"/>
     <use xlink:href="#mb39960170c" x="33.298751" y="73.862584" style="fill: #4169e1; stroke: #4169e1"/>
     <use xlink:href="#mb39960170c" x="62.324785" y="41.093285" style="fill: #4169e1; stroke: #4169e1"/>
     <use xlink:href="#mb39960170c" x="75.607329" y="56.859734" style="fill: #4169e1; stroke: #4169e1"/>
     <use xlink:href="#mb39960170c" x="28.788721" y="47.759273" style="fill: #4169e1; stroke: #4169e1"/>
     <use xlink:href="#mb39960170c" x="75.098643" y="40.234757" style="fill: #4169e1; stroke: #4169e1"/>
     <use xlink:href="#mb39960170c" x="66.333598" y="4.353641" style="fill: #4169e1; stroke: #4169e1"/>
     <use xlink:href="#mb39960170c" x="66.829377" y="23.722595" style="fill: #4169e1; stroke: #4169e1"/>
     <use xlink:href="#mb39960170c" x="42.725667" y="9.379758" style="fill: #4169e1; stroke: #4169e1"/>
     <use xlink:href="#mb39960170c" x="54.518199" y="22.404209" style="fill: #4169e1; stroke: #4169e1"/>
     <use xlink:href="#mb39960170c" x="52.357214" y="42.943844" style="fill: #4169e1; stroke: #4169e1"/>
     <use xlink:href="#mb39960170c" x="53.285533" y="18.347998" style="fill: #4169e1; stroke: #4169e1"/>
     <use xlink:href="#mb39960170c" x="32.639018" y="40.413693" style="fill: #4169e1; stroke: #4169e1"/>
     <use xlink:href="#mb39960170c" x="51.394134" y="-1" style="fill: #4169e1; stroke: #4169e1"/>
     <use xlink:href="#mb39960170c" x="55.194787" y="-1" style="fill: #4169e1; stroke: #4169e1"/>
     <use xlink:href="#mb39960170c" x="57.231922" y="12.143943" style="fill: #4169e1; stroke: #4169e1"/>
     <use xlink:href="#mb39960170c" x="52.924489" y="5.829697" style="fill: #4169e1; stroke: #4169e1"/>
     <use xlink:href="#mb39960170c" x="68.107368" y="16.996508" style="fill: #4169e1; stroke: #4169e1"/>
     <use xlink:href="#mb39960170c" x="63.441897" y="31.994682" style="fill: #4169e1; stroke: #4169e1"/>
     <use xlink:href="#mb39960170c" x="53.240602" y="51.089624" style="fill: #4169e1; stroke: #4169e1"/>
     <use xlink:href="#mb39960170c" x="52.431836" y="13.706342" style="fill: #4169e1; stroke: #4169e1"/>
     <use xlink:href="#mb39960170c" x="52.56989" y="41.994653" style="fill: #4169e1; stroke: #4169e1"/>
     <use xlink:href="#mb39960170c" x="58.43266" y="28.92379" style="fill: #4169e1; stroke: #4169e1"/>
    </g>
   </g>
   <g id="matplotlib.axis_1">
    <g id="xtick_1">
     <g id="line2d_1">
      <defs>
       <path id="mebcacab95e" d="M 0 0 
L 0 3.5 
" style="stroke: #000000; stroke-width: 1.5"/>
      </defs>
      <g>
       <use xlink:href="#mebcacab95e" x="30.07125" y="83.16" style="stroke: #000000; stroke-width: 1.5"/>
      </g>
     </g>
     <g id="text_1">
      <text style="font: 8px 'Arial', sans-serif, serif; text-anchor: middle" x="30.07125" y="95.88625" transform="rotate(-0 30.07125 95.88625)">−2</text>
     </g>
    </g>
    <g id="xtick_2">
     <g id="line2d_2">
      <g>
       <use xlink:href="#mebcacab95e" x="85.87125" y="83.16" style="stroke: #000000; stroke-width: 1.5"/>
      </g>
     </g>
     <g id="text_2">
      <text style="font: 8px 'Arial', sans-serif, serif; text-anchor: middle" x="85.87125" y="95.88625" transform="rotate(-0 85.87125 95.88625)">2</text>
     </g>
    </g>
   </g>
   <g id="matplotlib.axis_2">
    <g id="ytick_1">
     <g id="line2d_3">
      <defs>
       <path id="m31d1434705" d="M 0 0 
L -3.5 0 
" style="stroke: #000000; stroke-width: 1.5"/>
      </defs>
      <g>
       <use xlink:href="#m31d1434705" x="16.12125" y="69.3" style="stroke: #000000; stroke-width: 1.5"/>
      </g>
     </g>
     <g id="text_3">
      <text style="font: 8px 'Arial', sans-serif, serif; text-anchor: end" x="9.12125" y="72.163125" transform="rotate(-0 9.12125 72.163125)">−2</text>
     </g>
    </g>
    <g id="ytick_2">
     <g id="line2d_4">
      <g>
       <use xlink:href="#m31d1434705" x="16.12125" y="13.86" style="stroke: #000000; stroke-width: 1.5"/>
      </g>
     </g>
     <g id="text_4">
      <text style="font: 8px 'Arial', sans-serif, serif; text-anchor: end" x="9.12125" y="16.723125" transform="rotate(-0 9.12125 16.723125)">2</text>
     </g>
    </g>
   </g>
   <g id="QuadContourSet_1">
    <path clip-path="url(#pcc20059efa)" style="fill: none; stroke: #4169e1; stroke-opacity: 0.5; stroke-width: 1.5"/>
    <path d="M 30.450478 51.239999 
L 30.410739 50.399999 
L 30.394827 49.559999 
L 30.401742 48.719999 
L 30.430718 47.879999 
L 30.481211 47.039999 
L 30.493977 46.890716 
L 30.548642 46.199999 
L 30.634437 45.359999 
L 30.739462 44.519999 
L 30.863875 43.679999 
L 31.00802 42.839999 
L 31.172429 41.999999 
L 31.339432 41.242424 
L 31.35642 41.160001 
L 31.547373 40.320001 
L 31.758888 39.480001 
L 31.992145 38.640001 
L 32.184888 38.004966 
L 32.243519 37.800001 
L 32.501933 36.960001 
L 32.783959 36.120001 
L 33.030341 35.443104 
L 33.08668 35.280001 
L 33.394805 34.440001 
L 33.729632 33.600001 
L 33.875795 33.255254 
L 34.076434 32.760001 
L 34.440228 31.920001 
L 34.721251 31.31538 
L 34.826393 31.080001 
L 35.221671 30.240001 
L 35.566706 29.558576 
L 35.644321 29.400001 
L 36.074471 28.560001 
L 36.41216 27.944515 
L 36.53192 27.720001 
L 37.001317 26.880001 
L 37.257613 26.446887 
L 37.493061 26.040002 
L 38.007215 25.200001 
L 38.103069 25.049207 
L 38.533971 24.36 
L 38.948524 23.735049 
L 39.089493 23.520001 
L 39.663557 22.680002 
L 39.793978 22.496168 
L 40.256695 21.840001 
L 40.639432 21.32274 
L 40.877935 21 
L 41.484887 20.213759 
L 41.526535 20.160001 
L 42.19472 19.320001 
L 42.330343 19.155037 
L 42.890554 18.480001 
L 43.175796 18.147386 
L 43.617177 17.64 
L 44.021251 17.188517 
L 44.375706 16.800001 
L 44.866705 16.274604 
L 45.167896 15.960001 
L 45.71216 15.402577 
L 45.996232 15.12 
L 46.557615 14.570053 
L 46.864009 14.28 
L 47.403069 13.775253 
L 47.775489 13.44 
L 48.248524 13.016977 
L 48.73605 12.600001 
L 49.093978 12.294564 
L 49.752424 11.760002 
L 49.939433 11.607864 
L 50.784887 10.95492 
L 50.832277 10.919999 
L 51.630342 10.326678 
L 51.984649 10.08 
L 52.475797 9.733507 
L 53.22709 9.240001 
L 53.321251 9.177056 
L 54.166706 8.642425 
L 54.581044 8.399999 
L 55.01216 8.141541 
L 55.857615 7.673434 
L 56.078384 7.559999 
L 56.703069 7.228873 
L 57.548524 6.821165 
L 57.776876 6.72 
L 58.393976 6.43603 
L 59.239431 6.085095 
L 59.789678 5.880001 
L 60.084885 5.764928 
L 60.93034 5.469477 
L 61.775794 5.210839 
L 62.420048 5.040002 
L 62.621249 4.983683 
L 63.466703 4.781559 
L 64.312158 4.615133 
L 65.157613 4.483862 
L 66.003067 4.387701 
L 66.848522 4.327115 
L 67.693976 4.303079 
L 68.539431 4.317134 
L 69.384885 4.371391 
L 70.23034 4.468611 
L 71.075795 4.612266 
L 71.921249 4.806629 
L 72.711763 5.040002 
L 72.766704 5.056196 
L 73.612157 5.356518 
L 74.457613 5.725092 
L 74.76207 5.880001 
L 75.303068 6.162036 
L 76.148522 6.681255 
L 76.20479 6.72 
L 76.993976 7.288104 
L 77.326947 7.559999 
L 77.839431 8.003655 
L 78.25156 8.399999 
L 78.684887 8.848299 
L 79.032188 9.240001 
L 79.53034 9.853779 
L 79.701698 10.08 
L 80.28129 10.919999 
L 80.375794 11.070607 
L 80.788408 11.760002 
L 81.221249 12.585898 
L 81.228406 12.600001 
L 81.618639 13.44 
L 81.955126 14.28 
L 82.066705 14.59547 
L 82.250835 15.12 
L 82.507312 15.960001 
L 82.724502 16.800001 
L 82.90608 17.64 
L 82.912159 17.673168 
L 83.06318 18.480001 
L 83.189819 19.320001 
L 83.287967 20.160001 
L 83.359587 21 
L 83.406324 21.840001 
L 83.429551 22.680002 
L 83.430384 23.520001 
L 83.409695 24.36 
L 83.368142 25.200001 
L 83.306163 26.040002 
L 83.224007 26.880001 
L 83.121712 27.720001 
L 82.999133 28.560001 
L 82.912159 29.071606 
L 82.86019 29.400001 
L 82.708648 30.240001 
L 82.537463 31.080001 
L 82.345846 31.920001 
L 82.132809 32.760001 
L 82.066705 32.999039 
L 81.910588 33.600001 
L 81.672153 34.440001 
L 81.410918 35.280001 
L 81.221249 35.842639 
L 81.13281 36.120001 
L 80.846062 36.960001 
L 80.533965 37.800001 
L 80.375794 38.19823 
L 80.20868 38.640001 
L 79.869064 39.480001 
L 79.53034 40.253771 
L 79.502568 40.320001 
L 79.133499 41.160001 
L 78.733085 41.999999 
L 78.684887 42.09684 
L 78.328127 42.839999 
L 77.892809 43.679999 
L 77.839431 43.778962 
L 77.451679 44.519999 
L 76.993976 45.331626 
L 76.978381 45.359999 
L 76.500706 46.199999 
L 76.148522 46.779663 
L 75.993462 47.039999 
L 75.469388 47.879999 
L 75.303068 48.135076 
L 74.927004 48.719999 
L 74.457613 49.409905 
L 74.356442 49.559999 
L 73.769158 50.399999 
L 73.612157 50.615924 
L 73.15998 51.239999 
L 72.766704 51.758608 
L 72.522671 52.079999 
L 71.921249 52.840157 
L 71.857694 52.919999 
L 71.170116 53.759999 
L 71.075795 53.87201 
L 70.455391 54.599999 
L 70.23034 54.856192 
L 69.708779 55.439999 
L 69.384885 55.793265 
L 68.928792 56.279999 
L 68.539431 56.686653 
L 68.113255 57.119998 
L 67.693976 57.539061 
L 67.259208 57.959999 
L 66.848522 58.352547 
L 66.362795 58.8 
L 66.003067 59.128579 
L 65.419109 59.639999 
L 65.157613 59.868064 
L 64.42199 60.479998 
L 64.312158 60.57138 
L 63.466703 61.243464 
L 63.365541 61.319999 
L 62.621249 61.887048 
L 62.239733 62.16 
L 61.775794 62.4957 
L 61.029402 62.999999 
L 60.93034 63.067985 
L 60.084885 63.617546 
L 59.716318 63.839999 
L 59.239431 64.134367 
L 58.393976 64.615852 
L 58.273392 64.679999 
L 57.548524 65.077063 
L 56.703069 65.497207 
L 56.653613 65.52 
L 55.857615 65.900339 
L 55.01216 66.263346 
L 54.764505 66.359999 
L 54.166706 66.603535 
L 53.321251 66.911246 
L 52.475797 67.182228 
L 52.412897 67.199999 
L 51.630342 67.432938 
L 50.784887 67.648504 
L 49.939433 67.828929 
L 49.093978 67.974941 
L 48.601413 68.04 
L 48.248524 68.08969 
L 47.403069 68.17165 
L 46.557615 68.216028 
L 45.71216 68.221663 
L 44.866705 68.186826 
L 44.021251 68.109149 
L 43.542317 68.04 
L 43.175796 67.988203 
L 42.330343 67.822863 
L 41.484887 67.604938 
L 40.639432 67.328724 
L 40.311172 67.199999 
L 39.793978 66.995102 
L 38.948524 66.594274 
L 38.525999 66.359999 
L 38.103069 66.118404 
L 37.257613 65.556226 
L 37.208788 65.52 
L 36.41216 64.898533 
L 36.162846 64.679999 
L 35.566706 64.122702 
L 35.29216 63.839999 
L 34.721251 63.203616 
L 34.552386 62.999999 
L 33.915952 62.16 
L 33.875795 62.10225 
L 33.361505 61.319999 
L 33.030341 60.751177 
L 32.878749 60.479998 
L 32.455145 59.639999 
L 32.184888 59.027679 
L 32.086451 58.8 
L 31.761141 57.959999 
L 31.482219 57.119998 
L 31.339432 56.622972 
L 31.240555 56.279999 
L 31.030928 55.439999 
L 30.856249 54.599999 
L 30.713526 53.759999 
L 30.600186 52.919999 
L 30.514022 52.079999 
L 30.493977 51.807451 
L 30.450478 51.239999 
z
" clip-path="url(#pcc20059efa)" style="fill: none; stroke: #4169e1; stroke-opacity: 0.5; stroke-width: 1.5"/>
    <path d="M 37.169797 51.239999 
L 36.984816 50.399999 
L 36.840545 49.559999 
L 36.733595 48.719999 
L 36.661092 47.879999 
L 36.620612 47.039999 
L 36.610151 46.199999 
L 36.628074 45.359999 
L 36.673085 44.519999 
L 36.744201 43.679999 
L 36.840732 42.839999 
L 36.962268 41.999999 
L 37.10866 41.160001 
L 37.257613 40.429606 
L 37.279098 40.320001 
L 37.46723 39.480001 
L 37.679383 38.640001 
L 37.916279 37.800001 
L 38.103069 37.200362 
L 38.175599 36.960001 
L 38.451875 36.120001 
L 38.754178 35.280001 
L 38.948524 34.781229 
L 39.078213 34.440001 
L 39.421062 33.600001 
L 39.792801 32.760001 
L 39.793978 32.757482 
L 40.178204 31.920001 
L 40.594317 31.080001 
L 40.639432 30.993374 
L 41.02707 30.240001 
L 41.484887 29.41133 
L 41.491103 29.400001 
L 41.972025 28.560001 
L 42.330343 27.972174 
L 42.483904 27.720001 
L 43.020564 26.880001 
L 43.175796 26.647676 
L 43.583865 26.040002 
L 44.021251 25.420884 
L 44.178901 25.200001 
L 44.804136 24.36 
L 44.866705 24.278654 
L 45.459835 23.520001 
L 45.71216 23.209554 
L 46.151977 22.680002 
L 46.557615 22.208033 
L 46.882597 21.840001 
L 47.403069 21.267788 
L 47.654707 21 
L 48.248524 20.383719 
L 48.472481 20.160001 
L 49.093978 19.551774 
L 49.341452 19.320001 
L 49.939433 18.76884 
L 50.268835 18.480001 
L 50.784887 18.032652 
L 51.263904 17.64 
L 51.630342 17.341716 
L 52.338543 16.800001 
L 52.475797 16.695273 
L 53.321251 16.088651 
L 53.513517 15.960001 
L 54.166706 15.521039 
L 54.814864 15.12 
L 55.01216 14.996847 
L 55.857615 14.509043 
L 56.293269 14.28 
L 56.703069 14.061158 
L 57.548524 13.652122 
L 58.037958 13.44 
L 58.393976 13.282201 
L 59.239431 12.949539 
L 60.084885 12.660287 
L 60.290939 12.600001 
L 60.93034 12.406924 
L 61.775794 12.195393 
L 62.621249 12.027662 
L 63.466703 11.904231 
L 64.312158 11.826296 
L 65.157613 11.7958 
L 66.003067 11.815498 
L 66.848522 11.889033 
L 67.693976 12.021043 
L 68.539431 12.217298 
L 69.384885 12.484869 
L 69.673774 12.600001 
L 70.23034 12.830648 
L 71.075795 13.266941 
L 71.357025 13.44 
L 71.921249 13.809436 
L 72.528857 14.28 
L 72.766704 14.479309 
L 73.432966 15.12 
L 73.612157 15.309859 
L 74.160613 15.960001 
L 74.457613 16.355733 
L 74.762279 16.800001 
L 75.265675 17.64 
L 75.303068 17.71035 
L 75.686759 18.480001 
L 76.04093 19.320001 
L 76.148522 19.617416 
L 76.337006 20.160001 
L 76.58183 21 
L 76.78021 21.840001 
L 76.936489 22.680002 
L 76.993976 23.083284 
L 77.05575 23.520001 
L 77.140621 24.36 
L 77.192411 25.200001 
L 77.213177 26.040002 
L 77.204595 26.880001 
L 77.168007 27.720001 
L 77.104419 28.560001 
L 77.014555 29.400001 
L 76.993976 29.548984 
L 76.902613 30.240001 
L 76.767308 31.080001 
L 76.607904 31.920001 
L 76.424193 32.760001 
L 76.215713 33.600001 
L 76.148522 33.8429 
L 75.989048 34.440001 
L 75.740858 35.280001 
L 75.467267 36.120001 
L 75.303068 36.582726 
L 75.172918 36.960001 
L 74.859584 37.800001 
L 74.518688 38.640001 
L 74.457613 38.781239 
L 74.161833 39.480001 
L 73.778563 40.320001 
L 73.612157 40.662676 
L 73.374343 41.160001 
L 72.945761 41.999999 
L 72.766704 42.331512 
L 72.494637 42.839999 
L 72.016547 43.679999 
L 71.921249 43.839889 
L 71.517285 44.519999 
L 71.075795 45.219844 
L 70.98723 45.359999 
L 70.433634 46.199999 
L 70.23034 46.494428 
L 69.850722 47.039999 
L 69.384885 47.678131 
L 69.2356 47.879999 
L 68.588979 48.719999 
L 68.539431 48.782411 
L 67.910248 49.559999 
L 67.693976 49.817792 
L 67.193468 50.399999 
L 66.848522 50.788786 
L 66.436051 51.239999 
L 66.003067 51.701039 
L 65.63433 52.079999 
L 65.157613 52.559061 
L 64.783364 52.919999 
L 64.312158 53.366383 
L 63.876684 53.759999 
L 63.466703 54.125646 
L 62.905937 54.599999 
L 62.621249 54.838685 
L 61.860416 55.439999 
L 61.775794 55.506585 
L 60.93034 56.134863 
L 60.721225 56.279999 
L 60.084885 56.72272 
L 59.466976 57.119998 
L 59.239431 57.267308 
L 58.393976 57.77423 
L 58.05589 57.959999 
L 57.548524 58.242632 
L 56.703069 58.669939 
L 56.418261 58.8 
L 55.857615 59.061334 
L 55.01216 59.412187 
L 54.387152 59.639999 
L 54.166706 59.722578 
L 53.321251 59.996989 
L 52.475797 60.227945 
L 51.630342 60.415887 
L 51.25401 60.479998 
L 50.784887 60.563083 
L 49.939433 60.666314 
L 49.093978 60.722059 
L 48.248524 60.728141 
L 47.403069 60.681559 
L 46.557615 60.578378 
L 46.046036 60.479998 
L 45.71216 60.414734 
L 44.866705 60.185439 
L 44.021251 59.880667 
L 43.489479 59.639999 
L 43.175796 59.491451 
L 42.330343 59.005289 
L 42.028991 58.8 
L 41.484887 58.402933 
L 40.964384 57.959999 
L 40.639432 57.658613 
L 40.127388 57.119998 
L 39.793978 56.730514 
L 39.445777 56.279999 
L 38.948524 55.550476 
L 38.879099 55.439999 
L 38.406965 54.599999 
L 38.103069 53.967437 
L 38.008857 53.759999 
L 37.675483 52.919999 
L 37.398096 52.079999 
L 37.257613 51.568617 
L 37.169797 51.239999 
z
" clip-path="url(#pcc20059efa)" style="fill: none; stroke: #4169e1; stroke-opacity: 0.5; stroke-width: 1.5"/>
    <path d="M 41.412848 45.359999 
L 41.367438 44.519999 
L 41.361339 43.679999 
L 41.392069 42.839999 
L 41.457655 41.999999 
L 41.484887 41.770766 
L 41.556208 41.160001 
L 41.68617 40.320001 
L 41.846672 39.480001 
L 42.037173 38.640001 
L 42.25749 37.800001 
L 42.330343 37.555276 
L 42.505925 36.960001 
L 42.782616 36.120001 
L 43.088792 35.280001 
L 43.175796 35.061571 
L 43.422797 34.440001 
L 43.78581 33.600001 
L 44.021251 33.095868 
L 44.178724 32.760001 
L 44.600996 31.920001 
L 44.866705 31.426177 
L 45.054884 31.080001 
L 45.540396 30.240001 
L 45.71216 29.959153 
L 46.059842 29.400001 
L 46.557615 28.644307 
L 46.614409 28.560001 
L 47.206708 27.720001 
L 47.403069 27.45428 
L 47.839901 26.880001 
L 48.248524 26.365853 
L 48.516747 26.040002 
L 49.093978 25.365482 
L 49.241588 25.200001 
L 49.939433 24.443753 
L 50.020525 24.36 
L 50.784887 23.593126 
L 50.861893 23.520001 
L 51.630342 22.807683 
L 51.77692 22.680002 
L 52.475797 22.082881 
L 52.780604 21.840001 
L 53.321251 21.41542 
L 53.893017 21 
L 54.166706 20.803091 
L 55.01216 20.2441 
L 55.151729 20.160001 
L 55.857615 19.735928 
L 56.628655 19.320001 
L 56.703069 19.27979 
L 57.548524 18.873019 
L 58.393976 18.518166 
L 58.500822 18.480001 
L 59.239431 18.213347 
L 60.084885 17.9615 
L 60.93034 17.763715 
L 61.669007 17.64 
L 61.775794 17.621762 
L 62.621249 17.538686 
L 63.466703 17.518601 
L 64.312158 17.566301 
L 64.831124 17.64 
L 65.157613 17.688435 
L 66.003067 17.894658 
L 66.848522 18.19518 
L 67.447901 18.480001 
L 67.693976 18.606482 
L 68.539431 19.154851 
L 68.748886 19.320001 
L 69.384885 19.879177 
L 69.655137 20.160001 
L 70.23034 20.843078 
L 70.345933 21 
L 70.883664 21.840001 
L 71.075795 22.196068 
L 71.31245 22.680002 
L 71.65333 23.520001 
L 71.921249 24.349803 
L 71.924323 24.36 
L 72.129145 25.200001 
L 72.280961 26.040002 
L 72.384703 26.880001 
L 72.444513 27.720001 
L 72.463839 28.560001 
L 72.445509 29.400001 
L 72.391819 30.240001 
L 72.304564 31.080001 
L 72.185102 31.920001 
L 72.034381 32.760001 
L 71.921249 33.282872 
L 71.853531 33.600001 
L 71.644095 34.440001 
L 71.40548 35.280001 
L 71.137387 36.120001 
L 71.075795 36.294235 
L 70.841785 36.960001 
L 70.517529 37.800001 
L 70.23034 38.481579 
L 70.163551 38.640001 
L 69.781696 39.480001 
L 69.384885 40.287329 
L 69.368716 40.320001 
L 68.926339 41.160001 
L 68.539431 41.845878 
L 68.451338 41.999999 
L 67.943919 42.839999 
L 67.693976 43.23097 
L 67.401257 43.679999 
L 66.848522 44.482969 
L 66.822373 44.519999 
L 66.203517 45.359999 
L 66.003067 45.620117 
L 65.541675 46.199999 
L 65.157613 46.663372 
L 64.833276 47.039999 
L 64.312158 47.623789 
L 64.072993 47.879999 
L 63.466703 48.509677 
L 63.253502 48.719999 
L 62.621249 49.327629 
L 62.364909 49.559999 
L 61.775794 50.082771 
L 61.393993 50.399999 
L 60.93034 50.778925 
L 60.323113 51.239999 
L 60.084885 51.418773 
L 59.239431 52.004448 
L 59.120368 52.079999 
L 58.393976 52.53866 
L 57.725266 52.919999 
L 57.548524 53.020766 
L 56.703069 53.452835 
L 56.020296 53.759999 
L 55.857615 53.83367 
L 55.01216 54.164427 
L 54.166706 54.442666 
L 53.574179 54.599999 
L 53.321251 54.668209 
L 52.475797 54.839118 
L 51.630342 54.952289 
L 50.784887 55.004606 
L 49.939433 54.991756 
L 49.093978 54.908083 
L 48.248524 54.74638 
L 47.742321 54.599999 
L 47.403069 54.495941 
L 46.557615 54.141748 
L 45.865394 53.759999 
L 45.71216 53.667842 
L 44.866705 53.039504 
L 44.7323 52.919999 
L 44.021251 52.208273 
L 43.911095 52.079999 
L 43.279888 51.239999 
L 43.175796 51.078792 
L 42.784115 50.399999 
L 42.383957 49.559999 
L 42.330343 49.425506 
L 42.070872 48.719999 
L 41.824718 47.879999 
L 41.636647 47.039999 
L 41.500793 46.199999 
L 41.484887 46.053011 
L 41.412848 45.359999 
z
" clip-path="url(#pcc20059efa)" style="fill: none; stroke: #4169e1; stroke-opacity: 0.5; stroke-width: 1.5"/>
    <path d="M 46.508349 45.359999 
L 46.24958 44.519999 
L 46.070033 43.679999 
L 45.960292 42.839999 
L 45.912652 41.999999 
L 45.920818 41.160001 
L 45.979693 40.320001 
L 46.085199 39.480001 
L 46.234142 38.640001 
L 46.424089 37.800001 
L 46.557615 37.313411 
L 46.656655 36.960001 
L 46.931993 36.120001 
L 47.243955 35.280001 
L 47.403069 34.897558 
L 47.598809 34.440001 
L 47.994764 33.600001 
L 48.248524 33.106413 
L 48.432946 32.760001 
L 48.916106 31.920001 
L 49.093978 31.6318 
L 49.449175 31.080001 
L 49.939433 30.364662 
L 50.029242 30.240001 
L 50.669599 29.400001 
L 50.784887 29.256337 
L 51.376701 28.560001 
L 51.630342 28.274832 
L 52.157512 27.720001 
L 52.475797 27.398097 
L 53.028138 26.880001 
L 53.321251 26.61433 
L 54.011421 26.040002 
L 54.166706 25.914458 
L 55.01216 25.294514 
L 55.156635 25.200001 
L 55.857615 24.751433 
L 56.553013 24.36 
L 56.703069 24.276935 
L 57.548524 23.878091 
L 58.393976 23.546374 
L 58.481288 23.520001 
L 59.239431 23.29292 
L 60.084885 23.114915 
L 60.93034 23.017595 
L 61.775794 23.009136 
L 62.621249 23.100283 
L 63.466703 23.304873 
L 64.01917 23.520001 
L 64.312158 23.648349 
L 65.157613 24.172958 
L 65.387156 24.36 
L 66.003067 24.950735 
L 66.212111 25.200001 
L 66.789717 26.040002 
L 66.848522 26.146237 
L 67.195897 26.880001 
L 67.495499 27.720001 
L 67.693976 28.502889 
L 67.706922 28.560001 
L 67.835266 29.400001 
L 67.901329 30.240001 
L 67.911249 31.080001 
L 67.870016 31.920001 
L 67.781637 32.760001 
L 67.693976 33.312516 
L 67.647546 33.600001 
L 67.467749 34.440001 
L 67.248204 35.280001 
L 66.990449 36.120001 
L 66.848522 36.522102 
L 66.690149 36.960001 
L 66.348642 37.800001 
L 66.003067 38.569321 
L 65.970305 38.640001 
L 65.543146 39.480001 
L 65.157613 40.180577 
L 65.07787 40.320001 
L 64.561142 41.160001 
L 64.312158 41.539131 
L 63.995311 41.999999 
L 63.466703 42.7251 
L 63.378308 42.839999 
L 62.697198 43.679999 
L 62.621249 43.769307 
L 61.942404 44.519999 
L 61.775794 44.696674 
L 61.1047 45.359999 
L 60.93034 45.526183 
L 60.164556 46.199999 
L 60.084885 46.267965 
L 59.239431 46.926248 
L 59.077043 47.039999 
L 58.393976 47.507076 
L 57.779452 47.879999 
L 57.548524 48.01753 
L 56.703069 48.453459 
L 56.09117 48.719999 
L 55.857615 48.820526 
L 55.01216 49.111649 
L 54.166706 49.330348 
L 53.321251 49.471263 
L 52.475797 49.526958 
L 51.630342 49.487543 
L 50.784887 49.340165 
L 49.939433 49.068321 
L 49.226906 48.719999 
L 49.093978 48.64603 
L 48.248524 48.009502 
L 48.113822 47.879999 
L 47.403069 47.062998 
L 47.386582 47.039999 
L 46.88535 46.199999 
L 46.557615 45.483802 
L 46.508349 45.359999 
z
" clip-path="url(#pcc20059efa)" style="fill: none; stroke: #4169e1; stroke-opacity: 0.5; stroke-width: 1.5"/>
    <path d="M 52.245187 41.160001 
L 51.884622 40.320001 
L 51.709158 39.480001 
L 51.678014 38.640001 
L 51.762138 37.800001 
L 51.940558 36.960001 
L 52.198018 36.120001 
L 52.475797 35.407969 
L 52.531393 35.280001 
L 52.975413 34.440001 
L 53.321251 33.863649 
L 53.499752 33.600001 
L 54.133412 32.760001 
L 54.166706 32.720134 
L 54.931353 31.920001 
L 55.01216 31.841703 
L 55.857615 31.148194 
L 55.961322 31.080001 
L 56.703069 30.625264 
L 57.529465 30.240001 
L 57.548524 30.231637 
L 58.393976 30.015484 
L 59.239431 29.963054 
L 60.084885 30.115669 
L 60.354113 30.240001 
L 60.93034 30.596524 
L 61.380093 31.080001 
L 61.775794 31.73505 
L 61.854908 31.920001 
L 62.064316 32.760001 
L 62.134634 33.600001 
L 62.091977 34.440001 
L 61.955578 35.280001 
L 61.775794 35.973692 
L 61.733752 36.120001 
L 61.406152 36.960001 
L 61.015392 37.800001 
L 60.93034 37.954534 
L 60.509294 38.640001 
L 60.084885 39.259653 
L 59.912996 39.480001 
L 59.239431 40.264862 
L 59.184147 40.320001 
L 58.393976 41.044893 
L 58.242409 41.160001 
L 57.548524 41.649908 
L 56.92078 41.999999 
L 56.703069 42.113975 
L 55.857615 42.412333 
L 55.01216 42.558074 
L 54.166706 42.513167 
L 53.321251 42.222104 
L 52.996428 41.999999 
L 52.475797 41.501546 
L 52.245187 41.160001 
z
" clip-path="url(#pcc20059efa)" style="fill: none; stroke: #4169e1; stroke-opacity: 0.5; stroke-width: 1.5"/>
    <path clip-path="url(#pcc20059efa)" style="fill: none; stroke: #4169e1; stroke-opacity: 0.5; stroke-width: 1.5"/>
   </g>
   <g id="patch_3">
    <path d="M 16.12125 83.16 
L 16.12125 0 
" style="fill: none; stroke: #000000; stroke-width: 1.5; stroke-linejoin: miter; stroke-linecap: square"/>
   </g>
   <g id="patch_4">
    <path d="M 16.12125 83.16 
L 99.82125 83.16 
" style="fill: none; stroke: #000000; stroke-width: 1.5; stroke-linejoin: miter; stroke-linecap: square"/>
   </g>
  </g>
 </g>
 <defs>
  <clipPath id="pcc20059efa">
   <rect x="16.12125" y="0" width="83.7" height="83.16"/>
  </clipPath>
 </defs>
</svg>
