<?xml version="1.0" encoding="utf-8" standalone="no"?>
<!DOCTYPE svg PUBLIC "-//W3C//DTD SVG 1.1//EN"
  "http://www.w3.org/Graphics/SVG/1.1/DTD/svg11.dtd">
<svg xmlns:xlink="http://www.w3.org/1999/xlink" width="95.01625pt" height="94.47625pt" viewBox="0 0 95.01625 94.47625" xmlns="http://www.w3.org/2000/svg" version="1.1">
 <metadata>
  <rdf:RDF xmlns:dc="http://purl.org/dc/elements/1.1/" xmlns:cc="http://creativecommons.org/ns#" xmlns:rdf="http://www.w3.org/1999/02/22-rdf-syntax-ns#">
   <cc:Work>
    <dc:type rdf:resource="http://purl.org/dc/dcmitype/StillImage"/>
    <dc:date>2024-02-07T11:27:32.514813</dc:date>
    <dc:format>image/svg+xml</dc:format>
    <dc:creator>
     <cc:Agent>
      <dc:title>Matplotlib v3.8.2, https://matplotlib.org/</dc:title>
     </cc:Agent>
    </dc:creator>
   </cc:Work>
  </rdf:RDF>
 </metadata>
 <defs>
  <style type="text/css">*{stroke-linejoin: round; stroke-linecap: butt}</style>
 </defs>
 <g id="figure_1">
  <g id="patch_1">
   <path d="M 0 94.47625 
L 95.01625 94.47625 
L 95.01625 0 
L 0 0 
z
" style="fill: #ffffff"/>
  </g>
  <g id="axes_1">
   <g id="patch_2">
    <path d="M 11.31625 83.16 
L 95.01625 83.16 
L 95.01625 0 
L 11.31625 0 
z
" style="fill: #ffffff"/>
   </g>
   <g id="PathCollection_1">
    <defs>
     <path id="m0074a94ed7" d="M 0 1.5 
C 0.397805 1.5 0.77937 1.341951 1.06066 1.06066 
C 1.341951 0.77937 1.5 0.397805 1.5 0 
C 1.5 -0.397805 1.341951 -0.77937 1.06066 -1.06066 
C 0.77937 -1.341951 0.397805 -1.5 0 -1.5 
C -0.397805 -1.5 -0.77937 -1.341951 -1.06066 -1.06066 
C -1.341951 -0.77937 -1.5 -0.397805 -1.5 0 
C -1.5 0.397805 -1.341951 0.77937 -1.06066 1.06066 
C -0.77937 1.341951 -0.397805 1.5 0 1.5 
z
" style="stroke: #c23335"/>
    </defs>
    <g clip-path="url(#pe0f8d36e41)">
     <use xlink:href="#m0074a94ed7" x="85.220122" y="47.243334" style="fill: #c23335; stroke: #c23335"/>
     <use xlink:href="#m0074a94ed7" x="60.065179" y="49.036478" style="fill: #c23335; stroke: #c23335"/>
     <use xlink:href="#m0074a94ed7" x="49.898827" y="27.166336" style="fill: #c23335; stroke: #c23335"/>
     <use xlink:href="#m0074a94ed7" x="53.101625" y="33.752843" style="fill: #c23335; stroke: #c23335"/>
     <use xlink:href="#m0074a94ed7" x="59.7998" y="34.32739" style="fill: #c23335; stroke: #c23335"/>
     <use xlink:href="#m0074a94ed7" x="61.695036" y="54.942166" style="fill: #c23335; stroke: #c23335"/>
     <use xlink:href="#m0074a94ed7" x="82.520407" y="55.895975" style="fill: #c23335; stroke: #c23335"/>
     <use xlink:href="#m0074a94ed7" x="45.817613" y="44.181169" style="fill: #c23335; stroke: #c23335"/>
     <use xlink:href="#m0074a94ed7" x="36.092797" y="18.600421" style="fill: #c23335; stroke: #c23335"/>
     <use xlink:href="#m0074a94ed7" x="96.866826" y="63.531568" style="fill: #c23335; stroke: #c23335"/>
     <use xlink:href="#m0074a94ed7" x="60.432581" y="36.958985" style="fill: #c23335; stroke: #c23335"/>
     <use xlink:href="#m0074a94ed7" x="36.945897" y="32.974388" style="fill: #c23335; stroke: #c23335"/>
     <use xlink:href="#m0074a94ed7" x="58.065265" y="40.553454" style="fill: #c23335; stroke: #c23335"/>
     <use xlink:href="#m0074a94ed7" x="68.51196" y="53.891047" style="fill: #c23335; stroke: #c23335"/>
     <use xlink:href="#m0074a94ed7" x="57.280115" y="29.119624" style="fill: #c23335; stroke: #c23335"/>
     <use xlink:href="#m0074a94ed7" x="41.056545" y="17.938342" style="fill: #c23335; stroke: #c23335"/>
     <use xlink:href="#m0074a94ed7" x="60.140136" y="34.176303" style="fill: #c23335; stroke: #c23335"/>
     <use xlink:href="#m0074a94ed7" x="45.22453" y="24.555278" style="fill: #c23335; stroke: #c23335"/>
     <use xlink:href="#m0074a94ed7" x="49.901856" y="27.211341" style="fill: #c23335; stroke: #c23335"/>
     <use xlink:href="#m0074a94ed7" x="67.150727" y="57.617101" style="fill: #c23335; stroke: #c23335"/>
     <use xlink:href="#m0074a94ed7" x="62.228688" y="49.350183" style="fill: #c23335; stroke: #c23335"/>
     <use xlink:href="#m0074a94ed7" x="54.152867" y="34.647619" style="fill: #c23335; stroke: #c23335"/>
     <use xlink:href="#m0074a94ed7" x="56.232832" y="45.506394" style="fill: #c23335; stroke: #c23335"/>
     <use xlink:href="#m0074a94ed7" x="91.887669" y="63.066991" style="fill: #c23335; stroke: #c23335"/>
     <use xlink:href="#m0074a94ed7" x="67.078865" y="49.018857" style="fill: #c23335; stroke: #c23335"/>
     <use xlink:href="#m0074a94ed7" x="64.043019" y="45.137565" style="fill: #c23335; stroke: #c23335"/>
     <use xlink:href="#m0074a94ed7" x="66.273526" y="51.053374" style="fill: #c23335; stroke: #c23335"/>
     <use xlink:href="#m0074a94ed7" x="55.97139" y="42.730939" style="fill: #c23335; stroke: #c23335"/>
     <use xlink:href="#m0074a94ed7" x="61.5707" y="41.497245" style="fill: #c23335; stroke: #c23335"/>
     <use xlink:href="#m0074a94ed7" x="50.288753" y="42.043845" style="fill: #c23335; stroke: #c23335"/>
     <use xlink:href="#m0074a94ed7" x="81.739726" y="51.372701" style="fill: #c23335; stroke: #c23335"/>
     <use xlink:href="#m0074a94ed7" x="53.085058" y="41.356254" style="fill: #c23335; stroke: #c23335"/>
     <use xlink:href="#m0074a94ed7" x="58.894793" y="41.100235" style="fill: #c23335; stroke: #c23335"/>
     <use xlink:href="#m0074a94ed7" x="50.798001" y="33.013056" style="fill: #c23335; stroke: #c23335"/>
     <use xlink:href="#m0074a94ed7" x="36.168542" y="18.830624" style="fill: #c23335; stroke: #c23335"/>
     <use xlink:href="#m0074a94ed7" x="51.14339" y="30.04848" style="fill: #c23335; stroke: #c23335"/>
     <use xlink:href="#m0074a94ed7" x="54.251625" y="40.089592" style="fill: #c23335; stroke: #c23335"/>
     <use xlink:href="#m0074a94ed7" x="67.790381" y="33.126347" style="fill: #c23335; stroke: #c23335"/>
     <use xlink:href="#m0074a94ed7" x="31.03115" y="3.296422" style="fill: #c23335; stroke: #c23335"/>
     <use xlink:href="#m0074a94ed7" x="36.957894" y="23.43532" style="fill: #c23335; stroke: #c23335"/>
     <use xlink:href="#m0074a94ed7" x="49.472612" y="32.250709" style="fill: #c23335; stroke: #c23335"/>
     <use xlink:href="#m0074a94ed7" x="66.888144" y="47.104609" style="fill: #c23335; stroke: #c23335"/>
     <use xlink:href="#m0074a94ed7" x="58.551393" y="38.158213" style="fill: #c23335; stroke: #c23335"/>
     <use xlink:href="#m0074a94ed7" x="21.903699" y="22.426135" style="fill: #c23335; stroke: #c23335"/>
     <use xlink:href="#m0074a94ed7" x="47.026488" y="35.767659" style="fill: #c23335; stroke: #c23335"/>
     <use xlink:href="#m0074a94ed7" x="58.196592" y="57.501289" style="fill: #c23335; stroke: #c23335"/>
     <use xlink:href="#m0074a94ed7" x="40.316257" y="19.021336" style="fill: #c23335; stroke: #c23335"/>
     <use xlink:href="#m0074a94ed7" x="52.883215" y="43.773234" style="fill: #c23335; stroke: #c23335"/>
     <use xlink:href="#m0074a94ed7" x="46.051" y="27.263142" style="fill: #c23335; stroke: #c23335"/>
     <use xlink:href="#m0074a94ed7" x="68.842599" y="44.674504" style="fill: #c23335; stroke: #c23335"/>
    </g>
   </g>
   <g id="matplotlib.axis_1">
    <g id="text_1">
     <text style="font: 8px 'Arial', sans-serif, serif; text-anchor: middle" x="53.16625" y="92.88625" transform="rotate(-0 53.16625 92.88625)">dim 1</text>
    </g>
   </g>
   <g id="matplotlib.axis_2">
    <g id="text_2">
     <text style="font: 8px 'Arial', sans-serif, serif; text-anchor: middle" x="5.72625" y="41.58" transform="rotate(-90 5.72625 41.58)">dim 2</text>
    </g>
   </g>
   <g id="QuadContourSet_1">
    <path clip-path="url(#pe0f8d36e41)" style="fill: none; stroke: #c23335; stroke-opacity: 0.5; stroke-width: 1.5"/>
    <path d="M 29.735937 21.840001 
L 29.51821 21 
L 29.367368 20.160001 
L 29.294287 19.320001 
L 29.318779 18.480001 
L 29.474174 17.64 
L 29.815586 16.800001 
L 29.916251 16.6426 
L 30.485601 15.960001 
L 30.761706 15.732985 
L 31.60716 15.253459 
L 31.987167 15.12 
L 32.452613 14.983716 
L 33.298069 14.84589 
L 34.143524 14.800199 
L 34.988978 14.825941 
L 35.834432 14.90981 
L 36.679887 15.043622 
L 37.034905 15.12 
L 37.525343 15.215939 
L 38.370796 15.419679 
L 39.216251 15.658504 
L 40.061705 15.934026 
L 40.132207 15.960001 
L 40.90716 16.220317 
L 41.752615 16.537282 
L 42.381854 16.800001 
L 42.598069 16.882662 
L 43.443524 17.234601 
L 44.288978 17.62575 
L 44.317804 17.64 
L 45.134433 18.011133 
L 45.979887 18.436833 
L 46.060711 18.480001 
L 46.825342 18.857135 
L 47.670797 19.318795 
L 47.672908 19.320001 
L 48.516251 19.767025 
L 49.189525 20.160001 
L 49.361706 20.253668 
L 50.20716 20.73884 
L 50.629119 21 
L 51.052615 21.245397 
L 51.898069 21.774011 
L 51.999273 21.840001 
L 52.743524 22.29641 
L 53.320308 22.680002 
L 53.588976 22.848839 
L 54.434431 23.412273 
L 54.589141 23.520001 
L 55.279885 23.976555 
L 55.820064 24.36 
L 56.12534 24.566666 
L 56.970794 25.176131 
L 57.003081 25.200001 
L 57.816249 25.77597 
L 58.166726 26.040002 
L 58.661703 26.398932 
L 59.288206 26.880001 
L 59.507158 27.042595 
L 60.352613 27.702461 
L 60.374659 27.720001 
L 61.198067 28.356435 
L 61.449198 28.560001 
L 62.043522 29.030235 
L 62.491117 29.400001 
L 62.888976 29.722334 
L 63.503644 30.240001 
L 63.734431 30.431517 
L 64.489498 31.080001 
L 64.579885 31.156854 
L 65.42534 31.894337 
L 65.454351 31.920001 
L 66.270795 32.638254 
L 66.405804 32.760001 
L 67.116249 33.400134 
L 67.333605 33.600001 
L 67.961704 34.179833 
L 68.23908 34.440001 
L 68.807157 34.977482 
L 69.123239 35.280001 
L 69.652613 35.793521 
L 69.986792 36.120001 
L 70.498068 36.628689 
L 70.830173 36.960001 
L 71.343522 37.484057 
L 71.653543 37.800001 
L 72.188976 38.36107 
L 72.456799 38.640001 
L 73.034431 39.261574 
L 73.239566 39.480001 
L 73.879887 40.187885 
L 74.001192 40.320001 
L 74.72534 41.142838 
L 74.74074 41.160001 
L 75.471253 41.999999 
L 75.570794 42.120425 
L 76.182087 42.839999 
L 76.416249 43.132105 
L 76.869647 43.679999 
L 77.261705 44.18461 
L 77.531891 44.519999 
L 78.107159 45.284448 
L 78.166369 45.359999 
L 78.791599 46.199999 
L 78.952612 46.432622 
L 79.393966 47.039999 
L 79.798068 47.645583 
L 79.963012 47.879999 
L 80.510596 48.719999 
L 80.643523 48.941341 
L 81.038441 49.559999 
L 81.488977 50.343264 
L 81.523819 50.399999 
L 81.997151 51.239999 
L 82.334431 51.913207 
L 82.42436 52.079999 
L 82.827806 52.919999 
L 83.179663 53.759999 
L 83.179884 53.760622 
L 83.504538 54.599999 
L 83.77283 55.439999 
L 83.983842 56.279999 
L 84.025341 56.526595 
L 84.13529 57.119998 
L 84.207207 57.959999 
L 84.179421 58.8 
L 84.025341 59.620892 
L 84.021232 59.639999 
L 83.665778 60.479998 
L 83.179884 61.128862 
L 82.986876 61.319999 
L 82.334431 61.780886 
L 81.488977 62.151265 
L 81.456909 62.16 
L 80.643523 62.348966 
L 79.798068 62.439453 
L 78.952612 62.44886 
L 78.107159 62.39388 
L 77.261705 62.285074 
L 76.590023 62.16 
L 76.416249 62.130568 
L 75.570794 61.944966 
L 74.72534 61.72405 
L 73.879887 61.467212 
L 73.456693 61.319999 
L 73.034431 61.186061 
L 72.188976 60.88603 
L 71.343522 60.55019 
L 71.18221 60.479998 
L 70.498068 60.207514 
L 69.652613 59.836421 
L 69.242667 59.639999 
L 68.807157 59.448155 
L 67.961704 59.043962 
L 67.492843 58.8 
L 67.116249 58.619047 
L 66.270795 58.181322 
L 65.874823 57.959999 
L 65.42534 57.726957 
L 64.579885 57.252928 
L 64.35654 57.119998 
L 63.734431 56.774993 
L 62.919941 56.279999 
L 62.888976 56.262381 
L 62.043522 55.76293 
L 61.540471 55.439999 
L 61.198067 55.233289 
L 60.352613 54.687248 
L 60.223183 54.599999 
L 59.507158 54.144009 
L 58.948484 53.759999 
L 58.661703 53.5729 
L 57.816249 52.986879 
L 57.723061 52.919999 
L 56.970794 52.405211 
L 56.526191 52.079999 
L 56.12534 51.799113 
L 55.375564 51.239999 
L 55.279885 51.171326 
L 54.434431 50.544383 
L 54.247959 50.399999 
L 53.588976 49.906652 
L 53.149639 49.559999 
L 52.743524 49.248713 
L 52.08616 48.719999 
L 51.898069 48.572347 
L 51.053837 47.879999 
L 51.052615 47.879016 
L 50.20716 47.189949 
L 50.03009 47.039999 
L 49.361706 46.482426 
L 49.034494 46.199999 
L 48.516251 45.757275 
L 48.064806 45.359999 
L 47.670797 45.015196 
L 47.119044 44.519999 
L 46.825342 44.256622 
L 46.195601 43.679999 
L 45.979887 43.481704 
L 45.293193 42.839999 
L 45.134433 42.690345 
L 44.410844 41.999999 
L 44.288978 41.882154 
L 43.547854 41.160001 
L 43.443524 41.056466 
L 42.703786 40.320001 
L 42.598069 40.212292 
L 41.87846 39.480001 
L 41.752615 39.348311 
L 41.071942 38.640001 
L 40.90716 38.462813 
L 40.284555 37.800001 
L 40.061705 37.553656 
L 39.516872 36.960001 
L 39.216251 36.618199 
L 38.769748 36.120001 
L 38.370796 35.653216 
L 38.044318 35.280001 
L 37.525343 34.654801 
L 37.34204 34.440001 
L 36.679887 33.61823 
L 36.664721 33.600001 
L 35.992574 32.760001 
L 35.834432 32.548765 
L 35.344455 31.920001 
L 34.988978 31.42893 
L 34.724905 31.080001 
L 34.143524 30.248712 
L 34.137127 30.240001 
L 33.552476 29.400001 
L 33.298069 28.999764 
L 33.00217 28.560001 
L 32.487535 27.720001 
L 32.452613 27.658278 
L 31.982753 26.880001 
L 31.60716 26.184511 
L 31.523517 26.040002 
L 31.083845 25.200001 
L 30.761706 24.502932 
L 30.690345 24.36 
L 30.323387 23.520001 
L 30.009322 22.680002 
L 29.916251 22.377068 
L 29.735937 21.840001 
z
" clip-path="url(#pe0f8d36e41)" style="fill: none; stroke: #c23335; stroke-opacity: 0.5; stroke-width: 1.5"/>
    <path d="M 35.641375 25.200001 
L 35.470955 24.36 
L 35.398507 23.520001 
L 35.457725 22.680002 
L 35.708886 21.840001 
L 35.834432 21.619888 
L 36.330394 21 
L 36.679887 20.730525 
L 37.525343 20.33331 
L 38.298931 20.160001 
L 38.370796 20.1471 
L 39.216251 20.097685 
L 40.061705 20.137194 
L 40.229396 20.160001 
L 40.90716 20.246776 
L 41.752615 20.410422 
L 42.598069 20.619423 
L 43.443524 20.870025 
L 43.816581 21 
L 44.288978 21.15491 
L 45.134433 21.468305 
L 45.979887 21.816832 
L 46.030747 21.840001 
L 46.825342 22.181633 
L 47.670797 22.57846 
L 47.870462 22.680002 
L 48.516251 22.991229 
L 49.361706 23.432359 
L 49.518918 23.520001 
L 50.20716 23.885094 
L 51.03537 24.36 
L 51.052615 24.369456 
L 51.898069 24.856711 
L 52.452681 25.200001 
L 52.743524 25.372876 
L 53.588976 25.904289 
L 53.79425 26.040002 
L 54.434431 26.448157 
L 55.07102 26.880001 
L 55.279885 27.01731 
L 56.12534 27.599085 
L 56.29384 27.720001 
L 56.970794 28.192769 
L 57.469927 28.560001 
L 57.816249 28.809194 
L 58.599093 29.400001 
L 58.661703 29.44644 
L 59.507158 30.091052 
L 59.695425 30.240001 
L 60.352613 30.753164 
L 60.755628 31.080001 
L 61.198067 31.435876 
L 61.780158 31.920001 
L 62.043522 32.138324 
L 62.771999 32.760001 
L 62.888976 32.859996 
L 63.733615 33.600001 
L 63.734431 33.600721 
L 64.579885 34.354996 
L 64.673356 34.440001 
L 65.42534 35.131297 
L 65.584714 35.280001 
L 66.270795 35.930314 
L 66.468837 36.120001 
L 67.116249 36.753101 
L 67.326556 36.960001 
L 67.961704 37.601177 
L 68.158343 37.800001 
L 68.807157 38.476572 
L 68.964323 38.640001 
L 69.652613 39.381912 
L 69.744273 39.480001 
L 70.497654 40.320001 
L 70.498068 40.320482 
L 71.23241 41.160001 
L 71.343522 41.293965 
L 71.940688 41.999999 
L 72.188976 42.311266 
L 72.620969 42.839999 
L 73.034431 43.379544 
L 73.271307 43.679999 
L 73.879887 44.507603 
L 73.889306 44.519999 
L 74.488465 45.359999 
L 74.72534 45.72114 
L 75.052481 46.199999 
L 75.570794 47.030544 
L 75.576967 47.039999 
L 76.076287 47.879999 
L 76.416249 48.517792 
L 76.529899 48.719999 
L 76.94441 49.559999 
L 77.261705 50.299137 
L 77.307718 50.399999 
L 77.619715 51.239999 
L 77.865125 52.079999 
L 78.034093 52.919999 
L 78.10595 53.759999 
L 78.042363 54.599999 
L 77.773488 55.439999 
L 77.261705 56.171306 
L 77.149806 56.279999 
L 76.416249 56.745504 
L 75.570794 57.029205 
L 74.92603 57.119998 
L 74.72534 57.143265 
L 73.879887 57.146872 
L 73.590609 57.119998 
L 73.034431 57.071308 
L 72.188976 56.934504 
L 71.343522 56.748534 
L 70.498068 56.519208 
L 69.752954 56.279999 
L 69.652613 56.249663 
L 68.807157 55.953025 
L 67.961704 55.622824 
L 67.540948 55.439999 
L 67.116249 55.265772 
L 66.270795 54.886461 
L 65.686188 54.599999 
L 65.42534 54.478838 
L 64.579885 54.055956 
L 64.032935 53.759999 
L 63.734431 53.606262 
L 62.888976 53.141435 
L 62.512555 52.919999 
L 62.043522 52.656288 
L 61.198067 52.147774 
L 61.09081 52.079999 
L 60.352613 51.632288 
L 59.74782 51.239999 
L 59.507158 51.089435 
L 58.661703 50.53321 
L 58.46844 50.399999 
L 57.816249 49.964573 
L 57.243959 49.559999 
L 56.970794 49.37203 
L 56.12534 48.761371 
L 56.069787 48.719999 
L 55.279885 48.144966 
L 54.932732 47.879999 
L 54.434431 47.506395 
L 53.838488 47.039999 
L 53.588976 46.847237 
L 52.782812 46.199999 
L 52.743524 46.168707 
L 51.898069 45.48091 
L 51.75376 45.359999 
L 51.052615 44.774765 
L 50.75602 44.519999 
L 50.20716 44.048016 
L 49.78946 43.679999 
L 49.361706 43.30083 
L 48.852043 42.839999 
L 48.516251 42.533008 
L 47.942165 41.999999 
L 47.670797 41.743972 
L 47.058616 41.160001 
L 46.825342 40.932738 
L 46.200543 40.320001 
L 45.979887 40.097873 
L 45.367452 39.480001 
L 45.134433 39.237451 
L 44.559179 38.640001 
L 44.288978 38.348973 
L 43.775894 37.800001 
L 43.443524 37.429286 
L 43.018101 36.960001 
L 42.598069 36.474458 
L 42.286654 36.120001 
L 41.752615 35.479644 
L 41.582773 35.280001 
L 40.908009 34.440001 
L 40.90716 34.438887 
L 40.250319 33.600001 
L 40.061705 33.341457 
L 39.623627 32.760001 
L 39.216251 32.176309 
L 39.030688 31.920001 
L 38.468731 31.080001 
L 38.370796 30.920437 
L 37.934152 30.240001 
L 37.525343 29.536665 
L 37.441922 29.400001 
L 36.98258 28.560001 
L 36.679887 27.935033 
L 36.569654 27.720001 
L 36.201595 26.880001 
L 35.890791 26.040002 
L 35.834432 25.840035 
L 35.641375 25.200001 
z
" clip-path="url(#pe0f8d36e41)" style="fill: none; stroke: #c23335; stroke-opacity: 0.5; stroke-width: 1.5"/>
    <path d="M 39.970606 26.880001 
L 40.018901 26.040002 
L 40.061705 25.893657 
L 40.34782 25.200001 
L 40.90716 24.615185 
L 41.362966 24.36 
L 41.752615 24.216306 
L 42.598069 24.082768 
L 43.443524 24.084875 
L 44.288978 24.181012 
L 45.134433 24.347835 
L 45.177778 24.36 
L 45.979887 24.577457 
L 46.825342 24.850343 
L 47.670797 25.162969 
L 47.757526 25.200001 
L 48.516251 25.513131 
L 49.361706 25.893975 
L 49.656256 26.040002 
L 50.20716 26.304901 
L 51.052615 26.742515 
L 51.299032 26.880001 
L 51.898069 27.205338 
L 52.743524 27.694419 
L 52.785164 27.720001 
L 53.588976 28.202491 
L 54.151539 28.560001 
L 54.434431 28.736569 
L 55.279885 29.2912 
L 55.438202 29.400001 
L 56.12534 29.865542 
L 56.652802 30.240001 
L 56.970794 30.463716 
L 57.810511 31.080001 
L 57.816249 31.084196 
L 58.661703 31.721161 
L 58.916183 31.920001 
L 59.507158 32.381726 
L 59.975992 32.760001 
L 60.352613 33.065443 
L 60.993706 33.600001 
L 61.198067 33.772188 
L 61.972403 34.440001 
L 62.043522 34.502311 
L 62.888976 35.256344 
L 62.915111 35.280001 
L 63.734431 36.036141 
L 63.824093 36.120001 
L 64.579885 36.844534 
L 64.699264 36.960001 
L 65.42534 37.683685 
L 65.541517 37.800001 
L 66.270795 38.556502 
L 66.351284 38.640001 
L 67.116249 39.466737 
L 67.128576 39.480001 
L 67.875385 40.320001 
L 67.961704 40.422567 
L 68.589897 41.160001 
L 68.807157 41.431142 
L 69.270582 41.999999 
L 69.652613 42.501636 
L 69.915763 42.839999 
L 70.498068 43.646033 
L 70.523238 43.679999 
L 71.093986 44.519999 
L 71.343522 44.923511 
L 71.622541 45.359999 
L 72.104454 46.199999 
L 72.188976 46.370351 
L 72.535049 47.039999 
L 72.907284 47.879999 
L 73.034431 48.243334 
L 73.209487 48.719999 
L 73.423046 49.559999 
L 73.525381 50.399999 
L 73.466065 51.239999 
L 73.144887 52.079999 
L 73.034431 52.224598 
L 72.188976 52.886603 
L 72.102308 52.919999 
L 71.343522 53.122537 
L 70.498068 53.183985 
L 69.652613 53.133072 
L 68.807157 53.001015 
L 68.470764 52.919999 
L 67.961704 52.801404 
L 67.116249 52.550591 
L 66.270795 52.258676 
L 65.822651 52.079999 
L 65.42534 51.926745 
L 64.579885 51.562339 
L 63.896462 51.239999 
L 63.734431 51.165817 
L 62.888976 50.743192 
L 62.250318 50.399999 
L 62.043522 50.291757 
L 61.198067 49.818348 
L 60.765184 49.559999 
L 60.352613 49.319291 
L 59.507158 48.797223 
L 59.388496 48.719999 
L 58.661703 48.25588 
L 58.102911 47.879999 
L 57.816249 47.689797 
L 56.970794 47.102819 
L 56.883799 47.039999 
L 56.12534 46.497725 
L 55.725959 46.199999 
L 55.279885 45.869037 
L 54.618944 45.359999 
L 54.434431 45.217822 
L 53.588976 44.545364 
L 53.557867 44.519999 
L 52.743524 43.853195 
L 52.537701 43.679999 
L 51.898069 43.136649 
L 51.556748 42.839999 
L 51.052615 42.395352 
L 50.612561 41.999999 
L 50.20716 41.628412 
L 49.703237 41.160001 
L 49.361706 40.834373 
L 48.827362 40.320001 
L 48.516251 40.011141 
L 47.983996 39.480001 
L 47.670797 39.15589 
L 47.172637 38.640001 
L 46.825342 38.264944 
L 46.393222 37.800001 
L 45.979887 37.333589 
L 45.646115 36.960001 
L 45.134433 36.355886 
L 44.932117 36.120001 
L 44.288978 35.324381 
L 44.25249 35.280001 
L 43.605356 34.440001 
L 43.443524 34.213384 
L 42.994532 33.600001 
L 42.598069 33.011696 
L 42.423432 32.760001 
L 41.894405 31.920001 
L 41.752615 31.667511 
L 41.41031 31.080001 
L 40.977441 30.240001 
L 40.90716 30.075969 
L 40.604385 29.400001 
L 40.300433 28.560001 
L 40.077172 27.720001 
L 40.061705 27.592278 
L 39.970606 26.880001 
z
" clip-path="url(#pe0f8d36e41)" style="fill: none; stroke: #c23335; stroke-opacity: 0.5; stroke-width: 1.5"/>
    <path d="M 44.223581 30.240001 
L 44.192612 29.400001 
L 44.288978 29.0165 
L 44.473302 28.560001 
L 45.134433 27.993225 
L 45.979887 27.739294 
L 46.825342 27.730599 
L 47.670797 27.854883 
L 48.516251 28.061897 
L 49.361706 28.327715 
L 49.975679 28.560001 
L 50.20716 28.647245 
L 51.052615 29.019089 
L 51.85225 29.400001 
L 51.898069 29.421786 
L 52.743524 29.870394 
L 53.401408 30.240001 
L 53.588976 30.345421 
L 54.434431 30.854613 
L 54.788333 31.080001 
L 55.279885 31.394001 
L 56.068806 31.920001 
L 56.12534 31.958033 
L 56.970794 32.555019 
L 57.250205 32.760001 
L 57.816249 33.180133 
L 58.364155 33.600001 
L 58.661703 33.832049 
L 59.420139 34.440001 
L 59.507158 34.511414 
L 60.352613 35.222483 
L 60.419426 35.280001 
L 61.198067 35.96807 
L 61.367098 36.120001 
L 62.043522 36.747805 
L 62.269297 36.960001 
L 62.888976 37.565031 
L 63.127692 37.800001 
L 63.734431 38.424272 
L 63.943334 38.640001 
L 64.579885 39.331506 
L 64.716687 39.480001 
L 65.42534 40.294505 
L 65.447639 40.320001 
L 66.130964 41.160001 
L 66.270795 41.346159 
L 66.768179 41.999999 
L 67.116249 42.498931 
L 67.358294 42.839999 
L 67.895357 43.679999 
L 67.961704 43.801428 
L 68.364005 44.519999 
L 68.771425 45.359999 
L 68.807157 45.460769 
L 69.077637 46.199999 
L 69.270735 47.039999 
L 69.293746 47.879999 
L 69.00911 48.719999 
L 68.807157 48.950828 
L 67.961704 49.421241 
L 67.116249 49.537076 
L 66.270795 49.474319 
L 65.42534 49.307405 
L 64.579885 49.071158 
L 63.734431 48.782163 
L 63.585248 48.719999 
L 62.888976 48.431697 
L 62.043522 48.046742 
L 61.714628 47.879999 
L 61.198067 47.619179 
L 60.352613 47.161617 
L 60.145153 47.039999 
L 59.507158 46.666556 
L 58.747885 46.199999 
L 58.661703 46.146806 
L 57.816249 45.593083 
L 57.476108 45.359999 
L 56.970794 45.011255 
L 56.285141 44.519999 
L 56.12534 44.404005 
L 55.279885 43.767809 
L 55.167225 43.679999 
L 54.434431 43.099752 
L 54.11506 42.839999 
L 53.588976 42.402773 
L 53.115046 41.999999 
L 52.743524 41.675434 
L 52.163972 41.160001 
L 51.898069 40.915428 
L 51.259347 40.320001 
L 51.052615 40.119446 
L 50.399362 39.480001 
L 50.20716 39.282958 
L 49.582831 38.640001 
L 49.361706 38.399925 
L 48.809173 37.800001 
L 48.516251 37.462416 
L 48.078393 36.960001 
L 47.670797 36.460061 
L 47.391089 36.120001 
L 46.825342 35.379339 
L 46.748449 35.280001 
L 46.159747 34.440001 
L 45.979887 34.153746 
L 45.624702 33.600001 
L 45.143583 32.760001 
L 45.134433 32.740072 
L 44.747292 31.920001 
L 44.428201 31.080001 
L 44.288978 30.502183 
L 44.223581 30.240001 
z
" clip-path="url(#pe0f8d36e41)" style="fill: none; stroke: #c23335; stroke-opacity: 0.5; stroke-width: 1.5"/>
    <path d="M 49.233075 34.440001 
L 48.959449 33.600001 
L 48.911385 32.760001 
L 49.361706 32.015851 
L 49.572796 31.920001 
L 50.20716 31.797929 
L 51.052615 31.869006 
L 51.243376 31.920001 
L 51.898069 32.103372 
L 52.743524 32.423597 
L 53.511706 32.760001 
L 53.588976 32.795318 
L 54.434431 33.255661 
L 55.033403 33.600001 
L 55.279885 33.747581 
L 56.12534 34.292364 
L 56.340224 34.440001 
L 56.970794 34.890848 
L 57.498871 35.280001 
L 57.816249 35.525366 
L 58.565925 36.120001 
L 58.661703 36.200387 
L 59.507158 36.928691 
L 59.542449 36.960001 
L 60.352613 37.719667 
L 60.437127 37.800001 
L 61.198067 38.570809 
L 61.265754 38.640001 
L 62.028175 39.480001 
L 62.043522 39.498891 
L 62.708735 40.320001 
L 62.888976 40.568821 
L 63.317952 41.160001 
L 63.734431 41.811955 
L 63.85531 41.999999 
L 64.269544 42.839999 
L 64.571304 43.679999 
L 64.579885 43.846528 
L 64.614981 44.519999 
L 64.579885 44.615039 
L 63.877078 45.359999 
L 63.734431 45.411664 
L 62.888976 45.445273 
L 62.416126 45.359999 
L 62.043522 45.289008 
L 61.198067 45.003195 
L 60.352613 44.661361 
L 60.063361 44.519999 
L 59.507158 44.238006 
L 58.661703 43.775803 
L 58.504772 43.679999 
L 57.816249 43.244368 
L 57.200322 42.839999 
L 56.970794 42.682544 
L 56.12534 42.074995 
L 56.026539 41.999999 
L 55.279885 41.408144 
L 54.974309 41.160001 
L 54.434431 40.698534 
L 54.00018 40.320001 
L 53.588976 39.939524 
L 53.099773 39.480001 
L 52.743524 39.121595 
L 52.269849 38.640001 
L 51.898069 38.231233 
L 51.50821 37.800001 
L 51.052615 37.249275 
L 50.813665 36.960001 
L 50.20716 36.148266 
L 50.185977 36.120001 
L 49.668643 35.280001 
L 49.361706 34.686487 
L 49.233075 34.440001 
z
" clip-path="url(#pe0f8d36e41)" style="fill: none; stroke: #c23335; stroke-opacity: 0.5; stroke-width: 1.5"/>
    <path clip-path="url(#pe0f8d36e41)" style="fill: none; stroke: #c23335; stroke-opacity: 0.5; stroke-width: 1.5"/>
   </g>
   <g id="patch_3">
    <path d="M 11.31625 83.16 
L 11.31625 0 
" style="fill: none; stroke: #000000; stroke-width: 1.5; stroke-linejoin: miter; stroke-linecap: square"/>
   </g>
   <g id="patch_4">
    <path d="M 11.31625 83.16 
L 95.01625 83.16 
" style="fill: none; stroke: #000000; stroke-width: 1.5; stroke-linejoin: miter; stroke-linecap: square"/>
   </g>
  </g>
 </g>
 <defs>
  <clipPath id="pe0f8d36e41">
   <rect x="11.31625" y="0" width="83.7" height="83.16"/>
  </clipPath>
 </defs>
</svg>
