<?xml version="1.0" encoding="utf-8" standalone="no"?>
<!DOCTYPE svg PUBLIC "-//W3C//DTD SVG 1.1//EN"
  "http://www.w3.org/Graphics/SVG/1.1/DTD/svg11.dtd">
<svg xmlns:xlink="http://www.w3.org/1999/xlink" width="99.82125pt" height="97.47625pt" viewBox="0 0 99.82125 97.47625" xmlns="http://www.w3.org/2000/svg" version="1.1">
 <metadata>
  <rdf:RDF xmlns:dc="http://purl.org/dc/elements/1.1/" xmlns:cc="http://creativecommons.org/ns#" xmlns:rdf="http://www.w3.org/1999/02/22-rdf-syntax-ns#">
   <cc:Work>
    <dc:type rdf:resource="http://purl.org/dc/dcmitype/StillImage"/>
    <dc:date>2024-02-07T07:22:32.239930</dc:date>
    <dc:format>image/svg+xml</dc:format>
    <dc:creator>
     <cc:Agent>
      <dc:title>Matplotlib v3.8.2, https://matplotlib.org/</dc:title>
     </cc:Agent>
    </dc:creator>
   </cc:Work>
  </rdf:RDF>
 </metadata>
 <defs>
  <style type="text/css">*{stroke-linejoin: round; stroke-linecap: butt}</style>
 </defs>
 <g id="figure_1">
  <g id="patch_1">
   <path d="M 0 97.47625 
L 99.82125 97.47625 
L 99.82125 0 
L 0 0 
z
" style="fill: #ffffff"/>
  </g>
  <g id="axes_1">
   <g id="patch_2">
    <path d="M 16.12125 83.16 
L 99.82125 83.16 
L 99.82125 0 
L 16.12125 0 
z
" style="fill: #ffffff"/>
   </g>
   <g id="PathCollection_1">
    <defs>
     <path id="me7312cb52c" d="M 0 1.5 
C 0.397805 1.5 0.77937 1.341951 1.06066 1.06066 
C 1.341951 0.77937 1.5 0.397805 1.5 0 
C 1.5 -0.397805 1.341951 -0.77937 1.06066 -1.06066 
C 0.77937 -1.341951 0.397805 -1.5 0 -1.5 
C -0.397805 -1.5 -0.77937 -1.341951 -1.06066 -1.06066 
C -1.341951 -0.77937 -1.5 -0.397805 -1.5 0 
C -1.5 0.397805 -1.341951 0.77937 -1.06066 1.06066 
C -0.77937 1.341951 -0.397805 1.5 0 1.5 
z
" style="stroke: #4169e1"/>
    </defs>
    <g clip-path="url(#pe9c3c0aef9)">
     <use xlink:href="#me7312cb52c" x="70.883111" y="35.008753" style="fill: #4169e1; stroke: #4169e1"/>
     <use xlink:href="#me7312cb52c" x="78.647744" y="16.183008" style="fill: #4169e1; stroke: #4169e1"/>
     <use xlink:href="#me7312cb52c" x="67.197798" y="33.015039" style="fill: #4169e1; stroke: #4169e1"/>
     <use xlink:href="#me7312cb52c" x="52.316229" y="43.27005" style="fill: #4169e1; stroke: #4169e1"/>
     <use xlink:href="#me7312cb52c" x="46.957269" y="39.813148" style="fill: #4169e1; stroke: #4169e1"/>
     <use xlink:href="#me7312cb52c" x="34.692731" y="50.247802" style="fill: #4169e1; stroke: #4169e1"/>
     <use xlink:href="#me7312cb52c" x="45.695174" y="35.385454" style="fill: #4169e1; stroke: #4169e1"/>
     <use xlink:href="#me7312cb52c" x="27.791608" y="70.972699" style="fill: #4169e1; stroke: #4169e1"/>
     <use xlink:href="#me7312cb52c" x="55.428796" y="45.785367" style="fill: #4169e1; stroke: #4169e1"/>
     <use xlink:href="#me7312cb52c" x="29.816417" y="68.103943" style="fill: #4169e1; stroke: #4169e1"/>
     <use xlink:href="#me7312cb52c" x="82.149619" y="13.240377" style="fill: #4169e1; stroke: #4169e1"/>
     <use xlink:href="#me7312cb52c" x="51.087416" y="41.740644" style="fill: #4169e1; stroke: #4169e1"/>
     <use xlink:href="#me7312cb52c" x="66.786904" y="42.111063" style="fill: #4169e1; stroke: #4169e1"/>
     <use xlink:href="#me7312cb52c" x="35.863947" y="63.25875" style="fill: #4169e1; stroke: #4169e1"/>
     <use xlink:href="#me7312cb52c" x="66.497174" y="40.253203" style="fill: #4169e1; stroke: #4169e1"/>
     <use xlink:href="#me7312cb52c" x="76.719135" y="33.397471" style="fill: #4169e1; stroke: #4169e1"/>
     <use xlink:href="#me7312cb52c" x="81.824342" y="8.240164" style="fill: #4169e1; stroke: #4169e1"/>
     <use xlink:href="#me7312cb52c" x="75.447436" y="29.465938" style="fill: #4169e1; stroke: #4169e1"/>
     <use xlink:href="#me7312cb52c" x="58.991607" y="36.518811" style="fill: #4169e1; stroke: #4169e1"/>
     <use xlink:href="#me7312cb52c" x="45.81674" y="40.195583" style="fill: #4169e1; stroke: #4169e1"/>
     <use xlink:href="#me7312cb52c" x="63.703591" y="38.646537" style="fill: #4169e1; stroke: #4169e1"/>
     <use xlink:href="#me7312cb52c" x="65.21922" y="27.313351" style="fill: #4169e1; stroke: #4169e1"/>
     <use xlink:href="#me7312cb52c" x="64.757094" y="37.895818" style="fill: #4169e1; stroke: #4169e1"/>
     <use xlink:href="#me7312cb52c" x="49.142738" y="51.893435" style="fill: #4169e1; stroke: #4169e1"/>
     <use xlink:href="#me7312cb52c" x="61.204877" y="25.056856" style="fill: #4169e1; stroke: #4169e1"/>
     <use xlink:href="#me7312cb52c" x="33.809241" y="56.706041" style="fill: #4169e1; stroke: #4169e1"/>
     <use xlink:href="#me7312cb52c" x="47.409168" y="52.781241" style="fill: #4169e1; stroke: #4169e1"/>
     <use xlink:href="#me7312cb52c" x="57.184985" y="47.26118" style="fill: #4169e1; stroke: #4169e1"/>
     <use xlink:href="#me7312cb52c" x="46.281494" y="40.404408" style="fill: #4169e1; stroke: #4169e1"/>
     <use xlink:href="#me7312cb52c" x="50.024543" y="56.555048" style="fill: #4169e1; stroke: #4169e1"/>
     <use xlink:href="#me7312cb52c" x="53.176036" y="54.153859" style="fill: #4169e1; stroke: #4169e1"/>
     <use xlink:href="#me7312cb52c" x="55.893991" y="40.873442" style="fill: #4169e1; stroke: #4169e1"/>
     <use xlink:href="#me7312cb52c" x="61.804413" y="48.200024" style="fill: #4169e1; stroke: #4169e1"/>
     <use xlink:href="#me7312cb52c" x="65.408654" y="40.729993" style="fill: #4169e1; stroke: #4169e1"/>
     <use xlink:href="#me7312cb52c" x="45.05974" y="56.362426" style="fill: #4169e1; stroke: #4169e1"/>
     <use xlink:href="#me7312cb52c" x="60.340172" y="27.099798" style="fill: #4169e1; stroke: #4169e1"/>
     <use xlink:href="#me7312cb52c" x="43.593147" y="56.857951" style="fill: #4169e1; stroke: #4169e1"/>
     <use xlink:href="#me7312cb52c" x="68.69511" y="29.104207" style="fill: #4169e1; stroke: #4169e1"/>
     <use xlink:href="#me7312cb52c" x="63.837007" y="32.894721" style="fill: #4169e1; stroke: #4169e1"/>
     <use xlink:href="#me7312cb52c" x="50.224197" y="49.257693" style="fill: #4169e1; stroke: #4169e1"/>
     <use xlink:href="#me7312cb52c" x="54.805676" y="16.01056" style="fill: #4169e1; stroke: #4169e1"/>
     <use xlink:href="#me7312cb52c" x="51.980106" y="11.74003" style="fill: #4169e1; stroke: #4169e1"/>
     <use xlink:href="#me7312cb52c" x="43.375236" y="22.272866" style="fill: #4169e1; stroke: #4169e1"/>
     <use xlink:href="#me7312cb52c" x="47.084112" y="13.03533" style="fill: #4169e1; stroke: #4169e1"/>
     <use xlink:href="#me7312cb52c" x="46.336241" y="17.401596" style="fill: #4169e1; stroke: #4169e1"/>
     <use xlink:href="#me7312cb52c" x="60.977505" y="15.191424" style="fill: #4169e1; stroke: #4169e1"/>
     <use xlink:href="#me7312cb52c" x="45.492755" y="8.883609" style="fill: #4169e1; stroke: #4169e1"/>
     <use xlink:href="#me7312cb52c" x="59.898031" y="11.967956" style="fill: #4169e1; stroke: #4169e1"/>
     <use xlink:href="#me7312cb52c" x="58.05072" y="14.560738" style="fill: #4169e1; stroke: #4169e1"/>
     <use xlink:href="#me7312cb52c" x="60.849795" y="13.99288" style="fill: #4169e1; stroke: #4169e1"/>
    </g>
   </g>
   <g id="matplotlib.axis_1">
    <g id="xtick_1">
     <g id="line2d_1">
      <defs>
       <path id="mc009ec6696" d="M 0 0 
L 0 3.5 
" style="stroke: #000000; stroke-width: 1.5"/>
      </defs>
      <g>
       <use xlink:href="#mc009ec6696" x="30.07125" y="83.16" style="stroke: #000000; stroke-width: 1.5"/>
      </g>
     </g>
     <g id="text_1">
      <text style="font: 8px 'Arial', sans-serif, serif; text-anchor: middle" x="30.07125" y="95.88625" transform="rotate(-0 30.07125 95.88625)">−2</text>
     </g>
    </g>
    <g id="xtick_2">
     <g id="line2d_2">
      <g>
       <use xlink:href="#mc009ec6696" x="85.87125" y="83.16" style="stroke: #000000; stroke-width: 1.5"/>
      </g>
     </g>
     <g id="text_2">
      <text style="font: 8px 'Arial', sans-serif, serif; text-anchor: middle" x="85.87125" y="95.88625" transform="rotate(-0 85.87125 95.88625)">2</text>
     </g>
    </g>
   </g>
   <g id="matplotlib.axis_2">
    <g id="ytick_1">
     <g id="line2d_3">
      <defs>
       <path id="me029bb416d" d="M 0 0 
L -3.5 0 
" style="stroke: #000000; stroke-width: 1.5"/>
      </defs>
      <g>
       <use xlink:href="#me029bb416d" x="16.12125" y="69.3" style="stroke: #000000; stroke-width: 1.5"/>
      </g>
     </g>
     <g id="text_3">
      <text style="font: 8px 'Arial', sans-serif, serif; text-anchor: end" x="9.12125" y="72.163125" transform="rotate(-0 9.12125 72.163125)">−2</text>
     </g>
    </g>
    <g id="ytick_2">
     <g id="line2d_4">
      <g>
       <use xlink:href="#me029bb416d" x="16.12125" y="13.86" style="stroke: #000000; stroke-width: 1.5"/>
      </g>
     </g>
     <g id="text_4">
      <text style="font: 8px 'Arial', sans-serif, serif; text-anchor: end" x="9.12125" y="16.723125" transform="rotate(-0 9.12125 16.723125)">2</text>
     </g>
    </g>
   </g>
   <g id="QuadContourSet_1">
    <path clip-path="url(#pe9c3c0aef9)" style="fill: none; stroke: #4169e1; stroke-opacity: 0.5; stroke-width: 1.5"/>
    <path d="M 32.127056 57.119998 
L 31.983203 56.279999 
L 31.875823 55.439999 
L 31.801346 54.599999 
L 31.756829 53.759999 
L 31.73988 52.919999 
L 31.748593 52.079999 
L 31.781495 51.239999 
L 31.837498 50.399999 
L 31.915877 49.559999 
L 32.016242 48.719999 
L 32.138524 47.879999 
L 32.184888 47.609437 
L 32.274095 47.039999 
L 32.425297 46.199999 
L 32.596776 45.359999 
L 32.78942 44.519999 
L 33.004424 43.679999 
L 33.030341 43.587049 
L 33.222291 42.839999 
L 33.459354 41.999999 
L 33.719908 41.160001 
L 33.875795 40.696075 
L 33.993018 40.320001 
L 34.274505 39.480001 
L 34.582071 38.640001 
L 34.721251 38.284511 
L 34.898395 37.800001 
L 35.227834 36.960001 
L 35.566706 36.166626 
L 35.585415 36.120001 
L 35.938002 35.280001 
L 36.322634 34.440001 
L 36.41216 34.253751 
L 36.709357 33.600001 
L 37.121516 32.760001 
L 37.257613 32.496363 
L 37.540703 31.920001 
L 37.983837 31.080001 
L 38.103069 30.864022 
L 38.432811 30.240001 
L 38.911329 29.400001 
L 38.948524 29.336761 
L 39.388456 28.560001 
L 39.793978 27.894596 
L 39.896989 27.720001 
L 40.412565 26.880001 
L 40.639432 26.529243 
L 40.947626 26.040002 
L 41.484887 25.238287 
L 41.510011 25.200001 
L 42.075299 24.36 
L 42.330343 24.000203 
L 42.665678 23.520001 
L 43.175796 22.825499 
L 43.281652 22.680002 
L 43.91307 21.840001 
L 44.021251 21.700359 
L 44.561929 21 
L 44.866705 20.620423 
L 45.237135 20.160001 
L 45.71216 19.589563 
L 45.938334 19.320001 
L 46.557615 18.603452 
L 46.665717 18.480001 
L 47.403069 17.658547 
L 47.420033 17.64 
L 48.19974 16.800001 
L 48.248524 16.748305 
L 49.011143 15.960001 
L 49.093978 15.875535 
L 49.857926 15.12 
L 49.939433 15.040097 
L 50.743494 14.28 
L 50.784887 14.241025 
L 51.630342 13.474954 
L 51.670655 13.44 
L 52.475797 12.738928 
L 52.644203 12.600001 
L 53.321251 12.036387 
L 53.67387 11.760002 
L 54.166706 11.36831 
L 54.769585 10.919999 
L 55.01216 10.73621 
L 55.857615 10.137217 
L 55.94357 10.08 
L 56.703069 9.560635 
L 57.21449 9.240001 
L 57.548524 9.023822 
L 58.393976 8.520095 
L 58.613053 8.399999 
L 59.239431 8.042617 
L 60.084885 7.608837 
L 60.189238 7.559999 
L 60.93034 7.196032 
L 61.775794 6.82849 
L 62.056615 6.72 
L 62.621249 6.489206 
L 63.466703 6.188223 
L 64.312158 5.931535 
L 64.515332 5.880001 
L 65.157613 5.70563 
L 66.003067 5.522013 
L 66.848522 5.384408 
L 67.693976 5.29375 
L 68.539431 5.252164 
L 69.384885 5.263072 
L 70.23034 5.331356 
L 71.075795 5.463583 
L 71.921249 5.668328 
L 72.551601 5.880001 
L 72.766704 5.953905 
L 73.612157 6.328016 
L 74.299731 6.72 
L 74.457613 6.815249 
L 75.303068 7.433285 
L 75.450151 7.559999 
L 76.148522 8.220288 
L 76.313758 8.399999 
L 76.993976 9.233444 
L 76.998784 9.240001 
L 77.554854 10.08 
L 77.839431 10.586211 
L 78.014693 10.919999 
L 78.396564 11.760002 
L 78.684887 12.527913 
L 78.711059 12.600001 
L 78.975468 13.44 
L 79.189349 14.28 
L 79.358887 15.12 
L 79.489245 15.960001 
L 79.53034 16.313658 
L 79.588185 16.800001 
L 79.656926 17.64 
L 79.695774 18.480001 
L 79.706954 19.320001 
L 79.692222 20.160001 
L 79.652909 21 
L 79.589963 21.840001 
L 79.53034 22.421511 
L 79.506188 22.680002 
L 79.406978 23.520001 
L 79.287665 24.36 
L 79.148093 25.200001 
L 78.987815 26.040002 
L 78.806085 26.880001 
L 78.684887 27.38171 
L 78.609781 27.720001 
L 78.404415 28.560001 
L 78.17744 29.400001 
L 77.927181 30.240001 
L 77.839431 30.512768 
L 77.670492 31.080001 
L 77.399171 31.920001 
L 77.102329 32.760001 
L 76.993976 33.047031 
L 76.799425 33.600001 
L 76.481089 34.440001 
L 76.148522 35.245019 
L 76.134972 35.280001 
L 75.794172 36.120001 
L 75.422509 36.960001 
L 75.303068 37.21579 
L 75.045577 37.800001 
L 74.647643 38.640001 
L 74.457613 39.018161 
L 74.237238 39.480001 
L 73.809964 40.320001 
L 73.612157 40.687437 
L 73.369133 41.160001 
L 72.908541 41.999999 
L 72.766704 42.246908 
L 72.439278 42.839999 
L 71.940334 43.679999 
L 71.921249 43.711242 
L 71.443611 44.519999 
L 71.075795 45.101258 
L 70.916646 45.359999 
L 70.375786 46.199999 
L 70.23034 46.416932 
L 69.821834 47.039999 
L 69.384885 47.669112 
L 69.240876 47.879999 
L 68.643906 48.719999 
L 68.539431 48.862412 
L 68.033239 49.559999 
L 67.693976 50.006355 
L 67.396412 50.399999 
L 66.848522 51.095325 
L 66.734522 51.239999 
L 66.051771 52.079999 
L 66.003067 52.138695 
L 65.350816 52.919999 
L 65.157613 53.144518 
L 64.621784 53.759999 
L 64.312158 54.106702 
L 63.86396 54.599999 
L 63.466703 55.028291 
L 63.075992 55.439999 
L 62.621249 55.911659 
L 62.25582 56.279999 
L 61.775794 56.758561 
L 61.400572 57.119998 
L 60.93034 57.570174 
L 60.506434 57.959999 
L 60.084885 58.347141 
L 59.568488 58.8 
L 59.239431 59.089579 
L 58.580475 59.639999 
L 58.393976 59.797082 
L 57.548524 60.469607 
L 57.534803 60.479998 
L 56.703069 61.12043 
L 56.42481 61.319999 
L 55.857615 61.735581 
L 55.231607 62.16 
L 55.01216 62.312727 
L 54.166706 62.860969 
L 53.93492 62.999999 
L 53.321251 63.380976 
L 52.504589 63.839999 
L 52.475797 63.856829 
L 51.630342 64.315213 
L 50.875286 64.679999 
L 50.784887 64.725796 
L 49.939433 65.115253 
L 49.093978 65.45713 
L 48.917726 65.52 
L 48.248524 65.773228 
L 47.403069 66.048067 
L 46.557615 66.278863 
L 46.192158 66.359999 
L 45.71216 66.474363 
L 44.866705 66.628948 
L 44.021251 66.736097 
L 43.175796 66.794159 
L 42.330343 66.800213 
L 41.484887 66.74994 
L 40.639432 66.637406 
L 39.793978 66.454795 
L 39.478148 66.359999 
L 38.948524 66.19829 
L 38.103069 65.853757 
L 37.468739 65.52 
L 37.257613 65.403168 
L 36.41216 64.830049 
L 36.225937 64.679999 
L 35.566706 64.100973 
L 35.311047 63.839999 
L 34.721251 63.166674 
L 34.591242 62.999999 
L 34.009487 62.16 
L 33.875795 61.938616 
L 33.529523 61.319999 
L 33.132945 60.479998 
L 33.030341 60.227165 
L 32.801497 59.639999 
L 32.5277 58.8 
L 32.306013 57.959999 
L 32.184888 57.391356 
L 32.127056 57.119998 
z
" clip-path="url(#pe9c3c0aef9)" style="fill: none; stroke: #4169e1; stroke-opacity: 0.5; stroke-width: 1.5"/>
    <path d="M 37.24891 52.079999 
L 37.133536 51.239999 
L 37.059989 50.399999 
L 37.024142 49.559999 
L 37.022684 48.719999 
L 37.052998 47.879999 
L 37.113082 47.039999 
L 37.201479 46.199999 
L 37.257613 45.79443 
L 37.314365 45.359999 
L 37.449337 44.519999 
L 37.608509 43.679999 
L 37.791928 42.839999 
L 38.000031 41.999999 
L 38.103069 41.627673 
L 38.22609 41.160001 
L 38.469937 40.320001 
L 38.738423 39.480001 
L 38.948524 38.878268 
L 39.028116 38.640001 
L 39.330371 37.800001 
L 39.659154 36.960001 
L 39.793978 36.638237 
L 40.003081 36.120001 
L 40.366478 35.280001 
L 40.639432 34.692232 
L 40.752916 34.440001 
L 41.152603 33.600001 
L 41.484887 32.948822 
L 41.578808 32.760001 
L 42.017544 31.920001 
L 42.330343 31.358122 
L 42.482193 31.080001 
L 42.963923 30.240001 
L 43.175796 29.889023 
L 43.467097 29.400001 
L 43.997115 28.560001 
L 44.021251 28.522936 
L 44.540362 27.720001 
L 44.866705 27.241122 
L 45.11246 26.880001 
L 45.712025 26.040002 
L 45.71216 26.039817 
L 46.32926 25.200001 
L 46.557615 24.901694 
L 46.976732 24.36 
L 47.403069 23.828451 
L 47.654628 23.520001 
L 48.248524 22.814074 
L 48.363917 22.680002 
L 49.093978 21.85366 
L 49.106401 21.840001 
L 49.88372 21 
L 49.939433 20.940906 
L 50.702063 20.160001 
L 50.784887 20.076426 
L 51.566358 19.320001 
L 51.630342 19.25867 
L 52.475797 18.486008 
L 52.482715 18.480001 
L 53.321251 17.753123 
L 53.460119 17.64 
L 54.166706 17.062538 
L 54.511025 16.800001 
L 55.01216 16.414774 
L 55.651032 15.960001 
L 55.857615 15.811022 
L 56.703069 15.24683 
L 56.910302 15.12 
L 57.548524 14.72105 
L 58.331059 14.28 
L 58.393976 14.243603 
L 59.239431 13.80056 
L 60.019677 13.44 
L 60.084885 13.40882 
L 60.93034 13.054005 
L 61.775794 12.751431 
L 62.286487 12.600001 
L 62.621249 12.496115 
L 63.466703 12.289615 
L 64.312158 12.1396 
L 65.157613 12.048848 
L 66.003067 12.021917 
L 66.848522 12.065418 
L 67.693976 12.188391 
L 68.539431 12.402824 
L 69.070595 12.600001 
L 69.384885 12.724164 
L 70.23034 13.175404 
L 70.614227 13.44 
L 71.075795 13.792782 
L 71.592255 14.28 
L 71.921249 14.635047 
L 72.30389 15.12 
L 72.766704 15.815638 
L 72.851805 15.960001 
L 73.27666 16.800001 
L 73.612157 17.633902 
L 73.61443 17.64 
L 73.87747 18.480001 
L 74.080302 19.320001 
L 74.23073 20.160001 
L 74.335153 21 
L 74.398799 21.840001 
L 74.425916 22.680002 
L 74.419924 23.520001 
L 74.383523 24.36 
L 74.318797 25.200001 
L 74.227284 26.040002 
L 74.110032 26.880001 
L 73.967638 27.720001 
L 73.800283 28.560001 
L 73.612157 29.380792 
L 73.607982 29.400001 
L 73.402265 30.240001 
L 73.172976 31.080001 
L 72.91904 31.920001 
L 72.766704 32.380197 
L 72.646659 32.760001 
L 72.358695 33.600001 
L 72.044655 34.440001 
L 71.921249 34.747498 
L 71.715869 35.280001 
L 71.367653 36.120001 
L 71.075795 36.773401 
L 70.995201 36.960001 
L 70.611562 37.800001 
L 70.23034 38.573979 
L 70.198704 38.640001 
L 69.777339 39.480001 
L 69.384885 40.208185 
L 69.325899 40.320001 
L 68.863364 41.160001 
L 68.539431 41.712891 
L 68.373772 41.999999 
L 67.865358 42.839999 
L 67.693976 43.110577 
L 67.336604 43.679999 
L 66.848522 44.415988 
L 66.779776 44.519999 
L 66.20566 45.359999 
L 66.003067 45.644149 
L 65.605652 46.199999 
L 65.157613 46.800093 
L 64.97693 47.039999 
L 64.319954 47.879999 
L 64.312158 47.889756 
L 63.638849 48.719999 
L 63.466703 48.925648 
L 62.92448 49.559999 
L 62.621249 49.905379 
L 62.17509 50.399999 
L 61.775794 50.833092 
L 61.387949 51.239999 
L 60.93034 51.712021 
L 60.559175 52.079999 
L 60.084885 52.544572 
L 59.683508 52.919999 
L 59.239431 53.332394 
L 58.754009 53.759999 
L 58.393976 54.076423 
L 57.761635 54.599999 
L 57.548524 54.776911 
L 56.703069 55.433732 
L 56.694467 55.439999 
L 55.857615 56.05623 
L 55.527521 56.279999 
L 55.01216 56.634856 
L 54.240514 57.119998 
L 54.166706 57.167363 
L 53.321251 57.665542 
L 52.763957 57.959999 
L 52.475797 58.116676 
L 51.630342 58.527332 
L 50.989414 58.8 
L 50.784887 58.89027 
L 49.939433 59.212245 
L 49.093978 59.481888 
L 48.477717 59.639999 
L 48.248524 59.7017 
L 47.403069 59.871257 
L 46.557615 59.9819 
L 45.71216 60.029789 
L 44.866705 60.009142 
L 44.021251 59.911906 
L 43.175796 59.7273 
L 42.906918 59.639999 
L 42.330343 59.442128 
L 41.484887 59.03501 
L 41.110475 58.8 
L 40.639432 58.474676 
L 40.045797 57.959999 
L 39.793978 57.712422 
L 39.287442 57.119998 
L 38.948524 56.654693 
L 38.709232 56.279999 
L 38.258535 55.439999 
L 38.103069 55.089569 
L 37.903596 54.599999 
L 37.62522 53.759999 
L 37.409855 52.919999 
L 37.257613 52.126989 
L 37.24891 52.079999 
z
" clip-path="url(#pe9c3c0aef9)" style="fill: none; stroke: #4169e1; stroke-opacity: 0.5; stroke-width: 1.5"/>
    <path d="M 41.310076 49.559999 
L 41.140961 48.719999 
L 41.030631 47.879999 
L 40.971611 47.039999 
L 40.957933 46.199999 
L 40.98488 45.359999 
L 41.048774 44.519999 
L 41.146829 43.679999 
L 41.277014 42.839999 
L 41.437977 41.999999 
L 41.484887 41.794915 
L 41.626225 41.160001 
L 41.841177 40.320001 
L 42.083491 39.480001 
L 42.330343 38.712429 
L 42.353152 38.640001 
L 42.64417 37.800001 
L 42.961951 36.960001 
L 43.175796 36.439024 
L 43.304828 36.120001 
L 43.669885 35.280001 
L 44.021251 34.529306 
L 44.062697 34.440001 
L 44.476068 33.600001 
L 44.866705 32.858131 
L 44.918262 32.760001 
L 45.382373 31.920001 
L 45.71216 31.357229 
L 45.87528 31.080001 
L 46.394053 30.240001 
L 46.557615 29.986981 
L 46.941015 29.400001 
L 47.403069 28.725874 
L 47.518697 28.560001 
L 48.126626 27.720001 
L 48.248524 27.55742 
L 48.768366 26.880001 
L 49.093978 26.47059 
L 49.446848 26.040002 
L 49.939433 25.457112 
L 50.164874 25.200001 
L 50.784887 24.510822 
L 50.926678 24.36 
L 51.630342 23.626833 
L 51.738283 23.520001 
L 52.475797 22.801419 
L 52.607999 22.680002 
L 53.321251 22.031892 
L 53.547093 21.840001 
L 54.166706 21.316521 
L 54.570769 21 
L 55.01216 20.654485 
L 55.69959 20.160001 
L 55.857615 20.045844 
L 56.703069 19.488272 
L 56.986744 19.320001 
L 57.548524 18.982648 
L 58.393976 18.532442 
L 58.507347 18.480001 
L 59.239431 18.134427 
L 60.084885 17.795287 
L 60.559531 17.64 
L 60.93034 17.515208 
L 61.775794 17.298553 
L 62.621249 17.151225 
L 63.466703 17.079422 
L 64.312158 17.092259 
L 65.157613 17.202415 
L 66.003067 17.427073 
L 66.514917 17.64 
L 66.848522 17.794033 
L 67.693976 18.346496 
L 67.850935 18.480001 
L 68.539431 19.166283 
L 68.664006 19.320001 
L 69.232457 20.160001 
L 69.384885 20.440131 
L 69.648782 21 
L 69.957213 21.840001 
L 70.184001 22.680002 
L 70.23034 22.9173 
L 70.339066 23.520001 
L 70.436604 24.36 
L 70.484763 25.200001 
L 70.488933 26.040002 
L 70.453357 26.880001 
L 70.381319 27.720001 
L 70.275273 28.560001 
L 70.23034 28.830168 
L 70.138273 29.400001 
L 69.972414 30.240001 
L 69.778141 31.080001 
L 69.555771 31.920001 
L 69.384885 32.492455 
L 69.30683 32.760001 
L 69.034837 33.600001 
L 68.735998 34.440001 
L 68.539431 34.946545 
L 68.412177 35.280001 
L 68.066068 36.120001 
L 67.693976 36.955089 
L 67.691811 36.960001 
L 67.297944 37.800001 
L 66.875031 38.640001 
L 66.848522 38.689951 
L 66.430991 39.480001 
L 66.003067 40.239553 
L 65.957648 40.320001 
L 65.461259 41.160001 
L 65.157613 41.646807 
L 64.935448 41.999999 
L 64.381269 42.839999 
L 64.312158 42.940872 
L 63.798252 43.679999 
L 63.466703 44.136585 
L 63.182302 44.519999 
L 62.621249 45.247912 
L 62.532402 45.359999 
L 61.846113 46.199999 
L 61.775794 46.283758 
L 61.118677 47.039999 
L 60.93034 47.251149 
L 60.345724 47.879999 
L 60.084885 48.1547 
L 59.521382 48.719999 
L 59.239431 48.998313 
L 58.637585 49.559999 
L 58.393976 49.784824 
L 57.683449 50.399999 
L 57.548524 50.516095 
L 56.703069 51.193919 
L 56.640847 51.239999 
L 55.857615 51.821074 
L 55.474889 52.079999 
L 55.01216 52.395178 
L 54.166706 52.914933 
L 54.157461 52.919999 
L 53.321251 53.385118 
L 52.552256 53.759999 
L 52.475797 53.798017 
L 51.630342 54.15723 
L 50.784887 54.455739 
L 50.263838 54.599999 
L 49.939433 54.692619 
L 49.093978 54.862752 
L 48.248524 54.959219 
L 47.403069 54.974139 
L 46.557615 54.896365 
L 45.71216 54.710673 
L 45.400885 54.599999 
L 44.866705 54.390999 
L 44.021251 53.903633 
L 43.832989 53.759999 
L 43.175796 53.178711 
L 42.943935 52.919999 
L 42.330343 52.090671 
L 42.323701 52.079999 
L 41.884247 51.239999 
L 41.550107 50.399999 
L 41.484887 50.188192 
L 41.310076 49.559999 
z
" clip-path="url(#pe9c3c0aef9)" style="fill: none; stroke: #4169e1; stroke-opacity: 0.5; stroke-width: 1.5"/>
    <path d="M 44.813285 46.199999 
L 44.662704 45.359999 
L 44.583427 44.519999 
L 44.565199 43.679999 
L 44.600102 42.839999 
L 44.682066 41.999999 
L 44.806519 41.160001 
L 44.866705 40.855702 
L 44.972924 40.320001 
L 45.176872 39.480001 
L 45.414371 38.640001 
L 45.684334 37.800001 
L 45.71216 37.723302 
L 45.991066 36.960001 
L 46.327728 36.120001 
L 46.557615 35.594334 
L 46.696978 35.280001 
L 47.099313 34.440001 
L 47.403069 33.848494 
L 47.533296 33.600001 
L 48.002029 32.760001 
L 48.248524 32.343258 
L 48.505703 31.920001 
L 49.043348 31.080001 
L 49.093978 31.004574 
L 49.624716 30.240001 
L 49.939433 29.805901 
L 50.246165 29.400001 
L 50.784887 28.713784 
L 50.911778 28.560001 
L 51.628016 27.720001 
L 51.630342 27.717352 
L 52.408419 26.880001 
L 52.475797 26.809269 
L 53.258244 26.040002 
L 53.321251 25.979262 
L 54.166706 25.22326 
L 54.195139 25.200001 
L 55.01216 24.5396 
L 55.257931 24.36 
L 55.857615 23.924725 
L 56.482715 23.520001 
L 56.703069 23.377559 
L 57.548524 22.901704 
L 58.012663 22.680002 
L 58.393976 22.496738 
L 59.239431 22.168442 
L 60.084885 21.918553 
L 60.503471 21.840001 
L 60.93034 21.758577 
L 61.775794 21.699517 
L 62.621249 21.75576 
L 63.001975 21.840001 
L 63.466703 21.956795 
L 64.312158 22.347953 
L 64.778083 22.680002 
L 65.157613 23.009487 
L 65.590384 23.520001 
L 66.003067 24.154692 
L 66.110343 24.36 
L 66.445764 25.200001 
L 66.673862 26.040002 
L 66.813987 26.880001 
L 66.848522 27.301543 
L 66.879178 27.720001 
L 66.884254 28.560001 
L 66.848522 29.207918 
L 66.837895 29.400001 
L 66.743231 30.240001 
L 66.606963 31.080001 
L 66.432718 31.920001 
L 66.223017 32.760001 
L 66.003067 33.517288 
L 65.978896 33.600001 
L 65.697646 34.440001 
L 65.386236 35.280001 
L 65.157613 35.840401 
L 65.042195 36.120001 
L 64.664689 36.960001 
L 64.312158 37.688366 
L 64.257124 37.800001 
L 63.813507 38.640001 
L 63.466703 39.257322 
L 63.338439 39.480001 
L 62.826941 40.320001 
L 62.621249 40.640697 
L 62.277467 41.160001 
L 61.775794 41.883282 
L 61.691573 41.999999 
L 61.060346 42.839999 
L 60.93034 43.006596 
L 60.379935 43.679999 
L 60.084885 44.029283 
L 59.647038 44.519999 
L 59.239431 44.964339 
L 58.852616 45.359999 
L 58.393976 45.818687 
L 57.983745 46.199999 
L 57.548524 46.597591 
L 57.022086 47.039999 
L 56.703069 47.304856 
L 55.941519 47.879999 
L 55.857615 47.942923 
L 55.01216 48.509976 
L 54.655806 48.719999 
L 54.166706 49.008477 
L 53.321251 49.436549 
L 53.023892 49.559999 
L 52.475797 49.789482 
L 51.630342 50.063275 
L 50.784887 50.252862 
L 49.939433 50.34687 
L 49.093978 50.328656 
L 48.248524 50.174546 
L 47.403069 49.851271 
L 46.926207 49.559999 
L 46.557615 49.289709 
L 46.005157 48.719999 
L 45.71216 48.334031 
L 45.441031 47.879999 
L 45.065772 47.039999 
L 44.866705 46.400569 
L 44.813285 46.199999 
z
" clip-path="url(#pe9c3c0aef9)" style="fill: none; stroke: #4169e1; stroke-opacity: 0.5; stroke-width: 1.5"/>
    <path d="M 49.059236 43.679999 
L 48.741419 42.839999 
L 48.570812 41.999999 
L 48.513335 41.160001 
L 48.545141 40.320001 
L 48.649348 39.480001 
L 48.813931 38.640001 
L 49.030384 37.800001 
L 49.093978 37.602401 
L 49.311445 36.960001 
L 49.638955 36.120001 
L 49.939433 35.431259 
L 50.009376 35.280001 
L 50.442574 34.440001 
L 50.784887 33.823292 
L 50.917272 33.600001 
L 51.45281 32.760001 
L 51.630342 32.498345 
L 52.052765 31.920001 
L 52.475797 31.36769 
L 52.716081 31.080001 
L 53.321251 30.384849 
L 53.460782 30.240001 
L 54.166706 29.532705 
L 54.31576 29.400001 
L 55.01216 28.798053 
L 55.328405 28.560001 
L 55.857615 28.170997 
L 56.579857 27.720001 
L 56.703069 27.644435 
L 57.548524 27.238532 
L 58.393976 26.939416 
L 58.709386 26.880001 
L 59.239431 26.781171 
L 60.084885 26.783426 
L 60.506107 26.880001 
L 60.93034 27.002285 
L 61.775794 27.558612 
L 61.925381 27.720001 
L 62.473552 28.560001 
L 62.621249 28.924486 
L 62.765202 29.400001 
L 62.900909 30.240001 
L 62.935203 31.080001 
L 62.887818 31.920001 
L 62.772916 32.760001 
L 62.621249 33.495281 
L 62.59848 33.600001 
L 62.355397 34.440001 
L 62.068246 35.280001 
L 61.775794 36.028201 
L 61.737832 36.120001 
L 61.34213 36.960001 
L 60.93034 37.768797 
L 60.913401 37.800001 
L 60.413383 38.640001 
L 60.084885 39.15975 
L 59.867389 39.480001 
L 59.265379 40.320001 
L 59.239431 40.35415 
L 58.576221 41.160001 
L 58.393976 41.372656 
L 57.80386 41.999999 
L 57.548524 42.262205 
L 56.921479 42.839999 
L 56.703069 43.035527 
L 55.886438 43.679999 
L 55.857615 43.702225 
L 55.01216 44.251215 
L 54.508546 44.519999 
L 54.166706 44.699514 
L 53.321251 45.02835 
L 52.475797 45.23588 
L 51.630342 45.290638 
L 50.784887 45.143487 
L 49.939433 44.71684 
L 49.715998 44.519999 
L 49.093978 43.74295 
L 49.059236 43.679999 
z
" clip-path="url(#pe9c3c0aef9)" style="fill: none; stroke: #4169e1; stroke-opacity: 0.5; stroke-width: 1.5"/>
    <path clip-path="url(#pe9c3c0aef9)" style="fill: none; stroke: #4169e1; stroke-opacity: 0.5; stroke-width: 1.5"/>
   </g>
   <g id="patch_3">
    <path d="M 16.12125 83.16 
L 16.12125 0 
" style="fill: none; stroke: #000000; stroke-width: 1.5; stroke-linejoin: miter; stroke-linecap: square"/>
   </g>
   <g id="patch_4">
    <path d="M 16.12125 83.16 
L 99.82125 83.16 
" style="fill: none; stroke: #000000; stroke-width: 1.5; stroke-linejoin: miter; stroke-linecap: square"/>
   </g>
  </g>
 </g>
 <defs>
  <clipPath id="pe9c3c0aef9">
   <rect x="16.12125" y="0" width="83.7" height="83.16"/>
  </clipPath>
 </defs>
</svg>
