<?xml version="1.0" encoding="utf-8" standalone="no"?>
<!DOCTYPE svg PUBLIC "-//W3C//DTD SVG 1.1//EN"
  "http://www.w3.org/Graphics/SVG/1.1/DTD/svg11.dtd">
<svg xmlns:xlink="http://www.w3.org/1999/xlink" width="83.7pt" height="83.16pt" viewBox="0 0 83.7 83.16" xmlns="http://www.w3.org/2000/svg" version="1.1">
 <metadata>
  <rdf:RDF xmlns:dc="http://purl.org/dc/elements/1.1/" xmlns:cc="http://creativecommons.org/ns#" xmlns:rdf="http://www.w3.org/1999/02/22-rdf-syntax-ns#">
   <cc:Work>
    <dc:type rdf:resource="http://purl.org/dc/dcmitype/StillImage"/>
    <dc:date>2024-02-07T11:23:25.490094</dc:date>
    <dc:format>image/svg+xml</dc:format>
    <dc:creator>
     <cc:Agent>
      <dc:title>Matplotlib v3.8.2, https://matplotlib.org/</dc:title>
     </cc:Agent>
    </dc:creator>
   </cc:Work>
  </rdf:RDF>
 </metadata>
 <defs>
  <style type="text/css">*{stroke-linejoin: round; stroke-linecap: butt}</style>
 </defs>
 <g id="figure_1">
  <g id="patch_1">
   <path d="M 0 83.16 
L 83.7 83.16 
L 83.7 0 
L 0 0 
z
" style="fill: #ffffff"/>
  </g>
  <g id="axes_1">
   <g id="QuadContourSet_1">
    <path clip-path="url(#p26c2e2f58e)" style="fill: none; stroke: #5b82b3; stroke-opacity: 0.5; stroke-width: 1.5"/>
    <path d="M 16.878142 54.599999 
L 16.847894 53.759999 
L 16.843748 52.919999 
L 16.864067 52.079999 
L 16.907624 51.239999 
L 16.909091 51.221466 
L 16.968177 50.399999 
L 17.048078 49.559999 
L 17.147046 48.719999 
L 17.264986 47.879999 
L 17.402091 47.039999 
L 17.558839 46.199999 
L 17.735997 45.359999 
L 17.754545 45.280372 
L 17.916637 44.519999 
L 18.114562 43.679999 
L 18.332889 42.839999 
L 18.573264 41.999999 
L 18.600001 41.912793 
L 18.812748 41.160001 
L 19.071201 40.320001 
L 19.353583 39.480001 
L 19.445456 39.223517 
L 19.639484 38.640001 
L 19.940203 37.800001 
L 20.268116 36.960001 
L 20.29091 36.904231 
L 20.590551 36.120001 
L 20.938885 35.280001 
L 21.136363 34.833298 
L 21.300025 34.440001 
L 21.6709 33.600001 
L 21.981819 32.94689 
L 22.066143 32.760001 
L 22.462376 31.920001 
L 22.827274 31.205445 
L 22.888407 31.080001 
L 23.313593 30.240001 
L 23.672728 29.582147 
L 23.768277 29.400001 
L 24.226915 28.560001 
L 24.518182 28.059412 
L 24.709259 27.720001 
L 25.206935 26.880001 
L 25.363637 26.626636 
L 25.717117 26.040002 
L 26.209093 25.274708 
L 26.256202 25.200001 
L 26.800205 24.36 
L 27.054546 23.986901 
L 27.368934 23.520001 
L 27.900001 22.771324 
L 27.964432 22.680002 
L 28.572302 21.840001 
L 28.745455 21.609341 
L 29.203616 21 
L 29.59091 20.504831 
L 29.862965 20.160001 
L 30.436365 19.457285 
L 30.550174 19.320001 
L 31.264931 18.480001 
L 31.281819 18.460415 
L 32.005669 17.64 
L 32.127274 17.505049 
L 32.782124 16.800001 
L 32.972728 16.597909 
L 33.597531 15.960001 
L 33.818183 15.736867 
L 34.456524 15.12 
L 34.663637 14.920616 
L 35.365469 14.28 
L 35.509092 14.148647 
L 36.332909 13.44 
L 36.354547 13.421244 
L 37.200001 12.729123 
L 37.370453 12.600001 
L 38.045456 12.079274 
L 38.497556 11.760002 
L 38.89091 11.475477 
L 39.736365 10.920938 
L 39.737927 10.919999 
L 40.581819 10.395222 
L 41.154185 10.08 
L 41.427274 9.923426 
L 42.272726 9.492369 
L 42.843116 9.240001 
L 43.118181 9.111967 
L 43.963635 8.773985 
L 44.80909 8.493885 
L 45.164137 8.399999 
L 45.654544 8.261481 
L 46.499999 8.083897 
L 47.345453 7.968644 
L 48.190908 7.918861 
L 49.036363 7.939958 
L 49.881817 8.039932 
L 50.727272 8.229889 
L 51.228082 8.399999 
L 51.572726 8.520984 
L 52.418181 8.930388 
L 52.903169 9.240001 
L 53.263635 9.487744 
L 53.951169 10.08 
L 54.10909 10.230667 
L 54.717983 10.919999 
L 54.954545 11.225927 
L 55.318138 11.760002 
L 55.799999 12.596912 
L 55.801624 12.600001 
L 56.195298 13.44 
L 56.51739 14.28 
L 56.645454 14.678611 
L 56.78208 15.12 
L 56.99832 15.960001 
L 57.16985 16.800001 
L 57.302125 17.64 
L 57.399674 18.480001 
L 57.466242 19.320001 
L 57.490907 19.849672 
L 57.5059 20.160001 
L 57.520239 21 
L 57.509423 21.840001 
L 57.490907 22.286663 
L 57.4761 22.680002 
L 57.423523 23.520001 
L 57.351147 24.36 
L 57.259482 25.200001 
L 57.148731 26.040002 
L 57.018808 26.880001 
L 56.869338 27.720001 
L 56.699658 28.560001 
L 56.645454 28.801166 
L 56.522322 29.400001 
L 56.331383 30.240001 
L 56.120453 31.080001 
L 55.888 31.920001 
L 55.799999 32.214232 
L 55.649588 32.760001 
L 55.398944 33.600001 
L 55.12512 34.440001 
L 54.954545 34.925869 
L 54.839174 35.280001 
L 54.547168 36.120001 
L 54.228976 36.960001 
L 54.10909 37.258265 
L 53.905598 37.800001 
L 53.567429 38.640001 
L 53.263635 39.337643 
L 53.205304 39.480001 
L 52.845223 40.320001 
L 52.452573 41.160001 
L 52.418181 41.230867 
L 52.064464 41.999999 
L 51.644889 42.839999 
L 51.572726 42.978906 
L 51.225207 43.679999 
L 50.774686 44.519999 
L 50.727272 44.605533 
L 50.325473 45.359999 
L 49.881817 46.130439 
L 49.843074 46.199999 
L 49.361123 47.039999 
L 49.036363 47.570085 
L 48.851444 47.879999 
L 48.325622 48.719999 
L 48.190908 48.927188 
L 47.787404 49.559999 
L 47.345453 50.213726 
L 47.221105 50.399999 
L 46.640219 51.239999 
L 46.499999 51.435858 
L 46.041456 52.079999 
L 45.654544 52.599162 
L 45.415123 52.919999 
L 44.80909 53.700215 
L 44.76226 53.759999 
L 44.0911 54.599999 
L 43.963635 54.755213 
L 43.392522 55.439999 
L 43.118181 55.760028 
L 42.662212 56.279999 
L 42.272726 56.714616 
L 41.898352 57.119998 
L 41.427274 57.622025 
L 41.097993 57.959999 
L 40.581819 58.484432 
L 40.256845 58.8 
L 39.736365 59.303184 
L 39.368968 59.639999 
L 38.89091 60.078853 
L 38.426358 60.479998 
L 38.045456 60.811255 
L 37.418354 61.319999 
L 37.200001 61.499434 
L 36.354547 62.142992 
L 36.33051 62.16 
L 35.509092 62.75497 
L 35.135917 62.999999 
L 34.663637 63.319265 
L 33.818183 63.832419 
L 33.804406 63.839999 
L 32.972728 64.316037 
L 32.245456 64.679999 
L 32.127274 64.741889 
L 31.281819 65.132084 
L 30.436365 65.463411 
L 30.263408 65.52 
L 29.59091 65.75378 
L 28.745455 65.988547 
L 27.900001 66.164312 
L 27.054546 66.279791 
L 26.209093 66.331688 
L 25.363637 66.314481 
L 24.518182 66.220039 
L 23.672728 66.037142 
L 22.827274 65.750751 
L 22.335735 65.52 
L 21.981819 65.345126 
L 21.136363 64.795164 
L 20.992791 64.679999 
L 20.29091 64.061748 
L 20.081027 63.839999 
L 19.445456 63.080207 
L 19.386917 62.999999 
L 18.840408 62.16 
L 18.600001 61.724307 
L 18.39545 61.319999 
L 18.031907 60.479998 
L 17.754545 59.69713 
L 17.735178 59.639999 
L 17.489321 58.8 
L 17.291986 57.959999 
L 17.13706 57.119998 
L 17.019457 56.279999 
L 16.934964 55.439999 
L 16.909091 55.051112 
L 16.878142 54.599999 
z
" clip-path="url(#p26c2e2f58e)" style="fill: none; stroke: #5b82b3; stroke-opacity: 0.5; stroke-width: 1.5"/>
    <path d="M 21.944617 51.239999 
L 21.878243 50.399999 
L 21.84869 49.559999 
L 21.852563 48.719999 
L 21.887189 47.879999 
L 21.95054 47.039999 
L 21.981819 46.752661 
L 22.038924 46.199999 
L 22.150602 45.359999 
L 22.285785 44.519999 
L 22.444094 43.679999 
L 22.625564 42.839999 
L 22.827274 42.013649 
L 22.830456 41.999999 
L 23.047698 41.160001 
L 23.287047 40.320001 
L 23.549747 39.480001 
L 23.672728 39.117446 
L 23.828399 38.640001 
L 24.123748 37.800001 
L 24.444037 36.960001 
L 24.518182 36.777265 
L 24.776293 36.120001 
L 25.130171 35.280001 
L 25.363637 34.76111 
L 25.504471 34.440001 
L 25.8939 33.600001 
L 26.209093 32.963587 
L 26.308084 32.760001 
L 26.736064 31.920001 
L 27.054546 31.332172 
L 27.189648 31.080001 
L 27.660317 30.240001 
L 27.900001 29.833475 
L 28.15455 29.400001 
L 28.673363 28.560001 
L 28.745455 28.447129 
L 29.211375 27.720001 
L 29.59091 27.155974 
L 29.778658 26.880001 
L 30.372443 26.040002 
L 30.436365 25.951979 
L 30.992518 25.200001 
L 31.281819 24.822655 
L 31.645978 24.36 
L 32.127274 23.766687 
L 32.334421 23.520001 
L 32.972728 22.778141 
L 33.060887 22.680002 
L 33.818183 21.852454 
L 33.830187 21.840001 
L 34.649615 21 
L 34.663637 20.98578 
L 35.509092 20.177397 
L 35.52861 20.160001 
L 36.354547 19.424634 
L 36.482005 19.320001 
L 37.200001 18.727823 
L 37.529487 18.480001 
L 38.045456 18.087825 
L 38.699197 17.64 
L 38.89091 17.506516 
L 39.736365 16.98004 
L 40.06653 16.800001 
L 40.581819 16.511418 
L 41.427274 16.105384 
L 41.791337 15.960001 
L 42.272726 15.760513 
L 43.118181 15.482361 
L 43.963635 15.277393 
L 44.80909 15.149894 
L 45.410521 15.12 
L 45.654544 15.107168 
L 45.861394 15.12 
L 46.499999 15.16112 
L 47.345453 15.327298 
L 48.190908 15.62808 
L 48.807831 15.960001 
L 49.036363 16.09599 
L 49.881817 16.784977 
L 49.896465 16.800001 
L 50.609204 17.64 
L 50.727272 17.805897 
L 51.133218 18.480001 
L 51.538429 19.320001 
L 51.572726 19.405753 
L 51.844061 20.160001 
L 52.079354 21 
L 52.255761 21.840001 
L 52.381452 22.680002 
L 52.418181 23.048839 
L 52.463497 23.520001 
L 52.507278 24.36 
L 52.516352 25.200001 
L 52.493646 26.040002 
L 52.441418 26.880001 
L 52.418181 27.121064 
L 52.363389 27.720001 
L 52.261243 28.560001 
L 52.135236 29.400001 
L 51.985902 30.240001 
L 51.813357 31.080001 
L 51.617319 31.920001 
L 51.572726 32.091004 
L 51.406224 32.760001 
L 51.175391 33.600001 
L 50.921601 34.440001 
L 50.727272 35.029375 
L 50.647858 35.280001 
L 50.361305 36.120001 
L 50.050504 36.960001 
L 49.881817 37.385029 
L 49.722452 37.800001 
L 49.378334 38.640001 
L 49.036363 39.414926 
L 49.008376 39.480001 
L 48.629214 40.320001 
L 48.221206 41.160001 
L 48.190908 41.219764 
L 47.802757 41.999999 
L 47.354817 42.839999 
L 47.345453 42.856938 
L 46.895793 43.679999 
L 46.499999 44.360369 
L 46.407525 44.519999 
L 45.902184 45.359999 
L 45.654544 45.75236 
L 45.371155 46.199999 
L 44.812438 47.039999 
L 44.80909 47.044909 
L 44.233675 47.879999 
L 43.963635 48.255597 
L 43.623634 48.719999 
L 43.118181 49.385526 
L 42.982154 49.559999 
L 42.308373 50.399999 
L 42.272726 50.44357 
L 41.598824 51.239999 
L 41.427274 51.437974 
L 40.847038 52.079999 
L 40.581819 52.368229 
L 40.047651 52.919999 
L 39.736365 53.237648 
L 39.192897 53.759999 
L 38.89091 54.048405 
L 38.271858 54.599999 
L 38.045456 54.801612 
L 37.269346 55.439999 
L 37.200001 55.497337 
L 36.354547 56.140125 
L 36.150771 56.279999 
L 35.509092 56.727381 
L 34.875589 57.119998 
L 34.663637 57.254198 
L 33.818183 57.725294 
L 33.327107 57.959999 
L 32.972728 58.134841 
L 32.127274 58.482626 
L 31.281819 58.760812 
L 31.118525 58.8 
L 30.436365 58.971531 
L 29.59091 59.103964 
L 28.745455 59.150284 
L 27.900001 59.100094 
L 27.054546 58.938472 
L 26.641454 58.8 
L 26.209093 58.643951 
L 25.363637 58.183758 
L 25.062031 57.959999 
L 24.518182 57.50283 
L 24.161427 57.119998 
L 23.672728 56.502093 
L 23.525842 56.279999 
L 23.056257 55.439999 
L 22.827274 54.932165 
L 22.6938 54.599999 
L 22.418124 53.759999 
L 22.207336 52.919999 
L 22.052091 52.079999 
L 21.981819 51.538831 
L 21.944617 51.239999 
z
" clip-path="url(#p26c2e2f58e)" style="fill: none; stroke: #5b82b3; stroke-opacity: 0.5; stroke-width: 1.5"/>
    <path d="M 26.181066 49.559999 
L 25.982285 48.719999 
L 25.850623 47.879999 
L 25.776189 47.039999 
L 25.751214 46.199999 
L 25.769624 45.359999 
L 25.826712 44.519999 
L 25.918905 43.679999 
L 26.043565 42.839999 
L 26.198857 41.999999 
L 26.209093 41.954022 
L 26.383814 41.160001 
L 26.595468 40.320001 
L 26.833421 39.480001 
L 27.054546 38.778134 
L 27.097845 38.640001 
L 27.387244 37.800001 
L 27.70149 36.960001 
L 27.900001 36.469277 
L 28.041504 36.120001 
L 28.405914 35.280001 
L 28.745455 34.548631 
L 28.796352 34.440001 
L 29.21266 33.600001 
L 29.59091 32.881177 
L 29.655761 32.760001 
L 30.127076 31.920001 
L 30.436365 31.39626 
L 30.627798 31.080001 
L 31.158736 30.240001 
L 31.281819 30.052776 
L 31.725157 29.400001 
L 32.127274 28.830581 
L 32.326573 28.560001 
L 32.965996 27.720001 
L 32.972728 27.711383 
L 33.655645 26.880001 
L 33.818183 26.687119 
L 34.397531 26.040002 
L 34.663637 25.748556 
L 35.20166 25.200001 
L 35.509092 24.890845 
L 36.082919 24.36 
L 36.354547 24.110704 
L 37.063329 23.520001 
L 37.200001 23.406332 
L 38.045456 22.777189 
L 38.194869 22.680002 
L 38.89091 22.22356 
L 39.573941 21.840001 
L 39.736365 21.747506 
L 40.581819 21.353106 
L 41.427274 21.044173 
L 41.605582 21 
L 42.272726 20.829964 
L 43.118181 20.7209 
L 43.963635 20.732279 
L 44.80909 20.887128 
L 45.112901 21 
L 45.654544 21.228733 
L 46.499999 21.817286 
L 46.523664 21.840001 
L 47.250299 22.680002 
L 47.345453 22.818457 
L 47.729548 23.520001 
L 48.074291 24.36 
L 48.190908 24.74271 
L 48.311555 25.200001 
L 48.468291 26.040002 
L 48.564351 26.880001 
L 48.608212 27.720001 
L 48.606525 28.560001 
L 48.564456 29.400001 
L 48.485973 30.240001 
L 48.374038 31.080001 
L 48.230769 31.920001 
L 48.190908 32.111184 
L 48.057185 32.760001 
L 47.856232 33.600001 
L 47.628809 34.440001 
L 47.374888 35.280001 
L 47.345453 35.367953 
L 47.095306 36.120001 
L 46.791144 36.960001 
L 46.499999 37.701457 
L 46.461245 37.800001 
L 46.106729 38.640001 
L 45.726907 39.480001 
L 45.654544 39.630652 
L 45.320741 40.320001 
L 44.888874 41.160001 
L 44.80909 41.307465 
L 44.428445 41.999999 
L 43.963635 42.801404 
L 43.940688 42.839999 
L 43.420932 43.679999 
L 43.118181 44.147648 
L 42.869116 44.519999 
L 42.284566 45.359999 
L 42.272726 45.3765 
L 41.657318 46.199999 
L 41.427274 46.498054 
L 40.98734 47.039999 
L 40.581819 47.526544 
L 40.268726 47.879999 
L 39.736365 48.468796 
L 39.492267 48.719999 
L 38.89091 49.329881 
L 38.644095 49.559999 
L 38.045456 50.113285 
L 37.703522 50.399999 
L 37.200001 50.820997 
L 36.639445 51.239999 
L 36.354547 51.453594 
L 35.509092 52.01027 
L 35.384686 52.079999 
L 34.663637 52.489508 
L 33.818183 52.888096 
L 33.729873 52.919999 
L 32.972728 53.199984 
L 32.127274 53.418276 
L 31.281819 53.532684 
L 30.436365 53.526872 
L 29.59091 53.376783 
L 28.745455 53.047925 
L 28.536186 52.919999 
L 27.900001 52.464247 
L 27.523007 52.079999 
L 27.054546 51.48954 
L 26.899492 51.239999 
L 26.482749 50.399999 
L 26.209093 49.649782 
L 26.181066 49.559999 
z
" clip-path="url(#p26c2e2f58e)" style="fill: none; stroke: #5b82b3; stroke-opacity: 0.5; stroke-width: 1.5"/>
    <path d="M 30.298507 46.199999 
L 29.970536 45.359999 
L 29.772945 44.519999 
L 29.676516 43.679999 
L 29.660414 42.839999 
L 29.709587 41.999999 
L 29.813123 41.160001 
L 29.963131 40.320001 
L 30.15397 39.480001 
L 30.381743 38.640001 
L 30.436365 38.468701 
L 30.658833 37.800001 
L 30.970259 36.960001 
L 31.281819 36.192712 
L 31.312908 36.120001 
L 31.707126 35.280001 
L 32.125809 34.440001 
L 32.127274 34.437274 
L 32.603423 33.600001 
L 32.972728 32.980798 
L 33.114056 32.760001 
L 33.677546 31.920001 
L 33.818183 31.719301 
L 34.303704 31.080001 
L 34.663637 30.621008 
L 34.992568 30.240001 
L 35.509092 29.657008 
L 35.764327 29.400001 
L 36.354547 28.817344 
L 36.653028 28.560001 
L 37.200001 28.094838 
L 37.717993 27.720001 
L 38.045456 27.484841 
L 38.89091 26.990858 
L 39.147199 26.880001 
L 39.736365 26.624676 
L 40.581819 26.395358 
L 41.427274 26.326599 
L 42.272726 26.465191 
L 43.109621 26.880001 
L 43.118181 26.885426 
L 43.874184 27.720001 
L 43.963635 27.860679 
L 44.280556 28.560001 
L 44.524445 29.400001 
L 44.657729 30.240001 
L 44.703806 31.080001 
L 44.679548 31.920001 
L 44.59718 32.760001 
L 44.465588 33.600001 
L 44.291159 34.440001 
L 44.078382 35.280001 
L 43.963635 35.662418 
L 43.820281 36.120001 
L 43.521722 36.960001 
L 43.193796 37.800001 
L 43.118181 37.975174 
L 42.816844 38.640001 
L 42.409402 39.480001 
L 42.272726 39.74215 
L 41.953464 40.320001 
L 41.46519 41.160001 
L 41.427274 41.221516 
L 40.913999 41.999999 
L 40.581819 42.48429 
L 40.317097 42.839999 
L 39.736365 43.594744 
L 39.664041 43.679999 
L 38.930685 44.519999 
L 38.89091 44.564337 
L 38.095184 45.359999 
L 38.045456 45.408816 
L 37.200001 46.136365 
L 37.11254 46.199999 
L 36.354547 46.746642 
L 35.857545 47.039999 
L 35.509092 47.245112 
L 34.663637 47.617907 
L 33.818183 47.860117 
L 33.594349 47.879999 
L 32.972728 47.935765 
L 32.562907 47.879999 
L 32.127274 47.808588 
L 31.281819 47.384782 
L 30.906604 47.039999 
L 30.436365 46.450286 
L 30.298507 46.199999 
z
" clip-path="url(#p26c2e2f58e)" style="fill: none; stroke: #5b82b3; stroke-opacity: 0.5; stroke-width: 1.5"/>
    <path clip-path="url(#p26c2e2f58e)" style="fill: none; stroke: #5b82b3; stroke-opacity: 0.5; stroke-width: 1.5"/>
   </g>
  </g>
 </g>
 <defs>
  <clipPath id="p26c2e2f58e">
   <rect x="0" y="-0" width="83.7" height="83.16"/>
  </clipPath>
 </defs>
</svg>
