<?xml version="1.0" encoding="utf-8" standalone="no"?>
<!DOCTYPE svg PUBLIC "-//W3C//DTD SVG 1.1//EN"
  "http://www.w3.org/Graphics/SVG/1.1/DTD/svg11.dtd">
<svg xmlns:xlink="http://www.w3.org/1999/xlink" width="83.7pt" height="83.16pt" viewBox="0 0 83.7 83.16" xmlns="http://www.w3.org/2000/svg" version="1.1">
 <metadata>
  <rdf:RDF xmlns:dc="http://purl.org/dc/elements/1.1/" xmlns:cc="http://creativecommons.org/ns#" xmlns:rdf="http://www.w3.org/1999/02/22-rdf-syntax-ns#">
   <cc:Work>
    <dc:type rdf:resource="http://purl.org/dc/dcmitype/StillImage"/>
    <dc:date>2024-02-07T07:29:26.186452</dc:date>
    <dc:format>image/svg+xml</dc:format>
    <dc:creator>
     <cc:Agent>
      <dc:title>Matplotlib v3.8.2, https://matplotlib.org/</dc:title>
     </cc:Agent>
    </dc:creator>
   </cc:Work>
  </rdf:RDF>
 </metadata>
 <defs>
  <style type="text/css">*{stroke-linejoin: round; stroke-linecap: butt}</style>
 </defs>
 <g id="figure_1">
  <g id="patch_1">
   <path d="M 0 83.16 
L 83.7 83.16 
L 83.7 0 
L 0 0 
z
" style="fill: #ffffff"/>
  </g>
  <g id="axes_1">
   <g id="QuadContourSet_1">
    <path clip-path="url(#p9f919c7351)" style="fill: none; stroke: #4169e1; stroke-opacity: 0.5; stroke-width: 1.5"/>
    <path d="M 16.005806 57.119998 
L 15.861953 56.279999 
L 15.754573 55.439999 
L 15.680096 54.599999 
L 15.635579 53.759999 
L 15.61863 52.919999 
L 15.627343 52.079999 
L 15.660245 51.239999 
L 15.716248 50.399999 
L 15.794627 49.559999 
L 15.894992 48.719999 
L 16.017274 47.879999 
L 16.063638 47.609437 
L 16.152845 47.039999 
L 16.304047 46.199999 
L 16.475526 45.359999 
L 16.66817 44.519999 
L 16.883174 43.679999 
L 16.909091 43.587049 
L 17.101041 42.839999 
L 17.338104 41.999999 
L 17.598658 41.160001 
L 17.754545 40.696075 
L 17.871768 40.320001 
L 18.153255 39.480001 
L 18.460821 38.640001 
L 18.600001 38.284511 
L 18.777145 37.800001 
L 19.106584 36.960001 
L 19.445456 36.166626 
L 19.464165 36.120001 
L 19.816752 35.280001 
L 20.201384 34.440001 
L 20.29091 34.253751 
L 20.588107 33.600001 
L 21.000266 32.760001 
L 21.136363 32.496363 
L 21.419453 31.920001 
L 21.862587 31.080001 
L 21.981819 30.864022 
L 22.311561 30.240001 
L 22.790079 29.400001 
L 22.827274 29.336761 
L 23.267206 28.560001 
L 23.672728 27.894596 
L 23.775739 27.720001 
L 24.291315 26.880001 
L 24.518182 26.529243 
L 24.826376 26.040002 
L 25.363637 25.238287 
L 25.388761 25.200001 
L 25.954049 24.36 
L 26.209093 24.000203 
L 26.544428 23.520001 
L 27.054546 22.825499 
L 27.160402 22.680002 
L 27.79182 21.840001 
L 27.900001 21.700359 
L 28.440679 21 
L 28.745455 20.620423 
L 29.115885 20.160001 
L 29.59091 19.589563 
L 29.817084 19.320001 
L 30.436365 18.603452 
L 30.544467 18.480001 
L 31.281819 17.658547 
L 31.298783 17.64 
L 32.07849 16.800001 
L 32.127274 16.748305 
L 32.889893 15.960001 
L 32.972728 15.875535 
L 33.736676 15.12 
L 33.818183 15.040097 
L 34.622244 14.28 
L 34.663637 14.241025 
L 35.509092 13.474954 
L 35.549405 13.44 
L 36.354547 12.738928 
L 36.522953 12.600001 
L 37.200001 12.036387 
L 37.55262 11.760002 
L 38.045456 11.36831 
L 38.648335 10.919999 
L 38.89091 10.73621 
L 39.736365 10.137217 
L 39.82232 10.08 
L 40.581819 9.560635 
L 41.09324 9.240001 
L 41.427274 9.023822 
L 42.272726 8.520095 
L 42.491803 8.399999 
L 43.118181 8.042617 
L 43.963635 7.608837 
L 44.067988 7.559999 
L 44.80909 7.196032 
L 45.654544 6.82849 
L 45.935365 6.72 
L 46.499999 6.489206 
L 47.345453 6.188223 
L 48.190908 5.931535 
L 48.394082 5.880001 
L 49.036363 5.70563 
L 49.881817 5.522013 
L 50.727272 5.384408 
L 51.572726 5.29375 
L 52.418181 5.252164 
L 53.263635 5.263072 
L 54.10909 5.331356 
L 54.954545 5.463583 
L 55.799999 5.668328 
L 56.430351 5.880001 
L 56.645454 5.953905 
L 57.490907 6.328016 
L 58.178481 6.72 
L 58.336363 6.815249 
L 59.181818 7.433285 
L 59.328901 7.559999 
L 60.027272 8.220288 
L 60.192508 8.399999 
L 60.872726 9.233444 
L 60.877534 9.240001 
L 61.433604 10.08 
L 61.718181 10.586211 
L 61.893443 10.919999 
L 62.275314 11.760002 
L 62.563637 12.527913 
L 62.589809 12.600001 
L 62.854218 13.44 
L 63.068099 14.28 
L 63.237637 15.12 
L 63.367995 15.960001 
L 63.40909 16.313658 
L 63.466935 16.800001 
L 63.535676 17.64 
L 63.574524 18.480001 
L 63.585704 19.320001 
L 63.570972 20.160001 
L 63.531659 21 
L 63.468713 21.840001 
L 63.40909 22.421511 
L 63.384938 22.680002 
L 63.285728 23.520001 
L 63.166415 24.36 
L 63.026843 25.200001 
L 62.866565 26.040002 
L 62.684835 26.880001 
L 62.563637 27.38171 
L 62.488531 27.720001 
L 62.283165 28.560001 
L 62.05619 29.400001 
L 61.805931 30.240001 
L 61.718181 30.512768 
L 61.549242 31.080001 
L 61.277921 31.920001 
L 60.981079 32.760001 
L 60.872726 33.047031 
L 60.678175 33.600001 
L 60.359839 34.440001 
L 60.027272 35.245019 
L 60.013722 35.280001 
L 59.672922 36.120001 
L 59.301259 36.960001 
L 59.181818 37.21579 
L 58.924327 37.800001 
L 58.526393 38.640001 
L 58.336363 39.018161 
L 58.115988 39.480001 
L 57.688714 40.320001 
L 57.490907 40.687437 
L 57.247883 41.160001 
L 56.787291 41.999999 
L 56.645454 42.246908 
L 56.318028 42.839999 
L 55.819084 43.679999 
L 55.799999 43.711242 
L 55.322361 44.519999 
L 54.954545 45.101258 
L 54.795396 45.359999 
L 54.254536 46.199999 
L 54.10909 46.416932 
L 53.700584 47.039999 
L 53.263635 47.669112 
L 53.119626 47.879999 
L 52.522656 48.719999 
L 52.418181 48.862412 
L 51.911989 49.559999 
L 51.572726 50.006355 
L 51.275162 50.399999 
L 50.727272 51.095325 
L 50.613272 51.239999 
L 49.930521 52.079999 
L 49.881817 52.138695 
L 49.229566 52.919999 
L 49.036363 53.144518 
L 48.500534 53.759999 
L 48.190908 54.106702 
L 47.74271 54.599999 
L 47.345453 55.028291 
L 46.954742 55.439999 
L 46.499999 55.911659 
L 46.13457 56.279999 
L 45.654544 56.758561 
L 45.279322 57.119998 
L 44.80909 57.570174 
L 44.385184 57.959999 
L 43.963635 58.347141 
L 43.447238 58.8 
L 43.118181 59.089579 
L 42.459225 59.639999 
L 42.272726 59.797082 
L 41.427274 60.469607 
L 41.413553 60.479998 
L 40.581819 61.12043 
L 40.30356 61.319999 
L 39.736365 61.735581 
L 39.110357 62.16 
L 38.89091 62.312727 
L 38.045456 62.860969 
L 37.81367 62.999999 
L 37.200001 63.380976 
L 36.383339 63.839999 
L 36.354547 63.856829 
L 35.509092 64.315213 
L 34.754036 64.679999 
L 34.663637 64.725796 
L 33.818183 65.115253 
L 32.972728 65.45713 
L 32.796476 65.52 
L 32.127274 65.773228 
L 31.281819 66.048067 
L 30.436365 66.278863 
L 30.070908 66.359999 
L 29.59091 66.474363 
L 28.745455 66.628948 
L 27.900001 66.736097 
L 27.054546 66.794159 
L 26.209093 66.800213 
L 25.363637 66.74994 
L 24.518182 66.637406 
L 23.672728 66.454795 
L 23.356898 66.359999 
L 22.827274 66.19829 
L 21.981819 65.853757 
L 21.347489 65.52 
L 21.136363 65.403168 
L 20.29091 64.830049 
L 20.104687 64.679999 
L 19.445456 64.100973 
L 19.189797 63.839999 
L 18.600001 63.166674 
L 18.469992 62.999999 
L 17.888237 62.16 
L 17.754545 61.938616 
L 17.408273 61.319999 
L 17.011695 60.479998 
L 16.909091 60.227165 
L 16.680247 59.639999 
L 16.40645 58.8 
L 16.184763 57.959999 
L 16.063638 57.391356 
L 16.005806 57.119998 
z
" clip-path="url(#p9f919c7351)" style="fill: none; stroke: #4169e1; stroke-opacity: 0.5; stroke-width: 1.5"/>
    <path d="M 21.12766 52.079999 
L 21.012286 51.239999 
L 20.938739 50.399999 
L 20.902892 49.559999 
L 20.901434 48.719999 
L 20.931748 47.879999 
L 20.991832 47.039999 
L 21.080229 46.199999 
L 21.136363 45.79443 
L 21.193115 45.359999 
L 21.328087 44.519999 
L 21.487259 43.679999 
L 21.670678 42.839999 
L 21.878781 41.999999 
L 21.981819 41.627673 
L 22.10484 41.160001 
L 22.348687 40.320001 
L 22.617173 39.480001 
L 22.827274 38.878268 
L 22.906866 38.640001 
L 23.209121 37.800001 
L 23.537904 36.960001 
L 23.672728 36.638237 
L 23.881831 36.120001 
L 24.245228 35.280001 
L 24.518182 34.692232 
L 24.631666 34.440001 
L 25.031353 33.600001 
L 25.363637 32.948822 
L 25.457558 32.760001 
L 25.896294 31.920001 
L 26.209093 31.358122 
L 26.360943 31.080001 
L 26.842673 30.240001 
L 27.054546 29.889023 
L 27.345847 29.400001 
L 27.875865 28.560001 
L 27.900001 28.522936 
L 28.419112 27.720001 
L 28.745455 27.241122 
L 28.99121 26.880001 
L 29.590775 26.040002 
L 29.59091 26.039817 
L 30.20801 25.200001 
L 30.436365 24.901694 
L 30.855482 24.36 
L 31.281819 23.828451 
L 31.533378 23.520001 
L 32.127274 22.814074 
L 32.242667 22.680002 
L 32.972728 21.85366 
L 32.985151 21.840001 
L 33.76247 21 
L 33.818183 20.940906 
L 34.580813 20.160001 
L 34.663637 20.076426 
L 35.445108 19.320001 
L 35.509092 19.25867 
L 36.354547 18.486008 
L 36.361465 18.480001 
L 37.200001 17.753123 
L 37.338869 17.64 
L 38.045456 17.062538 
L 38.389775 16.800001 
L 38.89091 16.414774 
L 39.529782 15.960001 
L 39.736365 15.811022 
L 40.581819 15.24683 
L 40.789052 15.12 
L 41.427274 14.72105 
L 42.209809 14.28 
L 42.272726 14.243603 
L 43.118181 13.80056 
L 43.898427 13.44 
L 43.963635 13.40882 
L 44.80909 13.054005 
L 45.654544 12.751431 
L 46.165237 12.600001 
L 46.499999 12.496115 
L 47.345453 12.289615 
L 48.190908 12.1396 
L 49.036363 12.048848 
L 49.881817 12.021917 
L 50.727272 12.065418 
L 51.572726 12.188391 
L 52.418181 12.402824 
L 52.949345 12.600001 
L 53.263635 12.724164 
L 54.10909 13.175404 
L 54.492977 13.44 
L 54.954545 13.792782 
L 55.471005 14.28 
L 55.799999 14.635047 
L 56.18264 15.12 
L 56.645454 15.815638 
L 56.730555 15.960001 
L 57.15541 16.800001 
L 57.490907 17.633902 
L 57.49318 17.64 
L 57.75622 18.480001 
L 57.959052 19.320001 
L 58.10948 20.160001 
L 58.213903 21 
L 58.277549 21.840001 
L 58.304666 22.680002 
L 58.298674 23.520001 
L 58.262273 24.36 
L 58.197547 25.200001 
L 58.106034 26.040002 
L 57.988782 26.880001 
L 57.846388 27.720001 
L 57.679033 28.560001 
L 57.490907 29.380792 
L 57.486732 29.400001 
L 57.281015 30.240001 
L 57.051726 31.080001 
L 56.79779 31.920001 
L 56.645454 32.380197 
L 56.525409 32.760001 
L 56.237445 33.600001 
L 55.923405 34.440001 
L 55.799999 34.747498 
L 55.594619 35.280001 
L 55.246403 36.120001 
L 54.954545 36.773401 
L 54.873951 36.960001 
L 54.490312 37.800001 
L 54.10909 38.573979 
L 54.077454 38.640001 
L 53.656089 39.480001 
L 53.263635 40.208185 
L 53.204649 40.320001 
L 52.742114 41.160001 
L 52.418181 41.712891 
L 52.252522 41.999999 
L 51.744108 42.839999 
L 51.572726 43.110577 
L 51.215354 43.679999 
L 50.727272 44.415988 
L 50.658526 44.519999 
L 50.08441 45.359999 
L 49.881817 45.644149 
L 49.484402 46.199999 
L 49.036363 46.800093 
L 48.85568 47.039999 
L 48.198704 47.879999 
L 48.190908 47.889756 
L 47.517599 48.719999 
L 47.345453 48.925648 
L 46.80323 49.559999 
L 46.499999 49.905379 
L 46.05384 50.399999 
L 45.654544 50.833092 
L 45.266699 51.239999 
L 44.80909 51.712021 
L 44.437925 52.079999 
L 43.963635 52.544572 
L 43.562258 52.919999 
L 43.118181 53.332394 
L 42.632759 53.759999 
L 42.272726 54.076423 
L 41.640385 54.599999 
L 41.427274 54.776911 
L 40.581819 55.433732 
L 40.573217 55.439999 
L 39.736365 56.05623 
L 39.406271 56.279999 
L 38.89091 56.634856 
L 38.119264 57.119998 
L 38.045456 57.167363 
L 37.200001 57.665542 
L 36.642707 57.959999 
L 36.354547 58.116676 
L 35.509092 58.527332 
L 34.868164 58.8 
L 34.663637 58.89027 
L 33.818183 59.212245 
L 32.972728 59.481888 
L 32.356467 59.639999 
L 32.127274 59.7017 
L 31.281819 59.871257 
L 30.436365 59.9819 
L 29.59091 60.029789 
L 28.745455 60.009142 
L 27.900001 59.911906 
L 27.054546 59.7273 
L 26.785668 59.639999 
L 26.209093 59.442128 
L 25.363637 59.03501 
L 24.989225 58.8 
L 24.518182 58.474676 
L 23.924547 57.959999 
L 23.672728 57.712422 
L 23.166192 57.119998 
L 22.827274 56.654693 
L 22.587982 56.279999 
L 22.137285 55.439999 
L 21.981819 55.089569 
L 21.782346 54.599999 
L 21.50397 53.759999 
L 21.288605 52.919999 
L 21.136363 52.126989 
L 21.12766 52.079999 
z
" clip-path="url(#p9f919c7351)" style="fill: none; stroke: #4169e1; stroke-opacity: 0.5; stroke-width: 1.5"/>
    <path d="M 25.188826 49.559999 
L 25.019711 48.719999 
L 24.909381 47.879999 
L 24.850361 47.039999 
L 24.836683 46.199999 
L 24.86363 45.359999 
L 24.927524 44.519999 
L 25.025579 43.679999 
L 25.155764 42.839999 
L 25.316727 41.999999 
L 25.363637 41.794915 
L 25.504975 41.160001 
L 25.719927 40.320001 
L 25.962241 39.480001 
L 26.209093 38.712429 
L 26.231902 38.640001 
L 26.52292 37.800001 
L 26.840701 36.960001 
L 27.054546 36.439024 
L 27.183578 36.120001 
L 27.548635 35.280001 
L 27.900001 34.529306 
L 27.941447 34.440001 
L 28.354818 33.600001 
L 28.745455 32.858131 
L 28.797012 32.760001 
L 29.261123 31.920001 
L 29.59091 31.357229 
L 29.75403 31.080001 
L 30.272803 30.240001 
L 30.436365 29.986981 
L 30.819765 29.400001 
L 31.281819 28.725874 
L 31.397447 28.560001 
L 32.005376 27.720001 
L 32.127274 27.55742 
L 32.647116 26.880001 
L 32.972728 26.47059 
L 33.325598 26.040002 
L 33.818183 25.457112 
L 34.043624 25.200001 
L 34.663637 24.510822 
L 34.805428 24.36 
L 35.509092 23.626833 
L 35.617033 23.520001 
L 36.354547 22.801419 
L 36.486749 22.680002 
L 37.200001 22.031892 
L 37.425843 21.840001 
L 38.045456 21.316521 
L 38.449519 21 
L 38.89091 20.654485 
L 39.57834 20.160001 
L 39.736365 20.045844 
L 40.581819 19.488272 
L 40.865494 19.320001 
L 41.427274 18.982648 
L 42.272726 18.532442 
L 42.386097 18.480001 
L 43.118181 18.134427 
L 43.963635 17.795287 
L 44.438281 17.64 
L 44.80909 17.515208 
L 45.654544 17.298553 
L 46.499999 17.151225 
L 47.345453 17.079422 
L 48.190908 17.092259 
L 49.036363 17.202415 
L 49.881817 17.427073 
L 50.393667 17.64 
L 50.727272 17.794033 
L 51.572726 18.346496 
L 51.729685 18.480001 
L 52.418181 19.166283 
L 52.542756 19.320001 
L 53.111207 20.160001 
L 53.263635 20.440131 
L 53.527532 21 
L 53.835963 21.840001 
L 54.062751 22.680002 
L 54.10909 22.9173 
L 54.217816 23.520001 
L 54.315354 24.36 
L 54.363513 25.200001 
L 54.367683 26.040002 
L 54.332107 26.880001 
L 54.260069 27.720001 
L 54.154023 28.560001 
L 54.10909 28.830168 
L 54.017023 29.400001 
L 53.851164 30.240001 
L 53.656891 31.080001 
L 53.434521 31.920001 
L 53.263635 32.492455 
L 53.18558 32.760001 
L 52.913587 33.600001 
L 52.614748 34.440001 
L 52.418181 34.946545 
L 52.290927 35.280001 
L 51.944818 36.120001 
L 51.572726 36.955089 
L 51.570561 36.960001 
L 51.176694 37.800001 
L 50.753781 38.640001 
L 50.727272 38.689951 
L 50.309741 39.480001 
L 49.881817 40.239553 
L 49.836398 40.320001 
L 49.340009 41.160001 
L 49.036363 41.646807 
L 48.814198 41.999999 
L 48.260019 42.839999 
L 48.190908 42.940872 
L 47.677002 43.679999 
L 47.345453 44.136585 
L 47.061052 44.519999 
L 46.499999 45.247912 
L 46.411152 45.359999 
L 45.724863 46.199999 
L 45.654544 46.283758 
L 44.997427 47.039999 
L 44.80909 47.251149 
L 44.224474 47.879999 
L 43.963635 48.1547 
L 43.400132 48.719999 
L 43.118181 48.998313 
L 42.516335 49.559999 
L 42.272726 49.784824 
L 41.562199 50.399999 
L 41.427274 50.516095 
L 40.581819 51.193919 
L 40.519597 51.239999 
L 39.736365 51.821074 
L 39.353639 52.079999 
L 38.89091 52.395178 
L 38.045456 52.914933 
L 38.036211 52.919999 
L 37.200001 53.385118 
L 36.431006 53.759999 
L 36.354547 53.798017 
L 35.509092 54.15723 
L 34.663637 54.455739 
L 34.142588 54.599999 
L 33.818183 54.692619 
L 32.972728 54.862752 
L 32.127274 54.959219 
L 31.281819 54.974139 
L 30.436365 54.896365 
L 29.59091 54.710673 
L 29.279635 54.599999 
L 28.745455 54.390999 
L 27.900001 53.903633 
L 27.711739 53.759999 
L 27.054546 53.178711 
L 26.822685 52.919999 
L 26.209093 52.090671 
L 26.202451 52.079999 
L 25.762997 51.239999 
L 25.428857 50.399999 
L 25.363637 50.188192 
L 25.188826 49.559999 
z
" clip-path="url(#p9f919c7351)" style="fill: none; stroke: #4169e1; stroke-opacity: 0.5; stroke-width: 1.5"/>
    <path d="M 28.692035 46.199999 
L 28.541454 45.359999 
L 28.462177 44.519999 
L 28.443949 43.679999 
L 28.478852 42.839999 
L 28.560816 41.999999 
L 28.685269 41.160001 
L 28.745455 40.855702 
L 28.851674 40.320001 
L 29.055622 39.480001 
L 29.293121 38.640001 
L 29.563084 37.800001 
L 29.59091 37.723302 
L 29.869816 36.960001 
L 30.206478 36.120001 
L 30.436365 35.594334 
L 30.575728 35.280001 
L 30.978063 34.440001 
L 31.281819 33.848494 
L 31.412046 33.600001 
L 31.880779 32.760001 
L 32.127274 32.343258 
L 32.384453 31.920001 
L 32.922098 31.080001 
L 32.972728 31.004574 
L 33.503466 30.240001 
L 33.818183 29.805901 
L 34.124915 29.400001 
L 34.663637 28.713784 
L 34.790528 28.560001 
L 35.506766 27.720001 
L 35.509092 27.717352 
L 36.287169 26.880001 
L 36.354547 26.809269 
L 37.136994 26.040002 
L 37.200001 25.979262 
L 38.045456 25.22326 
L 38.073889 25.200001 
L 38.89091 24.5396 
L 39.136681 24.36 
L 39.736365 23.924725 
L 40.361465 23.520001 
L 40.581819 23.377559 
L 41.427274 22.901704 
L 41.891413 22.680002 
L 42.272726 22.496738 
L 43.118181 22.168442 
L 43.963635 21.918553 
L 44.382221 21.840001 
L 44.80909 21.758577 
L 45.654544 21.699517 
L 46.499999 21.75576 
L 46.880725 21.840001 
L 47.345453 21.956795 
L 48.190908 22.347953 
L 48.656833 22.680002 
L 49.036363 23.009487 
L 49.469134 23.520001 
L 49.881817 24.154692 
L 49.989093 24.36 
L 50.324514 25.200001 
L 50.552612 26.040002 
L 50.692737 26.880001 
L 50.727272 27.301543 
L 50.757928 27.720001 
L 50.763004 28.560001 
L 50.727272 29.207918 
L 50.716645 29.400001 
L 50.621981 30.240001 
L 50.485713 31.080001 
L 50.311468 31.920001 
L 50.101767 32.760001 
L 49.881817 33.517288 
L 49.857646 33.600001 
L 49.576396 34.440001 
L 49.264986 35.280001 
L 49.036363 35.840401 
L 48.920945 36.120001 
L 48.543439 36.960001 
L 48.190908 37.688366 
L 48.135874 37.800001 
L 47.692257 38.640001 
L 47.345453 39.257322 
L 47.217189 39.480001 
L 46.705691 40.320001 
L 46.499999 40.640697 
L 46.156217 41.160001 
L 45.654544 41.883282 
L 45.570323 41.999999 
L 44.939096 42.839999 
L 44.80909 43.006596 
L 44.258685 43.679999 
L 43.963635 44.029283 
L 43.525788 44.519999 
L 43.118181 44.964339 
L 42.731366 45.359999 
L 42.272726 45.818687 
L 41.862495 46.199999 
L 41.427274 46.597591 
L 40.900836 47.039999 
L 40.581819 47.304856 
L 39.820269 47.879999 
L 39.736365 47.942923 
L 38.89091 48.509976 
L 38.534556 48.719999 
L 38.045456 49.008477 
L 37.200001 49.436549 
L 36.902642 49.559999 
L 36.354547 49.789482 
L 35.509092 50.063275 
L 34.663637 50.252862 
L 33.818183 50.34687 
L 32.972728 50.328656 
L 32.127274 50.174546 
L 31.281819 49.851271 
L 30.804957 49.559999 
L 30.436365 49.289709 
L 29.883907 48.719999 
L 29.59091 48.334031 
L 29.319781 47.879999 
L 28.944522 47.039999 
L 28.745455 46.400569 
L 28.692035 46.199999 
z
" clip-path="url(#p9f919c7351)" style="fill: none; stroke: #4169e1; stroke-opacity: 0.5; stroke-width: 1.5"/>
    <path d="M 32.937986 43.679999 
L 32.620169 42.839999 
L 32.449562 41.999999 
L 32.392085 41.160001 
L 32.423891 40.320001 
L 32.528098 39.480001 
L 32.692681 38.640001 
L 32.909134 37.800001 
L 32.972728 37.602401 
L 33.190195 36.960001 
L 33.517705 36.120001 
L 33.818183 35.431259 
L 33.888126 35.280001 
L 34.321324 34.440001 
L 34.663637 33.823292 
L 34.796022 33.600001 
L 35.33156 32.760001 
L 35.509092 32.498345 
L 35.931515 31.920001 
L 36.354547 31.36769 
L 36.594831 31.080001 
L 37.200001 30.384849 
L 37.339532 30.240001 
L 38.045456 29.532705 
L 38.19451 29.400001 
L 38.89091 28.798053 
L 39.207155 28.560001 
L 39.736365 28.170997 
L 40.458607 27.720001 
L 40.581819 27.644435 
L 41.427274 27.238532 
L 42.272726 26.939416 
L 42.588136 26.880001 
L 43.118181 26.781171 
L 43.963635 26.783426 
L 44.384857 26.880001 
L 44.80909 27.002285 
L 45.654544 27.558612 
L 45.804131 27.720001 
L 46.352302 28.560001 
L 46.499999 28.924486 
L 46.643952 29.400001 
L 46.779659 30.240001 
L 46.813953 31.080001 
L 46.766568 31.920001 
L 46.651666 32.760001 
L 46.499999 33.495281 
L 46.47723 33.600001 
L 46.234147 34.440001 
L 45.946996 35.280001 
L 45.654544 36.028201 
L 45.616582 36.120001 
L 45.22088 36.960001 
L 44.80909 37.768797 
L 44.792151 37.800001 
L 44.292133 38.640001 
L 43.963635 39.15975 
L 43.746139 39.480001 
L 43.144129 40.320001 
L 43.118181 40.35415 
L 42.454971 41.160001 
L 42.272726 41.372656 
L 41.68261 41.999999 
L 41.427274 42.262205 
L 40.800229 42.839999 
L 40.581819 43.035527 
L 39.765188 43.679999 
L 39.736365 43.702225 
L 38.89091 44.251215 
L 38.387296 44.519999 
L 38.045456 44.699514 
L 37.200001 45.02835 
L 36.354547 45.23588 
L 35.509092 45.290638 
L 34.663637 45.143487 
L 33.818183 44.71684 
L 33.594748 44.519999 
L 32.972728 43.74295 
L 32.937986 43.679999 
z
" clip-path="url(#p9f919c7351)" style="fill: none; stroke: #4169e1; stroke-opacity: 0.5; stroke-width: 1.5"/>
    <path clip-path="url(#p9f919c7351)" style="fill: none; stroke: #4169e1; stroke-opacity: 0.5; stroke-width: 1.5"/>
   </g>
  </g>
 </g>
 <defs>
  <clipPath id="p9f919c7351">
   <rect x="0" y="-0" width="83.7" height="83.16"/>
  </clipPath>
 </defs>
</svg>
