<?xml version="1.0" encoding="utf-8" standalone="no"?>
<!DOCTYPE svg PUBLIC "-//W3C//DTD SVG 1.1//EN"
  "http://www.w3.org/Graphics/SVG/1.1/DTD/svg11.dtd">
<svg xmlns:xlink="http://www.w3.org/1999/xlink" width="31.14pt" height="31.032pt" viewBox="0 0 31.14 31.032" xmlns="http://www.w3.org/2000/svg" version="1.1">
 <metadata>
  <rdf:RDF xmlns:dc="http://purl.org/dc/elements/1.1/" xmlns:cc="http://creativecommons.org/ns#" xmlns:rdf="http://www.w3.org/1999/02/22-rdf-syntax-ns#">
   <cc:Work>
    <dc:type rdf:resource="http://purl.org/dc/dcmitype/StillImage"/>
    <dc:date>2024-02-06T18:14:42.978093</dc:date>
    <dc:format>image/svg+xml</dc:format>
    <dc:creator>
     <cc:Agent>
      <dc:title>Matplotlib v3.8.2, https://matplotlib.org/</dc:title>
     </cc:Agent>
    </dc:creator>
   </cc:Work>
  </rdf:RDF>
 </metadata>
 <defs>
  <style type="text/css">*{stroke-linejoin: round; stroke-linecap: butt}</style>
 </defs>
 <g id="figure_1">
  <g id="patch_1">
   <path d="M 0 31.032 
L 31.14 31.032 
L 31.14 0 
L 0 0 
L 0 31.032 
z
" style="fill: none"/>
  </g>
  <g id="axes_1">
   <g id="patch_2">
    <path d="M 7.2 23.832 
L 23.94 23.832 
L 23.94 7.2 
L 7.2 7.2 
L 7.2 23.832 
z
" style="fill: none"/>
   </g>
   <g id="QuadContourSet_1">
    <path d="M 16.121989 21.987358 
L 16.250759 22.015841 
L 16.379529 22.034663 
L 16.5083 22.043253 
L 16.63707 22.041641 
L 16.76584 22.03033 
L 16.89461 22.010036 
L 17.02338 21.981394 
L 17.117574 21.954434 
L 17.15215 21.943991 
L 17.28092 21.896111 
L 17.401312 21.843175 
L 17.40969 21.839337 
L 17.538461 21.770064 
L 17.60035 21.731917 
L 17.667231 21.690262 
L 17.766687 21.620659 
L 17.796001 21.60075 
L 17.918178 21.509401 
L 17.924771 21.504811 
L 18.053541 21.407654 
L 18.065403 21.398142 
L 18.182311 21.312708 
L 18.216011 21.286884 
L 18.311081 21.220509 
L 18.372795 21.175626 
L 18.439851 21.130418 
L 18.534275 21.064368 
L 18.568622 21.041474 
L 18.697157 20.95311 
L 18.697392 20.952951 
L 18.826162 20.865235 
L 18.860905 20.841851 
L 18.954932 20.777238 
L 19.025084 20.730593 
L 19.083702 20.690069 
L 19.192101 20.619335 
L 19.212472 20.605393 
L 19.341242 20.525135 
L 19.37175 20.508077 
L 19.470012 20.450669 
L 19.571557 20.396819 
L 19.598782 20.381885 
L 19.727553 20.317689 
L 19.79383 20.28556 
L 19.856323 20.254888 
L 19.985093 20.189695 
L 20.013005 20.174302 
L 20.113863 20.119438 
L 20.205631 20.063044 
L 20.242633 20.041032 
L 20.371403 19.954828 
L 20.375477 19.951786 
L 20.500173 19.863956 
L 20.530656 19.840527 
L 20.628943 19.769979 
L 20.682139 19.729269 
L 20.757714 19.675335 
L 20.834232 19.618011 
L 20.886484 19.581231 
L 20.987815 19.506753 
L 21.015254 19.487523 
L 21.140453 19.395495 
L 21.144024 19.392945 
L 21.272794 19.295954 
L 21.287519 19.284236 
L 21.401564 19.193083 
L 21.425096 19.172978 
L 21.530334 19.081154 
L 21.55107 19.06172 
L 21.659104 18.956889 
L 21.665282 18.950462 
L 21.768784 18.839203 
L 21.787874 18.817733 
L 21.862871 18.727945 
L 21.916645 18.658898 
L 21.948007 18.616687 
L 22.024767 18.505429 
L 22.045415 18.472908 
L 22.094336 18.394171 
L 22.155744 18.282912 
L 22.174185 18.245565 
L 22.211227 18.171654 
L 22.260188 18.060396 
L 22.302553 17.949138 
L 22.302955 17.947933 
L 22.34241 17.837879 
L 22.377271 17.726621 
L 22.408062 17.615363 
L 22.431725 17.519551 
L 22.436045 17.504105 
L 22.463837 17.392847 
L 22.48998 17.281588 
L 22.515438 17.17033 
L 22.541123 17.059072 
L 22.560495 16.977604 
L 22.56868 16.947814 
L 22.600228 16.836556 
L 22.63311 16.725297 
L 22.666414 16.614039 
L 22.689265 16.536866 
L 22.700058 16.502781 
L 22.733925 16.391523 
L 22.763951 16.280264 
L 22.789478 16.169006 
L 22.810172 16.057748 
L 22.818035 16.003905 
L 22.826641 15.94649 
L 22.838113 15.835232 
L 22.843563 15.723973 
L 22.842724 15.612715 
L 22.835266 15.501457 
L 22.820824 15.390199 
L 22.818035 15.375748 
L 22.800715 15.27894 
L 22.773937 15.167682 
L 22.740174 15.056424 
L 22.699639 14.945166 
L 22.689265 14.918895 
L 22.655871 14.833908 
L 22.608852 14.722649 
L 22.560495 14.612172 
L 22.560147 14.611391 
L 22.51668 14.500133 
L 22.479077 14.388875 
L 22.451857 14.277617 
L 22.438983 14.166358 
L 22.442199 14.0551 
L 22.459461 13.943842 
L 22.484547 13.832584 
L 22.508509 13.721325 
L 22.522298 13.610067 
L 22.519062 13.498809 
L 22.495113 13.387551 
L 22.449641 13.276293 
L 22.431725 13.245844 
L 22.37965 13.165034 
L 22.302955 13.071574 
L 22.287247 13.053776 
L 22.174185 12.94382 
L 22.172815 12.942518 
L 22.045415 12.83126 
L 22.045415 12.83126 
L 21.920182 12.720001 
L 21.916645 12.716853 
L 21.80919 12.608743 
L 21.787874 12.586698 
L 21.714496 12.497485 
L 21.659104 12.427614 
L 21.631403 12.386227 
L 21.5593 12.274969 
L 21.530334 12.229135 
L 21.494645 12.16371 
L 21.434152 12.052452 
L 21.401564 11.992644 
L 21.376463 11.941194 
L 21.321513 11.829936 
L 21.272794 11.733633 
L 21.265746 11.718677 
L 21.21365 11.607419 
L 21.160012 11.496161 
L 21.144024 11.462405 
L 21.108177 11.384903 
L 21.055633 11.273645 
L 21.015254 11.191259 
L 21.000934 11.162386 
L 20.94336 11.051128 
L 20.886484 10.954872 
L 20.877226 10.93987 
L 20.799603 10.828612 
L 20.757714 10.778601 
L 20.703076 10.717354 
L 20.628943 10.647767 
L 20.581605 10.606095 
L 20.500173 10.544387 
L 20.43109 10.494837 
L 20.371403 10.456816 
L 20.251831 10.383579 
L 20.242633 10.378421 
L 20.113863 10.306415 
L 20.051714 10.272321 
L 19.985093 10.237719 
L 19.856323 10.171842 
L 19.835007 10.161062 
L 19.727553 10.108512 
L 19.601988 10.049804 
L 19.598782 10.048329 
L 19.470012 9.991376 
L 19.341242 9.939365 
L 19.339018 9.938546 
L 19.212472 9.891531 
L 19.083702 9.849889 
L 19.001656 9.827288 
L 18.954932 9.813886 
L 18.826162 9.782985 
L 18.697392 9.757658 
L 18.568622 9.736926 
L 18.439851 9.719515 
L 18.410793 9.71603 
L 18.311081 9.70288 
L 18.182311 9.685956 
L 18.053541 9.667337 
L 17.924771 9.645688 
L 17.796001 9.620249 
L 17.728791 9.604771 
L 17.667231 9.589548 
L 17.538461 9.553504 
L 17.40969 9.51476 
L 17.343371 9.493513 
L 17.28092 9.472956 
L 17.15215 9.429078 
L 17.02338 9.386298 
L 17.011341 9.382255 
L 16.89461 9.342685 
L 16.76584 9.301891 
L 16.659134 9.270997 
L 16.63707 9.264517 
L 16.5083 9.22936 
L 16.379529 9.199235 
L 16.250759 9.174429 
L 16.153184 9.159738 
L 16.121989 9.154748 
L 15.993219 9.139963 
L 15.864449 9.131743 
L 15.735679 9.130631 
L 15.606909 9.13735 
L 15.478139 9.152779 
L 15.441422 9.159738 
L 15.349369 9.176032 
L 15.220598 9.207896 
L 15.091828 9.249551 
L 15.036525 9.270997 
L 14.963058 9.297696 
L 14.834288 9.351117 
L 14.76518 9.382255 
L 14.705518 9.407272 
L 14.576748 9.462484 
L 14.50277 9.493513 
L 14.447978 9.514656 
L 14.319208 9.560181 
L 14.190437 9.600332 
L 14.172928 9.604771 
L 14.061667 9.630521 
L 13.932897 9.653459 
L 13.804127 9.669588 
L 13.675357 9.679303 
L 13.546587 9.683334 
L 13.417817 9.68271 
L 13.289047 9.678737 
L 13.160277 9.673004 
L 13.031506 9.667342 
L 12.902736 9.663718 
L 12.773966 9.664058 
L 12.645196 9.670026 
L 12.516426 9.682838 
L 12.387656 9.703168 
L 12.327958 9.71603 
L 12.258886 9.730633 
L 12.130116 9.764746 
L 12.001345 9.80521 
L 11.938396 9.827288 
L 11.872575 9.850415 
L 11.743805 9.898875 
L 11.642077 9.938546 
L 11.615035 9.94924 
L 11.486265 9.998991 
L 11.357495 10.046666 
L 11.348059 10.049804 
L 11.228725 10.089897 
L 11.099955 10.128071 
L 10.971651 10.161062 
L 10.971185 10.161183 
L 10.842414 10.189917 
L 10.713644 10.216965 
L 10.584874 10.245391 
L 10.480652 10.272321 
L 10.456104 10.278893 
L 10.327334 10.322014 
L 10.198564 10.38008 
L 10.192377 10.383579 
L 10.069794 10.458062 
L 10.02169 10.494837 
L 9.941024 10.559859 
L 9.892376 10.606095 
L 9.812253 10.683896 
L 9.781173 10.717354 
L 9.683483 10.821731 
L 9.677359 10.828612 
L 9.574869 10.93987 
L 9.554713 10.961354 
L 9.471695 11.051128 
L 9.425943 11.1011 
L 9.369384 11.162386 
L 9.297173 11.244348 
L 9.270802 11.273645 
L 9.178044 11.384903 
L 9.168403 11.397481 
L 9.090556 11.496161 
L 9.039633 11.570819 
L 9.013561 11.607419 
L 8.943601 11.718677 
L 8.910863 11.779085 
L 8.881385 11.829936 
L 8.824794 11.941194 
L 8.782093 12.039113 
L 8.775746 12.052452 
L 8.727677 12.16371 
L 8.685296 12.274969 
L 8.653322 12.366678 
L 8.645835 12.386227 
L 8.604574 12.497485 
L 8.563849 12.608743 
L 8.524552 12.712633 
L 8.521559 12.720001 
L 8.472787 12.83126 
L 8.420854 12.942518 
L 8.395782 12.992442 
L 8.363758 13.053776 
L 8.30276 13.165034 
L 8.267012 13.228536 
L 8.239325 13.276293 
L 8.174149 13.387551 
L 8.138242 13.449695 
L 8.108622 13.498809 
L 8.04273 13.610067 
L 8.009472 13.668008 
L 7.976598 13.721325 
L 7.909971 13.832584 
L 7.880702 13.883332 
L 7.842159 13.943842 
L 7.774527 14.0551 
L 7.751932 14.09492 
L 7.706865 14.166358 
L 7.64429 14.277617 
L 7.623161 14.322248 
L 7.589002 14.388875 
L 7.546469 14.500133 
L 7.520431 14.611391 
L 7.511826 14.722649 
L 7.520913 14.833908 
L 7.547225 14.945166 
L 7.589504 15.056424 
L 7.623161 15.123213 
L 7.645476 15.167682 
L 7.711952 15.27894 
L 7.751932 15.339838 
L 7.784547 15.390199 
L 7.857882 15.501457 
L 7.880702 15.537637 
L 7.925732 15.612715 
L 7.984768 15.723973 
L 8.009472 15.780154 
L 8.031638 15.835232 
L 8.065625 15.94649 
L 8.088467 16.057748 
L 8.101191 16.169006 
L 8.105485 16.280264 
L 8.103447 16.391523 
L 8.097326 16.502781 
L 8.089275 16.614039 
L 8.081175 16.725297 
L 8.074541 16.836556 
L 8.070543 16.947814 
L 8.070097 17.059072 
L 8.074005 17.17033 
L 8.083098 17.281588 
L 8.098355 17.392847 
L 8.120994 17.504105 
L 8.138242 17.565239 
L 8.152202 17.615363 
L 8.19364 17.726621 
L 8.248048 17.837879 
L 8.267012 17.869064 
L 8.317214 17.949138 
L 8.395782 18.049567 
L 8.404576 18.060396 
L 8.511612 18.171654 
L 8.524552 18.183374 
L 8.63875 18.282912 
L 8.653322 18.29437 
L 8.782093 18.393814 
L 8.78255 18.394171 
L 8.910863 18.488716 
L 8.932988 18.505429 
L 9.039633 18.583785 
L 9.082573 18.616687 
L 9.168403 18.681982 
L 9.22595 18.727945 
L 9.297173 18.785092 
L 9.361686 18.839203 
L 9.425943 18.893598 
L 9.491023 18.950462 
L 9.554713 19.006724 
L 9.616045 19.06172 
L 9.683483 19.123119 
L 9.738294 19.172978 
L 9.812253 19.242061 
L 9.857945 19.284236 
L 9.941024 19.364546 
L 9.973569 19.395495 
L 10.069794 19.493851 
L 10.082621 19.506753 
L 10.181816 19.618011 
L 10.198564 19.639483 
L 10.269703 19.729269 
L 10.327334 19.812085 
L 10.347646 19.840527 
L 10.416516 19.951786 
L 10.456104 20.021315 
L 10.481315 20.063044 
L 10.547186 20.174302 
L 10.584874 20.232828 
L 10.622901 20.28556 
L 10.713644 20.390931 
L 10.71961 20.396819 
L 10.842414 20.498069 
L 10.857553 20.508077 
L 10.971185 20.572602 
L 11.080865 20.619335 
L 11.099955 20.626608 
L 11.228725 20.665167 
L 11.357495 20.693028 
L 11.486265 20.713102 
L 11.615035 20.728179 
L 11.638735 20.730593 
L 11.743805 20.741235 
L 11.872575 20.75435 
L 12.001345 20.769194 
L 12.130116 20.786904 
L 12.258886 20.80797 
L 12.387656 20.832322 
L 12.431421 20.841851 
L 12.516426 20.860977 
L 12.645196 20.892991 
L 12.773966 20.926901 
L 12.868745 20.95311 
L 12.902736 20.963025 
L 13.031506 21.002825 
L 13.160277 21.043175 
L 13.226133 21.064368 
L 13.289047 21.085857 
L 13.417817 21.130589 
L 13.546587 21.174552 
L 13.549653 21.175626 
L 13.675357 21.221789 
L 13.804127 21.267218 
L 13.86092 21.286884 
L 13.932897 21.312894 
L 14.061667 21.357894 
L 14.18426 21.398142 
L 14.190437 21.400279 
L 14.319208 21.443907 
L 14.447978 21.484515 
L 14.53223 21.509401 
L 14.576748 21.523755 
L 14.705518 21.563056 
L 14.834288 21.599647 
L 14.913458 21.620659 
L 14.963058 21.635762 
L 15.091828 21.672809 
L 15.220598 21.708356 
L 15.309043 21.731917 
L 15.349369 21.74479 
L 15.478139 21.784529 
L 15.606909 21.824203 
L 15.670098 21.843175 
L 15.735679 21.866606 
L 15.864449 21.910047 
L 15.993219 21.950564 
L 16.007587 21.954434 
z
M 14.994068 20.619335 
L 14.963058 20.615821 
L 14.834288 20.594153 
L 14.705518 20.565448 
L 14.576748 20.529827 
L 14.509828 20.508077 
L 14.447978 20.488177 
L 14.319208 20.441565 
L 14.206658 20.396819 
L 14.190437 20.390421 
L 14.061667 20.33718 
L 13.942071 20.28556 
L 13.932897 20.281635 
L 13.804127 20.22618 
L 13.686011 20.174302 
L 13.675357 20.169649 
L 13.546587 20.113517 
L 13.433879 20.063044 
L 13.417817 20.055829 
L 13.289047 19.99732 
L 13.192665 19.951786 
L 13.160277 19.936316 
L 13.031506 19.87362 
L 12.964998 19.840527 
L 12.902736 19.809285 
L 12.773966 19.74453 
L 12.742907 19.729269 
L 12.645196 19.681556 
L 12.516426 19.62042 
L 12.511062 19.618011 
L 12.387656 19.563725 
L 12.258886 19.508689 
L 12.254212 19.506753 
L 12.130116 19.456471 
L 12.001345 19.402728 
L 11.984697 19.395495 
L 11.872575 19.347299 
L 11.743805 19.286105 
L 11.740187 19.284236 
L 11.615035 19.219515 
L 11.534436 19.172978 
L 11.486265 19.144899 
L 11.357495 19.062795 
L 11.35591 19.06172 
L 11.228725 18.974501 
L 11.195445 18.950462 
L 11.099955 18.880274 
L 11.045931 18.839203 
L 10.971185 18.780995 
L 10.904632 18.727945 
L 10.842414 18.676814 
L 10.770656 18.616687 
L 10.713644 18.567209 
L 10.643776 18.505429 
L 10.584874 18.451394 
L 10.523595 18.394171 
L 10.456104 18.328807 
L 10.40941 18.282912 
L 10.327334 18.199156 
L 10.300649 18.171654 
L 10.198564 18.061616 
L 10.197437 18.060396 
L 10.099484 17.949138 
L 10.069794 17.912535 
L 10.009465 17.837879 
L 9.941024 17.741937 
L 9.930087 17.726621 
L 9.860863 17.615363 
L 9.812253 17.517786 
L 9.805373 17.504105 
L 9.760311 17.392847 
L 9.727348 17.281588 
L 9.704345 17.17033 
L 9.689036 17.059072 
L 9.683483 16.996961 
L 9.678842 16.947814 
L 9.671981 16.836556 
L 9.667109 16.725297 
L 9.662708 16.614039 
L 9.657657 16.502781 
L 9.651254 16.391523 
L 9.643201 16.280264 
L 9.633528 16.169006 
L 9.622471 16.057748 
L 9.610355 15.94649 
L 9.597493 15.835232 
L 9.584149 15.723973 
L 9.570549 15.612715 
L 9.556923 15.501457 
L 9.554713 15.483147 
L 9.54253 15.390199 
L 9.528632 15.27894 
L 9.516033 15.167682 
L 9.50548 15.056424 
L 9.497832 14.945166 
L 9.494015 14.833908 
L 9.494981 14.722649 
L 9.50167 14.611391 
L 9.514969 14.500133 
L 9.535659 14.388875 
L 9.554713 14.313763 
L 9.563589 14.277617 
L 9.597766 14.166358 
L 9.639415 14.0551 
L 9.683483 13.952665 
L 9.687195 13.943842 
L 9.736176 13.832584 
L 9.786548 13.721325 
L 9.812253 13.662148 
L 9.83383 13.610067 
L 9.875475 13.498809 
L 9.911533 13.387551 
L 9.941024 13.278276 
L 9.941532 13.276293 
L 9.965152 13.165034 
L 9.985325 13.053776 
L 10.003913 12.942518 
L 10.023106 12.83126 
L 10.045324 12.720001 
L 10.069794 12.621809 
L 10.073281 12.608743 
L 10.111396 12.497485 
L 10.16238 12.386227 
L 10.198564 12.324364 
L 10.232721 12.274969 
L 10.327334 12.16603 
L 10.329839 12.16371 
L 10.456104 12.064113 
L 10.475144 12.052452 
L 10.584874 11.991775 
L 10.70315 11.941194 
L 10.713644 11.936957 
L 10.842414 11.892279 
L 10.971185 11.851757 
L 11.038514 11.829936 
L 11.099955 11.810339 
L 11.228725 11.764174 
L 11.340386 11.718677 
L 11.357495 11.711802 
L 11.486265 11.651141 
L 11.569908 11.607419 
L 11.615035 11.584257 
L 11.743805 11.512193 
L 11.770764 11.496161 
L 11.872575 11.436563 
L 11.960312 11.384903 
L 12.001345 11.360897 
L 12.130116 11.286771 
L 12.153839 11.273645 
L 12.258886 11.215288 
L 12.364143 11.162386 
L 12.387656 11.150418 
L 12.516426 11.090668 
L 12.615614 11.051128 
L 12.645196 11.03905 
L 12.773966 10.992864 
L 12.902736 10.954071 
L 12.957126 10.93987 
L 13.031506 10.919616 
L 13.160277 10.888966 
L 13.289047 10.861845 
L 13.417817 10.837037 
L 13.463835 10.828612 
L 13.546587 10.812696 
L 13.675357 10.788676 
L 13.804127 10.764835 
L 13.932897 10.740652 
L 14.053241 10.717354 
L 14.061667 10.715659 
L 14.190437 10.688548 
L 14.319208 10.659991 
L 14.447978 10.629697 
L 14.542364 10.606095 
L 14.576748 10.597079 
L 14.705518 10.561139 
L 14.834288 10.523207 
L 14.927307 10.494837 
L 14.963058 10.483326 
L 15.091828 10.44161 
L 15.220598 10.401045 
L 15.280635 10.383579 
L 15.349369 10.36291 
L 15.478139 10.329767 
L 15.606909 10.304259 
L 15.735679 10.288062 
L 15.864449 10.282396 
L 15.993219 10.287968 
L 16.121989 10.304945 
L 16.250759 10.332947 
L 16.379529 10.371051 
L 16.414225 10.383579 
L 16.5083 10.417379 
L 16.63707 10.469738 
L 16.69491 10.494837 
L 16.76584 10.524959 
L 16.89461 10.580123 
L 16.957165 10.606095 
L 17.02338 10.632446 
L 17.15215 10.680259 
L 17.261665 10.717354 
L 17.28092 10.72355 
L 17.40969 10.761252 
L 17.538461 10.795844 
L 17.667231 10.828612 
L 17.667231 10.828612 
L 17.796001 10.859866 
L 17.924771 10.892724 
L 18.053541 10.929054 
L 18.088166 10.93987 
L 18.182311 10.969912 
L 18.311081 11.017692 
L 18.38902 11.051128 
L 18.439851 11.073881 
L 18.568622 11.139106 
L 18.610348 11.162386 
L 18.697392 11.213204 
L 18.793499 11.273645 
L 18.826162 11.29509 
L 18.954932 11.382265 
L 18.958833 11.384903 
L 19.083702 11.472461 
L 19.117684 11.496161 
L 19.212472 11.565332 
L 19.27056 11.607419 
L 19.341242 11.661814 
L 19.41472 11.718677 
L 19.470012 11.764917 
L 19.545821 11.829936 
L 19.598782 11.879737 
L 19.661366 11.941194 
L 19.727553 12.012973 
L 19.762008 12.052452 
L 19.85036 12.16371 
L 19.856323 12.171772 
L 19.928629 12.274969 
L 19.985093 12.361557 
L 20.000321 12.386227 
L 20.066959 12.497485 
L 20.113863 12.578374 
L 20.130636 12.608743 
L 20.192113 12.720001 
L 20.242633 12.812846 
L 20.252283 12.83126 
L 20.311343 12.942518 
L 20.368972 13.053776 
L 20.371403 13.05849 
L 20.425512 13.165034 
L 20.479556 13.276293 
L 20.500173 13.320734 
L 20.531262 13.387551 
L 20.579923 13.498809 
L 20.624655 13.610067 
L 20.628943 13.621477 
L 20.667306 13.721325 
L 20.70712 13.832584 
L 20.744973 13.943842 
L 20.757714 13.981882 
L 20.783195 14.0551 
L 20.822641 14.166358 
L 20.864031 14.277617 
L 20.886484 14.334432 
L 20.909235 14.388875 
L 20.959096 14.500133 
L 21.012888 14.611391 
L 21.015254 14.616129 
L 21.072229 14.722649 
L 21.134343 14.833908 
L 21.144024 14.851547 
L 21.198473 14.945166 
L 21.260754 15.056424 
L 21.272794 15.080564 
L 21.317247 15.167682 
L 21.363823 15.27894 
L 21.397079 15.390199 
L 21.401564 15.41859 
L 21.414196 15.501457 
L 21.415151 15.612715 
L 21.401564 15.718544 
L 21.400852 15.723973 
L 21.372302 15.835232 
L 21.332872 15.94649 
L 21.285817 16.057748 
L 21.272794 16.085612 
L 21.233623 16.169006 
L 21.180522 16.280264 
L 21.144024 16.360401 
L 21.129969 16.391523 
L 21.084801 16.502781 
L 21.047465 16.614039 
L 21.019038 16.725297 
L 21.015254 16.746894 
L 20.999782 16.836556 
L 20.98871 16.947814 
L 20.984182 17.059072 
L 20.983873 17.17033 
L 20.984777 17.281588 
L 20.983232 17.392847 
L 20.97501 17.504105 
L 20.955513 17.615363 
L 20.920111 17.726621 
L 20.886484 17.795153 
L 20.86326 17.837879 
L 20.778617 17.949138 
L 20.757714 17.970568 
L 20.658805 18.060396 
L 20.628943 18.082951 
L 20.500173 18.16941 
L 20.496521 18.171654 
L 20.371403 18.240074 
L 20.287159 18.282912 
L 20.242633 18.303903 
L 20.113863 18.363848 
L 20.050217 18.394171 
L 19.985093 18.423856 
L 19.856323 18.486248 
L 19.82028 18.505429 
L 19.727553 18.553565 
L 19.616435 18.616687 
L 19.598782 18.626615 
L 19.470012 18.707654 
L 19.440908 18.727945 
L 19.341242 18.797502 
L 19.286859 18.839203 
L 19.212472 18.896782 
L 19.148914 18.950462 
L 19.083702 19.00623 
L 19.023454 19.06172 
L 18.954932 19.125383 
L 18.906409 19.172978 
L 18.826162 19.25156 
L 18.793693 19.284236 
L 18.697392 19.379668 
L 18.681326 19.395495 
L 18.568622 19.503496 
L 18.565069 19.506753 
L 18.439851 19.617725 
L 18.439499 19.618011 
L 18.311081 19.719069 
L 18.296252 19.729269 
L 18.182311 19.806042 
L 18.120789 19.840527 
L 18.053541 19.878063 
L 17.924771 19.936132 
L 17.881358 19.951786 
L 17.796001 19.983416 
L 17.667231 20.020997 
L 17.538461 20.050593 
L 17.474045 20.063044 
L 17.40969 20.076419 
L 17.28092 20.100974 
L 17.15215 20.125625 
L 17.02338 20.152746 
L 16.93527 20.174302 
L 16.89461 20.185195 
L 16.76584 20.225344 
L 16.63707 20.271522 
L 16.601861 20.28556 
L 16.5083 20.324335 
L 16.379529 20.379858 
L 16.340247 20.396819 
L 16.250759 20.435025 
L 16.121989 20.486021 
L 16.059547 20.508077 
L 15.993219 20.53079 
L 15.864449 20.567926 
L 15.735679 20.597086 
L 15.606909 20.618413 
L 15.598477 20.619335 
L 15.478139 20.632382 
L 15.349369 20.638999 
L 15.220598 20.638426 
L 15.091828 20.630694 
z
" clip-path="url(#pde8ebd7e90)" style="fill: #ffece4"/>
    <path d="M 15.091828 20.630694 
L 15.220598 20.638426 
L 15.349369 20.638999 
L 15.478139 20.632382 
L 15.598477 20.619335 
L 15.606909 20.618413 
L 15.735679 20.597086 
L 15.864449 20.567926 
L 15.993219 20.53079 
L 16.059547 20.508077 
L 16.121989 20.486021 
L 16.250759 20.435025 
L 16.340247 20.396819 
L 16.379529 20.379858 
L 16.5083 20.324335 
L 16.601861 20.28556 
L 16.63707 20.271522 
L 16.76584 20.225344 
L 16.89461 20.185195 
L 16.93527 20.174302 
L 17.02338 20.152746 
L 17.15215 20.125625 
L 17.28092 20.100974 
L 17.40969 20.076419 
L 17.474045 20.063044 
L 17.538461 20.050593 
L 17.667231 20.020997 
L 17.796001 19.983416 
L 17.881358 19.951786 
L 17.924771 19.936132 
L 18.053541 19.878063 
L 18.120789 19.840527 
L 18.182311 19.806042 
L 18.296252 19.729269 
L 18.311081 19.719069 
L 18.439499 19.618011 
L 18.439851 19.617725 
L 18.565069 19.506753 
L 18.568622 19.503496 
L 18.681326 19.395495 
L 18.697392 19.379668 
L 18.793693 19.284236 
L 18.826162 19.25156 
L 18.906409 19.172978 
L 18.954932 19.125383 
L 19.023454 19.06172 
L 19.083702 19.00623 
L 19.148914 18.950462 
L 19.212472 18.896782 
L 19.286859 18.839203 
L 19.341242 18.797502 
L 19.440908 18.727945 
L 19.470012 18.707654 
L 19.598782 18.626615 
L 19.616435 18.616687 
L 19.727553 18.553565 
L 19.82028 18.505429 
L 19.856323 18.486248 
L 19.985093 18.423856 
L 20.050217 18.394171 
L 20.113863 18.363848 
L 20.242633 18.303903 
L 20.287159 18.282912 
L 20.371403 18.240074 
L 20.496521 18.171654 
L 20.500173 18.16941 
L 20.628943 18.082951 
L 20.658805 18.060396 
L 20.757714 17.970568 
L 20.778617 17.949138 
L 20.86326 17.837879 
L 20.886484 17.795153 
L 20.920111 17.726621 
L 20.955513 17.615363 
L 20.97501 17.504105 
L 20.983232 17.392847 
L 20.984777 17.281588 
L 20.983873 17.17033 
L 20.984182 17.059072 
L 20.98871 16.947814 
L 20.999782 16.836556 
L 21.015254 16.746894 
L 21.019038 16.725297 
L 21.047465 16.614039 
L 21.084801 16.502781 
L 21.129969 16.391523 
L 21.144024 16.360401 
L 21.180522 16.280264 
L 21.233623 16.169006 
L 21.272794 16.085612 
L 21.285817 16.057748 
L 21.332872 15.94649 
L 21.372302 15.835232 
L 21.400852 15.723973 
L 21.401564 15.718544 
L 21.415151 15.612715 
L 21.414196 15.501457 
L 21.401564 15.41859 
L 21.397079 15.390199 
L 21.363823 15.27894 
L 21.317247 15.167682 
L 21.272794 15.080564 
L 21.260754 15.056424 
L 21.198473 14.945166 
L 21.144024 14.851547 
L 21.134343 14.833908 
L 21.072229 14.722649 
L 21.015254 14.616129 
L 21.012888 14.611391 
L 20.959096 14.500133 
L 20.909235 14.388875 
L 20.886484 14.334432 
L 20.864031 14.277617 
L 20.822641 14.166358 
L 20.783195 14.0551 
L 20.757714 13.981882 
L 20.744973 13.943842 
L 20.70712 13.832584 
L 20.667306 13.721325 
L 20.628943 13.621477 
L 20.624655 13.610067 
L 20.579923 13.498809 
L 20.531262 13.387551 
L 20.500173 13.320734 
L 20.479556 13.276293 
L 20.425512 13.165034 
L 20.371403 13.05849 
L 20.368972 13.053776 
L 20.311343 12.942518 
L 20.252283 12.83126 
L 20.242633 12.812846 
L 20.192113 12.720001 
L 20.130636 12.608743 
L 20.113863 12.578374 
L 20.066959 12.497485 
L 20.000321 12.386227 
L 19.985093 12.361557 
L 19.928629 12.274969 
L 19.856323 12.171772 
L 19.85036 12.16371 
L 19.762008 12.052452 
L 19.727553 12.012973 
L 19.661366 11.941194 
L 19.598782 11.879737 
L 19.545821 11.829936 
L 19.470012 11.764917 
L 19.41472 11.718677 
L 19.341242 11.661814 
L 19.27056 11.607419 
L 19.212472 11.565332 
L 19.117684 11.496161 
L 19.083702 11.472461 
L 18.958833 11.384903 
L 18.954932 11.382265 
L 18.826162 11.29509 
L 18.793499 11.273645 
L 18.697392 11.213204 
L 18.610348 11.162386 
L 18.568622 11.139106 
L 18.439851 11.073881 
L 18.38902 11.051128 
L 18.311081 11.017692 
L 18.182311 10.969912 
L 18.088166 10.93987 
L 18.053541 10.929054 
L 17.924771 10.892724 
L 17.796001 10.859866 
L 17.667231 10.828612 
L 17.667231 10.828612 
L 17.538461 10.795844 
L 17.40969 10.761252 
L 17.28092 10.72355 
L 17.261665 10.717354 
L 17.15215 10.680259 
L 17.02338 10.632446 
L 16.957165 10.606095 
L 16.89461 10.580123 
L 16.76584 10.524959 
L 16.69491 10.494837 
L 16.63707 10.469738 
L 16.5083 10.417379 
L 16.414225 10.383579 
L 16.379529 10.371051 
L 16.250759 10.332947 
L 16.121989 10.304945 
L 15.993219 10.287968 
L 15.864449 10.282396 
L 15.735679 10.288062 
L 15.606909 10.304259 
L 15.478139 10.329767 
L 15.349369 10.36291 
L 15.280635 10.383579 
L 15.220598 10.401045 
L 15.091828 10.44161 
L 14.963058 10.483326 
L 14.927307 10.494837 
L 14.834288 10.523207 
L 14.705518 10.561139 
L 14.576748 10.597079 
L 14.542364 10.606095 
L 14.447978 10.629697 
L 14.319208 10.659991 
L 14.190437 10.688548 
L 14.061667 10.715659 
L 14.053241 10.717354 
L 13.932897 10.740652 
L 13.804127 10.764835 
L 13.675357 10.788676 
L 13.546587 10.812696 
L 13.463835 10.828612 
L 13.417817 10.837037 
L 13.289047 10.861845 
L 13.160277 10.888966 
L 13.031506 10.919616 
L 12.957126 10.93987 
L 12.902736 10.954071 
L 12.773966 10.992864 
L 12.645196 11.03905 
L 12.615614 11.051128 
L 12.516426 11.090668 
L 12.387656 11.150418 
L 12.364143 11.162386 
L 12.258886 11.215288 
L 12.153839 11.273645 
L 12.130116 11.286771 
L 12.001345 11.360897 
L 11.960312 11.384903 
L 11.872575 11.436563 
L 11.770764 11.496161 
L 11.743805 11.512193 
L 11.615035 11.584257 
L 11.569908 11.607419 
L 11.486265 11.651141 
L 11.357495 11.711802 
L 11.340386 11.718677 
L 11.228725 11.764174 
L 11.099955 11.810339 
L 11.038514 11.829936 
L 10.971185 11.851757 
L 10.842414 11.892279 
L 10.713644 11.936957 
L 10.70315 11.941194 
L 10.584874 11.991775 
L 10.475144 12.052452 
L 10.456104 12.064113 
L 10.329839 12.16371 
L 10.327334 12.16603 
L 10.232721 12.274969 
L 10.198564 12.324364 
L 10.16238 12.386227 
L 10.111396 12.497485 
L 10.073281 12.608743 
L 10.069794 12.621809 
L 10.045324 12.720001 
L 10.023106 12.83126 
L 10.003913 12.942518 
L 9.985325 13.053776 
L 9.965152 13.165034 
L 9.941532 13.276293 
L 9.941024 13.278276 
L 9.911533 13.387551 
L 9.875475 13.498809 
L 9.83383 13.610067 
L 9.812253 13.662148 
L 9.786548 13.721325 
L 9.736176 13.832584 
L 9.687195 13.943842 
L 9.683483 13.952665 
L 9.639415 14.0551 
L 9.597766 14.166358 
L 9.563589 14.277617 
L 9.554713 14.313763 
L 9.535659 14.388875 
L 9.514969 14.500133 
L 9.50167 14.611391 
L 9.494981 14.722649 
L 9.494015 14.833908 
L 9.497832 14.945166 
L 9.50548 15.056424 
L 9.516033 15.167682 
L 9.528632 15.27894 
L 9.54253 15.390199 
L 9.554713 15.483147 
L 9.556923 15.501457 
L 9.570549 15.612715 
L 9.584149 15.723973 
L 9.597493 15.835232 
L 9.610355 15.94649 
L 9.622471 16.057748 
L 9.633528 16.169006 
L 9.643201 16.280264 
L 9.651254 16.391523 
L 9.657657 16.502781 
L 9.662708 16.614039 
L 9.667109 16.725297 
L 9.671981 16.836556 
L 9.678842 16.947814 
L 9.683483 16.996961 
L 9.689036 17.059072 
L 9.704345 17.17033 
L 9.727348 17.281588 
L 9.760311 17.392847 
L 9.805373 17.504105 
L 9.812253 17.517786 
L 9.860863 17.615363 
L 9.930087 17.726621 
L 9.941024 17.741937 
L 10.009465 17.837879 
L 10.069794 17.912535 
L 10.099484 17.949138 
L 10.197437 18.060396 
L 10.198564 18.061616 
L 10.300649 18.171654 
L 10.327334 18.199156 
L 10.40941 18.282912 
L 10.456104 18.328807 
L 10.523595 18.394171 
L 10.584874 18.451394 
L 10.643776 18.505429 
L 10.713644 18.567209 
L 10.770656 18.616687 
L 10.842414 18.676814 
L 10.904632 18.727945 
L 10.971185 18.780995 
L 11.045931 18.839203 
L 11.099955 18.880274 
L 11.195445 18.950462 
L 11.228725 18.974501 
L 11.35591 19.06172 
L 11.357495 19.062795 
L 11.486265 19.144899 
L 11.534436 19.172978 
L 11.615035 19.219515 
L 11.740187 19.284236 
L 11.743805 19.286105 
L 11.872575 19.347299 
L 11.984697 19.395495 
L 12.001345 19.402728 
L 12.130116 19.456471 
L 12.254212 19.506753 
L 12.258886 19.508689 
L 12.387656 19.563725 
L 12.511062 19.618011 
L 12.516426 19.62042 
L 12.645196 19.681556 
L 12.742907 19.729269 
L 12.773966 19.74453 
L 12.902736 19.809285 
L 12.964998 19.840527 
L 13.031506 19.87362 
L 13.160277 19.936316 
L 13.192665 19.951786 
L 13.289047 19.99732 
L 13.417817 20.055829 
L 13.433879 20.063044 
L 13.546587 20.113517 
L 13.675357 20.169649 
L 13.686011 20.174302 
L 13.804127 20.22618 
L 13.932897 20.281635 
L 13.942071 20.28556 
L 14.061667 20.33718 
L 14.190437 20.390421 
L 14.206658 20.396819 
L 14.319208 20.441565 
L 14.447978 20.488177 
L 14.509828 20.508077 
L 14.576748 20.529827 
L 14.705518 20.565448 
L 14.834288 20.594153 
L 14.963058 20.615821 
L 14.994068 20.619335 
z
M 14.886961 19.840527 
L 14.834288 19.835999 
L 14.705518 19.815023 
L 14.576748 19.785631 
L 14.447978 19.749049 
L 14.388848 19.729269 
L 14.319208 19.706829 
L 14.190437 19.660068 
L 14.084614 19.618011 
L 14.061667 19.609182 
L 13.932897 19.555339 
L 13.825177 19.506753 
L 13.804127 19.497408 
L 13.675357 19.436115 
L 13.595851 19.395495 
L 13.546587 19.370277 
L 13.417817 19.30025 
L 13.389508 19.284236 
L 13.289047 19.226862 
L 13.197276 19.172978 
L 13.160277 19.151038 
L 13.031506 19.075122 
L 13.008091 19.06172 
L 12.902736 19.001163 
L 12.810676 18.950462 
L 12.773966 18.930096 
L 12.645196 18.862511 
L 12.598611 18.839203 
L 12.516426 18.79733 
L 12.387656 18.732925 
L 12.377629 18.727945 
L 12.258886 18.666793 
L 12.165509 18.616687 
L 12.130116 18.596837 
L 12.001345 18.52084 
L 11.976683 18.505429 
L 11.872575 18.43781 
L 11.809184 18.394171 
L 11.743805 18.348254 
L 11.654889 18.282912 
L 11.615035 18.25376 
L 11.506774 18.171654 
L 11.486265 18.156493 
L 11.360854 18.060396 
L 11.357495 18.057909 
L 11.228725 17.958414 
L 11.217299 17.949138 
L 11.099955 17.855524 
L 11.079177 17.837879 
L 10.971185 17.745389 
L 10.950766 17.726621 
L 10.842414 17.622293 
L 10.835712 17.615363 
L 10.736386 17.504105 
L 10.713644 17.475082 
L 10.653116 17.392847 
L 10.585796 17.281588 
L 10.584874 17.279721 
L 10.532939 17.17033 
L 10.493266 17.059072 
L 10.464612 16.947814 
L 10.456104 16.900765 
L 10.444496 16.836556 
L 10.430775 16.725297 
L 10.421283 16.614039 
L 10.41389 16.502781 
L 10.406754 16.391523 
L 10.398434 16.280264 
L 10.387981 16.169006 
L 10.374974 16.057748 
L 10.359484 15.94649 
L 10.341988 15.835232 
L 10.327334 15.748386 
L 10.323247 15.723973 
L 10.304248 15.612715 
L 10.286001 15.501457 
L 10.269583 15.390199 
L 10.256126 15.27894 
L 10.246822 15.167682 
L 10.2429 15.056424 
L 10.245598 14.945166 
L 10.25611 14.833908 
L 10.275501 14.722649 
L 10.304586 14.611391 
L 10.327334 14.545853 
L 10.343669 14.500133 
L 10.392069 14.388875 
L 10.448501 14.277617 
L 10.456104 14.263659 
L 10.5096 14.166358 
L 10.57261 14.0551 
L 10.584874 14.032834 
L 10.633086 13.943842 
L 10.689734 13.832584 
L 10.713644 13.781369 
L 10.740997 13.721325 
L 10.787609 13.610067 
L 10.83203 13.498809 
L 10.842414 13.472188 
L 10.875705 13.387551 
L 10.922755 13.276293 
L 10.971185 13.177146 
L 10.977342 13.165034 
L 11.043061 13.053776 
L 11.099955 12.976153 
L 11.125802 12.942518 
L 11.228725 12.831517 
L 11.228968 12.83126 
L 11.34968 12.720001 
L 11.357495 12.713624 
L 11.481862 12.608743 
L 11.486265 12.605326 
L 11.615035 12.498624 
L 11.616317 12.497485 
L 11.743805 12.390072 
L 11.7481 12.386227 
L 11.872575 12.279883 
L 11.878121 12.274969 
L 12.001345 12.170752 
L 12.009645 12.16371 
L 12.130116 12.066221 
L 12.147726 12.052452 
L 12.258886 11.969276 
L 12.299245 11.941194 
L 12.387656 11.88182 
L 12.473913 11.829936 
L 12.516426 11.804943 
L 12.645196 11.73858 
L 12.69066 11.718677 
L 12.773966 11.68221 
L 12.902736 11.635714 
L 13.000227 11.607419 
L 13.031506 11.598119 
L 13.160277 11.567339 
L 13.289047 11.543003 
L 13.417817 11.523341 
L 13.546587 11.506533 
L 13.631439 11.496161 
L 13.675357 11.490468 
L 13.804127 11.473144 
L 13.932897 11.453855 
L 14.061667 11.431837 
L 14.190437 11.406951 
L 14.29394 11.384903 
L 14.319208 11.379278 
L 14.447978 11.348427 
L 14.576748 11.316954 
L 14.705518 11.285929 
L 14.758209 11.273645 
L 14.834288 11.255076 
L 14.963058 11.225602 
L 15.091828 11.198983 
L 15.220598 11.175783 
L 15.310503 11.162386 
L 15.349369 11.156105 
L 15.478139 11.140322 
L 15.606909 11.130288 
L 15.735679 11.12685 
L 15.864449 11.130785 
L 15.993219 11.142614 
L 16.121942 11.162386 
L 16.121989 11.162393 
L 16.250759 11.187461 
L 16.379529 11.218298 
L 16.5083 11.253409 
L 16.577643 11.273645 
L 16.63707 11.289878 
L 16.76584 11.326012 
L 16.89461 11.362233 
L 16.976507 11.384903 
L 17.02338 11.397265 
L 17.15215 11.430834 
L 17.28092 11.464942 
L 17.393606 11.496161 
L 17.40969 11.500558 
L 17.538461 11.538306 
L 17.667231 11.581492 
L 17.734571 11.607419 
L 17.796001 11.631734 
L 17.924771 11.691427 
L 17.975476 11.718677 
L 18.053541 11.76286 
L 18.156133 11.829936 
L 18.182311 11.848139 
L 18.302291 11.941194 
L 18.311081 11.948487 
L 18.427412 12.052452 
L 18.439851 12.064362 
L 18.539255 12.16371 
L 18.568622 12.195052 
L 18.642254 12.274969 
L 18.697392 12.338333 
L 18.739192 12.386227 
L 18.826162 12.490329 
L 18.832235 12.497485 
L 18.925662 12.608743 
L 18.954932 12.643968 
L 19.01949 12.720001 
L 19.083702 12.795814 
L 19.114238 12.83126 
L 19.210144 12.942518 
L 19.212472 12.945186 
L 19.307357 13.053776 
L 19.341242 13.093384 
L 19.401789 13.165034 
L 19.470012 13.249746 
L 19.490929 13.276293 
L 19.573387 13.387551 
L 19.598782 13.425088 
L 19.647596 13.498809 
L 19.71235 13.610067 
L 19.727553 13.639779 
L 19.769108 13.721325 
L 19.817484 13.832584 
L 19.856323 13.938801 
L 19.85821 13.943842 
L 19.894626 14.0551 
L 19.926043 14.166358 
L 19.953861 14.277617 
L 19.979278 14.388875 
L 19.985093 14.415873 
L 20.004575 14.500133 
L 20.029277 14.611391 
L 20.053018 14.722649 
L 20.075465 14.833908 
L 20.095972 14.945166 
L 20.113724 15.056424 
L 20.113863 15.057512 
L 20.129259 15.167682 
L 20.140179 15.27894 
L 20.145878 15.390199 
L 20.146035 15.501457 
L 20.140657 15.612715 
L 20.130112 15.723973 
L 20.115128 15.835232 
L 20.113863 15.842888 
L 20.098715 15.94649 
L 20.080543 16.057748 
L 20.061439 16.169006 
L 20.042151 16.280264 
L 20.023081 16.391523 
L 20.004213 16.502781 
L 19.985093 16.614039 
L 19.985093 16.614039 
L 19.966858 16.725297 
L 19.94638 16.836556 
L 19.922132 16.947814 
L 19.892188 17.059072 
L 19.856323 17.164387 
L 19.854375 17.17033 
L 19.810183 17.281588 
L 19.753481 17.392847 
L 19.727553 17.434686 
L 19.685771 17.504105 
L 19.604323 17.615363 
L 19.598782 17.621967 
L 19.514118 17.726621 
L 19.470012 17.774232 
L 19.413263 17.837879 
L 19.341242 17.910735 
L 19.304649 17.949138 
L 19.212472 18.038606 
L 19.190741 18.060396 
L 19.083702 18.161757 
L 19.073531 18.171654 
L 18.954932 18.282737 
L 18.954749 18.282912 
L 18.836581 18.394171 
L 18.826162 18.40387 
L 18.71979 18.505429 
L 18.697392 18.526854 
L 18.605236 18.616687 
L 18.568622 18.652676 
L 18.492649 18.727945 
L 18.439851 18.780506 
L 18.380304 18.839203 
L 18.311081 18.906827 
L 18.264778 18.950462 
L 18.182311 19.025961 
L 18.140377 19.06172 
L 18.053541 19.132356 
L 17.997521 19.172978 
L 17.924771 19.222859 
L 17.818993 19.284236 
L 17.796001 19.296909 
L 17.667231 19.355967 
L 17.556232 19.395495 
L 17.538461 19.401665 
L 17.40969 19.436952 
L 17.28092 19.463133 
L 17.15215 19.482261 
L 17.02338 19.496168 
L 16.89461 19.506504 
L 16.890669 19.506753 
L 16.76584 19.51539 
L 16.63707 19.523815 
L 16.5083 19.533393 
L 16.379529 19.545831 
L 16.250759 19.562827 
L 16.121989 19.585841 
L 15.993219 19.615698 
L 15.984629 19.618011 
L 15.864449 19.654551 
L 15.735679 19.697844 
L 15.643109 19.729269 
L 15.606909 19.741994 
L 15.478139 19.782595 
L 15.349369 19.815085 
L 15.220598 19.837209 
L 15.181919 19.840527 
L 15.091828 19.847844 
L 14.963058 19.847249 
z
" clip-path="url(#pde8ebd7e90)" style="fill: #fdd5c4"/>
    <path d="M 14.963058 19.847249 
L 15.091828 19.847844 
L 15.181919 19.840527 
L 15.220598 19.837209 
L 15.349369 19.815085 
L 15.478139 19.782595 
L 15.606909 19.741994 
L 15.643109 19.729269 
L 15.735679 19.697844 
L 15.864449 19.654551 
L 15.984629 19.618011 
L 15.993219 19.615698 
L 16.121989 19.585841 
L 16.250759 19.562827 
L 16.379529 19.545831 
L 16.5083 19.533393 
L 16.63707 19.523815 
L 16.76584 19.51539 
L 16.890669 19.506753 
L 16.89461 19.506504 
L 17.02338 19.496168 
L 17.15215 19.482261 
L 17.28092 19.463133 
L 17.40969 19.436952 
L 17.538461 19.401665 
L 17.556232 19.395495 
L 17.667231 19.355967 
L 17.796001 19.296909 
L 17.818993 19.284236 
L 17.924771 19.222859 
L 17.997521 19.172978 
L 18.053541 19.132356 
L 18.140377 19.06172 
L 18.182311 19.025961 
L 18.264778 18.950462 
L 18.311081 18.906827 
L 18.380304 18.839203 
L 18.439851 18.780506 
L 18.492649 18.727945 
L 18.568622 18.652676 
L 18.605236 18.616687 
L 18.697392 18.526854 
L 18.71979 18.505429 
L 18.826162 18.40387 
L 18.836581 18.394171 
L 18.954749 18.282912 
L 18.954932 18.282737 
L 19.073531 18.171654 
L 19.083702 18.161757 
L 19.190741 18.060396 
L 19.212472 18.038606 
L 19.304649 17.949138 
L 19.341242 17.910735 
L 19.413263 17.837879 
L 19.470012 17.774232 
L 19.514118 17.726621 
L 19.598782 17.621967 
L 19.604323 17.615363 
L 19.685771 17.504105 
L 19.727553 17.434686 
L 19.753481 17.392847 
L 19.810183 17.281588 
L 19.854375 17.17033 
L 19.856323 17.164387 
L 19.892188 17.059072 
L 19.922132 16.947814 
L 19.94638 16.836556 
L 19.966858 16.725297 
L 19.985093 16.614039 
L 19.985093 16.614039 
L 20.004213 16.502781 
L 20.023081 16.391523 
L 20.042151 16.280264 
L 20.061439 16.169006 
L 20.080543 16.057748 
L 20.098715 15.94649 
L 20.113863 15.842888 
L 20.115128 15.835232 
L 20.130112 15.723973 
L 20.140657 15.612715 
L 20.146035 15.501457 
L 20.145878 15.390199 
L 20.140179 15.27894 
L 20.129259 15.167682 
L 20.113863 15.057512 
L 20.113724 15.056424 
L 20.095972 14.945166 
L 20.075465 14.833908 
L 20.053018 14.722649 
L 20.029277 14.611391 
L 20.004575 14.500133 
L 19.985093 14.415873 
L 19.979278 14.388875 
L 19.953861 14.277617 
L 19.926043 14.166358 
L 19.894626 14.0551 
L 19.85821 13.943842 
L 19.856323 13.938801 
L 19.817484 13.832584 
L 19.769108 13.721325 
L 19.727553 13.639779 
L 19.71235 13.610067 
L 19.647596 13.498809 
L 19.598782 13.425088 
L 19.573387 13.387551 
L 19.490929 13.276293 
L 19.470012 13.249746 
L 19.401789 13.165034 
L 19.341242 13.093384 
L 19.307357 13.053776 
L 19.212472 12.945186 
L 19.210144 12.942518 
L 19.114238 12.83126 
L 19.083702 12.795814 
L 19.01949 12.720001 
L 18.954932 12.643968 
L 18.925662 12.608743 
L 18.832235 12.497485 
L 18.826162 12.490329 
L 18.739192 12.386227 
L 18.697392 12.338333 
L 18.642254 12.274969 
L 18.568622 12.195052 
L 18.539255 12.16371 
L 18.439851 12.064362 
L 18.427412 12.052452 
L 18.311081 11.948487 
L 18.302291 11.941194 
L 18.182311 11.848139 
L 18.156133 11.829936 
L 18.053541 11.76286 
L 17.975476 11.718677 
L 17.924771 11.691427 
L 17.796001 11.631734 
L 17.734571 11.607419 
L 17.667231 11.581492 
L 17.538461 11.538306 
L 17.40969 11.500558 
L 17.393606 11.496161 
L 17.28092 11.464942 
L 17.15215 11.430834 
L 17.02338 11.397265 
L 16.976507 11.384903 
L 16.89461 11.362233 
L 16.76584 11.326012 
L 16.63707 11.289878 
L 16.577643 11.273645 
L 16.5083 11.253409 
L 16.379529 11.218298 
L 16.250759 11.187461 
L 16.121989 11.162393 
L 16.121942 11.162386 
L 15.993219 11.142614 
L 15.864449 11.130785 
L 15.735679 11.12685 
L 15.606909 11.130288 
L 15.478139 11.140322 
L 15.349369 11.156105 
L 15.310503 11.162386 
L 15.220598 11.175783 
L 15.091828 11.198983 
L 14.963058 11.225602 
L 14.834288 11.255076 
L 14.758209 11.273645 
L 14.705518 11.285929 
L 14.576748 11.316954 
L 14.447978 11.348427 
L 14.319208 11.379278 
L 14.29394 11.384903 
L 14.190437 11.406951 
L 14.061667 11.431837 
L 13.932897 11.453855 
L 13.804127 11.473144 
L 13.675357 11.490468 
L 13.631439 11.496161 
L 13.546587 11.506533 
L 13.417817 11.523341 
L 13.289047 11.543003 
L 13.160277 11.567339 
L 13.031506 11.598119 
L 13.000227 11.607419 
L 12.902736 11.635714 
L 12.773966 11.68221 
L 12.69066 11.718677 
L 12.645196 11.73858 
L 12.516426 11.804943 
L 12.473913 11.829936 
L 12.387656 11.88182 
L 12.299245 11.941194 
L 12.258886 11.969276 
L 12.147726 12.052452 
L 12.130116 12.066221 
L 12.009645 12.16371 
L 12.001345 12.170752 
L 11.878121 12.274969 
L 11.872575 12.279883 
L 11.7481 12.386227 
L 11.743805 12.390072 
L 11.616317 12.497485 
L 11.615035 12.498624 
L 11.486265 12.605326 
L 11.481862 12.608743 
L 11.357495 12.713624 
L 11.34968 12.720001 
L 11.228968 12.83126 
L 11.228725 12.831517 
L 11.125802 12.942518 
L 11.099955 12.976153 
L 11.043061 13.053776 
L 10.977342 13.165034 
L 10.971185 13.177146 
L 10.922755 13.276293 
L 10.875705 13.387551 
L 10.842414 13.472188 
L 10.83203 13.498809 
L 10.787609 13.610067 
L 10.740997 13.721325 
L 10.713644 13.781369 
L 10.689734 13.832584 
L 10.633086 13.943842 
L 10.584874 14.032834 
L 10.57261 14.0551 
L 10.5096 14.166358 
L 10.456104 14.263659 
L 10.448501 14.277617 
L 10.392069 14.388875 
L 10.343669 14.500133 
L 10.327334 14.545853 
L 10.304586 14.611391 
L 10.275501 14.722649 
L 10.25611 14.833908 
L 10.245598 14.945166 
L 10.2429 15.056424 
L 10.246822 15.167682 
L 10.256126 15.27894 
L 10.269583 15.390199 
L 10.286001 15.501457 
L 10.304248 15.612715 
L 10.323247 15.723973 
L 10.327334 15.748386 
L 10.341988 15.835232 
L 10.359484 15.94649 
L 10.374974 16.057748 
L 10.387981 16.169006 
L 10.398434 16.280264 
L 10.406754 16.391523 
L 10.41389 16.502781 
L 10.421283 16.614039 
L 10.430775 16.725297 
L 10.444496 16.836556 
L 10.456104 16.900765 
L 10.464612 16.947814 
L 10.493266 17.059072 
L 10.532939 17.17033 
L 10.584874 17.279721 
L 10.585796 17.281588 
L 10.653116 17.392847 
L 10.713644 17.475082 
L 10.736386 17.504105 
L 10.835712 17.615363 
L 10.842414 17.622293 
L 10.950766 17.726621 
L 10.971185 17.745389 
L 11.079177 17.837879 
L 11.099955 17.855524 
L 11.217299 17.949138 
L 11.228725 17.958414 
L 11.357495 18.057909 
L 11.360854 18.060396 
L 11.486265 18.156493 
L 11.506774 18.171654 
L 11.615035 18.25376 
L 11.654889 18.282912 
L 11.743805 18.348254 
L 11.809184 18.394171 
L 11.872575 18.43781 
L 11.976683 18.505429 
L 12.001345 18.52084 
L 12.130116 18.596837 
L 12.165509 18.616687 
L 12.258886 18.666793 
L 12.377629 18.727945 
L 12.387656 18.732925 
L 12.516426 18.79733 
L 12.598611 18.839203 
L 12.645196 18.862511 
L 12.773966 18.930096 
L 12.810676 18.950462 
L 12.902736 19.001163 
L 13.008091 19.06172 
L 13.031506 19.075122 
L 13.160277 19.151038 
L 13.197276 19.172978 
L 13.289047 19.226862 
L 13.389508 19.284236 
L 13.417817 19.30025 
L 13.546587 19.370277 
L 13.595851 19.395495 
L 13.675357 19.436115 
L 13.804127 19.497408 
L 13.825177 19.506753 
L 13.932897 19.555339 
L 14.061667 19.609182 
L 14.084614 19.618011 
L 14.190437 19.660068 
L 14.319208 19.706829 
L 14.388848 19.729269 
L 14.447978 19.749049 
L 14.576748 19.785631 
L 14.705518 19.815023 
L 14.834288 19.835999 
L 14.886961 19.840527 
z
M 14.459972 19.06172 
L 14.447978 19.060481 
L 14.319208 19.03714 
L 14.190437 19.003679 
L 14.061667 18.959972 
L 14.038577 18.950462 
L 13.932897 18.906753 
L 13.804127 18.843271 
L 13.796746 18.839203 
L 13.675357 18.770291 
L 13.607423 18.727945 
L 13.546587 18.688562 
L 13.441084 18.616687 
L 13.417817 18.600226 
L 13.289047 18.508125 
L 13.285205 18.505429 
L 13.160277 18.415359 
L 13.129835 18.394171 
L 13.031506 18.324372 
L 12.970571 18.282912 
L 12.902736 18.236152 
L 12.805792 18.171654 
L 12.773966 18.150332 
L 12.645196 18.065942 
L 12.636617 18.060396 
L 12.516426 17.982647 
L 12.464824 17.949138 
L 12.387656 17.899509 
L 12.292274 17.837879 
L 12.258886 17.816682 
L 12.130116 17.735086 
L 12.116713 17.726621 
L 12.001345 17.655216 
L 11.937152 17.615363 
L 11.872575 17.575357 
L 11.759683 17.504105 
L 11.743805 17.493753 
L 11.615035 17.406154 
L 11.596659 17.392847 
L 11.486265 17.304881 
L 11.459533 17.281588 
L 11.357495 17.176967 
L 11.351634 17.17033 
L 11.272618 17.059072 
L 11.228725 16.974402 
L 11.216069 16.947814 
L 11.179105 16.836556 
L 11.155934 16.725297 
L 11.142617 16.614039 
L 11.135266 16.502781 
L 11.130388 16.391523 
L 11.125157 16.280264 
L 11.117596 16.169006 
L 11.106638 16.057748 
L 11.099955 16.007186 
L 11.091671 15.94649 
L 11.072894 15.835232 
L 11.051666 15.723973 
L 11.029462 15.612715 
L 11.007986 15.501457 
L 10.989068 15.390199 
L 10.9746 15.27894 
L 10.971185 15.231958 
L 10.966278 15.167682 
L 10.966336 15.056424 
L 10.971185 15.003045 
L 10.976303 14.945166 
L 10.996886 14.833908 
L 11.028597 14.722649 
L 11.070786 14.611391 
L 11.099955 14.547451 
L 11.120642 14.500133 
L 11.175072 14.388875 
L 11.228725 14.285802 
L 11.232763 14.277617 
L 11.288568 14.166358 
L 11.34434 14.0551 
L 11.357495 14.028299 
L 11.397407 13.943842 
L 11.450058 13.832584 
L 11.486265 13.757449 
L 11.503398 13.721325 
L 11.558468 13.610067 
L 11.615035 13.505572 
L 11.618686 13.498809 
L 11.683557 13.387551 
L 11.743805 13.295485 
L 11.756253 13.276293 
L 11.834805 13.165034 
L 11.872575 13.116146 
L 11.919599 13.053776 
L 12.001345 12.953229 
L 12.009859 12.942518 
L 12.103816 12.83126 
L 12.130116 12.80204 
L 12.203502 12.720001 
L 12.258886 12.662144 
L 12.311304 12.608743 
L 12.387656 12.536422 
L 12.431491 12.497485 
L 12.516426 12.427433 
L 12.572101 12.386227 
L 12.645196 12.335693 
L 12.747763 12.274969 
L 12.773966 12.260282 
L 12.902736 12.199969 
L 13.000343 12.16371 
L 13.031506 12.152481 
L 13.160277 12.115758 
L 13.289047 12.087671 
L 13.417817 12.065863 
L 13.513633 12.052452 
L 13.546587 12.047785 
L 13.675357 12.030832 
L 13.804127 12.013432 
L 13.932897 11.994112 
L 14.061667 11.972005 
L 14.190437 11.946867 
L 14.216387 11.941194 
L 14.319208 11.91775 
L 14.447978 11.886339 
L 14.576748 11.854136 
L 14.674825 11.829936 
L 14.705518 11.822043 
L 14.834288 11.790722 
L 14.963058 11.762689 
L 15.091828 11.738928 
L 15.220598 11.720223 
L 15.235904 11.718677 
L 15.349369 11.706714 
L 15.478139 11.699413 
L 15.606909 11.69855 
L 15.735679 11.704116 
L 15.864449 11.715908 
L 15.884934 11.718677 
L 15.993219 11.732909 
L 16.121989 11.754761 
L 16.250759 11.78085 
L 16.379529 11.810379 
L 16.458162 11.829936 
L 16.5083 11.842104 
L 16.63707 11.875091 
L 16.76584 11.909714 
L 16.877878 11.941194 
L 16.89461 11.945856 
L 17.02338 11.983297 
L 17.15215 12.023906 
L 17.234361 12.052452 
L 17.28092 12.068906 
L 17.40969 12.120083 
L 17.504181 12.16371 
L 17.538461 12.18017 
L 17.667231 12.251529 
L 17.704014 12.274969 
L 17.796001 12.33697 
L 17.860252 12.386227 
L 17.924771 12.438764 
L 17.990087 12.497485 
L 18.053541 12.557913 
L 18.10341 12.608743 
L 18.182311 12.693068 
L 18.20656 12.720001 
L 18.30392 12.83126 
L 18.311081 12.839544 
L 18.399557 12.942518 
L 18.439851 12.989772 
L 18.495033 13.053776 
L 18.568622 13.139188 
L 18.591329 13.165034 
L 18.688816 13.276293 
L 18.697392 13.286195 
L 18.786573 13.387551 
L 18.826162 13.434412 
L 18.880833 13.498809 
L 18.954932 13.592696 
L 18.968524 13.610067 
L 19.047677 13.721325 
L 19.083702 13.779266 
L 19.11619 13.832584 
L 19.174009 13.943842 
L 19.212472 14.033194 
L 19.221748 14.0551 
L 19.26106 14.166358 
L 19.293205 14.277617 
L 19.319887 14.388875 
L 19.341242 14.493187 
L 19.342681 14.500133 
L 19.363251 14.611391 
L 19.382091 14.722649 
L 19.399692 14.833908 
L 19.416119 14.945166 
L 19.431079 15.056424 
L 19.444046 15.167682 
L 19.45443 15.27894 
L 19.461738 15.390199 
L 19.465686 15.501457 
L 19.466251 15.612715 
L 19.463653 15.723973 
L 19.458278 15.835232 
L 19.450575 15.94649 
L 19.440936 16.057748 
L 19.42959 16.169006 
L 19.416515 16.280264 
L 19.401403 16.391523 
L 19.383649 16.502781 
L 19.362384 16.614039 
L 19.341242 16.705292 
L 19.336601 16.725297 
L 19.305546 16.836556 
L 19.267753 16.947814 
L 19.222066 17.059072 
L 19.212472 17.079125 
L 19.168173 17.17033 
L 19.105368 17.281588 
L 19.083702 17.315606 
L 19.033614 17.392847 
L 18.954932 17.501664 
L 18.953123 17.504105 
L 18.864372 17.615363 
L 18.826162 17.659946 
L 18.767553 17.726621 
L 18.697392 17.802343 
L 18.663407 17.837879 
L 18.568622 17.933624 
L 18.552707 17.949138 
L 18.439851 18.057371 
L 18.436581 18.060396 
L 18.316471 18.171654 
L 18.311081 18.176685 
L 18.194375 18.282912 
L 18.182311 18.294099 
L 18.071472 18.394171 
L 18.053541 18.410655 
L 17.946716 18.505429 
L 17.924771 18.524955 
L 17.815715 18.616687 
L 17.796001 18.632857 
L 17.668986 18.727945 
L 17.667231 18.729187 
L 17.538461 18.808799 
L 17.479399 18.839203 
L 17.40969 18.872023 
L 17.28092 18.919227 
L 17.162188 18.950462 
L 17.15215 18.952893 
L 17.02338 18.973423 
L 16.89461 18.984101 
L 16.76584 18.986583 
L 16.63707 18.982594 
L 16.5083 18.973942 
L 16.379529 18.962549 
L 16.250759 18.950462 
L 16.250759 18.950462 
L 16.121989 18.939996 
L 15.993219 18.93325 
L 15.864449 18.931832 
L 15.735679 18.936759 
L 15.606909 18.948233 
L 15.590215 18.950462 
L 15.478139 18.966628 
L 15.349369 18.989786 
L 15.220598 19.014873 
L 15.091828 19.038825 
L 14.963058 19.058727 
L 14.934855 19.06172 
L 14.834288 19.072947 
L 14.705518 19.078603 
L 14.576748 19.074552 
z
" clip-path="url(#pde8ebd7e90)" style="fill: #fcb499"/>
    <path d="M 14.576748 19.074552 
L 14.705518 19.078603 
L 14.834288 19.072947 
L 14.934855 19.06172 
L 14.963058 19.058727 
L 15.091828 19.038825 
L 15.220598 19.014873 
L 15.349369 18.989786 
L 15.478139 18.966628 
L 15.590215 18.950462 
L 15.606909 18.948233 
L 15.735679 18.936759 
L 15.864449 18.931832 
L 15.993219 18.93325 
L 16.121989 18.939996 
L 16.250759 18.950462 
L 16.250759 18.950462 
L 16.379529 18.962549 
L 16.5083 18.973942 
L 16.63707 18.982594 
L 16.76584 18.986583 
L 16.89461 18.984101 
L 17.02338 18.973423 
L 17.15215 18.952893 
L 17.162188 18.950462 
L 17.28092 18.919227 
L 17.40969 18.872023 
L 17.479399 18.839203 
L 17.538461 18.808799 
L 17.667231 18.729187 
L 17.668986 18.727945 
L 17.796001 18.632857 
L 17.815715 18.616687 
L 17.924771 18.524955 
L 17.946716 18.505429 
L 18.053541 18.410655 
L 18.071472 18.394171 
L 18.182311 18.294099 
L 18.194375 18.282912 
L 18.311081 18.176685 
L 18.316471 18.171654 
L 18.436581 18.060396 
L 18.439851 18.057371 
L 18.552707 17.949138 
L 18.568622 17.933624 
L 18.663407 17.837879 
L 18.697392 17.802343 
L 18.767553 17.726621 
L 18.826162 17.659946 
L 18.864372 17.615363 
L 18.953123 17.504105 
L 18.954932 17.501664 
L 19.033614 17.392847 
L 19.083702 17.315606 
L 19.105368 17.281588 
L 19.168173 17.17033 
L 19.212472 17.079125 
L 19.222066 17.059072 
L 19.267753 16.947814 
L 19.305546 16.836556 
L 19.336601 16.725297 
L 19.341242 16.705292 
L 19.362384 16.614039 
L 19.383649 16.502781 
L 19.401403 16.391523 
L 19.416515 16.280264 
L 19.42959 16.169006 
L 19.440936 16.057748 
L 19.450575 15.94649 
L 19.458278 15.835232 
L 19.463653 15.723973 
L 19.466251 15.612715 
L 19.465686 15.501457 
L 19.461738 15.390199 
L 19.45443 15.27894 
L 19.444046 15.167682 
L 19.431079 15.056424 
L 19.416119 14.945166 
L 19.399692 14.833908 
L 19.382091 14.722649 
L 19.363251 14.611391 
L 19.342681 14.500133 
L 19.341242 14.493187 
L 19.319887 14.388875 
L 19.293205 14.277617 
L 19.26106 14.166358 
L 19.221748 14.0551 
L 19.212472 14.033194 
L 19.174009 13.943842 
L 19.11619 13.832584 
L 19.083702 13.779266 
L 19.047677 13.721325 
L 18.968524 13.610067 
L 18.954932 13.592696 
L 18.880833 13.498809 
L 18.826162 13.434412 
L 18.786573 13.387551 
L 18.697392 13.286195 
L 18.688816 13.276293 
L 18.591329 13.165034 
L 18.568622 13.139188 
L 18.495033 13.053776 
L 18.439851 12.989772 
L 18.399557 12.942518 
L 18.311081 12.839544 
L 18.30392 12.83126 
L 18.20656 12.720001 
L 18.182311 12.693068 
L 18.10341 12.608743 
L 18.053541 12.557913 
L 17.990087 12.497485 
L 17.924771 12.438764 
L 17.860252 12.386227 
L 17.796001 12.33697 
L 17.704014 12.274969 
L 17.667231 12.251529 
L 17.538461 12.18017 
L 17.504181 12.16371 
L 17.40969 12.120083 
L 17.28092 12.068906 
L 17.234361 12.052452 
L 17.15215 12.023906 
L 17.02338 11.983297 
L 16.89461 11.945856 
L 16.877878 11.941194 
L 16.76584 11.909714 
L 16.63707 11.875091 
L 16.5083 11.842104 
L 16.458162 11.829936 
L 16.379529 11.810379 
L 16.250759 11.78085 
L 16.121989 11.754761 
L 15.993219 11.732909 
L 15.884934 11.718677 
L 15.864449 11.715908 
L 15.735679 11.704116 
L 15.606909 11.69855 
L 15.478139 11.699413 
L 15.349369 11.706714 
L 15.235904 11.718677 
L 15.220598 11.720223 
L 15.091828 11.738928 
L 14.963058 11.762689 
L 14.834288 11.790722 
L 14.705518 11.822043 
L 14.674825 11.829936 
L 14.576748 11.854136 
L 14.447978 11.886339 
L 14.319208 11.91775 
L 14.216387 11.941194 
L 14.190437 11.946867 
L 14.061667 11.972005 
L 13.932897 11.994112 
L 13.804127 12.013432 
L 13.675357 12.030832 
L 13.546587 12.047785 
L 13.513633 12.052452 
L 13.417817 12.065863 
L 13.289047 12.087671 
L 13.160277 12.115758 
L 13.031506 12.152481 
L 13.000343 12.16371 
L 12.902736 12.199969 
L 12.773966 12.260282 
L 12.747763 12.274969 
L 12.645196 12.335693 
L 12.572101 12.386227 
L 12.516426 12.427433 
L 12.431491 12.497485 
L 12.387656 12.536422 
L 12.311304 12.608743 
L 12.258886 12.662144 
L 12.203502 12.720001 
L 12.130116 12.80204 
L 12.103816 12.83126 
L 12.009859 12.942518 
L 12.001345 12.953229 
L 11.919599 13.053776 
L 11.872575 13.116146 
L 11.834805 13.165034 
L 11.756253 13.276293 
L 11.743805 13.295485 
L 11.683557 13.387551 
L 11.618686 13.498809 
L 11.615035 13.505572 
L 11.558468 13.610067 
L 11.503398 13.721325 
L 11.486265 13.757449 
L 11.450058 13.832584 
L 11.397407 13.943842 
L 11.357495 14.028299 
L 11.34434 14.0551 
L 11.288568 14.166358 
L 11.232763 14.277617 
L 11.228725 14.285802 
L 11.175072 14.388875 
L 11.120642 14.500133 
L 11.099955 14.547451 
L 11.070786 14.611391 
L 11.028597 14.722649 
L 10.996886 14.833908 
L 10.976303 14.945166 
L 10.971185 15.003045 
L 10.966336 15.056424 
L 10.966278 15.167682 
L 10.971185 15.231958 
L 10.9746 15.27894 
L 10.989068 15.390199 
L 11.007986 15.501457 
L 11.029462 15.612715 
L 11.051666 15.723973 
L 11.072894 15.835232 
L 11.091671 15.94649 
L 11.099955 16.007186 
L 11.106638 16.057748 
L 11.117596 16.169006 
L 11.125157 16.280264 
L 11.130388 16.391523 
L 11.135266 16.502781 
L 11.142617 16.614039 
L 11.155934 16.725297 
L 11.179105 16.836556 
L 11.216069 16.947814 
L 11.228725 16.974402 
L 11.272618 17.059072 
L 11.351634 17.17033 
L 11.357495 17.176967 
L 11.459533 17.281588 
L 11.486265 17.304881 
L 11.596659 17.392847 
L 11.615035 17.406154 
L 11.743805 17.493753 
L 11.759683 17.504105 
L 11.872575 17.575357 
L 11.937152 17.615363 
L 12.001345 17.655216 
L 12.116713 17.726621 
L 12.130116 17.735086 
L 12.258886 17.816682 
L 12.292274 17.837879 
L 12.387656 17.899509 
L 12.464824 17.949138 
L 12.516426 17.982647 
L 12.636617 18.060396 
L 12.645196 18.065942 
L 12.773966 18.150332 
L 12.805792 18.171654 
L 12.902736 18.236152 
L 12.970571 18.282912 
L 13.031506 18.324372 
L 13.129835 18.394171 
L 13.160277 18.415359 
L 13.285205 18.505429 
L 13.289047 18.508125 
L 13.417817 18.600226 
L 13.441084 18.616687 
L 13.546587 18.688562 
L 13.607423 18.727945 
L 13.675357 18.770291 
L 13.796746 18.839203 
L 13.804127 18.843271 
L 13.932897 18.906753 
L 14.038577 18.950462 
L 14.061667 18.959972 
L 14.190437 19.003679 
L 14.319208 19.03714 
L 14.447978 19.060481 
L 14.459972 19.06172 
z
M 14.371612 18.505429 
L 14.319208 18.494056 
L 14.190437 18.452154 
L 14.061667 18.394911 
L 14.060294 18.394171 
L 13.932897 18.322589 
L 13.872491 18.282912 
L 13.804127 18.236227 
L 13.717853 18.171654 
L 13.675357 18.138992 
L 13.577089 18.060396 
L 13.546587 18.035775 
L 13.439383 17.949138 
L 13.417817 17.931829 
L 13.298054 17.837879 
L 13.289047 17.830933 
L 13.160277 17.734945 
L 13.14872 17.726621 
L 13.031506 17.643608 
L 12.990712 17.615363 
L 12.902736 17.555069 
L 12.82764 17.504105 
L 12.773966 17.467609 
L 12.664097 17.392847 
L 12.645196 17.37973 
L 12.516426 17.290064 
L 12.504234 17.281588 
L 12.387656 17.196119 
L 12.352869 17.17033 
L 12.258886 17.0941 
L 12.216639 17.059072 
L 12.130116 16.976789 
L 12.100762 16.947814 
L 12.00746 16.836556 
L 12.001345 16.827707 
L 11.934245 16.725297 
L 11.878683 16.614039 
L 11.872575 16.599398 
L 11.834143 16.502781 
L 11.797386 16.391523 
L 11.765306 16.280264 
L 11.743805 16.200806 
L 11.735307 16.169006 
L 11.705437 16.057748 
L 11.67655 15.94649 
L 11.648979 15.835232 
L 11.623401 15.723973 
L 11.615035 15.683662 
L 11.599481 15.612715 
L 11.578932 15.501457 
L 11.563575 15.390199 
L 11.554545 15.27894 
L 11.552926 15.167682 
L 11.559673 15.056424 
L 11.575481 14.945166 
L 11.600628 14.833908 
L 11.615035 14.78635 
L 11.633304 14.722649 
L 11.672551 14.611391 
L 11.718329 14.500133 
L 11.743805 14.4437 
L 11.767731 14.388875 
L 11.81949 14.277617 
L 11.872575 14.169842 
L 11.874273 14.166358 
L 11.929688 14.0551 
L 11.988188 13.943842 
L 12.001345 13.919544 
L 12.049128 13.832584 
L 12.113899 13.721325 
L 12.130116 13.694563 
L 12.182662 13.610067 
L 12.25572 13.498809 
L 12.258886 13.494132 
L 12.333131 13.387551 
L 12.387656 13.312278 
L 12.414761 13.276293 
L 12.501231 13.165034 
L 12.516426 13.146229 
L 12.595428 13.053776 
L 12.645196 12.998856 
L 12.700732 12.942518 
L 12.773966 12.873886 
L 12.825196 12.83126 
L 12.902736 12.772642 
L 12.984328 12.720001 
L 13.031506 12.692498 
L 13.160277 12.630072 
L 13.213629 12.608743 
L 13.289047 12.581261 
L 13.417817 12.5422 
L 13.546587 12.509161 
L 13.596335 12.497485 
L 13.675357 12.48001 
L 13.804127 12.452444 
L 13.932897 12.424939 
L 14.061667 12.396792 
L 14.107858 12.386227 
L 14.190437 12.367467 
L 14.319208 12.337162 
L 14.447978 12.30661 
L 14.576748 12.276613 
L 14.584156 12.274969 
L 14.705518 12.247148 
L 14.834288 12.22016 
L 14.963058 12.196701 
L 15.091828 12.177648 
L 15.220598 12.16371 
L 15.220598 12.16371 
L 15.349369 12.155059 
L 15.478139 12.152499 
L 15.606909 12.156066 
L 15.71029 12.16371 
L 15.735679 12.165538 
L 15.864449 12.180205 
L 15.993219 12.199978 
L 16.121989 12.224427 
L 16.250759 12.253092 
L 16.338179 12.274969 
L 16.379529 12.285186 
L 16.5083 12.319977 
L 16.63707 12.35797 
L 16.726015 12.386227 
L 16.76584 12.398944 
L 16.89461 12.443144 
L 17.02338 12.492247 
L 17.035966 12.497485 
L 17.15215 12.547183 
L 17.276953 12.608743 
L 17.28092 12.610771 
L 17.40969 12.684969 
L 17.462565 12.720001 
L 17.538461 12.772654 
L 17.613133 12.83126 
L 17.667231 12.875703 
L 17.740938 12.942518 
L 17.796001 12.994545 
L 17.854448 13.053776 
L 17.924771 13.127589 
L 17.958991 13.165034 
L 18.053541 13.271644 
L 18.057598 13.276293 
L 18.152627 13.387551 
L 18.182311 13.423785 
L 18.244304 13.498809 
L 18.311081 13.584263 
L 18.331618 13.610067 
L 18.414065 13.721325 
L 18.439851 13.759709 
L 18.489757 13.832584 
L 18.556713 13.943842 
L 18.568622 13.966759 
L 18.615005 14.0551 
L 18.663883 14.166358 
L 18.697392 14.258634 
L 18.704282 14.277617 
L 18.737824 14.388875 
L 18.765814 14.500133 
L 18.789925 14.611391 
L 18.811563 14.722649 
L 18.826162 14.803024 
L 18.831745 14.833908 
L 18.851027 14.945166 
L 18.869362 15.056424 
L 18.886341 15.167682 
L 18.901303 15.27894 
L 18.913525 15.390199 
L 18.922388 15.501457 
L 18.92749 15.612715 
L 18.928678 15.723973 
L 18.926022 15.835232 
L 18.919729 15.94649 
L 18.910032 16.057748 
L 18.897069 16.169006 
L 18.880774 16.280264 
L 18.860822 16.391523 
L 18.836622 16.502781 
L 18.826162 16.542927 
L 18.806578 16.614039 
L 18.76979 16.725297 
L 18.725875 16.836556 
L 18.697392 16.898262 
L 18.67296 16.947814 
L 18.609997 17.059072 
L 18.568622 17.123871 
L 18.536722 17.17033 
L 18.452373 17.281588 
L 18.439851 17.296829 
L 18.354488 17.392847 
L 18.311081 17.438719 
L 18.243642 17.504105 
L 18.182311 17.561106 
L 18.118472 17.615363 
L 18.053541 17.669403 
L 17.978599 17.726621 
L 17.924771 17.767788 
L 17.825822 17.837879 
L 17.796001 17.859506 
L 17.667231 17.946955 
L 17.663772 17.949138 
L 17.538461 18.031775 
L 17.491968 18.060396 
L 17.40969 18.113096 
L 17.309321 18.171654 
L 17.28092 18.188419 
L 17.15215 18.253852 
L 17.08153 18.282912 
L 17.02338 18.305575 
L 16.89461 18.342244 
L 16.76584 18.365407 
L 16.63707 18.377268 
L 16.5083 18.381116 
L 16.379529 18.380511 
L 16.250759 18.378672 
L 16.121989 18.378144 
L 15.993219 18.380692 
L 15.864449 18.387321 
L 15.785929 18.394171 
L 15.735679 18.398446 
L 15.606909 18.414085 
L 15.478139 18.433424 
L 15.349369 18.455257 
L 15.220598 18.478002 
L 15.091828 18.499803 
L 15.053364 18.505429 
L 14.963058 18.519164 
L 14.834288 18.533322 
L 14.705518 18.539818 
L 14.576748 18.536593 
L 14.447978 18.521805 
z
" clip-path="url(#pde8ebd7e90)" style="fill: #fc9070"/>
    <path d="M 14.447978 18.521805 
L 14.576748 18.536593 
L 14.705518 18.539818 
L 14.834288 18.533322 
L 14.963058 18.519164 
L 15.053364 18.505429 
L 15.091828 18.499803 
L 15.220598 18.478002 
L 15.349369 18.455257 
L 15.478139 18.433424 
L 15.606909 18.414085 
L 15.735679 18.398446 
L 15.785929 18.394171 
L 15.864449 18.387321 
L 15.993219 18.380692 
L 16.121989 18.378144 
L 16.250759 18.378672 
L 16.379529 18.380511 
L 16.5083 18.381116 
L 16.63707 18.377268 
L 16.76584 18.365407 
L 16.89461 18.342244 
L 17.02338 18.305575 
L 17.08153 18.282912 
L 17.15215 18.253852 
L 17.28092 18.188419 
L 17.309321 18.171654 
L 17.40969 18.113096 
L 17.491968 18.060396 
L 17.538461 18.031775 
L 17.663772 17.949138 
L 17.667231 17.946955 
L 17.796001 17.859506 
L 17.825822 17.837879 
L 17.924771 17.767788 
L 17.978599 17.726621 
L 18.053541 17.669403 
L 18.118472 17.615363 
L 18.182311 17.561106 
L 18.243642 17.504105 
L 18.311081 17.438719 
L 18.354488 17.392847 
L 18.439851 17.296829 
L 18.452373 17.281588 
L 18.536722 17.17033 
L 18.568622 17.123871 
L 18.609997 17.059072 
L 18.67296 16.947814 
L 18.697392 16.898262 
L 18.725875 16.836556 
L 18.76979 16.725297 
L 18.806578 16.614039 
L 18.826162 16.542927 
L 18.836622 16.502781 
L 18.860822 16.391523 
L 18.880774 16.280264 
L 18.897069 16.169006 
L 18.910032 16.057748 
L 18.919729 15.94649 
L 18.926022 15.835232 
L 18.928678 15.723973 
L 18.92749 15.612715 
L 18.922388 15.501457 
L 18.913525 15.390199 
L 18.901303 15.27894 
L 18.886341 15.167682 
L 18.869362 15.056424 
L 18.851027 14.945166 
L 18.831745 14.833908 
L 18.826162 14.803024 
L 18.811563 14.722649 
L 18.789925 14.611391 
L 18.765814 14.500133 
L 18.737824 14.388875 
L 18.704282 14.277617 
L 18.697392 14.258634 
L 18.663883 14.166358 
L 18.615005 14.0551 
L 18.568622 13.966759 
L 18.556713 13.943842 
L 18.489757 13.832584 
L 18.439851 13.759709 
L 18.414065 13.721325 
L 18.331618 13.610067 
L 18.311081 13.584263 
L 18.244304 13.498809 
L 18.182311 13.423785 
L 18.152627 13.387551 
L 18.057598 13.276293 
L 18.053541 13.271644 
L 17.958991 13.165034 
L 17.924771 13.127589 
L 17.854448 13.053776 
L 17.796001 12.994545 
L 17.740938 12.942518 
L 17.667231 12.875703 
L 17.613133 12.83126 
L 17.538461 12.772654 
L 17.462565 12.720001 
L 17.40969 12.684969 
L 17.28092 12.610771 
L 17.276953 12.608743 
L 17.15215 12.547183 
L 17.035966 12.497485 
L 17.02338 12.492247 
L 16.89461 12.443144 
L 16.76584 12.398944 
L 16.726015 12.386227 
L 16.63707 12.35797 
L 16.5083 12.319977 
L 16.379529 12.285186 
L 16.338179 12.274969 
L 16.250759 12.253092 
L 16.121989 12.224427 
L 15.993219 12.199978 
L 15.864449 12.180205 
L 15.735679 12.165538 
L 15.71029 12.16371 
L 15.606909 12.156066 
L 15.478139 12.152499 
L 15.349369 12.155059 
L 15.220598 12.16371 
L 15.220598 12.16371 
L 15.091828 12.177648 
L 14.963058 12.196701 
L 14.834288 12.22016 
L 14.705518 12.247148 
L 14.584156 12.274969 
L 14.576748 12.276613 
L 14.447978 12.30661 
L 14.319208 12.337162 
L 14.190437 12.367467 
L 14.107858 12.386227 
L 14.061667 12.396792 
L 13.932897 12.424939 
L 13.804127 12.452444 
L 13.675357 12.48001 
L 13.596335 12.497485 
L 13.546587 12.509161 
L 13.417817 12.5422 
L 13.289047 12.581261 
L 13.213629 12.608743 
L 13.160277 12.630072 
L 13.031506 12.692498 
L 12.984328 12.720001 
L 12.902736 12.772642 
L 12.825196 12.83126 
L 12.773966 12.873886 
L 12.700732 12.942518 
L 12.645196 12.998856 
L 12.595428 13.053776 
L 12.516426 13.146229 
L 12.501231 13.165034 
L 12.414761 13.276293 
L 12.387656 13.312278 
L 12.333131 13.387551 
L 12.258886 13.494132 
L 12.25572 13.498809 
L 12.182662 13.610067 
L 12.130116 13.694563 
L 12.113899 13.721325 
L 12.049128 13.832584 
L 12.001345 13.919544 
L 11.988188 13.943842 
L 11.929688 14.0551 
L 11.874273 14.166358 
L 11.872575 14.169842 
L 11.81949 14.277617 
L 11.767731 14.388875 
L 11.743805 14.4437 
L 11.718329 14.500133 
L 11.672551 14.611391 
L 11.633304 14.722649 
L 11.615035 14.78635 
L 11.600628 14.833908 
L 11.575481 14.945166 
L 11.559673 15.056424 
L 11.552926 15.167682 
L 11.554545 15.27894 
L 11.563575 15.390199 
L 11.578932 15.501457 
L 11.599481 15.612715 
L 11.615035 15.683662 
L 11.623401 15.723973 
L 11.648979 15.835232 
L 11.67655 15.94649 
L 11.705437 16.057748 
L 11.735307 16.169006 
L 11.743805 16.200806 
L 11.765306 16.280264 
L 11.797386 16.391523 
L 11.834143 16.502781 
L 11.872575 16.599398 
L 11.878683 16.614039 
L 11.934245 16.725297 
L 12.001345 16.827707 
L 12.00746 16.836556 
L 12.100762 16.947814 
L 12.130116 16.976789 
L 12.216639 17.059072 
L 12.258886 17.0941 
L 12.352869 17.17033 
L 12.387656 17.196119 
L 12.504234 17.281588 
L 12.516426 17.290064 
L 12.645196 17.37973 
L 12.664097 17.392847 
L 12.773966 17.467609 
L 12.82764 17.504105 
L 12.902736 17.555069 
L 12.990712 17.615363 
L 13.031506 17.643608 
L 13.14872 17.726621 
L 13.160277 17.734945 
L 13.289047 17.830933 
L 13.298054 17.837879 
L 13.417817 17.931829 
L 13.439383 17.949138 
L 13.546587 18.035775 
L 13.577089 18.060396 
L 13.675357 18.138992 
L 13.717853 18.171654 
L 13.804127 18.236227 
L 13.872491 18.282912 
L 13.932897 18.322589 
L 14.060294 18.394171 
L 14.061667 18.394911 
L 14.190437 18.452154 
L 14.319208 18.494056 
L 14.371612 18.505429 
z
M 14.644336 18.060396 
L 14.576748 18.052725 
L 14.447978 18.023637 
L 14.319208 17.978189 
L 14.25816 17.949138 
L 14.190437 17.91576 
L 14.062633 17.837879 
L 14.061667 17.837277 
L 13.932897 17.746412 
L 13.907018 17.726621 
L 13.804127 17.648067 
L 13.762658 17.615363 
L 13.675357 17.547561 
L 13.619452 17.504105 
L 13.546587 17.448676 
L 13.472145 17.392847 
L 13.417817 17.35288 
L 13.319554 17.281588 
L 13.289047 17.259658 
L 13.164579 17.17033 
L 13.160277 17.167222 
L 13.031506 17.073125 
L 13.01268 17.059072 
L 12.902736 16.973788 
L 12.870437 16.947814 
L 12.773966 16.865282 
L 12.741841 16.836556 
L 12.645196 16.74241 
L 12.628455 16.725297 
L 12.529769 16.614039 
L 12.516426 16.597496 
L 12.443915 16.502781 
L 12.387656 16.419842 
L 12.369373 16.391523 
L 12.303357 16.280264 
L 12.258886 16.196918 
L 12.244601 16.169006 
L 12.191409 16.057748 
L 12.144 15.94649 
L 12.130116 15.910583 
L 12.10154 15.835232 
L 12.064876 15.723973 
L 12.034801 15.612715 
L 12.011908 15.501457 
L 12.001345 15.423636 
L 11.996684 15.390199 
L 11.989833 15.27894 
L 11.992264 15.167682 
L 12.001345 15.083726 
L 12.004244 15.056424 
L 12.025339 14.945166 
L 12.055632 14.833908 
L 12.094558 14.722649 
L 12.130116 14.637323 
L 12.141092 14.611391 
L 12.193747 14.500133 
L 12.252153 14.388875 
L 12.258886 14.376686 
L 12.315847 14.277617 
L 12.38428 14.166358 
L 12.387656 14.161021 
L 12.458906 14.0551 
L 12.516426 13.973612 
L 12.539156 13.943842 
L 12.626304 13.832584 
L 12.645196 13.808883 
L 12.721332 13.721325 
L 12.773966 13.661447 
L 12.82345 13.610067 
L 12.902736 13.527645 
L 12.933085 13.498809 
L 13.031506 13.405148 
L 13.051636 13.387551 
L 13.160277 13.293961 
L 13.182497 13.276293 
L 13.289047 13.195346 
L 13.332238 13.165034 
L 13.417817 13.109626 
L 13.511602 13.053776 
L 13.546587 13.035038 
L 13.675357 12.970494 
L 13.734759 12.942518 
L 13.804127 12.91332 
L 13.932897 12.861964 
L 14.014167 12.83126 
L 14.061667 12.814868 
L 14.190437 12.772088 
L 14.319208 12.73212 
L 14.360816 12.720001 
L 14.447978 12.695747 
L 14.576748 12.662827 
L 14.705518 12.63352 
L 14.832261 12.608743 
L 14.834288 12.608348 
L 14.963058 12.58775 
L 15.091828 12.572159 
L 15.220598 12.561928 
L 15.349369 12.557284 
L 15.478139 12.558329 
L 15.606909 12.565071 
L 15.735679 12.577454 
L 15.864449 12.595388 
L 15.938466 12.608743 
L 15.993219 12.618537 
L 16.121989 12.646516 
L 16.250759 12.679458 
L 16.379529 12.717253 
L 16.38804 12.720001 
L 16.5083 12.759035 
L 16.63707 12.805601 
L 16.701745 12.83126 
L 16.76584 12.857095 
L 16.89461 12.914405 
L 16.951544 12.942518 
L 17.02338 12.979038 
L 17.15215 13.053067 
L 17.153266 13.053776 
L 17.28092 13.138439 
L 17.316667 13.165034 
L 17.40969 13.23796 
L 17.454076 13.276293 
L 17.538461 13.353836 
L 17.572559 13.387551 
L 17.667231 13.488182 
L 17.676766 13.498809 
L 17.76937 13.610067 
L 17.796001 13.645519 
L 17.852179 13.721325 
L 17.924771 13.831904 
L 17.92522 13.832584 
L 17.989846 13.943842 
L 18.044894 14.0551 
L 18.053541 14.075884 
L 18.09218 14.166358 
L 18.131756 14.277617 
L 18.164926 14.388875 
L 18.182311 14.456671 
L 18.193732 14.500133 
L 18.219955 14.611391 
L 18.244647 14.722649 
L 18.26877 14.833908 
L 18.292607 14.945166 
L 18.311081 15.033652 
L 18.315874 15.056424 
L 18.337943 15.167682 
L 18.357254 15.27894 
L 18.372571 15.390199 
L 18.382808 15.501457 
L 18.387144 15.612715 
L 18.385069 15.723973 
L 18.376362 15.835232 
L 18.361031 15.94649 
L 18.339214 16.057748 
L 18.311081 16.169006 
L 18.311081 16.169006 
L 18.276431 16.280264 
L 18.234852 16.391523 
L 18.185832 16.502781 
L 18.182311 16.509944 
L 18.127271 16.614039 
L 18.058306 16.725297 
L 18.053541 16.732214 
L 17.97507 16.836556 
L 17.924771 16.895371 
L 17.875506 16.947814 
L 17.796001 17.023834 
L 17.755416 17.059072 
L 17.667231 17.129303 
L 17.610626 17.17033 
L 17.538461 17.219317 
L 17.43824 17.281588 
L 17.40969 17.298549 
L 17.28092 17.370034 
L 17.236862 17.392847 
L 17.15215 17.435768 
L 17.02338 17.495957 
L 17.004839 17.504105 
L 16.89461 17.55225 
L 16.76584 17.602984 
L 16.731882 17.615363 
L 16.63707 17.649938 
L 16.5083 17.692256 
L 16.39263 17.726621 
L 16.379529 17.7305 
L 16.250759 17.767122 
L 16.121989 17.801419 
L 15.993219 17.834469 
L 15.980252 17.837879 
L 15.864449 17.867844 
L 15.735679 17.900779 
L 15.606909 17.933132 
L 15.542069 17.949138 
L 15.478139 17.964746 
L 15.349369 17.994697 
L 15.220598 18.021617 
L 15.091828 18.04414 
L 14.96454 18.060396 
L 14.963058 18.060588 
L 14.834288 18.069044 
L 14.705518 18.06716 
z
" clip-path="url(#pde8ebd7e90)" style="fill: #fb6c4c"/>
    <path d="M 14.705518 18.06716 
L 14.834288 18.069044 
L 14.963058 18.060588 
L 14.96454 18.060396 
L 15.091828 18.04414 
L 15.220598 18.021617 
L 15.349369 17.994697 
L 15.478139 17.964746 
L 15.542069 17.949138 
L 15.606909 17.933132 
L 15.735679 17.900779 
L 15.864449 17.867844 
L 15.980252 17.837879 
L 15.993219 17.834469 
L 16.121989 17.801419 
L 16.250759 17.767122 
L 16.379529 17.7305 
L 16.39263 17.726621 
L 16.5083 17.692256 
L 16.63707 17.649938 
L 16.731882 17.615363 
L 16.76584 17.602984 
L 16.89461 17.55225 
L 17.004839 17.504105 
L 17.02338 17.495957 
L 17.15215 17.435768 
L 17.236862 17.392847 
L 17.28092 17.370034 
L 17.40969 17.298549 
L 17.43824 17.281588 
L 17.538461 17.219317 
L 17.610626 17.17033 
L 17.667231 17.129303 
L 17.755416 17.059072 
L 17.796001 17.023834 
L 17.875506 16.947814 
L 17.924771 16.895371 
L 17.97507 16.836556 
L 18.053541 16.732214 
L 18.058306 16.725297 
L 18.127271 16.614039 
L 18.182311 16.509944 
L 18.185832 16.502781 
L 18.234852 16.391523 
L 18.276431 16.280264 
L 18.311081 16.169006 
L 18.311081 16.169006 
L 18.339214 16.057748 
L 18.361031 15.94649 
L 18.376362 15.835232 
L 18.385069 15.723973 
L 18.387144 15.612715 
L 18.382808 15.501457 
L 18.372571 15.390199 
L 18.357254 15.27894 
L 18.337943 15.167682 
L 18.315874 15.056424 
L 18.311081 15.033652 
L 18.292607 14.945166 
L 18.26877 14.833908 
L 18.244647 14.722649 
L 18.219955 14.611391 
L 18.193732 14.500133 
L 18.182311 14.456671 
L 18.164926 14.388875 
L 18.131756 14.277617 
L 18.09218 14.166358 
L 18.053541 14.075884 
L 18.044894 14.0551 
L 17.989846 13.943842 
L 17.92522 13.832584 
L 17.924771 13.831904 
L 17.852179 13.721325 
L 17.796001 13.645519 
L 17.76937 13.610067 
L 17.676766 13.498809 
L 17.667231 13.488182 
L 17.572559 13.387551 
L 17.538461 13.353836 
L 17.454076 13.276293 
L 17.40969 13.23796 
L 17.316667 13.165034 
L 17.28092 13.138439 
L 17.153266 13.053776 
L 17.15215 13.053067 
L 17.02338 12.979038 
L 16.951544 12.942518 
L 16.89461 12.914405 
L 16.76584 12.857095 
L 16.701745 12.83126 
L 16.63707 12.805601 
L 16.5083 12.759035 
L 16.38804 12.720001 
L 16.379529 12.717253 
L 16.250759 12.679458 
L 16.121989 12.646516 
L 15.993219 12.618537 
L 15.938466 12.608743 
L 15.864449 12.595388 
L 15.735679 12.577454 
L 15.606909 12.565071 
L 15.478139 12.558329 
L 15.349369 12.557284 
L 15.220598 12.561928 
L 15.091828 12.572159 
L 14.963058 12.58775 
L 14.834288 12.608348 
L 14.832261 12.608743 
L 14.705518 12.63352 
L 14.576748 12.662827 
L 14.447978 12.695747 
L 14.360816 12.720001 
L 14.319208 12.73212 
L 14.190437 12.772088 
L 14.061667 12.814868 
L 14.014167 12.83126 
L 13.932897 12.861964 
L 13.804127 12.91332 
L 13.734759 12.942518 
L 13.675357 12.970494 
L 13.546587 13.035038 
L 13.511602 13.053776 
L 13.417817 13.109626 
L 13.332238 13.165034 
L 13.289047 13.195346 
L 13.182497 13.276293 
L 13.160277 13.293961 
L 13.051636 13.387551 
L 13.031506 13.405148 
L 12.933085 13.498809 
L 12.902736 13.527645 
L 12.82345 13.610067 
L 12.773966 13.661447 
L 12.721332 13.721325 
L 12.645196 13.808883 
L 12.626304 13.832584 
L 12.539156 13.943842 
L 12.516426 13.973612 
L 12.458906 14.0551 
L 12.387656 14.161021 
L 12.38428 14.166358 
L 12.315847 14.277617 
L 12.258886 14.376686 
L 12.252153 14.388875 
L 12.193747 14.500133 
L 12.141092 14.611391 
L 12.130116 14.637323 
L 12.094558 14.722649 
L 12.055632 14.833908 
L 12.025339 14.945166 
L 12.004244 15.056424 
L 12.001345 15.083726 
L 11.992264 15.167682 
L 11.989833 15.27894 
L 11.996684 15.390199 
L 12.001345 15.423636 
L 12.011908 15.501457 
L 12.034801 15.612715 
L 12.064876 15.723973 
L 12.10154 15.835232 
L 12.130116 15.910583 
L 12.144 15.94649 
L 12.191409 16.057748 
L 12.244601 16.169006 
L 12.258886 16.196918 
L 12.303357 16.280264 
L 12.369373 16.391523 
L 12.387656 16.419842 
L 12.443915 16.502781 
L 12.516426 16.597496 
L 12.529769 16.614039 
L 12.628455 16.725297 
L 12.645196 16.74241 
L 12.741841 16.836556 
L 12.773966 16.865282 
L 12.870437 16.947814 
L 12.902736 16.973788 
L 13.01268 17.059072 
L 13.031506 17.073125 
L 13.160277 17.167222 
L 13.164579 17.17033 
L 13.289047 17.259658 
L 13.319554 17.281588 
L 13.417817 17.35288 
L 13.472145 17.392847 
L 13.546587 17.448676 
L 13.619452 17.504105 
L 13.675357 17.547561 
L 13.762658 17.615363 
L 13.804127 17.648067 
L 13.907018 17.726621 
L 13.932897 17.746412 
L 14.061667 17.837277 
L 14.062633 17.837879 
L 14.190437 17.91576 
L 14.25816 17.949138 
L 14.319208 17.978189 
L 14.447978 18.023637 
L 14.576748 18.052725 
L 14.644336 18.060396 
z
M 14.444548 17.504105 
L 14.319208 17.443552 
L 14.232895 17.392847 
L 14.190437 17.367687 
L 14.061667 17.281962 
L 14.061144 17.281588 
L 13.932897 17.191137 
L 13.904306 17.17033 
L 13.804127 17.098518 
L 13.749598 17.059072 
L 13.675357 17.005956 
L 13.594409 16.947814 
L 13.546587 16.91348 
L 13.44081 16.836556 
L 13.417817 16.819596 
L 13.293743 16.725297 
L 13.289047 16.721621 
L 13.160277 16.615916 
L 13.158111 16.614039 
L 13.03612 16.502781 
L 13.031506 16.498342 
L 12.927686 16.391523 
L 12.902736 16.364209 
L 12.831092 16.280264 
L 12.773966 16.20844 
L 12.744587 16.169006 
L 12.667634 16.057748 
L 12.645196 16.022465 
L 12.599744 15.94649 
L 12.540624 15.835232 
L 12.516426 15.78245 
L 12.490967 15.723973 
L 12.451597 15.612715 
L 12.422623 15.501457 
L 12.404833 15.390199 
L 12.39889 15.27894 
L 12.405206 15.167682 
L 12.42385 15.056424 
L 12.4545 14.945166 
L 12.496455 14.833908 
L 12.516426 14.790707 
L 12.55036 14.722649 
L 12.614779 14.611391 
L 12.645196 14.564055 
L 12.690439 14.500133 
L 12.773966 14.391241 
L 12.776001 14.388875 
L 12.876122 14.277617 
L 12.902736 14.249152 
L 12.990364 14.166358 
L 13.031506 14.128187 
L 13.120569 14.0551 
L 13.160277 14.02241 
L 13.266273 13.943842 
L 13.289047 13.926551 
L 13.417817 13.835546 
L 13.422212 13.832584 
L 13.546587 13.744478 
L 13.57943 13.721325 
L 13.675357 13.650755 
L 13.729728 13.610067 
L 13.804127 13.553788 
L 13.875677 13.498809 
L 13.932897 13.456565 
L 14.026823 13.387551 
L 14.061667 13.364164 
L 14.190437 13.280794 
L 14.197765 13.276293 
L 14.319208 13.210943 
L 14.412687 13.165034 
L 14.447978 13.14983 
L 14.576748 13.100423 
L 14.705518 13.057962 
L 14.720674 13.053776 
L 14.834288 13.025641 
L 14.963058 13.00035 
L 15.091828 12.981733 
L 15.220598 12.969786 
L 15.349369 12.964438 
L 15.478139 12.96557 
L 15.606909 12.973031 
L 15.735679 12.986664 
L 15.864449 13.006324 
L 15.993219 13.031895 
L 16.082936 13.053776 
L 16.121989 13.063568 
L 16.250759 13.10146 
L 16.379529 13.144841 
L 16.432682 13.165034 
L 16.5083 13.194683 
L 16.63707 13.251105 
L 16.6887 13.276293 
L 16.76584 13.315791 
L 16.890872 13.387551 
L 16.89461 13.389849 
L 17.02338 13.47778 
L 17.051103 13.498809 
L 17.15215 13.583383 
L 17.181217 13.610067 
L 17.28092 13.713769 
L 17.287675 13.721325 
L 17.374006 13.832584 
L 17.40969 13.887524 
L 17.444762 13.943842 
L 17.501834 14.0551 
L 17.538461 14.143478 
L 17.547814 14.166358 
L 17.58468 14.277617 
L 17.615169 14.388875 
L 17.641782 14.500133 
L 17.666836 14.611391 
L 17.667231 14.613124 
L 17.692226 14.722649 
L 17.718686 14.833908 
L 17.7461 14.945166 
L 17.77345 15.056424 
L 17.796001 15.154254 
L 17.799104 15.167682 
L 17.821213 15.27894 
L 17.837503 15.390199 
L 17.846203 15.501457 
L 17.845875 15.612715 
L 17.835441 15.723973 
L 17.814134 15.835232 
L 17.796001 15.897865 
L 17.781485 15.94649 
L 17.737104 16.057748 
L 17.680366 16.169006 
L 17.667231 16.191004 
L 17.61047 16.280264 
L 17.538461 16.376538 
L 17.5264 16.391523 
L 17.426463 16.502781 
L 17.40969 16.519771 
L 17.308899 16.614039 
L 17.28092 16.638223 
L 17.172078 16.725297 
L 17.15215 16.740294 
L 17.02338 16.830729 
L 17.014567 16.836556 
L 16.89461 16.912485 
L 16.834776 16.947814 
L 16.76584 16.986968 
L 16.63707 17.05513 
L 16.62926 17.059072 
L 16.5083 17.118105 
L 16.392788 17.17033 
L 16.379529 17.176152 
L 16.250759 17.23056 
L 16.121989 17.281588 
L 16.121989 17.281588 
L 15.993219 17.330525 
L 15.864449 17.377125 
L 15.819445 17.392847 
L 15.735679 17.421816 
L 15.606909 17.463947 
L 15.478139 17.50269 
L 15.472835 17.504105 
L 15.349369 17.537026 
L 15.220598 17.56531 
L 15.091828 17.585902 
L 14.963058 17.596893 
L 14.834288 17.596204 
L 14.705518 17.581787 
L 14.576748 17.551944 
L 14.447978 17.505725 
z
" clip-path="url(#pde8ebd7e90)" style="fill: #f03f2e"/>
    <path d="M 14.447978 17.505725 
L 14.576748 17.551944 
L 14.705518 17.581787 
L 14.834288 17.596204 
L 14.963058 17.596893 
L 15.091828 17.585902 
L 15.220598 17.56531 
L 15.349369 17.537026 
L 15.472835 17.504105 
L 15.478139 17.50269 
L 15.606909 17.463947 
L 15.735679 17.421816 
L 15.819445 17.392847 
L 15.864449 17.377125 
L 15.993219 17.330525 
L 16.121989 17.281588 
L 16.121989 17.281588 
L 16.250759 17.23056 
L 16.379529 17.176152 
L 16.392788 17.17033 
L 16.5083 17.118105 
L 16.62926 17.059072 
L 16.63707 17.05513 
L 16.76584 16.986968 
L 16.834776 16.947814 
L 16.89461 16.912485 
L 17.014567 16.836556 
L 17.02338 16.830729 
L 17.15215 16.740294 
L 17.172078 16.725297 
L 17.28092 16.638223 
L 17.308899 16.614039 
L 17.40969 16.519771 
L 17.426463 16.502781 
L 17.5264 16.391523 
L 17.538461 16.376538 
L 17.61047 16.280264 
L 17.667231 16.191004 
L 17.680366 16.169006 
L 17.737104 16.057748 
L 17.781485 15.94649 
L 17.796001 15.897865 
L 17.814134 15.835232 
L 17.835441 15.723973 
L 17.845875 15.612715 
L 17.846203 15.501457 
L 17.837503 15.390199 
L 17.821213 15.27894 
L 17.799104 15.167682 
L 17.796001 15.154254 
L 17.77345 15.056424 
L 17.7461 14.945166 
L 17.718686 14.833908 
L 17.692226 14.722649 
L 17.667231 14.613124 
L 17.666836 14.611391 
L 17.641782 14.500133 
L 17.615169 14.388875 
L 17.58468 14.277617 
L 17.547814 14.166358 
L 17.538461 14.143478 
L 17.501834 14.0551 
L 17.444762 13.943842 
L 17.40969 13.887524 
L 17.374006 13.832584 
L 17.287675 13.721325 
L 17.28092 13.713769 
L 17.181217 13.610067 
L 17.15215 13.583383 
L 17.051103 13.498809 
L 17.02338 13.47778 
L 16.89461 13.389849 
L 16.890872 13.387551 
L 16.76584 13.315791 
L 16.6887 13.276293 
L 16.63707 13.251105 
L 16.5083 13.194683 
L 16.432682 13.165034 
L 16.379529 13.144841 
L 16.250759 13.10146 
L 16.121989 13.063568 
L 16.082936 13.053776 
L 15.993219 13.031895 
L 15.864449 13.006324 
L 15.735679 12.986664 
L 15.606909 12.973031 
L 15.478139 12.96557 
L 15.349369 12.964438 
L 15.220598 12.969786 
L 15.091828 12.981733 
L 14.963058 13.00035 
L 14.834288 13.025641 
L 14.720674 13.053776 
L 14.705518 13.057962 
L 14.576748 13.100423 
L 14.447978 13.14983 
L 14.412687 13.165034 
L 14.319208 13.210943 
L 14.197765 13.276293 
L 14.190437 13.280794 
L 14.061667 13.364164 
L 14.026823 13.387551 
L 13.932897 13.456565 
L 13.875677 13.498809 
L 13.804127 13.553788 
L 13.729728 13.610067 
L 13.675357 13.650755 
L 13.57943 13.721325 
L 13.546587 13.744478 
L 13.422212 13.832584 
L 13.417817 13.835546 
L 13.289047 13.926551 
L 13.266273 13.943842 
L 13.160277 14.02241 
L 13.120569 14.0551 
L 13.031506 14.128187 
L 12.990364 14.166358 
L 12.902736 14.249152 
L 12.876122 14.277617 
L 12.776001 14.388875 
L 12.773966 14.391241 
L 12.690439 14.500133 
L 12.645196 14.564055 
L 12.614779 14.611391 
L 12.55036 14.722649 
L 12.516426 14.790707 
L 12.496455 14.833908 
L 12.4545 14.945166 
L 12.42385 15.056424 
L 12.405206 15.167682 
L 12.39889 15.27894 
L 12.404833 15.390199 
L 12.422623 15.501457 
L 12.451597 15.612715 
L 12.490967 15.723973 
L 12.516426 15.78245 
L 12.540624 15.835232 
L 12.599744 15.94649 
L 12.645196 16.022465 
L 12.667634 16.057748 
L 12.744587 16.169006 
L 12.773966 16.20844 
L 12.831092 16.280264 
L 12.902736 16.364209 
L 12.927686 16.391523 
L 13.031506 16.498342 
L 13.03612 16.502781 
L 13.158111 16.614039 
L 13.160277 16.615916 
L 13.289047 16.721621 
L 13.293743 16.725297 
L 13.417817 16.819596 
L 13.44081 16.836556 
L 13.546587 16.91348 
L 13.594409 16.947814 
L 13.675357 17.005956 
L 13.749598 17.059072 
L 13.804127 17.098518 
L 13.904306 17.17033 
L 13.932897 17.191137 
L 14.061144 17.281588 
L 14.061667 17.281962 
L 14.190437 17.367687 
L 14.232895 17.392847 
L 14.319208 17.443552 
L 14.444548 17.504105 
z
M 14.621986 17.059072 
L 14.576748 17.043895 
L 14.447978 16.986736 
L 14.375416 16.947814 
L 14.319208 16.917152 
L 14.190437 16.838409 
L 14.187619 16.836556 
L 14.061667 16.753079 
L 14.021228 16.725297 
L 13.932897 16.663858 
L 13.862573 16.614039 
L 13.804127 16.571761 
L 13.710278 16.502781 
L 13.675357 16.476302 
L 13.56628 16.391523 
L 13.546587 16.375575 
L 13.433401 16.280264 
L 13.417817 16.266465 
L 13.313491 16.169006 
L 13.289047 16.144751 
L 13.2069 16.057748 
L 13.160277 16.004503 
L 13.113057 15.94649 
L 13.031506 15.835659 
L 13.031215 15.835232 
L 12.965914 15.723973 
L 12.91284 15.612715 
L 12.902736 15.583309 
L 12.876874 15.501457 
L 12.857249 15.390199 
L 12.854395 15.27894 
L 12.869043 15.167682 
L 12.901175 15.056424 
L 12.902736 15.0528 
L 12.955795 14.945166 
L 13.027736 14.833908 
L 13.031506 14.828988 
L 13.126469 14.722649 
L 13.160277 14.68903 
L 13.252437 14.611391 
L 13.289047 14.582685 
L 13.413868 14.500133 
L 13.417817 14.497607 
L 13.546587 14.427635 
L 13.629876 14.388875 
L 13.675357 14.367313 
L 13.804127 14.313645 
L 13.899625 14.277617 
L 13.932897 14.263999 
L 14.061667 14.215088 
L 14.190437 14.166358 
L 14.190437 14.166358 
L 14.319208 14.111104 
L 14.438211 14.0551 
L 14.447978 14.049496 
L 14.576748 13.971553 
L 14.618245 13.943842 
L 14.705518 13.876305 
L 14.758727 13.832584 
L 14.834288 13.771443 
L 14.896794 13.721325 
L 14.963058 13.677296 
L 15.074809 13.610067 
L 15.091828 13.60227 
L 15.220598 13.552597 
L 15.349369 13.515477 
L 15.436925 13.498809 
L 15.478139 13.492811 
L 15.606909 13.483282 
L 15.735679 13.483406 
L 15.864449 13.492731 
L 15.906219 13.498809 
L 15.993219 13.512429 
L 16.121989 13.541975 
L 16.250759 13.580187 
L 16.331565 13.610067 
L 16.379529 13.629398 
L 16.5083 13.692479 
L 16.558054 13.721325 
L 16.63707 13.773238 
L 16.714219 13.832584 
L 16.76584 13.879348 
L 16.827487 13.943842 
L 16.89461 14.029833 
L 16.912076 14.0551 
L 16.973221 14.166358 
L 17.021385 14.277617 
L 17.02338 14.283309 
L 17.057098 14.388875 
L 17.087847 14.500133 
L 17.117144 14.611391 
L 17.147531 14.722649 
L 17.15215 14.738335 
L 17.17844 14.833908 
L 17.211078 14.945166 
L 17.244335 15.056424 
L 17.275744 15.167682 
L 17.28092 15.189486 
L 17.300991 15.27894 
L 17.318116 15.390199 
L 17.324619 15.501457 
L 17.318195 15.612715 
L 17.297109 15.723973 
L 17.28092 15.773316 
L 17.259156 15.835232 
L 17.203356 15.94649 
L 17.15215 16.02513 
L 17.12921 16.057748 
L 17.035149 16.169006 
L 17.02338 16.181171 
L 16.920186 16.280264 
L 16.89461 16.302484 
L 16.784988 16.391523 
L 16.76584 16.406004 
L 16.63707 16.497741 
L 16.629614 16.502781 
L 16.5083 16.580587 
L 16.45328 16.614039 
L 16.379529 16.656935 
L 16.255383 16.725297 
L 16.250759 16.727744 
L 16.121989 16.792706 
L 16.029988 16.836556 
L 15.993219 16.853456 
L 15.864449 16.909342 
L 15.769389 16.947814 
L 15.735679 16.961078 
L 15.606909 17.007454 
L 15.478139 17.048457 
L 15.437986 17.059072 
L 15.349369 17.082181 
L 15.220598 17.107264 
L 15.091828 17.122031 
L 14.963058 17.124519 
L 14.834288 17.112989 
L 14.705518 17.086267 
z
" clip-path="url(#pde8ebd7e90)" style="fill: #d01d1f"/>
    <path d="M 14.705518 17.086267 
L 14.834288 17.112989 
L 14.963058 17.124519 
L 15.091828 17.122031 
L 15.220598 17.107264 
L 15.349369 17.082181 
L 15.437986 17.059072 
L 15.478139 17.048457 
L 15.606909 17.007454 
L 15.735679 16.961078 
L 15.769389 16.947814 
L 15.864449 16.909342 
L 15.993219 16.853456 
L 16.029988 16.836556 
L 16.121989 16.792706 
L 16.250759 16.727744 
L 16.255383 16.725297 
L 16.379529 16.656935 
L 16.45328 16.614039 
L 16.5083 16.580587 
L 16.629614 16.502781 
L 16.63707 16.497741 
L 16.76584 16.406004 
L 16.784988 16.391523 
L 16.89461 16.302484 
L 16.920186 16.280264 
L 17.02338 16.181171 
L 17.035149 16.169006 
L 17.12921 16.057748 
L 17.15215 16.02513 
L 17.203356 15.94649 
L 17.259156 15.835232 
L 17.28092 15.773316 
L 17.297109 15.723973 
L 17.318195 15.612715 
L 17.324619 15.501457 
L 17.318116 15.390199 
L 17.300991 15.27894 
L 17.28092 15.189486 
L 17.275744 15.167682 
L 17.244335 15.056424 
L 17.211078 14.945166 
L 17.17844 14.833908 
L 17.15215 14.738335 
L 17.147531 14.722649 
L 17.117144 14.611391 
L 17.087847 14.500133 
L 17.057098 14.388875 
L 17.02338 14.283309 
L 17.021385 14.277617 
L 16.973221 14.166358 
L 16.912076 14.0551 
L 16.89461 14.029833 
L 16.827487 13.943842 
L 16.76584 13.879348 
L 16.714219 13.832584 
L 16.63707 13.773238 
L 16.558054 13.721325 
L 16.5083 13.692479 
L 16.379529 13.629398 
L 16.331565 13.610067 
L 16.250759 13.580187 
L 16.121989 13.541975 
L 15.993219 13.512429 
L 15.906219 13.498809 
L 15.864449 13.492731 
L 15.735679 13.483406 
L 15.606909 13.483282 
L 15.478139 13.492811 
L 15.436925 13.498809 
L 15.349369 13.515477 
L 15.220598 13.552597 
L 15.091828 13.60227 
L 15.074809 13.610067 
L 14.963058 13.677296 
L 14.896794 13.721325 
L 14.834288 13.771443 
L 14.758727 13.832584 
L 14.705518 13.876305 
L 14.618245 13.943842 
L 14.576748 13.971553 
L 14.447978 14.049496 
L 14.438211 14.0551 
L 14.319208 14.111104 
L 14.190437 14.166358 
L 14.190437 14.166358 
L 14.061667 14.215088 
L 13.932897 14.263999 
L 13.899625 14.277617 
L 13.804127 14.313645 
L 13.675357 14.367313 
L 13.629876 14.388875 
L 13.546587 14.427635 
L 13.417817 14.497607 
L 13.413868 14.500133 
L 13.289047 14.582685 
L 13.252437 14.611391 
L 13.160277 14.68903 
L 13.126469 14.722649 
L 13.031506 14.828988 
L 13.027736 14.833908 
L 12.955795 14.945166 
L 12.902736 15.0528 
L 12.901175 15.056424 
L 12.869043 15.167682 
L 12.854395 15.27894 
L 12.857249 15.390199 
L 12.876874 15.501457 
L 12.902736 15.583309 
L 12.91284 15.612715 
L 12.965914 15.723973 
L 13.031215 15.835232 
L 13.031506 15.835659 
L 13.113057 15.94649 
L 13.160277 16.004503 
L 13.2069 16.057748 
L 13.289047 16.144751 
L 13.313491 16.169006 
L 13.417817 16.266465 
L 13.433401 16.280264 
L 13.546587 16.375575 
L 13.56628 16.391523 
L 13.675357 16.476302 
L 13.710278 16.502781 
L 13.804127 16.571761 
L 13.862573 16.614039 
L 13.932897 16.663858 
L 14.021228 16.725297 
L 14.061667 16.753079 
L 14.187619 16.836556 
L 14.190437 16.838409 
L 14.319208 16.917152 
L 14.375416 16.947814 
L 14.447978 16.986736 
L 14.576748 17.043895 
L 14.621986 17.059072 
z
M 14.613039 16.614039 
L 14.576748 16.598735 
L 14.447978 16.531999 
L 14.398578 16.502781 
L 14.319208 16.453022 
L 14.227773 16.391523 
L 14.190437 16.364773 
L 14.076284 16.280264 
L 14.061667 16.268655 
L 13.937633 16.169006 
L 13.932897 16.164885 
L 13.810341 16.057748 
L 13.804127 16.051785 
L 13.695571 15.94649 
L 13.675357 15.924506 
L 13.595503 15.835232 
L 13.546587 15.771607 
L 13.511779 15.723973 
L 13.448045 15.612715 
L 13.417817 15.533646 
L 13.406524 15.501457 
L 13.392418 15.390199 
L 13.406099 15.27894 
L 13.417817 15.248584 
L 13.456404 15.167682 
L 13.546587 15.056424 
L 13.546587 15.056424 
L 13.675357 14.962599 
L 13.70596 14.945166 
L 13.804127 14.898534 
L 13.932897 14.851033 
L 13.993464 14.833908 
L 14.061667 14.816372 
L 14.190437 14.790969 
L 14.319208 14.771706 
L 14.447978 14.756973 
L 14.576748 14.74512 
L 14.705518 14.734423 
L 14.834288 14.723069 
L 14.838311 14.722649 
L 14.963058 14.708696 
L 15.091828 14.689396 
L 15.220598 14.663035 
L 15.349369 14.627595 
L 15.397768 14.611391 
L 15.478139 14.579263 
L 15.606909 14.51891 
L 15.64588 14.500133 
L 15.735679 14.448563 
L 15.852852 14.388875 
L 15.864449 14.3824 
L 15.993219 14.339604 
L 16.121989 14.336967 
L 16.250759 14.384906 
L 16.255677 14.388875 
L 16.376114 14.500133 
L 16.379529 14.503568 
L 16.448769 14.611391 
L 16.5083 14.7055 
L 16.516434 14.722649 
L 16.571992 14.833908 
L 16.630912 14.945166 
L 16.63707 14.95653 
L 16.68159 15.056424 
L 16.729311 15.167682 
L 16.76584 15.267483 
L 16.769416 15.27894 
L 16.793212 15.390199 
L 16.801531 15.501457 
L 16.790883 15.612715 
L 16.76584 15.700966 
L 16.758522 15.723973 
L 16.699738 15.835232 
L 16.63707 15.922356 
L 16.618189 15.94649 
L 16.510814 16.057748 
L 16.5083 16.059971 
L 16.379529 16.167664 
L 16.377849 16.169006 
L 16.250759 16.25919 
L 16.220028 16.280264 
L 16.121989 16.341247 
L 16.038441 16.391523 
L 15.993219 16.416536 
L 15.864449 16.4843 
L 15.827051 16.502781 
L 15.735679 16.544375 
L 15.606909 16.597975 
L 15.562416 16.614039 
L 15.478139 16.642272 
L 15.349369 16.676778 
L 15.220598 16.700573 
L 15.091828 16.71129 
L 14.963058 16.707001 
L 14.834288 16.686676 
L 14.705518 16.650475 
z
" clip-path="url(#pde8ebd7e90)" style="fill: #ad1117"/>
    <path d="M 14.705518 16.650475 
L 14.834288 16.686676 
L 14.963058 16.707001 
L 15.091828 16.71129 
L 15.220598 16.700573 
L 15.349369 16.676778 
L 15.478139 16.642272 
L 15.562416 16.614039 
L 15.606909 16.597975 
L 15.735679 16.544375 
L 15.827051 16.502781 
L 15.864449 16.4843 
L 15.993219 16.416536 
L 16.038441 16.391523 
L 16.121989 16.341247 
L 16.220028 16.280264 
L 16.250759 16.25919 
L 16.377849 16.169006 
L 16.379529 16.167664 
L 16.5083 16.059971 
L 16.510814 16.057748 
L 16.618189 15.94649 
L 16.63707 15.922356 
L 16.699738 15.835232 
L 16.758522 15.723973 
L 16.76584 15.700966 
L 16.790883 15.612715 
L 16.801531 15.501457 
L 16.793212 15.390199 
L 16.769416 15.27894 
L 16.76584 15.267483 
L 16.729311 15.167682 
L 16.68159 15.056424 
L 16.63707 14.95653 
L 16.630912 14.945166 
L 16.571992 14.833908 
L 16.516434 14.722649 
L 16.5083 14.7055 
L 16.448769 14.611391 
L 16.379529 14.503568 
L 16.376114 14.500133 
L 16.255677 14.388875 
L 16.250759 14.384906 
L 16.121989 14.336967 
L 15.993219 14.339604 
L 15.864449 14.3824 
L 15.852852 14.388875 
L 15.735679 14.448563 
L 15.64588 14.500133 
L 15.606909 14.51891 
L 15.478139 14.579263 
L 15.397768 14.611391 
L 15.349369 14.627595 
L 15.220598 14.663035 
L 15.091828 14.689396 
L 14.963058 14.708696 
L 14.838311 14.722649 
L 14.834288 14.723069 
L 14.705518 14.734423 
L 14.576748 14.74512 
L 14.447978 14.756973 
L 14.319208 14.771706 
L 14.190437 14.790969 
L 14.061667 14.816372 
L 13.993464 14.833908 
L 13.932897 14.851033 
L 13.804127 14.898534 
L 13.70596 14.945166 
L 13.675357 14.962599 
L 13.546587 15.056424 
L 13.546587 15.056424 
L 13.456404 15.167682 
L 13.417817 15.248584 
L 13.406099 15.27894 
L 13.392418 15.390199 
L 13.406524 15.501457 
L 13.417817 15.533646 
L 13.448045 15.612715 
L 13.511779 15.723973 
L 13.546587 15.771607 
L 13.595503 15.835232 
L 13.675357 15.924506 
L 13.695571 15.94649 
L 13.804127 16.051785 
L 13.810341 16.057748 
L 13.932897 16.164885 
L 13.937633 16.169006 
L 14.061667 16.268655 
L 14.076284 16.280264 
L 14.190437 16.364773 
L 14.227773 16.391523 
L 14.319208 16.453022 
L 14.398578 16.502781 
L 14.447978 16.531999 
L 14.576748 16.598735 
L 14.613039 16.614039 
z
" clip-path="url(#pde8ebd7e90)" style="fill: #800610"/>
   </g>
   <g id="matplotlib.axis_1"/>
   <g id="matplotlib.axis_2"/>
  </g>
 </g>
 <defs>
  <clipPath id="pde8ebd7e90">
   <rect x="7.2" y="7.2" width="16.74" height="16.632"/>
  </clipPath>
 </defs>
</svg>
